# Tiled2Unity generated file. Do not modify by hand.
# Wavefront file for 'Level01-A-collider_mesh_0017.obj'

# Vertices (Count = 304)
v -30.75 -5.25 0
v -31.5 -5.25 0
v -31.5 -4.5 0
v -30.75 -4.5 0
v -31.5 -5.25 0
v -32.25 -5.25 0
v -32.25 -4.5 0
v -31.5 -4.5 0
v -30.75 -6 0
v -31.5 -6 0
v -31.5 -5.25 0
v -30.75 -5.25 0
v -31.5 -6 0
v -32.25 -6 0
v -32.25 -5.25 0
v -31.5 -5.25 0
v -18.75 -8.25 0
v -19.5 -8.25 0
v -19.5 -7.5 0
v -18.75 -7.5 0
v -19.5 -8.25 0
v -20.25 -8.25 0
v -20.25 -7.5 0
v -19.5 -7.5 0
v -18.75 -9 0
v -19.5 -9 0
v -19.5 -8.25 0
v -18.75 -8.25 0
v -19.5 -9 0
v -20.25 -9 0
v -20.25 -8.25 0
v -19.5 -8.25 0
v -19.5 -10.5 0
v -20.25 -10.5 0
v -20.25 -9.75 0
v -19.5 -9.75 0
v -20.25 -10.5 0
v -21 -10.5 0
v -21 -9.75 0
v -20.25 -9.75 0
v -41.25 -10.5 0
v -42 -10.5 0
v -42 -9.75 0
v -41.25 -9.75 0
v -42 -10.5 0
v -42.75 -10.5 0
v -42.75 -9.75 0
v -42 -9.75 0
v -19.5 -11.25 0
v -20.25 -11.25 0
v -20.25 -10.5 0
v -19.5 -10.5 0
v -20.25 -11.25 0
v -21 -11.25 0
v -21 -10.5 0
v -20.25 -10.5 0
v -41.25 -11.25 0
v -42 -11.25 0
v -42 -10.5 0
v -41.25 -10.5 0
v -42 -11.25 0
v -42.75 -11.25 0
v -42.75 -10.5 0
v -42 -10.5 0
v -18 -15 0
v -18.75 -15 0
v -18.75 -14.25 0
v -18 -14.25 0
v -18.75 -15 0
v -19.5 -15 0
v -19.5 -14.25 0
v -18.75 -14.25 0
v -14.25 -15.75 0
v -15 -15.75 0
v -15 -15 0
v -14.25 -15 0
v -15 -15.75 0
v -15.75 -15.75 0
v -15.75 -15 0
v -15 -15 0
v -18 -15.75 0
v -18.75 -15.75 0
v -18.75 -15 0
v -18 -15 0
v -18.75 -15.75 0
v -19.5 -15.75 0
v -19.5 -15 0
v -18.75 -15 0
v -6.75 -16.5 0
v -7.5 -16.5 0
v -7.5 -15.75 0
v -6.75 -15.75 0
v -7.5 -16.5 0
v -8.25 -16.5 0
v -8.25 -15.75 0
v -7.5 -15.75 0
v -14.25 -16.5 0
v -15 -16.5 0
v -15 -15.75 0
v -14.25 -15.75 0
v -15 -16.5 0
v -15.75 -16.5 0
v -15.75 -15.75 0
v -15 -15.75 0
v -6.75 -17.25 0
v -7.5 -17.25 0
v -7.5 -16.5 0
v -6.75 -16.5 0
v -7.5 -17.25 0
v -8.25 -17.25 0
v -8.25 -16.5 0
v -7.5 -16.5 0
v -18 -18 0
v -18.75 -18 0
v -18.75 -17.25 0
v -18 -17.25 0
v -18.75 -18 0
v -19.5 -18 0
v -19.5 -17.25 0
v -18.75 -17.25 0
v -13.5 -18.75 0
v -14.25 -18.75 0
v -14.25 -18 0
v -13.5 -18 0
v -14.25 -18.75 0
v -15 -18.75 0
v -15 -18 0
v -14.25 -18 0
v -18 -18.75 0
v -18.75 -18.75 0
v -18.75 -18 0
v -18 -18 0
v -18.75 -18.75 0
v -19.5 -18.75 0
v -19.5 -18 0
v -18.75 -18 0
v -13.5 -19.5 0
v -14.25 -19.5 0
v -14.25 -18.75 0
v -13.5 -18.75 0
v -14.25 -19.5 0
v -15 -19.5 0
v -15 -18.75 0
v -14.25 -18.75 0
v -19.5 -19.5 0
v -20.25 -19.5 0
v -20.25 -18.75 0
v -19.5 -18.75 0
v -20.25 -19.5 0
v -21 -19.5 0
v -21 -18.75 0
v -20.25 -18.75 0
v -3 -20.25 0
v -3.75 -20.25 0
v -3.75 -19.5 0
v -3 -19.5 0
v -3.75 -20.25 0
v -4.5 -20.25 0
v -4.5 -19.5 0
v -3.75 -19.5 0
v -19.5 -20.25 0
v -20.25 -20.25 0
v -20.25 -19.5 0
v -19.5 -19.5 0
v -20.25 -20.25 0
v -21 -20.25 0
v -21 -19.5 0
v -20.25 -19.5 0
v -3 -21 0
v -3.75 -21 0
v -3.75 -20.25 0
v -3 -20.25 0
v -3.75 -21 0
v -4.5 -21 0
v -4.5 -20.25 0
v -3.75 -20.25 0
v -14.25 -21 0
v -15 -21 0
v -15 -20.25 0
v -14.25 -20.25 0
v -15 -21 0
v -15.75 -21 0
v -15.75 -20.25 0
v -15 -20.25 0
v -4.5 -21.75 0
v -5.25 -21.75 0
v -5.25 -21 0
v -4.5 -21 0
v -5.25 -21.75 0
v -6 -21.75 0
v -6 -21 0
v -5.25 -21 0
v -14.25 -21.75 0
v -15 -21.75 0
v -15 -21 0
v -14.25 -21 0
v -15 -21.75 0
v -15.75 -21.75 0
v -15.75 -21 0
v -15 -21 0
v -4.5 -22.5 0
v -5.25 -22.5 0
v -5.25 -21.75 0
v -4.5 -21.75 0
v -5.25 -22.5 0
v -6 -22.5 0
v -6 -21.75 0
v -5.25 -21.75 0
v -12.75 -22.5 0
v -13.5 -22.5 0
v -13.5 -21.75 0
v -12.75 -21.75 0
v -13.5 -22.5 0
v -14.25 -22.5 0
v -14.25 -21.75 0
v -13.5 -21.75 0
v -12.75 -23.25 0
v -13.5 -23.25 0
v -13.5 -22.5 0
v -12.75 -22.5 0
v -13.5 -23.25 0
v -14.25 -23.25 0
v -14.25 -22.5 0
v -13.5 -22.5 0
v -6.75 -24 0
v -7.5 -24 0
v -7.5 -23.25 0
v -6.75 -23.25 0
v -7.5 -24 0
v -8.25 -24 0
v -8.25 -23.25 0
v -7.5 -23.25 0
v -6.75 -24.75 0
v -7.5 -24.75 0
v -7.5 -24 0
v -6.75 -24 0
v -7.5 -24.75 0
v -8.25 -24.75 0
v -8.25 -24 0
v -7.5 -24 0
v -40.5 -33.75 0
v -41.25 -33.75 0
v -41.25 -33 0
v -40.5 -33 0
v -41.25 -33.75 0
v -42 -33.75 0
v -42 -33 0
v -41.25 -33 0
v -40.5 -34.5 0
v -41.25 -34.5 0
v -41.25 -33.75 0
v -40.5 -33.75 0
v -41.25 -34.5 0
v -42 -34.5 0
v -42 -33.75 0
v -41.25 -33.75 0
v -42 -38.25 0
v -42.75 -38.25 0
v -42.75 -37.5 0
v -42 -37.5 0
v -42.75 -38.25 0
v -43.5 -38.25 0
v -43.5 -37.5 0
v -42.75 -37.5 0
v -42 -39 0
v -42.75 -39 0
v -42.75 -38.25 0
v -42 -38.25 0
v -42.75 -39 0
v -43.5 -39 0
v -43.5 -38.25 0
v -42.75 -38.25 0
v -39.75 -40.5 0
v -40.5 -40.5 0
v -40.5 -39.75 0
v -39.75 -39.75 0
v -40.5 -40.5 0
v -41.25 -40.5 0
v -41.25 -39.75 0
v -40.5 -39.75 0
v -39.75 -41.25 0
v -40.5 -41.25 0
v -40.5 -40.5 0
v -39.75 -40.5 0
v -40.5 -41.25 0
v -41.25 -41.25 0
v -41.25 -40.5 0
v -40.5 -40.5 0
v -28.5 -45.75 0
v -29.25 -45.75 0
v -29.25 -45 0
v -28.5 -45 0
v -29.25 -45.75 0
v -30 -45.75 0
v -30 -45 0
v -29.25 -45 0
v -28.5 -46.5 0
v -29.25 -46.5 0
v -29.25 -45.75 0
v -28.5 -45.75 0
v -29.25 -46.5 0
v -30 -46.5 0
v -30 -45.75 0
v -29.25 -45.75 0

# Texture cooridinates (Count = 45)
vt 0.5625 0.03125
vt 0.59375 0.03125
vt 0.59375 0.0625
vt 0.5625 0.0625
vt 0.625 0.03125
vt 0.625 0.0625
vt 0.5625 0
vt 0.59375 0
vt 0.625 0
vt 0.75 0.96875
vt 0.78125 0.96875
vt 0.78125 1
vt 0.75 1
vt 0.8125 0.96875
vt 0.8125 1
vt 0.75 0.9375
vt 0.78125 0.9375
vt 0.8125 0.9375
vt 0.6875 0.65625
vt 0.71875 0.65625
vt 0.71875 0.6875
vt 0.6875 0.6875
vt 0.75 0.65625
vt 0.75 0.6875
vt 0.75 0.59375
vt 0.71875 0.59375
vt 0.71875 0.625
vt 0.75 0.625
vt 0.6875 0.59375
vt 0.6875 0.625
vt 0.75 0.5625
vt 0.71875 0.5625
vt 0.6875 0.5625
vt 0.625 0.59375
vt 0.65625 0.59375
vt 0.65625 0.625
vt 0.625 0.625
vt 0.625 0.5625
vt 0.65625 0.5625
vt 0.5 0.03125
vt 0.53125 0.03125
vt 0.53125 0.0625
vt 0.5 0.0625
vt 0.5 0
vt 0.53125 0

# Normal
vn 0 0 -1

# Mesh description
g Level01-A-collider_mesh_0017

# Faces
f 1/1/1 2/2/1 3/3/1 4/4/1
f 5/2/1 6/5/1 7/6/1 8/3/1
f 9/7/1 10/8/1 11/2/1 12/1/1
f 13/8/1 14/9/1 15/5/1 16/2/1
f 17/10/1 18/11/1 19/12/1 20/13/1
f 21/11/1 22/14/1 23/15/1 24/12/1
f 25/16/1 26/17/1 27/11/1 28/10/1
f 29/17/1 30/18/1 31/14/1 32/11/1
f 33/1/1 34/2/1 35/3/1 36/4/1
f 37/2/1 38/5/1 39/6/1 40/3/1
f 41/10/1 42/11/1 43/12/1 44/13/1
f 45/11/1 46/14/1 47/15/1 48/12/1
f 49/7/1 50/8/1 51/2/1 52/1/1
f 53/8/1 54/9/1 55/5/1 56/2/1
f 57/16/1 58/17/1 59/11/1 60/10/1
f 61/17/1 62/18/1 63/14/1 64/11/1
f 65/1/1 66/2/1 67/3/1 68/4/1
f 69/2/1 70/5/1 71/6/1 72/3/1
f 73/19/1 74/20/1 75/21/1 76/22/1
f 77/20/1 78/23/1 79/24/1 80/21/1
f 81/7/1 82/8/1 83/2/1 84/1/1
f 85/8/1 86/9/1 87/5/1 88/2/1
f 89/25/1 90/26/1 91/27/1 92/28/1
f 93/26/1 94/29/1 95/30/1 96/27/1
f 97/30/1 98/27/1 99/20/1 100/19/1
f 101/27/1 102/28/1 103/23/1 104/20/1
f 105/31/1 106/32/1 107/26/1 108/25/1
f 109/32/1 110/33/1 111/29/1 112/26/1
f 113/29/1 114/26/1 115/27/1 116/30/1
f 117/26/1 118/25/1 119/28/1 120/27/1
f 121/25/1 122/26/1 123/27/1 124/28/1
f 125/26/1 126/29/1 127/30/1 128/27/1
f 129/33/1 130/32/1 131/26/1 132/29/1
f 133/32/1 134/31/1 135/25/1 136/26/1
f 137/31/1 138/32/1 139/26/1 140/25/1
f 141/32/1 142/33/1 143/29/1 144/26/1
f 145/29/1 146/26/1 147/27/1 148/30/1
f 149/26/1 150/25/1 151/28/1 152/27/1
f 153/1/1 154/2/1 155/3/1 156/4/1
f 157/2/1 158/5/1 159/6/1 160/3/1
f 161/33/1 162/32/1 163/26/1 164/29/1
f 165/32/1 166/31/1 167/25/1 168/26/1
f 169/7/1 170/8/1 171/2/1 172/1/1
f 173/8/1 174/9/1 175/5/1 176/2/1
f 177/29/1 178/26/1 179/27/1 180/30/1
f 181/26/1 182/25/1 183/28/1 184/27/1
f 185/29/1 186/26/1 187/27/1 188/30/1
f 189/26/1 190/25/1 191/28/1 192/27/1
f 193/33/1 194/32/1 195/26/1 196/29/1
f 197/32/1 198/31/1 199/25/1 200/26/1
f 201/33/1 202/32/1 203/26/1 204/29/1
f 205/32/1 206/31/1 207/25/1 208/26/1
f 209/29/1 210/26/1 211/27/1 212/30/1
f 213/26/1 214/25/1 215/28/1 216/27/1
f 217/33/1 218/32/1 219/26/1 220/29/1
f 221/32/1 222/31/1 223/25/1 224/26/1
f 225/5/1 226/2/1 227/3/1 228/6/1
f 229/2/1 230/1/1 231/4/1 232/3/1
f 233/9/1 234/8/1 235/2/1 236/5/1
f 237/8/1 238/7/1 239/1/1 240/2/1
f 241/34/1 242/35/1 243/36/1 244/37/1
f 245/35/1 246/29/1 247/30/1 248/36/1
f 249/38/1 250/39/1 251/35/1 252/34/1
f 253/39/1 254/33/1 255/29/1 256/35/1
f 257/29/1 258/26/1 259/27/1 260/30/1
f 261/26/1 262/25/1 263/28/1 264/27/1
f 265/33/1 266/32/1 267/26/1 268/29/1
f 269/32/1 270/31/1 271/25/1 272/26/1
f 273/40/1 274/41/1 275/42/1 276/43/1
f 277/41/1 278/1/1 279/4/1 280/42/1
f 281/44/1 282/45/1 283/41/1 284/40/1
f 285/45/1 286/7/1 287/1/1 288/41/1
f 289/1/1 290/2/1 291/3/1 292/4/1
f 293/2/1 294/5/1 295/6/1 296/3/1
f 297/7/1 298/8/1 299/2/1 300/1/1
f 301/8/1 302/9/1 303/5/1 304/2/1

