# Tiled2Unity generated file. Do not modify by hand.
# Wavefront file for 'Level02-BOSS_mesh_0007.obj'

# Vertices (Count = 856)
v -6 -10.5 0
v -6.75 -10.5 0
v -6.75 -9.75 0
v -6 -9.75 0
v -6.75 -10.5 0
v -7.5 -10.5 0
v -7.5 -9.75 0
v -6.75 -9.75 0
v -16.5 -10.5 0
v -17.25 -10.5 0
v -17.25 -9.75 0
v -16.5 -9.75 0
v -17.25 -10.5 0
v -18 -10.5 0
v -18 -9.75 0
v -17.25 -9.75 0
v -5.25 -11.25 0
v -6 -11.25 0
v -6 -10.5 0
v -5.25 -10.5 0
v -6 -11.25 0
v -6.75 -11.25 0
v -6.75 -10.5 0
v -6 -10.5 0
v -6.75 -11.25 0
v -7.5 -11.25 0
v -7.5 -10.5 0
v -6.75 -10.5 0
v -7.5 -11.25 0
v -8.25 -11.25 0
v -8.25 -10.5 0
v -7.5 -10.5 0
v -8.25 -11.25 0
v -9 -11.25 0
v -9 -10.5 0
v -8.25 -10.5 0
v -15 -11.25 0
v -15.75 -11.25 0
v -15.75 -10.5 0
v -15 -10.5 0
v -15.75 -11.25 0
v -16.5 -11.25 0
v -16.5 -10.5 0
v -15.75 -10.5 0
v -16.5 -11.25 0
v -17.25 -11.25 0
v -17.25 -10.5 0
v -16.5 -10.5 0
v -17.25 -11.25 0
v -18 -11.25 0
v -18 -10.5 0
v -17.25 -10.5 0
v -18 -11.25 0
v -18.75 -11.25 0
v -18.75 -10.5 0
v -18 -10.5 0
v -4.5 -12 0
v -5.25 -12 0
v -5.25 -11.25 0
v -4.5 -11.25 0
v -5.25 -12 0
v -6 -12 0
v -6 -11.25 0
v -5.25 -11.25 0
v -6 -12 0
v -6.75 -12 0
v -6.75 -11.25 0
v -6 -11.25 0
v -6.75 -12 0
v -7.5 -12 0
v -7.5 -11.25 0
v -6.75 -11.25 0
v -7.5 -12 0
v -8.25 -12 0
v -8.25 -11.25 0
v -7.5 -11.25 0
v -8.25 -12 0
v -9 -12 0
v -9 -11.25 0
v -8.25 -11.25 0
v -9 -12 0
v -9.75 -12 0
v -9.75 -11.25 0
v -9 -11.25 0
v -9.75 -12 0
v -10.5 -12 0
v -10.5 -11.25 0
v -9.75 -11.25 0
v -13.5 -12 0
v -14.25 -12 0
v -14.25 -11.25 0
v -13.5 -11.25 0
v -14.25 -12 0
v -15 -12 0
v -15 -11.25 0
v -14.25 -11.25 0
v -15 -12 0
v -15.75 -12 0
v -15.75 -11.25 0
v -15 -11.25 0
v -15.75 -12 0
v -16.5 -12 0
v -16.5 -11.25 0
v -15.75 -11.25 0
v -16.5 -12 0
v -17.25 -12 0
v -17.25 -11.25 0
v -16.5 -11.25 0
v -17.25 -12 0
v -18 -12 0
v -18 -11.25 0
v -17.25 -11.25 0
v -18 -12 0
v -18.75 -12 0
v -18.75 -11.25 0
v -18 -11.25 0
v -18.75 -12 0
v -19.5 -12 0
v -19.5 -11.25 0
v -18.75 -11.25 0
v -4.5 -12.75 0
v -5.25 -12.75 0
v -5.25 -12 0
v -4.5 -12 0
v -5.25 -12.75 0
v -6 -12.75 0
v -6 -12 0
v -5.25 -12 0
v -6 -12.75 0
v -6.75 -12.75 0
v -6.75 -12 0
v -6 -12 0
v -6.75 -12.75 0
v -7.5 -12.75 0
v -7.5 -12 0
v -6.75 -12 0
v -7.5 -12.75 0
v -8.25 -12.75 0
v -8.25 -12 0
v -7.5 -12 0
v -8.25 -12.75 0
v -9 -12.75 0
v -9 -12 0
v -8.25 -12 0
v -9 -12.75 0
v -9.75 -12.75 0
v -9.75 -12 0
v -9 -12 0
v -9.75 -12.75 0
v -10.5 -12.75 0
v -10.5 -12 0
v -9.75 -12 0
v -10.5 -12.75 0
v -11.25 -12.75 0
v -11.25 -12 0
v -10.5 -12 0
v -11.25 -12.75 0
v -12 -12.75 0
v -12 -12 0
v -11.25 -12 0
v -12 -12.75 0
v -12.75 -12.75 0
v -12.75 -12 0
v -12 -12 0
v -12.75 -12.75 0
v -13.5 -12.75 0
v -13.5 -12 0
v -12.75 -12 0
v -13.5 -12.75 0
v -14.25 -12.75 0
v -14.25 -12 0
v -13.5 -12 0
v -14.25 -12.75 0
v -15 -12.75 0
v -15 -12 0
v -14.25 -12 0
v -15 -12.75 0
v -15.75 -12.75 0
v -15.75 -12 0
v -15 -12 0
v -15.75 -12.75 0
v -16.5 -12.75 0
v -16.5 -12 0
v -15.75 -12 0
v -16.5 -12.75 0
v -17.25 -12.75 0
v -17.25 -12 0
v -16.5 -12 0
v -17.25 -12.75 0
v -18 -12.75 0
v -18 -12 0
v -17.25 -12 0
v -18 -12.75 0
v -18.75 -12.75 0
v -18.75 -12 0
v -18 -12 0
v -18.75 -12.75 0
v -19.5 -12.75 0
v -19.5 -12 0
v -18.75 -12 0
v -4.5 -13.5 0
v -5.25 -13.5 0
v -5.25 -12.75 0
v -4.5 -12.75 0
v -5.25 -13.5 0
v -6 -13.5 0
v -6 -12.75 0
v -5.25 -12.75 0
v -6 -13.5 0
v -6.75 -13.5 0
v -6.75 -12.75 0
v -6 -12.75 0
v -6.75 -13.5 0
v -7.5 -13.5 0
v -7.5 -12.75 0
v -6.75 -12.75 0
v -7.5 -13.5 0
v -8.25 -13.5 0
v -8.25 -12.75 0
v -7.5 -12.75 0
v -8.25 -13.5 0
v -9 -13.5 0
v -9 -12.75 0
v -8.25 -12.75 0
v -9 -13.5 0
v -9.75 -13.5 0
v -9.75 -12.75 0
v -9 -12.75 0
v -9.75 -13.5 0
v -10.5 -13.5 0
v -10.5 -12.75 0
v -9.75 -12.75 0
v -10.5 -13.5 0
v -11.25 -13.5 0
v -11.25 -12.75 0
v -10.5 -12.75 0
v -11.25 -13.5 0
v -12 -13.5 0
v -12 -12.75 0
v -11.25 -12.75 0
v -12 -13.5 0
v -12.75 -13.5 0
v -12.75 -12.75 0
v -12 -12.75 0
v -12.75 -13.5 0
v -13.5 -13.5 0
v -13.5 -12.75 0
v -12.75 -12.75 0
v -13.5 -13.5 0
v -14.25 -13.5 0
v -14.25 -12.75 0
v -13.5 -12.75 0
v -14.25 -13.5 0
v -15 -13.5 0
v -15 -12.75 0
v -14.25 -12.75 0
v -15 -13.5 0
v -15.75 -13.5 0
v -15.75 -12.75 0
v -15 -12.75 0
v -15.75 -13.5 0
v -16.5 -13.5 0
v -16.5 -12.75 0
v -15.75 -12.75 0
v -16.5 -13.5 0
v -17.25 -13.5 0
v -17.25 -12.75 0
v -16.5 -12.75 0
v -17.25 -13.5 0
v -18 -13.5 0
v -18 -12.75 0
v -17.25 -12.75 0
v -18 -13.5 0
v -18.75 -13.5 0
v -18.75 -12.75 0
v -18 -12.75 0
v -18.75 -13.5 0
v -19.5 -13.5 0
v -19.5 -12.75 0
v -18.75 -12.75 0
v -4.5 -14.25 0
v -5.25 -14.25 0
v -5.25 -13.5 0
v -4.5 -13.5 0
v -5.25 -14.25 0
v -6 -14.25 0
v -6 -13.5 0
v -5.25 -13.5 0
v -6 -14.25 0
v -6.75 -14.25 0
v -6.75 -13.5 0
v -6 -13.5 0
v -6.75 -14.25 0
v -7.5 -14.25 0
v -7.5 -13.5 0
v -6.75 -13.5 0
v -7.5 -14.25 0
v -8.25 -14.25 0
v -8.25 -13.5 0
v -7.5 -13.5 0
v -8.25 -14.25 0
v -9 -14.25 0
v -9 -13.5 0
v -8.25 -13.5 0
v -9 -14.25 0
v -9.75 -14.25 0
v -9.75 -13.5 0
v -9 -13.5 0
v -9.75 -14.25 0
v -10.5 -14.25 0
v -10.5 -13.5 0
v -9.75 -13.5 0
v -10.5 -14.25 0
v -11.25 -14.25 0
v -11.25 -13.5 0
v -10.5 -13.5 0
v -11.25 -14.25 0
v -12 -14.25 0
v -12 -13.5 0
v -11.25 -13.5 0
v -12 -14.25 0
v -12.75 -14.25 0
v -12.75 -13.5 0
v -12 -13.5 0
v -12.75 -14.25 0
v -13.5 -14.25 0
v -13.5 -13.5 0
v -12.75 -13.5 0
v -13.5 -14.25 0
v -14.25 -14.25 0
v -14.25 -13.5 0
v -13.5 -13.5 0
v -14.25 -14.25 0
v -15 -14.25 0
v -15 -13.5 0
v -14.25 -13.5 0
v -15 -14.25 0
v -15.75 -14.25 0
v -15.75 -13.5 0
v -15 -13.5 0
v -15.75 -14.25 0
v -16.5 -14.25 0
v -16.5 -13.5 0
v -15.75 -13.5 0
v -16.5 -14.25 0
v -17.25 -14.25 0
v -17.25 -13.5 0
v -16.5 -13.5 0
v -17.25 -14.25 0
v -18 -14.25 0
v -18 -13.5 0
v -17.25 -13.5 0
v -18 -14.25 0
v -18.75 -14.25 0
v -18.75 -13.5 0
v -18 -13.5 0
v -18.75 -14.25 0
v -19.5 -14.25 0
v -19.5 -13.5 0
v -18.75 -13.5 0
v -4.5 -15 0
v -5.25 -15 0
v -5.25 -14.25 0
v -4.5 -14.25 0
v -5.25 -15 0
v -6 -15 0
v -6 -14.25 0
v -5.25 -14.25 0
v -6 -15 0
v -6.75 -15 0
v -6.75 -14.25 0
v -6 -14.25 0
v -6.75 -15 0
v -7.5 -15 0
v -7.5 -14.25 0
v -6.75 -14.25 0
v -7.5 -15 0
v -8.25 -15 0
v -8.25 -14.25 0
v -7.5 -14.25 0
v -8.25 -15 0
v -9 -15 0
v -9 -14.25 0
v -8.25 -14.25 0
v -9 -15 0
v -9.75 -15 0
v -9.75 -14.25 0
v -9 -14.25 0
v -9.75 -15 0
v -10.5 -15 0
v -10.5 -14.25 0
v -9.75 -14.25 0
v -10.5 -15 0
v -11.25 -15 0
v -11.25 -14.25 0
v -10.5 -14.25 0
v -11.25 -15 0
v -12 -15 0
v -12 -14.25 0
v -11.25 -14.25 0
v -12 -15 0
v -12.75 -15 0
v -12.75 -14.25 0
v -12 -14.25 0
v -12.75 -15 0
v -13.5 -15 0
v -13.5 -14.25 0
v -12.75 -14.25 0
v -13.5 -15 0
v -14.25 -15 0
v -14.25 -14.25 0
v -13.5 -14.25 0
v -14.25 -15 0
v -15 -15 0
v -15 -14.25 0
v -14.25 -14.25 0
v -15 -15 0
v -15.75 -15 0
v -15.75 -14.25 0
v -15 -14.25 0
v -15.75 -15 0
v -16.5 -15 0
v -16.5 -14.25 0
v -15.75 -14.25 0
v -16.5 -15 0
v -17.25 -15 0
v -17.25 -14.25 0
v -16.5 -14.25 0
v -17.25 -15 0
v -18 -15 0
v -18 -14.25 0
v -17.25 -14.25 0
v -18 -15 0
v -18.75 -15 0
v -18.75 -14.25 0
v -18 -14.25 0
v -18.75 -15 0
v -19.5 -15 0
v -19.5 -14.25 0
v -18.75 -14.25 0
v -4.5 -15.75 0
v -5.25 -15.75 0
v -5.25 -15 0
v -4.5 -15 0
v -5.25 -15.75 0
v -6 -15.75 0
v -6 -15 0
v -5.25 -15 0
v -6 -15.75 0
v -6.75 -15.75 0
v -6.75 -15 0
v -6 -15 0
v -6.75 -15.75 0
v -7.5 -15.75 0
v -7.5 -15 0
v -6.75 -15 0
v -7.5 -15.75 0
v -8.25 -15.75 0
v -8.25 -15 0
v -7.5 -15 0
v -8.25 -15.75 0
v -9 -15.75 0
v -9 -15 0
v -8.25 -15 0
v -9 -15.75 0
v -9.75 -15.75 0
v -9.75 -15 0
v -9 -15 0
v -9.75 -15.75 0
v -10.5 -15.75 0
v -10.5 -15 0
v -9.75 -15 0
v -10.5 -15.75 0
v -11.25 -15.75 0
v -11.25 -15 0
v -10.5 -15 0
v -11.25 -15.75 0
v -12 -15.75 0
v -12 -15 0
v -11.25 -15 0
v -12 -15.75 0
v -12.75 -15.75 0
v -12.75 -15 0
v -12 -15 0
v -12.75 -15.75 0
v -13.5 -15.75 0
v -13.5 -15 0
v -12.75 -15 0
v -13.5 -15.75 0
v -14.25 -15.75 0
v -14.25 -15 0
v -13.5 -15 0
v -14.25 -15.75 0
v -15 -15.75 0
v -15 -15 0
v -14.25 -15 0
v -15 -15.75 0
v -15.75 -15.75 0
v -15.75 -15 0
v -15 -15 0
v -15.75 -15.75 0
v -16.5 -15.75 0
v -16.5 -15 0
v -15.75 -15 0
v -16.5 -15.75 0
v -17.25 -15.75 0
v -17.25 -15 0
v -16.5 -15 0
v -17.25 -15.75 0
v -18 -15.75 0
v -18 -15 0
v -17.25 -15 0
v -18 -15.75 0
v -18.75 -15.75 0
v -18.75 -15 0
v -18 -15 0
v -18.75 -15.75 0
v -19.5 -15.75 0
v -19.5 -15 0
v -18.75 -15 0
v -5.25 -16.5 0
v -6 -16.5 0
v -6 -15.75 0
v -5.25 -15.75 0
v -6 -16.5 0
v -6.75 -16.5 0
v -6.75 -15.75 0
v -6 -15.75 0
v -6.75 -16.5 0
v -7.5 -16.5 0
v -7.5 -15.75 0
v -6.75 -15.75 0
v -7.5 -16.5 0
v -8.25 -16.5 0
v -8.25 -15.75 0
v -7.5 -15.75 0
v -8.25 -16.5 0
v -9 -16.5 0
v -9 -15.75 0
v -8.25 -15.75 0
v -9 -16.5 0
v -9.75 -16.5 0
v -9.75 -15.75 0
v -9 -15.75 0
v -9.75 -16.5 0
v -10.5 -16.5 0
v -10.5 -15.75 0
v -9.75 -15.75 0
v -10.5 -16.5 0
v -11.25 -16.5 0
v -11.25 -15.75 0
v -10.5 -15.75 0
v -11.25 -16.5 0
v -12 -16.5 0
v -12 -15.75 0
v -11.25 -15.75 0
v -12 -16.5 0
v -12.75 -16.5 0
v -12.75 -15.75 0
v -12 -15.75 0
v -12.75 -16.5 0
v -13.5 -16.5 0
v -13.5 -15.75 0
v -12.75 -15.75 0
v -13.5 -16.5 0
v -14.25 -16.5 0
v -14.25 -15.75 0
v -13.5 -15.75 0
v -14.25 -16.5 0
v -15 -16.5 0
v -15 -15.75 0
v -14.25 -15.75 0
v -15 -16.5 0
v -15.75 -16.5 0
v -15.75 -15.75 0
v -15 -15.75 0
v -15.75 -16.5 0
v -16.5 -16.5 0
v -16.5 -15.75 0
v -15.75 -15.75 0
v -16.5 -16.5 0
v -17.25 -16.5 0
v -17.25 -15.75 0
v -16.5 -15.75 0
v -17.25 -16.5 0
v -18 -16.5 0
v -18 -15.75 0
v -17.25 -15.75 0
v -18 -16.5 0
v -18.75 -16.5 0
v -18.75 -15.75 0
v -18 -15.75 0
v -5.25 -17.25 0
v -6 -17.25 0
v -6 -16.5 0
v -5.25 -16.5 0
v -6 -17.25 0
v -6.75 -17.25 0
v -6.75 -16.5 0
v -6 -16.5 0
v -6.75 -17.25 0
v -7.5 -17.25 0
v -7.5 -16.5 0
v -6.75 -16.5 0
v -7.5 -17.25 0
v -8.25 -17.25 0
v -8.25 -16.5 0
v -7.5 -16.5 0
v -8.25 -17.25 0
v -9 -17.25 0
v -9 -16.5 0
v -8.25 -16.5 0
v -9 -17.25 0
v -9.75 -17.25 0
v -9.75 -16.5 0
v -9 -16.5 0
v -9.75 -17.25 0
v -10.5 -17.25 0
v -10.5 -16.5 0
v -9.75 -16.5 0
v -10.5 -17.25 0
v -11.25 -17.25 0
v -11.25 -16.5 0
v -10.5 -16.5 0
v -11.25 -17.25 0
v -12 -17.25 0
v -12 -16.5 0
v -11.25 -16.5 0
v -12 -17.25 0
v -12.75 -17.25 0
v -12.75 -16.5 0
v -12 -16.5 0
v -12.75 -17.25 0
v -13.5 -17.25 0
v -13.5 -16.5 0
v -12.75 -16.5 0
v -13.5 -17.25 0
v -14.25 -17.25 0
v -14.25 -16.5 0
v -13.5 -16.5 0
v -14.25 -17.25 0
v -15 -17.25 0
v -15 -16.5 0
v -14.25 -16.5 0
v -15 -17.25 0
v -15.75 -17.25 0
v -15.75 -16.5 0
v -15 -16.5 0
v -15.75 -17.25 0
v -16.5 -17.25 0
v -16.5 -16.5 0
v -15.75 -16.5 0
v -16.5 -17.25 0
v -17.25 -17.25 0
v -17.25 -16.5 0
v -16.5 -16.5 0
v -17.25 -17.25 0
v -18 -17.25 0
v -18 -16.5 0
v -17.25 -16.5 0
v -18 -17.25 0
v -18.75 -17.25 0
v -18.75 -16.5 0
v -18 -16.5 0
v -6 -18 0
v -6.75 -18 0
v -6.75 -17.25 0
v -6 -17.25 0
v -6.75 -18 0
v -7.5 -18 0
v -7.5 -17.25 0
v -6.75 -17.25 0
v -7.5 -18 0
v -8.25 -18 0
v -8.25 -17.25 0
v -7.5 -17.25 0
v -8.25 -18 0
v -9 -18 0
v -9 -17.25 0
v -8.25 -17.25 0
v -9 -18 0
v -9.75 -18 0
v -9.75 -17.25 0
v -9 -17.25 0
v -9.75 -18 0
v -10.5 -18 0
v -10.5 -17.25 0
v -9.75 -17.25 0
v -10.5 -18 0
v -11.25 -18 0
v -11.25 -17.25 0
v -10.5 -17.25 0
v -11.25 -18 0
v -12 -18 0
v -12 -17.25 0
v -11.25 -17.25 0
v -12 -18 0
v -12.75 -18 0
v -12.75 -17.25 0
v -12 -17.25 0
v -12.75 -18 0
v -13.5 -18 0
v -13.5 -17.25 0
v -12.75 -17.25 0
v -13.5 -18 0
v -14.25 -18 0
v -14.25 -17.25 0
v -13.5 -17.25 0
v -14.25 -18 0
v -15 -18 0
v -15 -17.25 0
v -14.25 -17.25 0
v -15 -18 0
v -15.75 -18 0
v -15.75 -17.25 0
v -15 -17.25 0
v -15.75 -18 0
v -16.5 -18 0
v -16.5 -17.25 0
v -15.75 -17.25 0
v -16.5 -18 0
v -17.25 -18 0
v -17.25 -17.25 0
v -16.5 -17.25 0
v -17.25 -18 0
v -18 -18 0
v -18 -17.25 0
v -17.25 -17.25 0
v -6 -18.75 0
v -6.75 -18.75 0
v -6.75 -18 0
v -6 -18 0
v -6.75 -18.75 0
v -7.5 -18.75 0
v -7.5 -18 0
v -6.75 -18 0
v -7.5 -18.75 0
v -8.25 -18.75 0
v -8.25 -18 0
v -7.5 -18 0
v -8.25 -18.75 0
v -9 -18.75 0
v -9 -18 0
v -8.25 -18 0
v -9 -18.75 0
v -9.75 -18.75 0
v -9.75 -18 0
v -9 -18 0
v -9.75 -18.75 0
v -10.5 -18.75 0
v -10.5 -18 0
v -9.75 -18 0
v -10.5 -18.75 0
v -11.25 -18.75 0
v -11.25 -18 0
v -10.5 -18 0
v -11.25 -18.75 0
v -12 -18.75 0
v -12 -18 0
v -11.25 -18 0
v -12 -18.75 0
v -12.75 -18.75 0
v -12.75 -18 0
v -12 -18 0
v -12.75 -18.75 0
v -13.5 -18.75 0
v -13.5 -18 0
v -12.75 -18 0
v -13.5 -18.75 0
v -14.25 -18.75 0
v -14.25 -18 0
v -13.5 -18 0
v -14.25 -18.75 0
v -15 -18.75 0
v -15 -18 0
v -14.25 -18 0
v -15 -18.75 0
v -15.75 -18.75 0
v -15.75 -18 0
v -15 -18 0
v -15.75 -18.75 0
v -16.5 -18.75 0
v -16.5 -18 0
v -15.75 -18 0
v -16.5 -18.75 0
v -17.25 -18.75 0
v -17.25 -18 0
v -16.5 -18 0
v -17.25 -18.75 0
v -18 -18.75 0
v -18 -18 0
v -17.25 -18 0
v -7.5 -19.5 0
v -8.25 -19.5 0
v -8.25 -18.75 0
v -7.5 -18.75 0
v -8.25 -19.5 0
v -9 -19.5 0
v -9 -18.75 0
v -8.25 -18.75 0
v -9 -19.5 0
v -9.75 -19.5 0
v -9.75 -18.75 0
v -9 -18.75 0
v -9.75 -19.5 0
v -10.5 -19.5 0
v -10.5 -18.75 0
v -9.75 -18.75 0
v -10.5 -19.5 0
v -11.25 -19.5 0
v -11.25 -18.75 0
v -10.5 -18.75 0
v -11.25 -19.5 0
v -12 -19.5 0
v -12 -18.75 0
v -11.25 -18.75 0
v -12 -19.5 0
v -12.75 -19.5 0
v -12.75 -18.75 0
v -12 -18.75 0
v -12.75 -19.5 0
v -13.5 -19.5 0
v -13.5 -18.75 0
v -12.75 -18.75 0
v -13.5 -19.5 0
v -14.25 -19.5 0
v -14.25 -18.75 0
v -13.5 -18.75 0
v -14.25 -19.5 0
v -15 -19.5 0
v -15 -18.75 0
v -14.25 -18.75 0
v -15 -19.5 0
v -15.75 -19.5 0
v -15.75 -18.75 0
v -15 -18.75 0
v -15.75 -19.5 0
v -16.5 -19.5 0
v -16.5 -18.75 0
v -15.75 -18.75 0
v -10.5 -20.25 0
v -11.25 -20.25 0
v -11.25 -19.5 0
v -10.5 -19.5 0
v -11.25 -20.25 0
v -12 -20.25 0
v -12 -19.5 0
v -11.25 -19.5 0
v -12 -20.25 0
v -12.75 -20.25 0
v -12.75 -19.5 0
v -12 -19.5 0
v -12.75 -20.25 0
v -13.5 -20.25 0
v -13.5 -19.5 0
v -12.75 -19.5 0

# Texture cooridinates (Count = 31)
vt 0.25 0.125
vt 0.28125 0.125
vt 0.28125 0.1666667
vt 0.25 0.1666667
vt 0.34375 0.125
vt 0.375 0.125
vt 0.375 0.1666667
vt 0.34375 0.1666667
vt 0.3125 0.2083333
vt 0.34375 0.2083333
vt 0.34375 0.25
vt 0.3125 0.25
vt 0.375 0.2083333
vt 0.375 0.25
vt 0.3125 0.125
vt 0.3125 0.1666667
vt 0.28125 0.08333334
vt 0.3125 0.08333334
vt 0.34375 0.08333334
vt 0.25 0.08333334
vt 0.3125 0.04166667
vt 0.34375 0.04166667
vt 0.28125 0.04166667
vt 0.375 0.08333334
vt 0.25 0.04166667
vt 0.375 0.04166667
vt 0.25 0
vt 0.28125 0
vt 0.34375 0
vt 0.375 0
vt 0.3125 0

# Normal
vn 0 0 -1

# Mesh description
g Level02-BOSS_mesh_0007

# Faces
f 1/1/1 2/2/1 3/3/1 4/4/1
f 5/5/1 6/6/1 7/7/1 8/8/1
f 9/1/1 10/2/1 11/3/1 12/4/1
f 13/5/1 14/6/1 15/7/1 16/8/1
f 17/1/1 18/2/1 19/3/1 20/4/1
f 21/9/1 22/10/1 23/11/1 24/12/1
f 25/10/1 26/13/1 27/14/1 28/11/1
f 29/15/1 30/5/1 31/8/1 32/16/1
f 33/5/1 34/6/1 35/7/1 36/8/1
f 37/1/1 38/2/1 39/3/1 40/4/1
f 41/2/1 42/15/1 43/16/1 44/3/1
f 45/9/1 46/10/1 47/11/1 48/12/1
f 49/10/1 50/13/1 51/14/1 52/11/1
f 53/5/1 54/6/1 55/7/1 56/8/1
f 57/1/1 58/2/1 59/3/1 60/4/1
f 61/9/1 62/10/1 63/11/1 64/12/1
f 65/17/1 66/18/1 67/15/1 68/2/1
f 69/18/1 70/19/1 71/5/1 72/15/1
f 73/17/1 74/18/1 75/15/1 76/2/1
f 77/10/1 78/13/1 79/14/1 80/11/1
f 81/15/1 82/5/1 83/8/1 84/16/1
f 85/5/1 86/6/1 87/7/1 88/8/1
f 89/1/1 90/2/1 91/3/1 92/4/1
f 93/2/1 94/15/1 95/16/1 96/3/1
f 97/9/1 98/10/1 99/11/1 100/12/1
f 101/18/1 102/19/1 103/5/1 104/15/1
f 105/17/1 106/18/1 107/15/1 108/2/1
f 109/18/1 110/19/1 111/5/1 112/15/1
f 113/10/1 114/13/1 115/14/1 116/11/1
f 117/5/1 118/6/1 119/7/1 120/8/1
f 121/20/1 122/17/1 123/2/1 124/1/1
f 125/21/1 126/22/1 127/19/1 128/18/1
f 129/23/1 130/21/1 131/18/1 132/17/1
f 133/21/1 134/22/1 135/19/1 136/18/1
f 137/23/1 138/21/1 139/18/1 140/17/1
f 141/21/1 142/22/1 143/19/1 144/18/1
f 145/23/1 146/21/1 147/18/1 148/17/1
f 149/10/1 150/13/1 151/14/1 152/11/1
f 153/2/1 154/15/1 155/16/1 156/3/1
f 157/15/1 158/5/1 159/8/1 160/16/1
f 161/2/1 162/15/1 163/16/1 164/3/1
f 165/15/1 166/5/1 167/8/1 168/16/1
f 169/9/1 170/10/1 171/11/1 172/12/1
f 173/21/1 174/22/1 175/19/1 176/18/1
f 177/23/1 178/21/1 179/18/1 180/17/1
f 181/21/1 182/22/1 183/19/1 184/18/1
f 185/23/1 186/21/1 187/18/1 188/17/1
f 189/21/1 190/22/1 191/19/1 192/18/1
f 193/23/1 194/21/1 195/18/1 196/17/1
f 197/19/1 198/24/1 199/6/1 200/5/1
f 201/25/1 202/23/1 203/17/1 204/20/1
f 205/18/1 206/19/1 207/5/1 208/15/1
f 209/17/1 210/18/1 211/15/1 212/2/1
f 213/18/1 214/19/1 215/5/1 216/15/1
f 217/17/1 218/18/1 219/15/1 220/2/1
f 221/18/1 222/19/1 223/5/1 224/15/1
f 225/17/1 226/18/1 227/15/1 228/2/1
f 229/18/1 230/19/1 231/5/1 232/15/1
f 233/17/1 234/18/1 235/15/1 236/2/1
f 237/18/1 238/19/1 239/5/1 240/15/1
f 241/17/1 242/18/1 243/15/1 244/2/1
f 245/18/1 246/19/1 247/5/1 248/15/1
f 249/17/1 250/18/1 251/15/1 252/2/1
f 253/18/1 254/19/1 255/5/1 256/15/1
f 257/17/1 258/18/1 259/15/1 260/2/1
f 261/18/1 262/19/1 263/5/1 264/15/1
f 265/17/1 266/18/1 267/15/1 268/2/1
f 269/18/1 270/19/1 271/5/1 272/15/1
f 273/17/1 274/18/1 275/15/1 276/2/1
f 277/22/1 278/26/1 279/24/1 280/19/1
f 281/20/1 282/17/1 283/2/1 284/1/1
f 285/21/1 286/22/1 287/19/1 288/18/1
f 289/23/1 290/21/1 291/18/1 292/17/1
f 293/21/1 294/22/1 295/19/1 296/18/1
f 297/23/1 298/21/1 299/18/1 300/17/1
f 301/21/1 302/22/1 303/19/1 304/18/1
f 305/23/1 306/21/1 307/18/1 308/17/1
f 309/21/1 310/22/1 311/19/1 312/18/1
f 313/23/1 314/21/1 315/18/1 316/17/1
f 317/21/1 318/22/1 319/19/1 320/18/1
f 321/23/1 322/21/1 323/18/1 324/17/1
f 325/21/1 326/22/1 327/19/1 328/18/1
f 329/23/1 330/21/1 331/18/1 332/17/1
f 333/21/1 334/22/1 335/19/1 336/18/1
f 337/23/1 338/21/1 339/18/1 340/17/1
f 341/21/1 342/22/1 343/19/1 344/18/1
f 345/23/1 346/21/1 347/18/1 348/17/1
f 349/21/1 350/22/1 351/19/1 352/18/1
f 353/23/1 354/21/1 355/18/1 356/17/1
f 357/19/1 358/24/1 359/6/1 360/5/1
f 361/25/1 362/23/1 363/17/1 364/20/1
f 365/18/1 366/19/1 367/5/1 368/15/1
f 369/17/1 370/18/1 371/15/1 372/2/1
f 373/18/1 374/19/1 375/5/1 376/15/1
f 377/17/1 378/18/1 379/15/1 380/2/1
f 381/18/1 382/19/1 383/5/1 384/15/1
f 385/17/1 386/18/1 387/15/1 388/2/1
f 389/18/1 390/19/1 391/5/1 392/15/1
f 393/17/1 394/18/1 395/15/1 396/2/1
f 397/18/1 398/19/1 399/5/1 400/15/1
f 401/17/1 402/18/1 403/15/1 404/2/1
f 405/18/1 406/19/1 407/5/1 408/15/1
f 409/17/1 410/18/1 411/15/1 412/2/1
f 413/18/1 414/19/1 415/5/1 416/15/1
f 417/17/1 418/18/1 419/15/1 420/2/1
f 421/18/1 422/19/1 423/5/1 424/15/1
f 425/17/1 426/18/1 427/15/1 428/2/1
f 429/18/1 430/19/1 431/5/1 432/15/1
f 433/17/1 434/18/1 435/15/1 436/2/1
f 437/22/1 438/26/1 439/24/1 440/19/1
f 441/27/1 442/28/1 443/23/1 444/25/1
f 445/16/1 446/8/1 447/10/1 448/9/1
f 449/23/1 450/21/1 451/18/1 452/17/1
f 453/21/1 454/22/1 455/19/1 456/18/1
f 457/23/1 458/21/1 459/18/1 460/17/1
f 461/21/1 462/22/1 463/19/1 464/18/1
f 465/23/1 466/21/1 467/18/1 468/17/1
f 469/21/1 470/22/1 471/19/1 472/18/1
f 473/23/1 474/21/1 475/18/1 476/17/1
f 477/21/1 478/22/1 479/19/1 480/18/1
f 481/23/1 482/21/1 483/18/1 484/17/1
f 485/21/1 486/22/1 487/19/1 488/18/1
f 489/23/1 490/21/1 491/18/1 492/17/1
f 493/21/1 494/22/1 495/19/1 496/18/1
f 497/23/1 498/21/1 499/18/1 500/17/1
f 501/21/1 502/22/1 503/19/1 504/18/1
f 505/23/1 506/21/1 507/18/1 508/17/1
f 509/21/1 510/22/1 511/19/1 512/18/1
f 513/8/1 514/7/1 515/13/1 516/10/1
f 517/29/1 518/30/1 519/26/1 520/22/1
f 521/25/1 522/23/1 523/17/1 524/20/1
f 525/17/1 526/18/1 527/15/1 528/2/1
f 529/18/1 530/19/1 531/5/1 532/15/1
f 533/17/1 534/18/1 535/15/1 536/2/1
f 537/18/1 538/19/1 539/5/1 540/15/1
f 541/17/1 542/18/1 543/15/1 544/2/1
f 545/18/1 546/19/1 547/5/1 548/15/1
f 549/17/1 550/18/1 551/15/1 552/2/1
f 553/18/1 554/19/1 555/5/1 556/15/1
f 557/17/1 558/18/1 559/15/1 560/2/1
f 561/18/1 562/19/1 563/5/1 564/15/1
f 565/17/1 566/18/1 567/15/1 568/2/1
f 569/18/1 570/19/1 571/5/1 572/15/1
f 573/17/1 574/18/1 575/15/1 576/2/1
f 577/18/1 578/19/1 579/5/1 580/15/1
f 581/17/1 582/18/1 583/15/1 584/2/1
f 585/18/1 586/19/1 587/5/1 588/15/1
f 589/22/1 590/26/1 591/24/1 592/19/1
f 593/27/1 594/28/1 595/23/1 596/25/1
f 597/16/1 598/8/1 599/10/1 600/9/1
f 601/18/1 602/19/1 603/5/1 604/15/1
f 605/17/1 606/18/1 607/15/1 608/2/1
f 609/18/1 610/19/1 611/5/1 612/15/1
f 613/17/1 614/18/1 615/15/1 616/2/1
f 617/18/1 618/19/1 619/5/1 620/15/1
f 621/17/1 622/18/1 623/15/1 624/2/1
f 625/18/1 626/19/1 627/5/1 628/15/1
f 629/17/1 630/18/1 631/15/1 632/2/1
f 633/18/1 634/19/1 635/5/1 636/15/1
f 637/17/1 638/18/1 639/15/1 640/2/1
f 641/18/1 642/19/1 643/5/1 644/15/1
f 645/17/1 646/18/1 647/15/1 648/2/1
f 649/18/1 650/19/1 651/5/1 652/15/1
f 653/17/1 654/18/1 655/15/1 656/2/1
f 657/8/1 658/7/1 659/13/1 660/10/1
f 661/29/1 662/30/1 663/26/1 664/22/1
f 665/25/1 666/23/1 667/17/1 668/20/1
f 669/21/1 670/22/1 671/19/1 672/18/1
f 673/23/1 674/21/1 675/18/1 676/17/1
f 677/21/1 678/22/1 679/19/1 680/18/1
f 681/23/1 682/21/1 683/18/1 684/17/1
f 685/21/1 686/22/1 687/19/1 688/18/1
f 689/23/1 690/21/1 691/18/1 692/17/1
f 693/21/1 694/22/1 695/19/1 696/18/1
f 697/23/1 698/21/1 699/18/1 700/17/1
f 701/21/1 702/22/1 703/19/1 704/18/1
f 705/23/1 706/21/1 707/18/1 708/17/1
f 709/21/1 710/22/1 711/19/1 712/18/1
f 713/23/1 714/21/1 715/18/1 716/17/1
f 717/21/1 718/22/1 719/19/1 720/18/1
f 721/23/1 722/21/1 723/18/1 724/17/1
f 725/22/1 726/26/1 727/24/1 728/19/1
f 729/27/1 730/28/1 731/23/1 732/25/1
f 733/28/1 734/31/1 735/21/1 736/23/1
f 737/16/1 738/8/1 739/10/1 740/9/1
f 741/18/1 742/19/1 743/5/1 744/15/1
f 745/17/1 746/18/1 747/15/1 748/2/1
f 749/18/1 750/19/1 751/5/1 752/15/1
f 753/17/1 754/18/1 755/15/1 756/2/1
f 757/18/1 758/19/1 759/5/1 760/15/1
f 761/17/1 762/18/1 763/15/1 764/2/1
f 765/18/1 766/19/1 767/5/1 768/15/1
f 769/17/1 770/18/1 771/15/1 772/2/1
f 773/18/1 774/19/1 775/5/1 776/15/1
f 777/17/1 778/18/1 779/15/1 780/2/1
f 781/8/1 782/7/1 783/13/1 784/10/1
f 785/31/1 786/29/1 787/22/1 788/21/1
f 789/29/1 790/30/1 791/26/1 792/22/1
f 793/27/1 794/28/1 795/23/1 796/25/1
f 797/28/1 798/31/1 799/21/1 800/23/1
f 801/31/1 802/29/1 803/22/1 804/21/1
f 805/28/1 806/31/1 807/21/1 808/23/1
f 809/16/1 810/8/1 811/10/1 812/9/1
f 813/21/1 814/22/1 815/19/1 816/18/1
f 817/23/1 818/21/1 819/18/1 820/17/1
f 821/8/1 822/7/1 823/13/1 824/10/1
f 825/31/1 826/29/1 827/22/1 828/21/1
f 829/28/1 830/31/1 831/21/1 832/23/1
f 833/31/1 834/29/1 835/22/1 836/21/1
f 837/29/1 838/30/1 839/26/1 840/22/1
f 841/27/1 842/28/1 843/23/1 844/25/1
f 845/28/1 846/31/1 847/21/1 848/23/1
f 849/31/1 850/29/1 851/22/1 852/21/1
f 853/29/1 854/30/1 855/26/1 856/22/1

