# Tiled2Unity generated file. Do not modify by hand.
# Wavefront file for 'Level02-BOSS_mesh_0019.obj'

# Vertices (Count = 284)
v -3.75 -6.75 0
v -4.5 -6.75 0
v -4.5 -6 0
v -3.75 -6 0
v -4.5 -6.75 0
v -5.25 -6.75 0
v -5.25 -6 0
v -4.5 -6 0
v -18.75 -6.75 0
v -19.5 -6.75 0
v -19.5 -6 0
v -18.75 -6 0
v -19.5 -6.75 0
v -20.25 -6.75 0
v -20.25 -6 0
v -19.5 -6 0
v -3.75 -7.5 0
v -4.5 -7.5 0
v -4.5 -6.75 0
v -3.75 -6.75 0
v -4.5 -7.5 0
v -5.25 -7.5 0
v -5.25 -6.75 0
v -4.5 -6.75 0
v -18.75 -7.5 0
v -19.5 -7.5 0
v -19.5 -6.75 0
v -18.75 -6.75 0
v -19.5 -7.5 0
v -20.25 -7.5 0
v -20.25 -6.75 0
v -19.5 -6.75 0
v -3 -8.25 0
v -3.75 -8.25 0
v -3.75 -7.5 0
v -3 -7.5 0
v -3.75 -8.25 0
v -4.5 -8.25 0
v -4.5 -7.5 0
v -3.75 -7.5 0
v -4.5 -8.25 0
v -5.25 -8.25 0
v -5.25 -7.5 0
v -4.5 -7.5 0
v -5.25 -8.25 0
v -6 -8.25 0
v -6 -7.5 0
v -5.25 -7.5 0
v -6 -8.25 0
v -6.75 -8.25 0
v -6.75 -7.5 0
v -6 -7.5 0
v -17.25 -8.25 0
v -18 -8.25 0
v -18 -7.5 0
v -17.25 -7.5 0
v -18 -8.25 0
v -18.75 -8.25 0
v -18.75 -7.5 0
v -18 -7.5 0
v -18.75 -8.25 0
v -19.5 -8.25 0
v -19.5 -7.5 0
v -18.75 -7.5 0
v -19.5 -8.25 0
v -20.25 -8.25 0
v -20.25 -7.5 0
v -19.5 -7.5 0
v -20.25 -8.25 0
v -21 -8.25 0
v -21 -7.5 0
v -20.25 -7.5 0
v -1.5 -9 0
v -2.25 -9 0
v -2.25 -8.25 0
v -1.5 -8.25 0
v -2.25 -9 0
v -3 -9 0
v -3 -8.25 0
v -2.25 -8.25 0
v -3 -9 0
v -3.75 -9 0
v -3.75 -8.25 0
v -3 -8.25 0
v -3.75 -9 0
v -4.5 -9 0
v -4.5 -8.25 0
v -3.75 -8.25 0
v -4.5 -9 0
v -5.25 -9 0
v -5.25 -8.25 0
v -4.5 -8.25 0
v -6 -9 0
v -6.75 -9 0
v -6.75 -8.25 0
v -6 -8.25 0
v -6.75 -9 0
v -7.5 -9 0
v -7.5 -8.25 0
v -6.75 -8.25 0
v -16.5 -9 0
v -17.25 -9 0
v -17.25 -8.25 0
v -16.5 -8.25 0
v -17.25 -9 0
v -18 -9 0
v -18 -8.25 0
v -17.25 -8.25 0
v -18 -9 0
v -18.75 -9 0
v -18.75 -8.25 0
v -18 -8.25 0
v -18.75 -9 0
v -19.5 -9 0
v -19.5 -8.25 0
v -18.75 -8.25 0
v -19.5 -9 0
v -20.25 -9 0
v -20.25 -8.25 0
v -19.5 -8.25 0
v -20.25 -9 0
v -21 -9 0
v -21 -8.25 0
v -20.25 -8.25 0
v -21 -9 0
v -21.75 -9 0
v -21.75 -8.25 0
v -21 -8.25 0
v -2.25 -9.75 0
v -3 -9.75 0
v -3 -9 0
v -2.25 -9 0
v -3 -9.75 0
v -3.75 -9.75 0
v -3.75 -9 0
v -3 -9 0
v -5.25 -9.75 0
v -6 -9.75 0
v -6 -9 0
v -5.25 -9 0
v -6 -9.75 0
v -6.75 -9.75 0
v -6.75 -9 0
v -6 -9 0
v -6.75 -9.75 0
v -7.5 -9.75 0
v -7.5 -9 0
v -6.75 -9 0
v -7.5 -9.75 0
v -8.25 -9.75 0
v -8.25 -9 0
v -7.5 -9 0
v -8.25 -9.75 0
v -9 -9.75 0
v -9 -9 0
v -8.25 -9 0
v -15 -9.75 0
v -15.75 -9.75 0
v -15.75 -9 0
v -15 -9 0
v -15.75 -9.75 0
v -16.5 -9.75 0
v -16.5 -9 0
v -15.75 -9 0
v -16.5 -9.75 0
v -17.25 -9.75 0
v -17.25 -9 0
v -16.5 -9 0
v -17.25 -9.75 0
v -18 -9.75 0
v -18 -9 0
v -17.25 -9 0
v -5.25 -10.5 0
v -6 -10.5 0
v -6 -9.75 0
v -5.25 -9.75 0
v -6 -10.5 0
v -6.75 -10.5 0
v -6.75 -9.75 0
v -6 -9.75 0
v -6.75 -10.5 0
v -7.5 -10.5 0
v -7.5 -9.75 0
v -6.75 -9.75 0
v -7.5 -10.5 0
v -8.25 -10.5 0
v -8.25 -9.75 0
v -7.5 -9.75 0
v -8.25 -10.5 0
v -9 -10.5 0
v -9 -9.75 0
v -8.25 -9.75 0
v -9 -10.5 0
v -9.75 -10.5 0
v -9.75 -9.75 0
v -9 -9.75 0
v -9.75 -10.5 0
v -10.5 -10.5 0
v -10.5 -9.75 0
v -9.75 -9.75 0
v -13.5 -10.5 0
v -14.25 -10.5 0
v -14.25 -9.75 0
v -13.5 -9.75 0
v -14.25 -10.5 0
v -15 -10.5 0
v -15 -9.75 0
v -14.25 -9.75 0
v -15 -10.5 0
v -15.75 -10.5 0
v -15.75 -9.75 0
v -15 -9.75 0
v -15.75 -10.5 0
v -16.5 -10.5 0
v -16.5 -9.75 0
v -15.75 -9.75 0
v -16.5 -10.5 0
v -17.25 -10.5 0
v -17.25 -9.75 0
v -16.5 -9.75 0
v -17.25 -10.5 0
v -18 -10.5 0
v -18 -9.75 0
v -17.25 -9.75 0
v -8.25 -11.25 0
v -9 -11.25 0
v -9 -10.5 0
v -8.25 -10.5 0
v -9 -11.25 0
v -9.75 -11.25 0
v -9.75 -10.5 0
v -9 -10.5 0
v -9.75 -11.25 0
v -10.5 -11.25 0
v -10.5 -10.5 0
v -9.75 -10.5 0
v -10.5 -11.25 0
v -11.25 -11.25 0
v -11.25 -10.5 0
v -10.5 -10.5 0
v -11.25 -11.25 0
v -12 -11.25 0
v -12 -10.5 0
v -11.25 -10.5 0
v -12 -11.25 0
v -12.75 -11.25 0
v -12.75 -10.5 0
v -12 -10.5 0
v -12.75 -11.25 0
v -13.5 -11.25 0
v -13.5 -10.5 0
v -12.75 -10.5 0
v -13.5 -11.25 0
v -14.25 -11.25 0
v -14.25 -10.5 0
v -13.5 -10.5 0
v -14.25 -11.25 0
v -15 -11.25 0
v -15 -10.5 0
v -14.25 -10.5 0
v -16.5 -11.25 0
v -17.25 -11.25 0
v -17.25 -10.5 0
v -16.5 -10.5 0
v -17.25 -11.25 0
v -18 -11.25 0
v -18 -10.5 0
v -17.25 -10.5 0
v -10.5 -12 0
v -11.25 -12 0
v -11.25 -11.25 0
v -10.5 -11.25 0
v -11.25 -12 0
v -12 -12 0
v -12 -11.25 0
v -11.25 -11.25 0
v -12 -12 0
v -12.75 -12 0
v -12.75 -11.25 0
v -12 -11.25 0
v -12.75 -12 0
v -13.5 -12 0
v -13.5 -11.25 0
v -12.75 -11.25 0

# Texture cooridinates (Count = 33)
vt 0.1875 0.46875
vt 0.15625 0.46875
vt 0.15625 0.5
vt 0.1875 0.5
vt 0.125 0.46875
vt 0.125 0.5
vt 0.1875 0.4375
vt 0.15625 0.4375
vt 0.125 0.4375
vt 0.15625 0.5625
vt 0.1875 0.5625
vt 0.1875 0.59375
vt 0.15625 0.59375
vt 0.1875 0.40625
vt 0.15625 0.40625
vt 0.125 0.40625
vt 0.125 0.5625
vt 0.125 0.59375
vt 0.5625 0.78125
vt 0.59375 0.78125
vt 0.59375 0.8125
vt 0.5625 0.8125
vt 0.625 0.78125
vt 0.625 0.8125
vt 0.15625 0.625
vt 0.1875 0.625
vt 0.125 0.625
vt 0.1875 0.375
vt 0.15625 0.375
vt 0.125 0.375
vt 0.5625 0.75
vt 0.59375 0.75
vt 0.625 0.75

# Normal
vn 0 0 -1

# Mesh description
g Level02-BOSS_mesh_0019

# Faces
f 1/1/1 2/2/1 3/3/1 4/4/1
f 5/2/1 6/5/1 7/6/1 8/3/1
f 9/5/1 10/2/1 11/3/1 12/6/1
f 13/2/1 14/1/1 15/4/1 16/3/1
f 17/7/1 18/8/1 19/2/1 20/1/1
f 21/8/1 22/9/1 23/5/1 24/2/1
f 25/9/1 26/8/1 27/2/1 28/5/1
f 29/8/1 30/7/1 31/1/1 32/2/1
f 33/10/1 34/11/1 35/12/1 36/13/1
f 37/14/1 38/15/1 39/8/1 40/7/1
f 41/15/1 42/16/1 43/9/1 44/8/1
f 45/17/1 46/10/1 47/13/1 48/18/1
f 49/19/1 50/20/1 51/21/1 52/22/1
f 53/20/1 54/23/1 55/24/1 56/21/1
f 57/10/1 58/17/1 59/18/1 60/13/1
f 61/16/1 62/15/1 63/8/1 64/9/1
f 65/15/1 66/14/1 67/7/1 68/8/1
f 69/12/1 70/13/1 71/25/1 72/26/1
f 73/10/1 74/17/1 75/18/1 76/13/1
f 77/18/1 78/13/1 79/25/1 80/27/1
f 81/13/1 82/12/1 83/26/1 84/25/1
f 85/28/1 86/29/1 87/15/1 88/14/1
f 89/29/1 90/30/1 91/16/1 92/15/1
f 93/31/1 94/32/1 95/20/1 96/19/1
f 97/19/1 98/20/1 99/21/1 100/22/1
f 101/20/1 102/23/1 103/24/1 104/21/1
f 105/32/1 106/33/1 107/23/1 108/20/1
f 109/10/1 110/11/1 111/12/1 112/13/1
f 113/30/1 114/29/1 115/15/1 116/16/1
f 117/29/1 118/28/1 119/14/1 120/15/1
f 121/11/1 122/10/1 123/13/1 124/12/1
f 125/10/1 126/17/1 127/18/1 128/13/1
f 129/17/1 130/10/1 131/13/1 132/18/1
f 133/10/1 134/11/1 135/12/1 136/13/1
f 137/12/1 138/13/1 139/25/1 140/26/1
f 141/13/1 142/18/1 143/27/1 144/25/1
f 145/31/1 146/32/1 147/20/1 148/19/1
f 149/19/1 150/20/1 151/21/1 152/22/1
f 153/20/1 154/23/1 155/24/1 156/21/1
f 157/23/1 158/20/1 159/21/1 160/24/1
f 161/20/1 162/19/1 163/22/1 164/21/1
f 165/32/1 166/33/1 167/23/1 168/20/1
f 169/13/1 170/18/1 171/27/1 172/25/1
f 173/11/1 174/10/1 175/13/1 176/12/1
f 177/10/1 178/17/1 179/18/1 180/13/1
f 181/18/1 182/13/1 183/25/1 184/27/1
f 185/31/1 186/32/1 187/20/1 188/19/1
f 189/32/1 190/33/1 191/23/1 192/20/1
f 193/19/1 194/20/1 195/21/1 196/22/1
f 197/20/1 198/23/1 199/24/1 200/21/1
f 201/23/1 202/20/1 203/21/1 204/24/1
f 205/20/1 206/19/1 207/22/1 208/21/1
f 209/33/1 210/32/1 211/20/1 212/23/1
f 213/32/1 214/31/1 215/19/1 216/20/1
f 217/18/1 218/13/1 219/25/1 220/27/1
f 221/13/1 222/12/1 223/26/1 224/25/1
f 225/11/1 226/10/1 227/13/1 228/12/1
f 229/31/1 230/32/1 231/20/1 232/19/1
f 233/32/1 234/33/1 235/23/1 236/20/1
f 237/19/1 238/20/1 239/21/1 240/22/1
f 241/20/1 242/23/1 243/24/1 244/21/1
f 245/23/1 246/20/1 247/21/1 248/24/1
f 249/20/1 250/19/1 251/22/1 252/21/1
f 253/33/1 254/32/1 255/20/1 256/23/1
f 257/32/1 258/31/1 259/19/1 260/20/1
f 261/17/1 262/10/1 263/13/1 264/18/1
f 265/10/1 266/11/1 267/12/1 268/13/1
f 269/31/1 270/32/1 271/20/1 272/19/1
f 273/32/1 274/33/1 275/23/1 276/20/1
f 277/33/1 278/32/1 279/20/1 280/23/1
f 281/32/1 282/31/1 283/19/1 284/20/1

