# Tiled2Unity generated file. Do not modify by hand.
# Wavefront file for 'Level02-BOSS_mesh_0022.obj'

# Vertices (Count = 176)
v -6.75 -2.25 0
v -7.5 -2.25 0
v -7.5 -1.5 0
v -6.75 -1.5 0
v -7.5 -2.25 0
v -8.25 -2.25 0
v -8.25 -1.5 0
v -7.5 -1.5 0
v -15.75 -2.25 0
v -16.5 -2.25 0
v -16.5 -1.5 0
v -15.75 -1.5 0
v -16.5 -2.25 0
v -17.25 -2.25 0
v -17.25 -1.5 0
v -16.5 -1.5 0
v -6.75 -3 0
v -7.5 -3 0
v -7.5 -2.25 0
v -6.75 -2.25 0
v -7.5 -3 0
v -8.25 -3 0
v -8.25 -2.25 0
v -7.5 -2.25 0
v -10.5 -3 0
v -11.25 -3 0
v -11.25 -2.25 0
v -10.5 -2.25 0
v -11.25 -3 0
v -12 -3 0
v -12 -2.25 0
v -11.25 -2.25 0
v -12 -3 0
v -12.75 -3 0
v -12.75 -2.25 0
v -12 -2.25 0
v -12.75 -3 0
v -13.5 -3 0
v -13.5 -2.25 0
v -12.75 -2.25 0
v -13.5 -3 0
v -14.25 -3 0
v -14.25 -2.25 0
v -13.5 -2.25 0
v -15.75 -3 0
v -16.5 -3 0
v -16.5 -2.25 0
v -15.75 -2.25 0
v -16.5 -3 0
v -17.25 -3 0
v -17.25 -2.25 0
v -16.5 -2.25 0
v -6.75 -3.75 0
v -7.5 -3.75 0
v -7.5 -3 0
v -6.75 -3 0
v -7.5 -3.75 0
v -8.25 -3.75 0
v -8.25 -3 0
v -7.5 -3 0
v -10.5 -3.75 0
v -11.25 -3.75 0
v -11.25 -3 0
v -10.5 -3 0
v -11.25 -3.75 0
v -12 -3.75 0
v -12 -3 0
v -11.25 -3 0
v -12 -3.75 0
v -12.75 -3.75 0
v -12.75 -3 0
v -12 -3 0
v -12.75 -3.75 0
v -13.5 -3.75 0
v -13.5 -3 0
v -12.75 -3 0
v -13.5 -3.75 0
v -14.25 -3.75 0
v -14.25 -3 0
v -13.5 -3 0
v -15.75 -3.75 0
v -16.5 -3.75 0
v -16.5 -3 0
v -15.75 -3 0
v -16.5 -3.75 0
v -17.25 -3.75 0
v -17.25 -3 0
v -16.5 -3 0
v -6.75 -4.5 0
v -7.5 -4.5 0
v -7.5 -3.75 0
v -6.75 -3.75 0
v -7.5 -4.5 0
v -8.25 -4.5 0
v -8.25 -3.75 0
v -7.5 -3.75 0
v -10.5 -4.5 0
v -11.25 -4.5 0
v -11.25 -3.75 0
v -10.5 -3.75 0
v -11.25 -4.5 0
v -12 -4.5 0
v -12 -3.75 0
v -11.25 -3.75 0
v -12 -4.5 0
v -12.75 -4.5 0
v -12.75 -3.75 0
v -12 -3.75 0
v -12.75 -4.5 0
v -13.5 -4.5 0
v -13.5 -3.75 0
v -12.75 -3.75 0
v -13.5 -4.5 0
v -14.25 -4.5 0
v -14.25 -3.75 0
v -13.5 -3.75 0
v -15.75 -4.5 0
v -16.5 -4.5 0
v -16.5 -3.75 0
v -15.75 -3.75 0
v -16.5 -4.5 0
v -17.25 -4.5 0
v -17.25 -3.75 0
v -16.5 -3.75 0
v -6.75 -5.25 0
v -7.5 -5.25 0
v -7.5 -4.5 0
v -6.75 -4.5 0
v -7.5 -5.25 0
v -8.25 -5.25 0
v -8.25 -4.5 0
v -7.5 -4.5 0
v -10.5 -5.25 0
v -11.25 -5.25 0
v -11.25 -4.5 0
v -10.5 -4.5 0
v -11.25 -5.25 0
v -12 -5.25 0
v -12 -4.5 0
v -11.25 -4.5 0
v -12 -5.25 0
v -12.75 -5.25 0
v -12.75 -4.5 0
v -12 -4.5 0
v -12.75 -5.25 0
v -13.5 -5.25 0
v -13.5 -4.5 0
v -12.75 -4.5 0
v -13.5 -5.25 0
v -14.25 -5.25 0
v -14.25 -4.5 0
v -13.5 -4.5 0
v -15.75 -5.25 0
v -16.5 -5.25 0
v -16.5 -4.5 0
v -15.75 -4.5 0
v -16.5 -5.25 0
v -17.25 -5.25 0
v -17.25 -4.5 0
v -16.5 -4.5 0
v -6.75 -6 0
v -7.5 -6 0
v -7.5 -5.25 0
v -6.75 -5.25 0
v -7.5 -6 0
v -8.25 -6 0
v -8.25 -5.25 0
v -7.5 -5.25 0
v -15.75 -6 0
v -16.5 -6 0
v -16.5 -5.25 0
v -15.75 -5.25 0
v -16.5 -6 0
v -17.25 -6 0
v -17.25 -5.25 0
v -16.5 -5.25 0

# Texture cooridinates (Count = 51)
vt 0.1875 0.78125
vt 0.21875 0.78125
vt 0.21875 0.8125
vt 0.1875 0.8125
vt 0.25 0.78125
vt 0.25 0.8125
vt 0.1875 0.75
vt 0.21875 0.75
vt 0.25 0.75
vt 0.65625 0.09375
vt 0.6875 0.09375
vt 0.6875 0.125
vt 0.65625 0.125
vt 0.71875 0.09375
vt 0.71875 0.125
vt 0.75 0.09375
vt 0.75 0.125
vt 0.78125 0.09375
vt 0.78125 0.125
vt 0.8125 0.09375
vt 0.8125 0.125
vt 0.1875 0.71875
vt 0.21875 0.71875
vt 0.25 0.71875
vt 0.65625 0.0625
vt 0.6875 0.0625
vt 0.71875 0.0625
vt 0.75 0.0625
vt 0.78125 0.0625
vt 0.8125 0.0625
vt 0.1875 0.6875
vt 0.21875 0.6875
vt 0.25 0.6875
vt 0.65625 0.03125
vt 0.6875 0.03125
vt 0.71875 0.03125
vt 0.75 0.03125
vt 0.78125 0.03125
vt 0.8125 0.03125
vt 0.1875 0.65625
vt 0.21875 0.65625
vt 0.25 0.65625
vt 0.65625 0
vt 0.6875 0
vt 0.71875 0
vt 0.75 0
vt 0.78125 0
vt 0.8125 0
vt 0.1875 0.625
vt 0.21875 0.625
vt 0.25 0.625

# Normal
vn 0 0 -1

# Mesh description
g Level02-BOSS_mesh_0022

# Faces
f 1/1/1 2/2/1 3/3/1 4/4/1
f 5/2/1 6/5/1 7/6/1 8/3/1
f 9/1/1 10/2/1 11/3/1 12/4/1
f 13/2/1 14/5/1 15/6/1 16/3/1
f 17/7/1 18/8/1 19/2/1 20/1/1
f 21/8/1 22/9/1 23/5/1 24/2/1
f 25/10/1 26/11/1 27/12/1 28/13/1
f 29/11/1 30/14/1 31/15/1 32/12/1
f 33/14/1 34/16/1 35/17/1 36/15/1
f 37/16/1 38/18/1 39/19/1 40/17/1
f 41/18/1 42/20/1 43/21/1 44/19/1
f 45/7/1 46/8/1 47/2/1 48/1/1
f 49/8/1 50/9/1 51/5/1 52/2/1
f 53/22/1 54/23/1 55/8/1 56/7/1
f 57/23/1 58/24/1 59/9/1 60/8/1
f 61/25/1 62/26/1 63/11/1 64/10/1
f 65/26/1 66/27/1 67/14/1 68/11/1
f 69/27/1 70/28/1 71/16/1 72/14/1
f 73/28/1 74/29/1 75/18/1 76/16/1
f 77/29/1 78/30/1 79/20/1 80/18/1
f 81/22/1 82/23/1 83/8/1 84/7/1
f 85/23/1 86/24/1 87/9/1 88/8/1
f 89/31/1 90/32/1 91/23/1 92/22/1
f 93/32/1 94/33/1 95/24/1 96/23/1
f 97/34/1 98/35/1 99/26/1 100/25/1
f 101/35/1 102/36/1 103/27/1 104/26/1
f 105/36/1 106/37/1 107/28/1 108/27/1
f 109/37/1 110/38/1 111/29/1 112/28/1
f 113/38/1 114/39/1 115/30/1 116/29/1
f 117/31/1 118/32/1 119/23/1 120/22/1
f 121/32/1 122/33/1 123/24/1 124/23/1
f 125/40/1 126/41/1 127/32/1 128/31/1
f 129/41/1 130/42/1 131/33/1 132/32/1
f 133/43/1 134/44/1 135/35/1 136/34/1
f 137/44/1 138/45/1 139/36/1 140/35/1
f 141/45/1 142/46/1 143/37/1 144/36/1
f 145/46/1 146/47/1 147/38/1 148/37/1
f 149/47/1 150/48/1 151/39/1 152/38/1
f 153/40/1 154/41/1 155/32/1 156/31/1
f 157/41/1 158/42/1 159/33/1 160/32/1
f 161/49/1 162/50/1 163/41/1 164/40/1
f 165/50/1 166/51/1 167/42/1 168/41/1
f 169/49/1 170/50/1 171/41/1 172/40/1
f 173/50/1 174/51/1 175/42/1 176/41/1

