# Tiled2Unity generated file. Do not modify by hand.
# Wavefront file for 'Level02-BOSS_mesh_0010.obj'

# Vertices (Count = 408)
v -6 -5.25 0
v -6.75 -5.25 0
v -6.75 -4.5 0
v -6 -4.5 0
v -6.75 -5.25 0
v -7.5 -5.25 0
v -7.5 -4.5 0
v -6.75 -4.5 0
v -7.5 -5.25 0
v -8.25 -5.25 0
v -8.25 -4.5 0
v -7.5 -4.5 0
v -8.25 -5.25 0
v -9 -5.25 0
v -9 -4.5 0
v -8.25 -4.5 0
v -9 -5.25 0
v -9.75 -5.25 0
v -9.75 -4.5 0
v -9 -4.5 0
v -9.75 -5.25 0
v -10.5 -5.25 0
v -10.5 -4.5 0
v -9.75 -4.5 0
v -10.5 -5.25 0
v -11.25 -5.25 0
v -11.25 -4.5 0
v -10.5 -4.5 0
v -11.25 -5.25 0
v -12 -5.25 0
v -12 -4.5 0
v -11.25 -4.5 0
v -12 -5.25 0
v -12.75 -5.25 0
v -12.75 -4.5 0
v -12 -4.5 0
v -12.75 -5.25 0
v -13.5 -5.25 0
v -13.5 -4.5 0
v -12.75 -4.5 0
v -13.5 -5.25 0
v -14.25 -5.25 0
v -14.25 -4.5 0
v -13.5 -4.5 0
v -14.25 -5.25 0
v -15 -5.25 0
v -15 -4.5 0
v -14.25 -4.5 0
v -15 -5.25 0
v -15.75 -5.25 0
v -15.75 -4.5 0
v -15 -4.5 0
v -15.75 -5.25 0
v -16.5 -5.25 0
v -16.5 -4.5 0
v -15.75 -4.5 0
v -16.5 -5.25 0
v -17.25 -5.25 0
v -17.25 -4.5 0
v -16.5 -4.5 0
v -17.25 -5.25 0
v -18 -5.25 0
v -18 -4.5 0
v -17.25 -4.5 0
v -6 -6 0
v -6.75 -6 0
v -6.75 -5.25 0
v -6 -5.25 0
v -6.75 -6 0
v -7.5 -6 0
v -7.5 -5.25 0
v -6.75 -5.25 0
v -7.5 -6 0
v -8.25 -6 0
v -8.25 -5.25 0
v -7.5 -5.25 0
v -8.25 -6 0
v -9 -6 0
v -9 -5.25 0
v -8.25 -5.25 0
v -9 -6 0
v -9.75 -6 0
v -9.75 -5.25 0
v -9 -5.25 0
v -9.75 -6 0
v -10.5 -6 0
v -10.5 -5.25 0
v -9.75 -5.25 0
v -10.5 -6 0
v -11.25 -6 0
v -11.25 -5.25 0
v -10.5 -5.25 0
v -11.25 -6 0
v -12 -6 0
v -12 -5.25 0
v -11.25 -5.25 0
v -12 -6 0
v -12.75 -6 0
v -12.75 -5.25 0
v -12 -5.25 0
v -12.75 -6 0
v -13.5 -6 0
v -13.5 -5.25 0
v -12.75 -5.25 0
v -13.5 -6 0
v -14.25 -6 0
v -14.25 -5.25 0
v -13.5 -5.25 0
v -14.25 -6 0
v -15 -6 0
v -15 -5.25 0
v -14.25 -5.25 0
v -15 -6 0
v -15.75 -6 0
v -15.75 -5.25 0
v -15 -5.25 0
v -15.75 -6 0
v -16.5 -6 0
v -16.5 -5.25 0
v -15.75 -5.25 0
v -16.5 -6 0
v -17.25 -6 0
v -17.25 -5.25 0
v -16.5 -5.25 0
v -17.25 -6 0
v -18 -6 0
v -18 -5.25 0
v -17.25 -5.25 0
v -6 -6.75 0
v -6.75 -6.75 0
v -6.75 -6 0
v -6 -6 0
v -6.75 -6.75 0
v -7.5 -6.75 0
v -7.5 -6 0
v -6.75 -6 0
v -7.5 -6.75 0
v -8.25 -6.75 0
v -8.25 -6 0
v -7.5 -6 0
v -8.25 -6.75 0
v -9 -6.75 0
v -9 -6 0
v -8.25 -6 0
v -9 -6.75 0
v -9.75 -6.75 0
v -9.75 -6 0
v -9 -6 0
v -9.75 -6.75 0
v -10.5 -6.75 0
v -10.5 -6 0
v -9.75 -6 0
v -10.5 -6.75 0
v -11.25 -6.75 0
v -11.25 -6 0
v -10.5 -6 0
v -11.25 -6.75 0
v -12 -6.75 0
v -12 -6 0
v -11.25 -6 0
v -12 -6.75 0
v -12.75 -6.75 0
v -12.75 -6 0
v -12 -6 0
v -12.75 -6.75 0
v -13.5 -6.75 0
v -13.5 -6 0
v -12.75 -6 0
v -13.5 -6.75 0
v -14.25 -6.75 0
v -14.25 -6 0
v -13.5 -6 0
v -14.25 -6.75 0
v -15 -6.75 0
v -15 -6 0
v -14.25 -6 0
v -15 -6.75 0
v -15.75 -6.75 0
v -15.75 -6 0
v -15 -6 0
v -15.75 -6.75 0
v -16.5 -6.75 0
v -16.5 -6 0
v -15.75 -6 0
v -16.5 -6.75 0
v -17.25 -6.75 0
v -17.25 -6 0
v -16.5 -6 0
v -17.25 -6.75 0
v -18 -6.75 0
v -18 -6 0
v -17.25 -6 0
v -6 -7.5 0
v -6.75 -7.5 0
v -6.75 -6.75 0
v -6 -6.75 0
v -6.75 -7.5 0
v -7.5 -7.5 0
v -7.5 -6.75 0
v -6.75 -6.75 0
v -7.5 -7.5 0
v -8.25 -7.5 0
v -8.25 -6.75 0
v -7.5 -6.75 0
v -8.25 -7.5 0
v -9 -7.5 0
v -9 -6.75 0
v -8.25 -6.75 0
v -9 -7.5 0
v -9.75 -7.5 0
v -9.75 -6.75 0
v -9 -6.75 0
v -9.75 -7.5 0
v -10.5 -7.5 0
v -10.5 -6.75 0
v -9.75 -6.75 0
v -10.5 -7.5 0
v -11.25 -7.5 0
v -11.25 -6.75 0
v -10.5 -6.75 0
v -11.25 -7.5 0
v -12 -7.5 0
v -12 -6.75 0
v -11.25 -6.75 0
v -12 -7.5 0
v -12.75 -7.5 0
v -12.75 -6.75 0
v -12 -6.75 0
v -12.75 -7.5 0
v -13.5 -7.5 0
v -13.5 -6.75 0
v -12.75 -6.75 0
v -13.5 -7.5 0
v -14.25 -7.5 0
v -14.25 -6.75 0
v -13.5 -6.75 0
v -14.25 -7.5 0
v -15 -7.5 0
v -15 -6.75 0
v -14.25 -6.75 0
v -15 -7.5 0
v -15.75 -7.5 0
v -15.75 -6.75 0
v -15 -6.75 0
v -15.75 -7.5 0
v -16.5 -7.5 0
v -16.5 -6.75 0
v -15.75 -6.75 0
v -16.5 -7.5 0
v -17.25 -7.5 0
v -17.25 -6.75 0
v -16.5 -6.75 0
v -17.25 -7.5 0
v -18 -7.5 0
v -18 -6.75 0
v -17.25 -6.75 0
v -6.75 -8.25 0
v -7.5 -8.25 0
v -7.5 -7.5 0
v -6.75 -7.5 0
v -7.5 -8.25 0
v -8.25 -8.25 0
v -8.25 -7.5 0
v -7.5 -7.5 0
v -8.25 -8.25 0
v -9 -8.25 0
v -9 -7.5 0
v -8.25 -7.5 0
v -9 -8.25 0
v -9.75 -8.25 0
v -9.75 -7.5 0
v -9 -7.5 0
v -9.75 -8.25 0
v -10.5 -8.25 0
v -10.5 -7.5 0
v -9.75 -7.5 0
v -10.5 -8.25 0
v -11.25 -8.25 0
v -11.25 -7.5 0
v -10.5 -7.5 0
v -11.25 -8.25 0
v -12 -8.25 0
v -12 -7.5 0
v -11.25 -7.5 0
v -12 -8.25 0
v -12.75 -8.25 0
v -12.75 -7.5 0
v -12 -7.5 0
v -12.75 -8.25 0
v -13.5 -8.25 0
v -13.5 -7.5 0
v -12.75 -7.5 0
v -13.5 -8.25 0
v -14.25 -8.25 0
v -14.25 -7.5 0
v -13.5 -7.5 0
v -14.25 -8.25 0
v -15 -8.25 0
v -15 -7.5 0
v -14.25 -7.5 0
v -15 -8.25 0
v -15.75 -8.25 0
v -15.75 -7.5 0
v -15 -7.5 0
v -15.75 -8.25 0
v -16.5 -8.25 0
v -16.5 -7.5 0
v -15.75 -7.5 0
v -16.5 -8.25 0
v -17.25 -8.25 0
v -17.25 -7.5 0
v -16.5 -7.5 0
v -7.5 -9 0
v -8.25 -9 0
v -8.25 -8.25 0
v -7.5 -8.25 0
v -8.25 -9 0
v -9 -9 0
v -9 -8.25 0
v -8.25 -8.25 0
v -9 -9 0
v -9.75 -9 0
v -9.75 -8.25 0
v -9 -8.25 0
v -9.75 -9 0
v -10.5 -9 0
v -10.5 -8.25 0
v -9.75 -8.25 0
v -10.5 -9 0
v -11.25 -9 0
v -11.25 -8.25 0
v -10.5 -8.25 0
v -11.25 -9 0
v -12 -9 0
v -12 -8.25 0
v -11.25 -8.25 0
v -12 -9 0
v -12.75 -9 0
v -12.75 -8.25 0
v -12 -8.25 0
v -12.75 -9 0
v -13.5 -9 0
v -13.5 -8.25 0
v -12.75 -8.25 0
v -13.5 -9 0
v -14.25 -9 0
v -14.25 -8.25 0
v -13.5 -8.25 0
v -14.25 -9 0
v -15 -9 0
v -15 -8.25 0
v -14.25 -8.25 0
v -15 -9 0
v -15.75 -9 0
v -15.75 -8.25 0
v -15 -8.25 0
v -15.75 -9 0
v -16.5 -9 0
v -16.5 -8.25 0
v -15.75 -8.25 0
v -9 -9.75 0
v -9.75 -9.75 0
v -9.75 -9 0
v -9 -9 0
v -9.75 -9.75 0
v -10.5 -9.75 0
v -10.5 -9 0
v -9.75 -9 0
v -10.5 -9.75 0
v -11.25 -9.75 0
v -11.25 -9 0
v -10.5 -9 0
v -11.25 -9.75 0
v -12 -9.75 0
v -12 -9 0
v -11.25 -9 0
v -12 -9.75 0
v -12.75 -9.75 0
v -12.75 -9 0
v -12 -9 0
v -12.75 -9.75 0
v -13.5 -9.75 0
v -13.5 -9 0
v -12.75 -9 0
v -13.5 -9.75 0
v -14.25 -9.75 0
v -14.25 -9 0
v -13.5 -9 0
v -14.25 -9.75 0
v -15 -9.75 0
v -15 -9 0
v -14.25 -9 0
v -10.5 -10.5 0
v -11.25 -10.5 0
v -11.25 -9.75 0
v -10.5 -9.75 0
v -11.25 -10.5 0
v -12 -10.5 0
v -12 -9.75 0
v -11.25 -9.75 0
v -12 -10.5 0
v -12.75 -10.5 0
v -12.75 -9.75 0
v -12 -9.75 0
v -12.75 -10.5 0
v -13.5 -10.5 0
v -13.5 -9.75 0
v -12.75 -9.75 0

# Texture cooridinates (Count = 25)
vt 0.75 0.2333333
vt 0.78125 0.2333333
vt 0.78125 0.2666667
vt 0.75 0.2666667
vt 0.8125 0.2333333
vt 0.8125 0.2666667
vt 0.84375 0.2333333
vt 0.84375 0.2666667
vt 0.875 0.2333333
vt 0.875 0.2666667
vt 0.75 0.2
vt 0.78125 0.2
vt 0.8125 0.2
vt 0.84375 0.2
vt 0.875 0.2
vt 0.75 0.1666667
vt 0.78125 0.1666667
vt 0.8125 0.1666667
vt 0.84375 0.1666667
vt 0.875 0.1666667
vt 0.75 0.1333333
vt 0.78125 0.1333333
vt 0.84375 0.1333333
vt 0.875 0.1333333
vt 0.8125 0.1333333

# Normal
vn 0 0 -1

# Mesh description
g Level02-BOSS_mesh_0010

# Faces
f 1/1/1 2/2/1 3/3/1 4/4/1
f 5/2/1 6/5/1 7/6/1 8/3/1
f 9/5/1 10/7/1 11/8/1 12/6/1
f 13/2/1 14/5/1 15/6/1 16/3/1
f 17/5/1 18/7/1 19/8/1 20/6/1
f 21/2/1 22/5/1 23/6/1 24/3/1
f 25/5/1 26/7/1 27/8/1 28/6/1
f 29/2/1 30/5/1 31/6/1 32/3/1
f 33/5/1 34/7/1 35/8/1 36/6/1
f 37/2/1 38/5/1 39/6/1 40/3/1
f 41/5/1 42/7/1 43/8/1 44/6/1
f 45/2/1 46/5/1 47/6/1 48/3/1
f 49/5/1 50/7/1 51/8/1 52/6/1
f 53/2/1 54/5/1 55/6/1 56/3/1
f 57/5/1 58/7/1 59/8/1 60/6/1
f 61/7/1 62/9/1 63/10/1 64/8/1
f 65/11/1 66/12/1 67/2/1 68/1/1
f 69/12/1 70/13/1 71/5/1 72/2/1
f 73/13/1 74/14/1 75/7/1 76/5/1
f 77/12/1 78/13/1 79/5/1 80/2/1
f 81/13/1 82/14/1 83/7/1 84/5/1
f 85/12/1 86/13/1 87/5/1 88/2/1
f 89/13/1 90/14/1 91/7/1 92/5/1
f 93/12/1 94/13/1 95/5/1 96/2/1
f 97/13/1 98/14/1 99/7/1 100/5/1
f 101/12/1 102/13/1 103/5/1 104/2/1
f 105/13/1 106/14/1 107/7/1 108/5/1
f 109/12/1 110/13/1 111/5/1 112/2/1
f 113/13/1 114/14/1 115/7/1 116/5/1
f 117/12/1 118/13/1 119/5/1 120/2/1
f 121/13/1 122/14/1 123/7/1 124/5/1
f 125/14/1 126/15/1 127/9/1 128/7/1
f 129/16/1 130/17/1 131/12/1 132/11/1
f 133/17/1 134/18/1 135/13/1 136/12/1
f 137/18/1 138/19/1 139/14/1 140/13/1
f 141/17/1 142/18/1 143/13/1 144/12/1
f 145/18/1 146/19/1 147/14/1 148/13/1
f 149/17/1 150/18/1 151/13/1 152/12/1
f 153/18/1 154/19/1 155/14/1 156/13/1
f 157/17/1 158/18/1 159/13/1 160/12/1
f 161/18/1 162/19/1 163/14/1 164/13/1
f 165/17/1 166/18/1 167/13/1 168/12/1
f 169/18/1 170/19/1 171/14/1 172/13/1
f 173/17/1 174/18/1 175/13/1 176/12/1
f 177/18/1 178/19/1 179/14/1 180/13/1
f 181/17/1 182/18/1 183/13/1 184/12/1
f 185/18/1 186/19/1 187/14/1 188/13/1
f 189/19/1 190/20/1 191/15/1 192/14/1
f 193/21/1 194/22/1 195/17/1 196/16/1
f 197/12/1 198/13/1 199/5/1 200/2/1
f 201/13/1 202/14/1 203/7/1 204/5/1
f 205/12/1 206/13/1 207/5/1 208/2/1
f 209/13/1 210/14/1 211/7/1 212/5/1
f 213/12/1 214/13/1 215/5/1 216/2/1
f 217/13/1 218/14/1 219/7/1 220/5/1
f 221/12/1 222/13/1 223/5/1 224/2/1
f 225/13/1 226/14/1 227/7/1 228/5/1
f 229/12/1 230/13/1 231/5/1 232/2/1
f 233/13/1 234/14/1 235/7/1 236/5/1
f 237/12/1 238/13/1 239/5/1 240/2/1
f 241/13/1 242/14/1 243/7/1 244/5/1
f 245/12/1 246/13/1 247/5/1 248/2/1
f 249/13/1 250/14/1 251/7/1 252/5/1
f 253/23/1 254/24/1 255/20/1 256/19/1
f 257/21/1 258/22/1 259/17/1 260/16/1
f 261/18/1 262/19/1 263/14/1 264/13/1
f 265/17/1 266/18/1 267/13/1 268/12/1
f 269/18/1 270/19/1 271/14/1 272/13/1
f 273/17/1 274/18/1 275/13/1 276/12/1
f 277/18/1 278/19/1 279/14/1 280/13/1
f 281/17/1 282/18/1 283/13/1 284/12/1
f 285/18/1 286/19/1 287/14/1 288/13/1
f 289/17/1 290/18/1 291/13/1 292/12/1
f 293/18/1 294/19/1 295/14/1 296/13/1
f 297/17/1 298/18/1 299/13/1 300/12/1
f 301/18/1 302/19/1 303/14/1 304/13/1
f 305/17/1 306/18/1 307/13/1 308/12/1
f 309/23/1 310/24/1 311/20/1 312/19/1
f 313/21/1 314/22/1 315/17/1 316/16/1
f 317/22/1 318/25/1 319/18/1 320/17/1
f 321/13/1 322/14/1 323/7/1 324/5/1
f 325/12/1 326/13/1 327/5/1 328/2/1
f 329/13/1 330/14/1 331/7/1 332/5/1
f 333/12/1 334/13/1 335/5/1 336/2/1
f 337/13/1 338/14/1 339/7/1 340/5/1
f 341/12/1 342/13/1 343/5/1 344/2/1
f 345/13/1 346/14/1 347/7/1 348/5/1
f 349/12/1 350/13/1 351/5/1 352/2/1
f 353/25/1 354/23/1 355/19/1 356/18/1
f 357/23/1 358/24/1 359/20/1 360/19/1
f 361/21/1 362/22/1 363/17/1 364/16/1
f 365/22/1 366/25/1 367/18/1 368/17/1
f 369/18/1 370/19/1 371/14/1 372/13/1
f 373/17/1 374/18/1 375/13/1 376/12/1
f 377/18/1 378/19/1 379/14/1 380/13/1
f 381/17/1 382/18/1 383/13/1 384/12/1
f 385/25/1 386/23/1 387/19/1 388/18/1
f 389/23/1 390/24/1 391/20/1 392/19/1
f 393/21/1 394/22/1 395/17/1 396/16/1
f 397/22/1 398/25/1 399/18/1 400/17/1
f 401/25/1 402/23/1 403/19/1 404/18/1
f 405/23/1 406/24/1 407/20/1 408/19/1

