# Tiled2Unity generated file. Do not modify by hand.
# Wavefront file for 'Level06-BOSS_mesh_0002.obj'

# Vertices (Count = 200)
v -4.5 -7.5 0
v -5.25 -7.5 0
v -5.25 -6.75 0
v -4.5 -6.75 0
v -5.25 -7.5 0
v -6 -7.5 0
v -6 -6.75 0
v -5.25 -6.75 0
v -3 -8.25 0
v -3.75 -8.25 0
v -3.75 -7.5 0
v -3 -7.5 0
v -3.75 -8.25 0
v -4.5 -8.25 0
v -4.5 -7.5 0
v -3.75 -7.5 0
v -4.5 -8.25 0
v -5.25 -8.25 0
v -5.25 -7.5 0
v -4.5 -7.5 0
v -5.25 -8.25 0
v -6 -8.25 0
v -6 -7.5 0
v -5.25 -7.5 0
v -18 -8.25 0
v -18.75 -8.25 0
v -18.75 -7.5 0
v -18 -7.5 0
v -18.75 -8.25 0
v -19.5 -8.25 0
v -19.5 -7.5 0
v -18.75 -7.5 0
v -19.5 -8.25 0
v -20.25 -8.25 0
v -20.25 -7.5 0
v -19.5 -7.5 0
v -20.25 -8.25 0
v -21 -8.25 0
v -21 -7.5 0
v -20.25 -7.5 0
v -1.5 -9 0
v -2.25 -9 0
v -2.25 -8.25 0
v -1.5 -8.25 0
v -2.25 -9 0
v -3 -9 0
v -3 -8.25 0
v -2.25 -8.25 0
v -3 -9 0
v -3.75 -9 0
v -3.75 -8.25 0
v -3 -8.25 0
v -3.75 -9 0
v -4.5 -9 0
v -4.5 -8.25 0
v -3.75 -8.25 0
v -4.5 -9 0
v -5.25 -9 0
v -5.25 -8.25 0
v -4.5 -8.25 0
v -5.25 -9 0
v -6 -9 0
v -6 -8.25 0
v -5.25 -8.25 0
v -6 -9 0
v -6.75 -9 0
v -6.75 -8.25 0
v -6 -8.25 0
v -17.25 -9 0
v -18 -9 0
v -18 -8.25 0
v -17.25 -8.25 0
v -18 -9 0
v -18.75 -9 0
v -18.75 -8.25 0
v -18 -8.25 0
v -18.75 -9 0
v -19.5 -9 0
v -19.5 -8.25 0
v -18.75 -8.25 0
v -19.5 -9 0
v -20.25 -9 0
v -20.25 -8.25 0
v -19.5 -8.25 0
v -20.25 -9 0
v -21 -9 0
v -21 -8.25 0
v -20.25 -8.25 0
v -21 -9 0
v -21.75 -9 0
v -21.75 -8.25 0
v -21 -8.25 0
v -21.75 -9 0
v -22.5 -9 0
v -22.5 -8.25 0
v -21.75 -8.25 0
v 0 -9.75 0
v -0.75 -9.75 0
v -0.75 -9 0
v 0 -9 0
v -0.75 -9.75 0
v -1.5 -9.75 0
v -1.5 -9 0
v -0.75 -9 0
v -1.5 -9.75 0
v -2.25 -9.75 0
v -2.25 -9 0
v -1.5 -9 0
v -2.25 -9.75 0
v -3 -9.75 0
v -3 -9 0
v -2.25 -9 0
v -5.25 -9.75 0
v -6 -9.75 0
v -6 -9 0
v -5.25 -9 0
v -6 -9.75 0
v -6.75 -9.75 0
v -6.75 -9 0
v -6 -9 0
v -6.75 -9.75 0
v -7.5 -9.75 0
v -7.5 -9 0
v -6.75 -9 0
v -16.5 -9.75 0
v -17.25 -9.75 0
v -17.25 -9 0
v -16.5 -9 0
v -17.25 -9.75 0
v -18 -9.75 0
v -18 -9 0
v -17.25 -9 0
v -18 -9.75 0
v -18.75 -9.75 0
v -18.75 -9 0
v -18 -9 0
v -21 -9.75 0
v -21.75 -9.75 0
v -21.75 -9 0
v -21 -9 0
v -21.75 -9.75 0
v -22.5 -9.75 0
v -22.5 -9 0
v -21.75 -9 0
v -22.5 -9.75 0
v -23.25 -9.75 0
v -23.25 -9 0
v -22.5 -9 0
v 0 -10.5 0
v -0.75 -10.5 0
v -0.75 -9.75 0
v 0 -9.75 0
v -0.75 -10.5 0
v -1.5 -10.5 0
v -1.5 -9.75 0
v -0.75 -9.75 0
v -1.5 -10.5 0
v -2.25 -10.5 0
v -2.25 -9.75 0
v -1.5 -9.75 0
v -6 -10.5 0
v -6.75 -10.5 0
v -6.75 -9.75 0
v -6 -9.75 0
v -6.75 -10.5 0
v -7.5 -10.5 0
v -7.5 -9.75 0
v -6.75 -9.75 0
v -16.5 -10.5 0
v -17.25 -10.5 0
v -17.25 -9.75 0
v -16.5 -9.75 0
v -17.25 -10.5 0
v -18 -10.5 0
v -18 -9.75 0
v -17.25 -9.75 0
v -21.75 -10.5 0
v -22.5 -10.5 0
v -22.5 -9.75 0
v -21.75 -9.75 0
v -22.5 -10.5 0
v -23.25 -10.5 0
v -23.25 -9.75 0
v -22.5 -9.75 0
v -11.25 -23.25 0
v -12 -23.25 0
v -12 -22.5 0
v -11.25 -22.5 0
v -12 -23.25 0
v -12.75 -23.25 0
v -12.75 -22.5 0
v -12 -22.5 0
v -11.25 -24 0
v -12 -24 0
v -12 -23.25 0
v -11.25 -23.25 0
v -12 -24 0
v -12.75 -24 0
v -12.75 -23.25 0
v -12 -23.25 0

# Texture cooridinates (Count = 9)
vt 0.625 0.96875
vt 0.6875 0.96875
vt 0.6875 1
vt 0.625 1
vt 0.75 0.96875
vt 0.75 1
vt 0.625 0.9375
vt 0.6875 0.9375
vt 0.75 0.9375

# Normal
vn 0 0 -1

# Mesh description
g Level06-BOSS_mesh_0002

# Faces
f 1/1/1 2/2/1 3/3/1 4/4/1
f 5/2/1 6/5/1 7/6/1 8/3/1
f 9/1/1 10/2/1 11/3/1 12/4/1
f 13/2/1 14/5/1 15/6/1 16/3/1
f 17/1/1 18/2/1 19/3/1 20/4/1
f 21/2/1 22/5/1 23/6/1 24/3/1
f 25/1/1 26/2/1 27/3/1 28/4/1
f 29/2/1 30/5/1 31/6/1 32/3/1
f 33/1/1 34/2/1 35/3/1 36/4/1
f 37/2/1 38/5/1 39/6/1 40/3/1
f 41/1/1 42/2/1 43/3/1 44/4/1
f 45/2/1 46/5/1 47/6/1 48/3/1
f 49/7/1 50/8/1 51/2/1 52/1/1
f 53/8/1 54/9/1 55/5/1 56/2/1
f 57/7/1 58/8/1 59/2/1 60/1/1
f 61/8/1 62/9/1 63/5/1 64/2/1
f 65/2/1 66/5/1 67/6/1 68/3/1
f 69/1/1 70/2/1 71/3/1 72/4/1
f 73/7/1 74/8/1 75/2/1 76/1/1
f 77/8/1 78/9/1 79/5/1 80/2/1
f 81/7/1 82/8/1 83/2/1 84/1/1
f 85/8/1 86/9/1 87/5/1 88/2/1
f 89/1/1 90/2/1 91/3/1 92/4/1
f 93/2/1 94/5/1 95/6/1 96/3/1
f 97/1/1 98/2/1 99/3/1 100/4/1
f 101/1/1 102/2/1 103/3/1 104/4/1
f 105/2/1 106/5/1 107/6/1 108/3/1
f 109/8/1 110/9/1 111/5/1 112/2/1
f 113/7/1 114/8/1 115/2/1 116/1/1
f 117/1/1 118/2/1 119/3/1 120/4/1
f 121/2/1 122/5/1 123/6/1 124/3/1
f 125/1/1 126/2/1 127/3/1 128/4/1
f 129/7/1 130/8/1 131/2/1 132/1/1
f 133/8/1 134/9/1 135/5/1 136/2/1
f 137/7/1 138/8/1 139/2/1 140/1/1
f 141/1/1 142/2/1 143/3/1 144/4/1
f 145/2/1 146/5/1 147/6/1 148/3/1
f 149/7/1 150/8/1 151/2/1 152/1/1
f 153/7/1 154/8/1 155/2/1 156/1/1
f 157/8/1 158/9/1 159/5/1 160/2/1
f 161/7/1 162/8/1 163/2/1 164/1/1
f 165/8/1 166/9/1 167/5/1 168/2/1
f 169/7/1 170/8/1 171/2/1 172/1/1
f 173/8/1 174/9/1 175/5/1 176/2/1
f 177/7/1 178/8/1 179/2/1 180/1/1
f 181/8/1 182/9/1 183/5/1 184/2/1
f 185/1/1 186/2/1 187/3/1 188/4/1
f 189/2/1 190/5/1 191/6/1 192/3/1
f 193/7/1 194/8/1 195/2/1 196/1/1
f 197/8/1 198/9/1 199/5/1 200/2/1

