# Tiled2Unity generated file. Do not modify by hand.
# Wavefront file for 'Level06-BOSS_mesh_0004.obj'

# Vertices (Count = 528)
v -3 -3 0
v -3.75 -3 0
v -3.75 -2.25 0
v -3 -2.25 0
v -3.75 -3 0
v -4.5 -3 0
v -4.5 -2.25 0
v -3.75 -2.25 0
v -4.5 -3 0
v -5.25 -3 0
v -5.25 -2.25 0
v -4.5 -2.25 0
v -5.25 -3 0
v -6 -3 0
v -6 -2.25 0
v -5.25 -2.25 0
v -6 -3 0
v -6.75 -3 0
v -6.75 -2.25 0
v -6 -2.25 0
v -6.75 -3 0
v -7.5 -3 0
v -7.5 -2.25 0
v -6.75 -2.25 0
v -7.5 -3 0
v -8.25 -3 0
v -8.25 -2.25 0
v -7.5 -2.25 0
v -8.25 -3 0
v -9 -3 0
v -9 -2.25 0
v -8.25 -2.25 0
v -9 -3 0
v -9.75 -3 0
v -9.75 -2.25 0
v -9 -2.25 0
v -9.75 -3 0
v -10.5 -3 0
v -10.5 -2.25 0
v -9.75 -2.25 0
v -10.5 -3 0
v -11.25 -3 0
v -11.25 -2.25 0
v -10.5 -2.25 0
v -11.25 -3 0
v -12 -3 0
v -12 -2.25 0
v -11.25 -2.25 0
v -12 -3 0
v -12.75 -3 0
v -12.75 -2.25 0
v -12 -2.25 0
v -12.75 -3 0
v -13.5 -3 0
v -13.5 -2.25 0
v -12.75 -2.25 0
v -13.5 -3 0
v -14.25 -3 0
v -14.25 -2.25 0
v -13.5 -2.25 0
v -14.25 -3 0
v -15 -3 0
v -15 -2.25 0
v -14.25 -2.25 0
v -15 -3 0
v -15.75 -3 0
v -15.75 -2.25 0
v -15 -2.25 0
v -15.75 -3 0
v -16.5 -3 0
v -16.5 -2.25 0
v -15.75 -2.25 0
v -16.5 -3 0
v -17.25 -3 0
v -17.25 -2.25 0
v -16.5 -2.25 0
v -17.25 -3 0
v -18 -3 0
v -18 -2.25 0
v -17.25 -2.25 0
v -18 -3 0
v -18.75 -3 0
v -18.75 -2.25 0
v -18 -2.25 0
v -18.75 -3 0
v -19.5 -3 0
v -19.5 -2.25 0
v -18.75 -2.25 0
v -19.5 -3 0
v -20.25 -3 0
v -20.25 -2.25 0
v -19.5 -2.25 0
v -20.25 -3 0
v -21 -3 0
v -21 -2.25 0
v -20.25 -2.25 0
v -2.25 -3.75 0
v -3 -3.75 0
v -3 -3 0
v -2.25 -3 0
v -3 -3.75 0
v -3.75 -3.75 0
v -3.75 -3 0
v -3 -3 0
v -3.75 -3.75 0
v -4.5 -3.75 0
v -4.5 -3 0
v -3.75 -3 0
v -4.5 -3.75 0
v -5.25 -3.75 0
v -5.25 -3 0
v -4.5 -3 0
v -5.25 -3.75 0
v -6 -3.75 0
v -6 -3 0
v -5.25 -3 0
v -6 -3.75 0
v -6.75 -3.75 0
v -6.75 -3 0
v -6 -3 0
v -6.75 -3.75 0
v -7.5 -3.75 0
v -7.5 -3 0
v -6.75 -3 0
v -7.5 -3.75 0
v -8.25 -3.75 0
v -8.25 -3 0
v -7.5 -3 0
v -8.25 -3.75 0
v -9 -3.75 0
v -9 -3 0
v -8.25 -3 0
v -9 -3.75 0
v -9.75 -3.75 0
v -9.75 -3 0
v -9 -3 0
v -9.75 -3.75 0
v -10.5 -3.75 0
v -10.5 -3 0
v -9.75 -3 0
v -10.5 -3.75 0
v -11.25 -3.75 0
v -11.25 -3 0
v -10.5 -3 0
v -11.25 -3.75 0
v -12 -3.75 0
v -12 -3 0
v -11.25 -3 0
v -12 -3.75 0
v -12.75 -3.75 0
v -12.75 -3 0
v -12 -3 0
v -12.75 -3.75 0
v -13.5 -3.75 0
v -13.5 -3 0
v -12.75 -3 0
v -13.5 -3.75 0
v -14.25 -3.75 0
v -14.25 -3 0
v -13.5 -3 0
v -14.25 -3.75 0
v -15 -3.75 0
v -15 -3 0
v -14.25 -3 0
v -15 -3.75 0
v -15.75 -3.75 0
v -15.75 -3 0
v -15 -3 0
v -15.75 -3.75 0
v -16.5 -3.75 0
v -16.5 -3 0
v -15.75 -3 0
v -16.5 -3.75 0
v -17.25 -3.75 0
v -17.25 -3 0
v -16.5 -3 0
v -17.25 -3.75 0
v -18 -3.75 0
v -18 -3 0
v -17.25 -3 0
v -18 -3.75 0
v -18.75 -3.75 0
v -18.75 -3 0
v -18 -3 0
v -18.75 -3.75 0
v -19.5 -3.75 0
v -19.5 -3 0
v -18.75 -3 0
v -19.5 -3.75 0
v -20.25 -3.75 0
v -20.25 -3 0
v -19.5 -3 0
v -20.25 -3.75 0
v -21 -3.75 0
v -21 -3 0
v -20.25 -3 0
v -21 -3.75 0
v -21.75 -3.75 0
v -21.75 -3 0
v -21 -3 0
v -1.5 -4.5 0
v -2.25 -4.5 0
v -2.25 -3.75 0
v -1.5 -3.75 0
v -2.25 -4.5 0
v -3 -4.5 0
v -3 -3.75 0
v -2.25 -3.75 0
v -3 -4.5 0
v -3.75 -4.5 0
v -3.75 -3.75 0
v -3 -3.75 0
v -3.75 -4.5 0
v -4.5 -4.5 0
v -4.5 -3.75 0
v -3.75 -3.75 0
v -4.5 -4.5 0
v -5.25 -4.5 0
v -5.25 -3.75 0
v -4.5 -3.75 0
v -5.25 -4.5 0
v -6 -4.5 0
v -6 -3.75 0
v -5.25 -3.75 0
v -6 -4.5 0
v -6.75 -4.5 0
v -6.75 -3.75 0
v -6 -3.75 0
v -6.75 -4.5 0
v -7.5 -4.5 0
v -7.5 -3.75 0
v -6.75 -3.75 0
v -7.5 -4.5 0
v -8.25 -4.5 0
v -8.25 -3.75 0
v -7.5 -3.75 0
v -8.25 -4.5 0
v -9 -4.5 0
v -9 -3.75 0
v -8.25 -3.75 0
v -9 -4.5 0
v -9.75 -4.5 0
v -9.75 -3.75 0
v -9 -3.75 0
v -9.75 -4.5 0
v -10.5 -4.5 0
v -10.5 -3.75 0
v -9.75 -3.75 0
v -10.5 -4.5 0
v -11.25 -4.5 0
v -11.25 -3.75 0
v -10.5 -3.75 0
v -11.25 -4.5 0
v -12 -4.5 0
v -12 -3.75 0
v -11.25 -3.75 0
v -12 -4.5 0
v -12.75 -4.5 0
v -12.75 -3.75 0
v -12 -3.75 0
v -12.75 -4.5 0
v -13.5 -4.5 0
v -13.5 -3.75 0
v -12.75 -3.75 0
v -13.5 -4.5 0
v -14.25 -4.5 0
v -14.25 -3.75 0
v -13.5 -3.75 0
v -14.25 -4.5 0
v -15 -4.5 0
v -15 -3.75 0
v -14.25 -3.75 0
v -15 -4.5 0
v -15.75 -4.5 0
v -15.75 -3.75 0
v -15 -3.75 0
v -15.75 -4.5 0
v -16.5 -4.5 0
v -16.5 -3.75 0
v -15.75 -3.75 0
v -16.5 -4.5 0
v -17.25 -4.5 0
v -17.25 -3.75 0
v -16.5 -3.75 0
v -17.25 -4.5 0
v -18 -4.5 0
v -18 -3.75 0
v -17.25 -3.75 0
v -18 -4.5 0
v -18.75 -4.5 0
v -18.75 -3.75 0
v -18 -3.75 0
v -18.75 -4.5 0
v -19.5 -4.5 0
v -19.5 -3.75 0
v -18.75 -3.75 0
v -19.5 -4.5 0
v -20.25 -4.5 0
v -20.25 -3.75 0
v -19.5 -3.75 0
v -20.25 -4.5 0
v -21 -4.5 0
v -21 -3.75 0
v -20.25 -3.75 0
v -21 -4.5 0
v -21.75 -4.5 0
v -21.75 -3.75 0
v -21 -3.75 0
v -21.75 -4.5 0
v -22.5 -4.5 0
v -22.5 -3.75 0
v -21.75 -3.75 0
v -1.5 -5.25 0
v -2.25 -5.25 0
v -2.25 -4.5 0
v -1.5 -4.5 0
v -2.25 -5.25 0
v -3 -5.25 0
v -3 -4.5 0
v -2.25 -4.5 0
v -3 -5.25 0
v -3.75 -5.25 0
v -3.75 -4.5 0
v -3 -4.5 0
v -3.75 -5.25 0
v -4.5 -5.25 0
v -4.5 -4.5 0
v -3.75 -4.5 0
v -4.5 -5.25 0
v -5.25 -5.25 0
v -5.25 -4.5 0
v -4.5 -4.5 0
v -5.25 -5.25 0
v -6 -5.25 0
v -6 -4.5 0
v -5.25 -4.5 0
v -18 -5.25 0
v -18.75 -5.25 0
v -18.75 -4.5 0
v -18 -4.5 0
v -18.75 -5.25 0
v -19.5 -5.25 0
v -19.5 -4.5 0
v -18.75 -4.5 0
v -19.5 -5.25 0
v -20.25 -5.25 0
v -20.25 -4.5 0
v -19.5 -4.5 0
v -20.25 -5.25 0
v -21 -5.25 0
v -21 -4.5 0
v -20.25 -4.5 0
v -21 -5.25 0
v -21.75 -5.25 0
v -21.75 -4.5 0
v -21 -4.5 0
v -21.75 -5.25 0
v -22.5 -5.25 0
v -22.5 -4.5 0
v -21.75 -4.5 0
v -1.5 -6 0
v -2.25 -6 0
v -2.25 -5.25 0
v -1.5 -5.25 0
v -2.25 -6 0
v -3 -6 0
v -3 -5.25 0
v -2.25 -5.25 0
v -3 -6 0
v -3.75 -6 0
v -3.75 -5.25 0
v -3 -5.25 0
v -3.75 -6 0
v -4.5 -6 0
v -4.5 -5.25 0
v -3.75 -5.25 0
v -4.5 -6 0
v -5.25 -6 0
v -5.25 -5.25 0
v -4.5 -5.25 0
v -5.25 -6 0
v -6 -6 0
v -6 -5.25 0
v -5.25 -5.25 0
v -18 -6 0
v -18.75 -6 0
v -18.75 -5.25 0
v -18 -5.25 0
v -18.75 -6 0
v -19.5 -6 0
v -19.5 -5.25 0
v -18.75 -5.25 0
v -19.5 -6 0
v -20.25 -6 0
v -20.25 -5.25 0
v -19.5 -5.25 0
v -20.25 -6 0
v -21 -6 0
v -21 -5.25 0
v -20.25 -5.25 0
v -21 -6 0
v -21.75 -6 0
v -21.75 -5.25 0
v -21 -5.25 0
v -21.75 -6 0
v -22.5 -6 0
v -22.5 -5.25 0
v -21.75 -5.25 0
v -1.5 -6.75 0
v -2.25 -6.75 0
v -2.25 -6 0
v -1.5 -6 0
v -2.25 -6.75 0
v -3 -6.75 0
v -3 -6 0
v -2.25 -6 0
v -3 -6.75 0
v -3.75 -6.75 0
v -3.75 -6 0
v -3 -6 0
v -3.75 -6.75 0
v -4.5 -6.75 0
v -4.5 -6 0
v -3.75 -6 0
v -4.5 -6.75 0
v -5.25 -6.75 0
v -5.25 -6 0
v -4.5 -6 0
v -5.25 -6.75 0
v -6 -6.75 0
v -6 -6 0
v -5.25 -6 0
v -18 -6.75 0
v -18.75 -6.75 0
v -18.75 -6 0
v -18 -6 0
v -18.75 -6.75 0
v -19.5 -6.75 0
v -19.5 -6 0
v -18.75 -6 0
v -19.5 -6.75 0
v -20.25 -6.75 0
v -20.25 -6 0
v -19.5 -6 0
v -20.25 -6.75 0
v -21 -6.75 0
v -21 -6 0
v -20.25 -6 0
v -21 -6.75 0
v -21.75 -6.75 0
v -21.75 -6 0
v -21 -6 0
v -21.75 -6.75 0
v -22.5 -6.75 0
v -22.5 -6 0
v -21.75 -6 0
v -1.5 -7.5 0
v -2.25 -7.5 0
v -2.25 -6.75 0
v -1.5 -6.75 0
v -2.25 -7.5 0
v -3 -7.5 0
v -3 -6.75 0
v -2.25 -6.75 0
v -3 -7.5 0
v -3.75 -7.5 0
v -3.75 -6.75 0
v -3 -6.75 0
v -3.75 -7.5 0
v -4.5 -7.5 0
v -4.5 -6.75 0
v -3.75 -6.75 0
v -4.5 -7.5 0
v -5.25 -7.5 0
v -5.25 -6.75 0
v -4.5 -6.75 0
v -5.25 -7.5 0
v -6 -7.5 0
v -6 -6.75 0
v -5.25 -6.75 0
v -18 -7.5 0
v -18.75 -7.5 0
v -18.75 -6.75 0
v -18 -6.75 0
v -18.75 -7.5 0
v -19.5 -7.5 0
v -19.5 -6.75 0
v -18.75 -6.75 0
v -19.5 -7.5 0
v -20.25 -7.5 0
v -20.25 -6.75 0
v -19.5 -6.75 0
v -20.25 -7.5 0
v -21 -7.5 0
v -21 -6.75 0
v -20.25 -6.75 0
v -21 -7.5 0
v -21.75 -7.5 0
v -21.75 -6.75 0
v -21 -6.75 0
v -21.75 -7.5 0
v -22.5 -7.5 0
v -22.5 -6.75 0
v -21.75 -6.75 0
v -1.5 -8.25 0
v -2.25 -8.25 0
v -2.25 -7.5 0
v -1.5 -7.5 0
v -2.25 -8.25 0
v -3 -8.25 0
v -3 -7.5 0
v -2.25 -7.5 0
v -21 -8.25 0
v -21.75 -8.25 0
v -21.75 -7.5 0
v -21 -7.5 0
v -21.75 -8.25 0
v -22.5 -8.25 0
v -22.5 -7.5 0
v -21.75 -7.5 0
v -1.5 -9 0
v -2.25 -9 0
v -2.25 -8.25 0
v -1.5 -8.25 0
v -21.75 -9 0
v -22.5 -9 0
v -22.5 -8.25 0
v -21.75 -8.25 0

# Texture cooridinates (Count = 23)
vt 0.90625 0.7333333
vt 0.9375 0.7333333
vt 0.9375 0.7666667
vt 0.90625 0.7666667
vt 0.96875 0.7333333
vt 0.96875 0.7666667
vt 1 0.7333333
vt 1 0.7666667
vt 0.9375 0.8
vt 0.90625 0.8
vt 0.96875 0.8
vt 0.875 0.7333333
vt 0.875 0.7666667
vt 0.90625 0.7
vt 0.9375 0.7
vt 0.96875 0.7
vt 1 0.7
vt 0.875 0.7
vt 0.90625 0.6666667
vt 0.9375 0.6666667
vt 0.96875 0.6666667
vt 1 0.6666667
vt 0.875 0.6666667

# Normal
vn 0 0 -1

# Mesh description
g Level06-BOSS_mesh_0004

# Faces
f 1/1/1 2/2/1 3/3/1 4/4/1
f 5/2/1 6/5/1 7/6/1 8/3/1
f 9/1/1 10/2/1 11/3/1 12/4/1
f 13/5/1 14/7/1 15/8/1 16/6/1
f 17/4/1 18/3/1 19/9/1 20/10/1
f 21/3/1 22/6/1 23/11/1 24/9/1
f 25/4/1 26/3/1 27/9/1 28/10/1
f 29/3/1 30/6/1 31/11/1 32/9/1
f 33/4/1 34/3/1 35/9/1 36/10/1
f 37/3/1 38/6/1 39/11/1 40/9/1
f 41/4/1 42/3/1 43/9/1 44/10/1
f 45/3/1 46/6/1 47/11/1 48/9/1
f 49/4/1 50/3/1 51/9/1 52/10/1
f 53/3/1 54/6/1 55/11/1 56/9/1
f 57/4/1 58/3/1 59/9/1 60/10/1
f 61/3/1 62/6/1 63/11/1 64/9/1
f 65/4/1 66/3/1 67/9/1 68/10/1
f 69/3/1 70/6/1 71/11/1 72/9/1
f 73/4/1 74/3/1 75/9/1 76/10/1
f 77/3/1 78/6/1 79/11/1 80/9/1
f 81/12/1 82/1/1 83/4/1 84/13/1
f 85/1/1 86/2/1 87/3/1 88/4/1
f 89/2/1 90/5/1 91/6/1 92/3/1
f 93/1/1 94/2/1 95/3/1 96/4/1
f 97/5/1 98/7/1 99/8/1 100/6/1
f 101/14/1 102/15/1 103/2/1 104/1/1
f 105/15/1 106/16/1 107/5/1 108/2/1
f 109/14/1 110/15/1 111/2/1 112/1/1
f 113/16/1 114/17/1 115/7/1 116/5/1
f 117/1/1 118/2/1 119/3/1 120/4/1
f 121/2/1 122/5/1 123/6/1 124/3/1
f 125/1/1 126/2/1 127/3/1 128/4/1
f 129/2/1 130/5/1 131/6/1 132/3/1
f 133/1/1 134/2/1 135/3/1 136/4/1
f 137/2/1 138/5/1 139/6/1 140/3/1
f 141/1/1 142/2/1 143/3/1 144/4/1
f 145/2/1 146/5/1 147/6/1 148/3/1
f 149/1/1 150/2/1 151/3/1 152/4/1
f 153/2/1 154/5/1 155/6/1 156/3/1
f 157/1/1 158/2/1 159/3/1 160/4/1
f 161/2/1 162/5/1 163/6/1 164/3/1
f 165/1/1 166/2/1 167/3/1 168/4/1
f 169/2/1 170/5/1 171/6/1 172/3/1
f 173/1/1 174/2/1 175/3/1 176/4/1
f 177/2/1 178/5/1 179/6/1 180/3/1
f 181/18/1 182/14/1 183/1/1 184/12/1
f 185/14/1 186/15/1 187/2/1 188/1/1
f 189/15/1 190/16/1 191/5/1 192/2/1
f 193/14/1 194/15/1 195/2/1 196/1/1
f 197/12/1 198/1/1 199/4/1 200/13/1
f 201/5/1 202/7/1 203/8/1 204/6/1
f 205/16/1 206/17/1 207/7/1 208/5/1
f 209/1/1 210/2/1 211/3/1 212/4/1
f 213/2/1 214/5/1 215/6/1 216/3/1
f 217/1/1 218/2/1 219/3/1 220/4/1
f 221/5/1 222/7/1 223/8/1 224/6/1
f 225/14/1 226/15/1 227/2/1 228/1/1
f 229/15/1 230/16/1 231/5/1 232/2/1
f 233/14/1 234/15/1 235/2/1 236/1/1
f 237/15/1 238/16/1 239/5/1 240/2/1
f 241/14/1 242/15/1 243/2/1 244/1/1
f 245/15/1 246/16/1 247/5/1 248/2/1
f 249/14/1 250/15/1 251/2/1 252/1/1
f 253/15/1 254/16/1 255/5/1 256/2/1
f 257/14/1 258/15/1 259/2/1 260/1/1
f 261/15/1 262/16/1 263/5/1 264/2/1
f 265/14/1 266/15/1 267/2/1 268/1/1
f 269/15/1 270/16/1 271/5/1 272/2/1
f 273/14/1 274/15/1 275/2/1 276/1/1
f 277/15/1 278/16/1 279/5/1 280/2/1
f 281/14/1 282/15/1 283/2/1 284/1/1
f 285/15/1 286/16/1 287/5/1 288/2/1
f 289/12/1 290/1/1 291/4/1 292/13/1
f 293/1/1 294/2/1 295/3/1 296/4/1
f 297/2/1 298/5/1 299/6/1 300/3/1
f 301/1/1 302/2/1 303/3/1 304/4/1
f 305/18/1 306/14/1 307/1/1 308/12/1
f 309/12/1 310/1/1 311/4/1 312/13/1
f 313/16/1 314/17/1 315/7/1 316/5/1
f 317/5/1 318/7/1 319/8/1 320/6/1
f 321/14/1 322/15/1 323/2/1 324/1/1
f 325/15/1 326/16/1 327/5/1 328/2/1
f 329/14/1 330/15/1 331/2/1 332/1/1
f 333/16/1 334/17/1 335/7/1 336/5/1
f 337/18/1 338/14/1 339/1/1 340/12/1
f 341/14/1 342/15/1 343/2/1 344/1/1
f 345/15/1 346/16/1 347/5/1 348/2/1
f 349/14/1 350/15/1 351/2/1 352/1/1
f 353/12/1 354/1/1 355/4/1 356/13/1
f 357/18/1 358/14/1 359/1/1 360/12/1
f 361/5/1 362/7/1 363/8/1 364/6/1
f 365/16/1 366/17/1 367/7/1 368/5/1
f 369/1/1 370/2/1 371/3/1 372/4/1
f 373/2/1 374/5/1 375/6/1 376/3/1
f 377/1/1 378/2/1 379/3/1 380/4/1
f 381/5/1 382/7/1 383/8/1 384/6/1
f 385/12/1 386/1/1 387/4/1 388/13/1
f 389/1/1 390/2/1 391/3/1 392/4/1
f 393/2/1 394/5/1 395/6/1 396/3/1
f 397/1/1 398/2/1 399/3/1 400/4/1
f 401/18/1 402/14/1 403/1/1 404/12/1
f 405/12/1 406/1/1 407/4/1 408/13/1
f 409/16/1 410/17/1 411/7/1 412/5/1
f 413/5/1 414/7/1 415/8/1 416/6/1
f 417/14/1 418/15/1 419/2/1 420/1/1
f 421/15/1 422/16/1 423/5/1 424/2/1
f 425/14/1 426/15/1 427/2/1 428/1/1
f 429/16/1 430/17/1 431/7/1 432/5/1
f 433/18/1 434/14/1 435/1/1 436/12/1
f 437/14/1 438/15/1 439/2/1 440/1/1
f 441/15/1 442/16/1 443/5/1 444/2/1
f 445/14/1 446/15/1 447/2/1 448/1/1
f 449/12/1 450/1/1 451/4/1 452/13/1
f 453/18/1 454/14/1 455/1/1 456/12/1
f 457/5/1 458/7/1 459/8/1 460/6/1
f 461/16/1 462/17/1 463/7/1 464/5/1
f 465/19/1 466/20/1 467/15/1 468/14/1
f 469/20/1 470/21/1 471/16/1 472/15/1
f 473/19/1 474/20/1 475/15/1 476/14/1
f 477/21/1 478/22/1 479/17/1 480/16/1
f 481/23/1 482/19/1 483/14/1 484/18/1
f 485/19/1 486/20/1 487/15/1 488/14/1
f 489/20/1 490/21/1 491/16/1 492/15/1
f 493/19/1 494/20/1 495/15/1 496/14/1
f 497/18/1 498/14/1 499/1/1 500/12/1
f 501/12/1 502/1/1 503/4/1 504/13/1
f 505/16/1 506/17/1 507/7/1 508/5/1
f 509/21/1 510/22/1 511/17/1 512/16/1
f 513/23/1 514/19/1 515/14/1 516/18/1
f 517/18/1 518/14/1 519/1/1 520/12/1
f 521/21/1 522/22/1 523/17/1 524/16/1
f 525/23/1 526/19/1 527/14/1 528/18/1

