# Tiled2Unity generated file. Do not modify by hand.
# Wavefront file for 'Level06-BOSS_mesh_0006.obj'

# Vertices (Count = 408)
v -6 -5.25 0
v -6.75 -5.25 0
v -6.75 -4.5 0
v -6 -4.5 0
v -6.75 -5.25 0
v -7.5 -5.25 0
v -7.5 -4.5 0
v -6.75 -4.5 0
v -7.5 -5.25 0
v -8.25 -5.25 0
v -8.25 -4.5 0
v -7.5 -4.5 0
v -8.25 -5.25 0
v -9 -5.25 0
v -9 -4.5 0
v -8.25 -4.5 0
v -9 -5.25 0
v -9.75 -5.25 0
v -9.75 -4.5 0
v -9 -4.5 0
v -9.75 -5.25 0
v -10.5 -5.25 0
v -10.5 -4.5 0
v -9.75 -4.5 0
v -10.5 -5.25 0
v -11.25 -5.25 0
v -11.25 -4.5 0
v -10.5 -4.5 0
v -11.25 -5.25 0
v -12 -5.25 0
v -12 -4.5 0
v -11.25 -4.5 0
v -12 -5.25 0
v -12.75 -5.25 0
v -12.75 -4.5 0
v -12 -4.5 0
v -12.75 -5.25 0
v -13.5 -5.25 0
v -13.5 -4.5 0
v -12.75 -4.5 0
v -13.5 -5.25 0
v -14.25 -5.25 0
v -14.25 -4.5 0
v -13.5 -4.5 0
v -14.25 -5.25 0
v -15 -5.25 0
v -15 -4.5 0
v -14.25 -4.5 0
v -15 -5.25 0
v -15.75 -5.25 0
v -15.75 -4.5 0
v -15 -4.5 0
v -15.75 -5.25 0
v -16.5 -5.25 0
v -16.5 -4.5 0
v -15.75 -4.5 0
v -16.5 -5.25 0
v -17.25 -5.25 0
v -17.25 -4.5 0
v -16.5 -4.5 0
v -17.25 -5.25 0
v -18 -5.25 0
v -18 -4.5 0
v -17.25 -4.5 0
v -6 -6 0
v -6.75 -6 0
v -6.75 -5.25 0
v -6 -5.25 0
v -6.75 -6 0
v -7.5 -6 0
v -7.5 -5.25 0
v -6.75 -5.25 0
v -7.5 -6 0
v -8.25 -6 0
v -8.25 -5.25 0
v -7.5 -5.25 0
v -8.25 -6 0
v -9 -6 0
v -9 -5.25 0
v -8.25 -5.25 0
v -9 -6 0
v -9.75 -6 0
v -9.75 -5.25 0
v -9 -5.25 0
v -9.75 -6 0
v -10.5 -6 0
v -10.5 -5.25 0
v -9.75 -5.25 0
v -10.5 -6 0
v -11.25 -6 0
v -11.25 -5.25 0
v -10.5 -5.25 0
v -11.25 -6 0
v -12 -6 0
v -12 -5.25 0
v -11.25 -5.25 0
v -12 -6 0
v -12.75 -6 0
v -12.75 -5.25 0
v -12 -5.25 0
v -12.75 -6 0
v -13.5 -6 0
v -13.5 -5.25 0
v -12.75 -5.25 0
v -13.5 -6 0
v -14.25 -6 0
v -14.25 -5.25 0
v -13.5 -5.25 0
v -14.25 -6 0
v -15 -6 0
v -15 -5.25 0
v -14.25 -5.25 0
v -15 -6 0
v -15.75 -6 0
v -15.75 -5.25 0
v -15 -5.25 0
v -15.75 -6 0
v -16.5 -6 0
v -16.5 -5.25 0
v -15.75 -5.25 0
v -16.5 -6 0
v -17.25 -6 0
v -17.25 -5.25 0
v -16.5 -5.25 0
v -17.25 -6 0
v -18 -6 0
v -18 -5.25 0
v -17.25 -5.25 0
v -6 -6.75 0
v -6.75 -6.75 0
v -6.75 -6 0
v -6 -6 0
v -6.75 -6.75 0
v -7.5 -6.75 0
v -7.5 -6 0
v -6.75 -6 0
v -7.5 -6.75 0
v -8.25 -6.75 0
v -8.25 -6 0
v -7.5 -6 0
v -8.25 -6.75 0
v -9 -6.75 0
v -9 -6 0
v -8.25 -6 0
v -9 -6.75 0
v -9.75 -6.75 0
v -9.75 -6 0
v -9 -6 0
v -9.75 -6.75 0
v -10.5 -6.75 0
v -10.5 -6 0
v -9.75 -6 0
v -10.5 -6.75 0
v -11.25 -6.75 0
v -11.25 -6 0
v -10.5 -6 0
v -11.25 -6.75 0
v -12 -6.75 0
v -12 -6 0
v -11.25 -6 0
v -12 -6.75 0
v -12.75 -6.75 0
v -12.75 -6 0
v -12 -6 0
v -12.75 -6.75 0
v -13.5 -6.75 0
v -13.5 -6 0
v -12.75 -6 0
v -13.5 -6.75 0
v -14.25 -6.75 0
v -14.25 -6 0
v -13.5 -6 0
v -14.25 -6.75 0
v -15 -6.75 0
v -15 -6 0
v -14.25 -6 0
v -15 -6.75 0
v -15.75 -6.75 0
v -15.75 -6 0
v -15 -6 0
v -15.75 -6.75 0
v -16.5 -6.75 0
v -16.5 -6 0
v -15.75 -6 0
v -16.5 -6.75 0
v -17.25 -6.75 0
v -17.25 -6 0
v -16.5 -6 0
v -17.25 -6.75 0
v -18 -6.75 0
v -18 -6 0
v -17.25 -6 0
v -6 -7.5 0
v -6.75 -7.5 0
v -6.75 -6.75 0
v -6 -6.75 0
v -6.75 -7.5 0
v -7.5 -7.5 0
v -7.5 -6.75 0
v -6.75 -6.75 0
v -7.5 -7.5 0
v -8.25 -7.5 0
v -8.25 -6.75 0
v -7.5 -6.75 0
v -8.25 -7.5 0
v -9 -7.5 0
v -9 -6.75 0
v -8.25 -6.75 0
v -9 -7.5 0
v -9.75 -7.5 0
v -9.75 -6.75 0
v -9 -6.75 0
v -9.75 -7.5 0
v -10.5 -7.5 0
v -10.5 -6.75 0
v -9.75 -6.75 0
v -10.5 -7.5 0
v -11.25 -7.5 0
v -11.25 -6.75 0
v -10.5 -6.75 0
v -11.25 -7.5 0
v -12 -7.5 0
v -12 -6.75 0
v -11.25 -6.75 0
v -12 -7.5 0
v -12.75 -7.5 0
v -12.75 -6.75 0
v -12 -6.75 0
v -12.75 -7.5 0
v -13.5 -7.5 0
v -13.5 -6.75 0
v -12.75 -6.75 0
v -13.5 -7.5 0
v -14.25 -7.5 0
v -14.25 -6.75 0
v -13.5 -6.75 0
v -14.25 -7.5 0
v -15 -7.5 0
v -15 -6.75 0
v -14.25 -6.75 0
v -15 -7.5 0
v -15.75 -7.5 0
v -15.75 -6.75 0
v -15 -6.75 0
v -15.75 -7.5 0
v -16.5 -7.5 0
v -16.5 -6.75 0
v -15.75 -6.75 0
v -16.5 -7.5 0
v -17.25 -7.5 0
v -17.25 -6.75 0
v -16.5 -6.75 0
v -17.25 -7.5 0
v -18 -7.5 0
v -18 -6.75 0
v -17.25 -6.75 0
v -6.75 -8.25 0
v -7.5 -8.25 0
v -7.5 -7.5 0
v -6.75 -7.5 0
v -7.5 -8.25 0
v -8.25 -8.25 0
v -8.25 -7.5 0
v -7.5 -7.5 0
v -8.25 -8.25 0
v -9 -8.25 0
v -9 -7.5 0
v -8.25 -7.5 0
v -9 -8.25 0
v -9.75 -8.25 0
v -9.75 -7.5 0
v -9 -7.5 0
v -9.75 -8.25 0
v -10.5 -8.25 0
v -10.5 -7.5 0
v -9.75 -7.5 0
v -10.5 -8.25 0
v -11.25 -8.25 0
v -11.25 -7.5 0
v -10.5 -7.5 0
v -11.25 -8.25 0
v -12 -8.25 0
v -12 -7.5 0
v -11.25 -7.5 0
v -12 -8.25 0
v -12.75 -8.25 0
v -12.75 -7.5 0
v -12 -7.5 0
v -12.75 -8.25 0
v -13.5 -8.25 0
v -13.5 -7.5 0
v -12.75 -7.5 0
v -13.5 -8.25 0
v -14.25 -8.25 0
v -14.25 -7.5 0
v -13.5 -7.5 0
v -14.25 -8.25 0
v -15 -8.25 0
v -15 -7.5 0
v -14.25 -7.5 0
v -15 -8.25 0
v -15.75 -8.25 0
v -15.75 -7.5 0
v -15 -7.5 0
v -15.75 -8.25 0
v -16.5 -8.25 0
v -16.5 -7.5 0
v -15.75 -7.5 0
v -16.5 -8.25 0
v -17.25 -8.25 0
v -17.25 -7.5 0
v -16.5 -7.5 0
v -7.5 -9 0
v -8.25 -9 0
v -8.25 -8.25 0
v -7.5 -8.25 0
v -8.25 -9 0
v -9 -9 0
v -9 -8.25 0
v -8.25 -8.25 0
v -9 -9 0
v -9.75 -9 0
v -9.75 -8.25 0
v -9 -8.25 0
v -9.75 -9 0
v -10.5 -9 0
v -10.5 -8.25 0
v -9.75 -8.25 0
v -10.5 -9 0
v -11.25 -9 0
v -11.25 -8.25 0
v -10.5 -8.25 0
v -11.25 -9 0
v -12 -9 0
v -12 -8.25 0
v -11.25 -8.25 0
v -12 -9 0
v -12.75 -9 0
v -12.75 -8.25 0
v -12 -8.25 0
v -12.75 -9 0
v -13.5 -9 0
v -13.5 -8.25 0
v -12.75 -8.25 0
v -13.5 -9 0
v -14.25 -9 0
v -14.25 -8.25 0
v -13.5 -8.25 0
v -14.25 -9 0
v -15 -9 0
v -15 -8.25 0
v -14.25 -8.25 0
v -15 -9 0
v -15.75 -9 0
v -15.75 -8.25 0
v -15 -8.25 0
v -15.75 -9 0
v -16.5 -9 0
v -16.5 -8.25 0
v -15.75 -8.25 0
v -9 -9.75 0
v -9.75 -9.75 0
v -9.75 -9 0
v -9 -9 0
v -9.75 -9.75 0
v -10.5 -9.75 0
v -10.5 -9 0
v -9.75 -9 0
v -10.5 -9.75 0
v -11.25 -9.75 0
v -11.25 -9 0
v -10.5 -9 0
v -11.25 -9.75 0
v -12 -9.75 0
v -12 -9 0
v -11.25 -9 0
v -12 -9.75 0
v -12.75 -9.75 0
v -12.75 -9 0
v -12 -9 0
v -12.75 -9.75 0
v -13.5 -9.75 0
v -13.5 -9 0
v -12.75 -9 0
v -13.5 -9.75 0
v -14.25 -9.75 0
v -14.25 -9 0
v -13.5 -9 0
v -14.25 -9.75 0
v -15 -9.75 0
v -15 -9 0
v -14.25 -9 0
v -10.5 -10.5 0
v -11.25 -10.5 0
v -11.25 -9.75 0
v -10.5 -9.75 0
v -11.25 -10.5 0
v -12 -10.5 0
v -12 -9.75 0
v -11.25 -9.75 0
v -12 -10.5 0
v -12.75 -10.5 0
v -12.75 -9.75 0
v -12 -9.75 0
v -12.75 -10.5 0
v -13.5 -10.5 0
v -13.5 -9.75 0
v -12.75 -9.75 0

# Texture cooridinates (Count = 9)
vt 0.375 0.4583333
vt 0.40625 0.4583333
vt 0.40625 0.5
vt 0.375 0.5
vt 0.4375 0.4583333
vt 0.4375 0.5
vt 0.375 0.4166667
vt 0.40625 0.4166667
vt 0.4375 0.4166667

# Normal
vn 0 0 -1

# Mesh description
g Level06-BOSS_mesh_0006

# Faces
f 1/1/1 2/2/1 3/3/1 4/4/1
f 5/2/1 6/5/1 7/6/1 8/3/1
f 9/1/1 10/2/1 11/3/1 12/4/1
f 13/2/1 14/5/1 15/6/1 16/3/1
f 17/1/1 18/2/1 19/3/1 20/4/1
f 21/2/1 22/5/1 23/6/1 24/3/1
f 25/1/1 26/2/1 27/3/1 28/4/1
f 29/2/1 30/5/1 31/6/1 32/3/1
f 33/1/1 34/2/1 35/3/1 36/4/1
f 37/2/1 38/5/1 39/6/1 40/3/1
f 41/1/1 42/2/1 43/3/1 44/4/1
f 45/2/1 46/5/1 47/6/1 48/3/1
f 49/1/1 50/2/1 51/3/1 52/4/1
f 53/2/1 54/5/1 55/6/1 56/3/1
f 57/1/1 58/2/1 59/3/1 60/4/1
f 61/7/1 62/8/1 63/2/1 64/1/1
f 65/7/1 66/8/1 67/2/1 68/1/1
f 69/8/1 70/9/1 71/5/1 72/2/1
f 73/7/1 74/8/1 75/2/1 76/1/1
f 77/8/1 78/9/1 79/5/1 80/2/1
f 81/7/1 82/8/1 83/2/1 84/1/1
f 85/8/1 86/9/1 87/5/1 88/2/1
f 89/7/1 90/8/1 91/2/1 92/1/1
f 93/8/1 94/9/1 95/5/1 96/2/1
f 97/7/1 98/8/1 99/2/1 100/1/1
f 101/8/1 102/9/1 103/5/1 104/2/1
f 105/7/1 106/8/1 107/2/1 108/1/1
f 109/8/1 110/9/1 111/5/1 112/2/1
f 113/7/1 114/8/1 115/2/1 116/1/1
f 117/8/1 118/9/1 119/5/1 120/2/1
f 121/7/1 122/8/1 123/2/1 124/1/1
f 125/1/1 126/2/1 127/3/1 128/4/1
f 129/1/1 130/2/1 131/3/1 132/4/1
f 133/2/1 134/5/1 135/6/1 136/3/1
f 137/1/1 138/2/1 139/3/1 140/4/1
f 141/2/1 142/5/1 143/6/1 144/3/1
f 145/1/1 146/2/1 147/3/1 148/4/1
f 149/2/1 150/5/1 151/6/1 152/3/1
f 153/1/1 154/2/1 155/3/1 156/4/1
f 157/2/1 158/5/1 159/6/1 160/3/1
f 161/1/1 162/2/1 163/3/1 164/4/1
f 165/2/1 166/5/1 167/6/1 168/3/1
f 169/1/1 170/2/1 171/3/1 172/4/1
f 173/2/1 174/5/1 175/6/1 176/3/1
f 177/1/1 178/2/1 179/3/1 180/4/1
f 181/1/1 182/2/1 183/3/1 184/4/1
f 185/2/1 186/5/1 187/6/1 188/3/1
f 189/2/1 190/5/1 191/6/1 192/3/1
f 193/7/1 194/8/1 195/2/1 196/1/1
f 197/8/1 198/9/1 199/5/1 200/2/1
f 201/7/1 202/8/1 203/2/1 204/1/1
f 205/8/1 206/9/1 207/5/1 208/2/1
f 209/7/1 210/8/1 211/2/1 212/1/1
f 213/8/1 214/9/1 215/5/1 216/2/1
f 217/7/1 218/8/1 219/2/1 220/1/1
f 221/8/1 222/9/1 223/5/1 224/2/1
f 225/7/1 226/8/1 227/2/1 228/1/1
f 229/8/1 230/9/1 231/5/1 232/2/1
f 233/7/1 234/8/1 235/2/1 236/1/1
f 237/8/1 238/9/1 239/5/1 240/2/1
f 241/7/1 242/8/1 243/2/1 244/1/1
f 245/7/1 246/8/1 247/2/1 248/1/1
f 249/8/1 250/9/1 251/5/1 252/2/1
f 253/8/1 254/9/1 255/5/1 256/2/1
f 257/1/1 258/2/1 259/3/1 260/4/1
f 261/1/1 262/2/1 263/3/1 264/4/1
f 265/2/1 266/5/1 267/6/1 268/3/1
f 269/1/1 270/2/1 271/3/1 272/4/1
f 273/2/1 274/5/1 275/6/1 276/3/1
f 277/1/1 278/2/1 279/3/1 280/4/1
f 281/2/1 282/5/1 283/6/1 284/3/1
f 285/1/1 286/2/1 287/3/1 288/4/1
f 289/2/1 290/5/1 291/6/1 292/3/1
f 293/1/1 294/2/1 295/3/1 296/4/1
f 297/2/1 298/5/1 299/6/1 300/3/1
f 301/1/1 302/2/1 303/3/1 304/4/1
f 305/2/1 306/5/1 307/6/1 308/3/1
f 309/1/1 310/2/1 311/3/1 312/4/1
f 313/7/1 314/8/1 315/2/1 316/1/1
f 317/8/1 318/9/1 319/5/1 320/2/1
f 321/7/1 322/8/1 323/2/1 324/1/1
f 325/8/1 326/9/1 327/5/1 328/2/1
f 329/7/1 330/8/1 331/2/1 332/1/1
f 333/8/1 334/9/1 335/5/1 336/2/1
f 337/7/1 338/8/1 339/2/1 340/1/1
f 341/8/1 342/9/1 343/5/1 344/2/1
f 345/7/1 346/8/1 347/2/1 348/1/1
f 349/8/1 350/9/1 351/5/1 352/2/1
f 353/7/1 354/8/1 355/2/1 356/1/1
f 357/8/1 358/9/1 359/5/1 360/2/1
f 361/1/1 362/2/1 363/3/1 364/4/1
f 365/2/1 366/5/1 367/6/1 368/3/1
f 369/1/1 370/2/1 371/3/1 372/4/1
f 373/2/1 374/5/1 375/6/1 376/3/1
f 377/1/1 378/2/1 379/3/1 380/4/1
f 381/2/1 382/5/1 383/6/1 384/3/1
f 385/7/1 386/8/1 387/2/1 388/1/1
f 389/8/1 390/9/1 391/5/1 392/2/1
f 393/7/1 394/8/1 395/2/1 396/1/1
f 397/8/1 398/9/1 399/5/1 400/2/1
f 401/7/1 402/8/1 403/2/1 404/1/1
f 405/8/1 406/9/1 407/5/1 408/2/1

