# Tiled2Unity generated file. Do not modify by hand.
# Wavefront file for 'Level01-B_mesh_0012.obj'

# Vertices (Count = 448)
v -21 -3 0
v -22 -3 0
v -22 -2 0
v -21 -2 0
v -20 -3 0
v -21 -3 0
v -21 -2 0
v -20 -2 0
v -9 -3 0
v -10 -3 0
v -10 -2 0
v -9 -2 0
v -8 -3 0
v -9 -3 0
v -9 -2 0
v -8 -2 0
v -5 -3 0
v -6 -3 0
v -6 -2 0
v -5 -2 0
v -4 -3 0
v -5 -3 0
v -5 -2 0
v -4 -2 0
v -21 -4 0
v -22 -4 0
v -22 -3 0
v -21 -3 0
v -20 -4 0
v -21 -4 0
v -21 -3 0
v -20 -3 0
v -9 -4 0
v -10 -4 0
v -10 -3 0
v -9 -3 0
v -8 -4 0
v -9 -4 0
v -9 -3 0
v -8 -3 0
v -5 -4 0
v -6 -4 0
v -6 -3 0
v -5 -3 0
v -4 -4 0
v -5 -4 0
v -5 -3 0
v -4 -3 0
v -53 -5 0
v -54 -5 0
v -54 -4 0
v -53 -4 0
v -52 -5 0
v -53 -5 0
v -53 -4 0
v -52 -4 0
v -39 -5 0
v -40 -5 0
v -40 -4 0
v -39 -4 0
v -38 -5 0
v -39 -5 0
v -39 -4 0
v -38 -4 0
v -33 -5 0
v -34 -5 0
v -34 -4 0
v -33 -4 0
v -32 -5 0
v -33 -5 0
v -33 -4 0
v -32 -4 0
v -53 -6 0
v -54 -6 0
v -54 -5 0
v -53 -5 0
v -52 -6 0
v -53 -6 0
v -53 -5 0
v -52 -5 0
v -39 -6 0
v -40 -6 0
v -40 -5 0
v -39 -5 0
v -38 -6 0
v -39 -6 0
v -39 -5 0
v -38 -5 0
v -33 -6 0
v -34 -6 0
v -34 -5 0
v -33 -5 0
v -32 -6 0
v -33 -6 0
v -33 -5 0
v -32 -5 0
v -41 -7 0
v -42 -7 0
v -42 -6 0
v -41 -6 0
v -40 -7 0
v -41 -7 0
v -41 -6 0
v -40 -6 0
v -33 -7 0
v -34 -7 0
v -34 -6 0
v -33 -6 0
v -32 -7 0
v -33 -7 0
v -33 -6 0
v -32 -6 0
v -19 -7 0
v -20 -7 0
v -20 -6 0
v -19 -6 0
v -18 -7 0
v -19 -7 0
v -19 -6 0
v -18 -6 0
v -41 -8 0
v -42 -8 0
v -42 -7 0
v -41 -7 0
v -40 -8 0
v -41 -8 0
v -41 -7 0
v -40 -7 0
v -33 -8 0
v -34 -8 0
v -34 -7 0
v -33 -7 0
v -32 -8 0
v -33 -8 0
v -33 -7 0
v -32 -7 0
v -19 -8 0
v -20 -8 0
v -20 -7 0
v -19 -7 0
v -18 -8 0
v -19 -8 0
v -19 -7 0
v -18 -7 0
v -37 -13 0
v -38 -13 0
v -38 -12 0
v -37 -12 0
v -36 -13 0
v -37 -13 0
v -37 -12 0
v -36 -12 0
v -37 -14 0
v -38 -14 0
v -38 -13 0
v -37 -13 0
v -36 -14 0
v -37 -14 0
v -37 -13 0
v -36 -13 0
v -45 -15 0
v -46 -15 0
v -46 -14 0
v -45 -14 0
v -44 -15 0
v -45 -15 0
v -45 -14 0
v -44 -14 0
v -3 -15 0
v -4 -15 0
v -4 -14 0
v -3 -14 0
v -2 -15 0
v -3 -15 0
v -3 -14 0
v -2 -14 0
v -45 -16 0
v -46 -16 0
v -46 -15 0
v -45 -15 0
v -44 -16 0
v -45 -16 0
v -45 -15 0
v -44 -15 0
v -3 -16 0
v -4 -16 0
v -4 -15 0
v -3 -15 0
v -2 -16 0
v -3 -16 0
v -3 -15 0
v -2 -15 0
v -45 -17 0
v -46 -17 0
v -46 -16 0
v -45 -16 0
v -44 -17 0
v -45 -17 0
v -45 -16 0
v -44 -16 0
v -45 -18 0
v -46 -18 0
v -46 -17 0
v -45 -17 0
v -44 -18 0
v -45 -18 0
v -45 -17 0
v -44 -17 0
v -57 -21 0
v -58 -21 0
v -58 -20 0
v -57 -20 0
v -56 -21 0
v -57 -21 0
v -57 -20 0
v -56 -20 0
v -57 -22 0
v -58 -22 0
v -58 -21 0
v -57 -21 0
v -56 -22 0
v -57 -22 0
v -57 -21 0
v -56 -21 0
v -33 -23 0
v -34 -23 0
v -34 -22 0
v -33 -22 0
v -32 -23 0
v -33 -23 0
v -33 -22 0
v -32 -22 0
v -29 -23 0
v -30 -23 0
v -30 -22 0
v -29 -22 0
v -28 -23 0
v -29 -23 0
v -29 -22 0
v -28 -22 0
v -33 -24 0
v -34 -24 0
v -34 -23 0
v -33 -23 0
v -32 -24 0
v -33 -24 0
v -33 -23 0
v -32 -23 0
v -29 -24 0
v -30 -24 0
v -30 -23 0
v -29 -23 0
v -28 -24 0
v -29 -24 0
v -29 -23 0
v -28 -23 0
v -5 -33 0
v -6 -33 0
v -6 -32 0
v -5 -32 0
v -4 -33 0
v -5 -33 0
v -5 -32 0
v -4 -32 0
v -5 -34 0
v -6 -34 0
v -6 -33 0
v -5 -33 0
v -4 -34 0
v -5 -34 0
v -5 -33 0
v -4 -33 0
v -3 -37 0
v -4 -37 0
v -4 -36 0
v -3 -36 0
v -2 -37 0
v -3 -37 0
v -3 -36 0
v -2 -36 0
v -3 -38 0
v -4 -38 0
v -4 -37 0
v -3 -37 0
v -2 -38 0
v -3 -38 0
v -3 -37 0
v -2 -37 0
v -45 -49 0
v -46 -49 0
v -46 -48 0
v -45 -48 0
v -44 -49 0
v -45 -49 0
v -45 -48 0
v -44 -48 0
v -45 -50 0
v -46 -50 0
v -46 -49 0
v -45 -49 0
v -44 -50 0
v -45 -50 0
v -45 -49 0
v -44 -49 0
v -45 -51 0
v -46 -51 0
v -46 -50 0
v -45 -50 0
v -44 -51 0
v -45 -51 0
v -45 -50 0
v -44 -50 0
v -29 -51 0
v -30 -51 0
v -30 -50 0
v -29 -50 0
v -28 -51 0
v -29 -51 0
v -29 -50 0
v -28 -50 0
v -5 -51 0
v -6 -51 0
v -6 -50 0
v -5 -50 0
v -4 -51 0
v -5 -51 0
v -5 -50 0
v -4 -50 0
v -45 -52 0
v -46 -52 0
v -46 -51 0
v -45 -51 0
v -44 -52 0
v -45 -52 0
v -45 -51 0
v -44 -51 0
v -29 -52 0
v -30 -52 0
v -30 -51 0
v -29 -51 0
v -28 -52 0
v -29 -52 0
v -29 -51 0
v -28 -51 0
v -5 -52 0
v -6 -52 0
v -6 -51 0
v -5 -51 0
v -4 -52 0
v -5 -52 0
v -5 -51 0
v -4 -51 0
v -29 -53 0
v -30 -53 0
v -30 -52 0
v -29 -52 0
v -28 -53 0
v -29 -53 0
v -29 -52 0
v -28 -52 0
v -5 -53 0
v -6 -53 0
v -6 -52 0
v -5 -52 0
v -4 -53 0
v -5 -53 0
v -5 -52 0
v -4 -52 0
v -29 -54 0
v -30 -54 0
v -30 -53 0
v -29 -53 0
v -28 -54 0
v -29 -54 0
v -29 -53 0
v -28 -53 0
v -5 -54 0
v -6 -54 0
v -6 -53 0
v -5 -53 0
v -4 -54 0
v -5 -54 0
v -5 -53 0
v -4 -53 0
v -53 -55 0
v -54 -55 0
v -54 -54 0
v -53 -54 0
v -52 -55 0
v -53 -55 0
v -53 -54 0
v -52 -54 0
v -29 -55 0
v -30 -55 0
v -30 -54 0
v -29 -54 0
v -28 -55 0
v -29 -55 0
v -29 -54 0
v -28 -54 0
v -23 -55 0
v -24 -55 0
v -24 -54 0
v -23 -54 0
v -22 -55 0
v -23 -55 0
v -23 -54 0
v -22 -54 0
v -53 -56 0
v -54 -56 0
v -54 -55 0
v -53 -55 0
v -52 -56 0
v -53 -56 0
v -53 -55 0
v -52 -55 0
v -29 -56 0
v -30 -56 0
v -30 -55 0
v -29 -55 0
v -28 -56 0
v -29 -56 0
v -29 -55 0
v -28 -55 0
v -23 -56 0
v -24 -56 0
v -24 -55 0
v -23 -55 0
v -22 -56 0
v -23 -56 0
v -23 -55 0
v -22 -55 0
v -53 -57 0
v -54 -57 0
v -54 -56 0
v -53 -56 0
v -52 -57 0
v -53 -57 0
v -53 -56 0
v -52 -56 0
v -53 -58 0
v -54 -58 0
v -54 -57 0
v -53 -57 0
v -52 -58 0
v -53 -58 0
v -53 -57 0
v -52 -57 0

# Texture cooridinates (Count = 27)
vt 0.90625 0.7083333
vt 0.9375 0.7083333
vt 0.9375 0.75
vt 0.90625 0.75
vt 0.875 0.7083333
vt 0.875 0.75
vt 0.90625 0.6666667
vt 0.9375 0.6666667
vt 0.875 0.6666667
vt 0.96875 0.625
vt 1 0.625
vt 1 0.6666667
vt 0.96875 0.6666667
vt 0.875 0.625
vt 0.90625 0.625
vt 0.96875 0.5833333
vt 1 0.5833333
vt 0.875 0.5833333
vt 0.90625 0.5833333
vt 0.96875 0.5416667
vt 1 0.5416667
vt 0.875 0.5416667
vt 0.90625 0.5416667
vt 0.96875 0.5
vt 1 0.5
vt 0.875 0.5
vt 0.90625 0.5

# Normal
vn 0 0 -1

# Mesh description
g Level01-B_mesh_0012

# Faces
f 1/1/1 2/2/1 3/3/1 4/4/1
f 5/5/1 6/1/1 7/4/1 8/6/1
f 9/1/1 10/2/1 11/3/1 12/4/1
f 13/5/1 14/1/1 15/4/1 16/6/1
f 17/1/1 18/2/1 19/3/1 20/4/1
f 21/5/1 22/1/1 23/4/1 24/6/1
f 25/7/1 26/8/1 27/2/1 28/1/1
f 29/9/1 30/7/1 31/1/1 32/5/1
f 33/7/1 34/8/1 35/2/1 36/1/1
f 37/9/1 38/7/1 39/1/1 40/5/1
f 41/7/1 42/8/1 43/2/1 44/1/1
f 45/9/1 46/7/1 47/1/1 48/5/1
f 49/1/1 50/2/1 51/3/1 52/4/1
f 53/5/1 54/1/1 55/4/1 56/6/1
f 57/1/1 58/2/1 59/3/1 60/4/1
f 61/5/1 62/1/1 63/4/1 64/6/1
f 65/10/1 66/11/1 67/12/1 68/13/1
f 69/14/1 70/15/1 71/7/1 72/9/1
f 73/7/1 74/8/1 75/2/1 76/1/1
f 77/9/1 78/7/1 79/1/1 80/5/1
f 81/7/1 82/8/1 83/2/1 84/1/1
f 85/9/1 86/7/1 87/1/1 88/5/1
f 89/16/1 90/17/1 91/11/1 92/10/1
f 93/18/1 94/19/1 95/15/1 96/14/1
f 97/1/1 98/2/1 99/3/1 100/4/1
f 101/5/1 102/1/1 103/4/1 104/6/1
f 105/20/1 106/21/1 107/17/1 108/16/1
f 109/22/1 110/23/1 111/19/1 112/18/1
f 113/1/1 114/2/1 115/3/1 116/4/1
f 117/5/1 118/1/1 119/4/1 120/6/1
f 121/7/1 122/8/1 123/2/1 124/1/1
f 125/9/1 126/7/1 127/1/1 128/5/1
f 129/24/1 130/25/1 131/21/1 132/20/1
f 133/26/1 134/27/1 135/23/1 136/22/1
f 137/7/1 138/8/1 139/2/1 140/1/1
f 141/9/1 142/7/1 143/1/1 144/5/1
f 145/1/1 146/2/1 147/3/1 148/4/1
f 149/5/1 150/1/1 151/4/1 152/6/1
f 153/7/1 154/8/1 155/2/1 156/1/1
f 157/9/1 158/7/1 159/1/1 160/5/1
f 161/10/1 162/11/1 163/12/1 164/13/1
f 165/14/1 166/15/1 167/7/1 168/9/1
f 169/1/1 170/2/1 171/3/1 172/4/1
f 173/5/1 174/1/1 175/4/1 176/6/1
f 177/16/1 178/17/1 179/11/1 180/10/1
f 181/18/1 182/19/1 183/15/1 184/14/1
f 185/7/1 186/8/1 187/2/1 188/1/1
f 189/9/1 190/7/1 191/1/1 192/5/1
f 193/20/1 194/21/1 195/17/1 196/16/1
f 197/22/1 198/23/1 199/19/1 200/18/1
f 201/24/1 202/25/1 203/21/1 204/20/1
f 205/26/1 206/27/1 207/23/1 208/22/1
f 209/1/1 210/2/1 211/3/1 212/4/1
f 213/5/1 214/1/1 215/4/1 216/6/1
f 217/7/1 218/8/1 219/2/1 220/1/1
f 221/9/1 222/7/1 223/1/1 224/5/1
f 225/1/1 226/2/1 227/3/1 228/4/1
f 229/5/1 230/1/1 231/4/1 232/6/1
f 233/1/1 234/2/1 235/3/1 236/4/1
f 237/5/1 238/1/1 239/4/1 240/6/1
f 241/7/1 242/8/1 243/2/1 244/1/1
f 245/9/1 246/7/1 247/1/1 248/5/1
f 249/7/1 250/8/1 251/2/1 252/1/1
f 253/9/1 254/7/1 255/1/1 256/5/1
f 257/1/1 258/2/1 259/3/1 260/4/1
f 261/5/1 262/1/1 263/4/1 264/6/1
f 265/7/1 266/8/1 267/2/1 268/1/1
f 269/9/1 270/7/1 271/1/1 272/5/1
f 273/1/1 274/2/1 275/3/1 276/4/1
f 277/5/1 278/1/1 279/4/1 280/6/1
f 281/7/1 282/8/1 283/2/1 284/1/1
f 285/9/1 286/7/1 287/1/1 288/5/1
f 289/10/1 290/11/1 291/12/1 292/13/1
f 293/14/1 294/15/1 295/7/1 296/9/1
f 297/16/1 298/17/1 299/11/1 300/10/1
f 301/18/1 302/19/1 303/15/1 304/14/1
f 305/20/1 306/21/1 307/17/1 308/16/1
f 309/22/1 310/23/1 311/19/1 312/18/1
f 313/10/1 314/11/1 315/12/1 316/13/1
f 317/14/1 318/15/1 319/7/1 320/9/1
f 321/10/1 322/11/1 323/12/1 324/13/1
f 325/14/1 326/15/1 327/7/1 328/9/1
f 329/24/1 330/25/1 331/21/1 332/20/1
f 333/26/1 334/27/1 335/23/1 336/22/1
f 337/16/1 338/17/1 339/11/1 340/10/1
f 341/18/1 342/19/1 343/15/1 344/14/1
f 345/16/1 346/17/1 347/11/1 348/10/1
f 349/18/1 350/19/1 351/15/1 352/14/1
f 353/20/1 354/21/1 355/17/1 356/16/1
f 357/22/1 358/23/1 359/19/1 360/18/1
f 361/20/1 362/21/1 363/17/1 364/16/1
f 365/22/1 366/23/1 367/19/1 368/18/1
f 369/16/1 370/17/1 371/11/1 372/10/1
f 373/18/1 374/19/1 375/15/1 376/14/1
f 377/24/1 378/25/1 379/21/1 380/20/1
f 381/26/1 382/27/1 383/23/1 384/22/1
f 385/10/1 386/11/1 387/12/1 388/13/1
f 389/14/1 390/15/1 391/7/1 392/9/1
f 393/20/1 394/21/1 395/17/1 396/16/1
f 397/22/1 398/23/1 399/19/1 400/18/1
f 401/1/1 402/2/1 403/3/1 404/4/1
f 405/5/1 406/1/1 407/4/1 408/6/1
f 409/16/1 410/17/1 411/11/1 412/10/1
f 413/18/1 414/19/1 415/15/1 416/14/1
f 417/24/1 418/25/1 419/21/1 420/20/1
f 421/26/1 422/27/1 423/23/1 424/22/1
f 425/7/1 426/8/1 427/2/1 428/1/1
f 429/9/1 430/7/1 431/1/1 432/5/1
f 433/20/1 434/21/1 435/17/1 436/16/1
f 437/22/1 438/23/1 439/19/1 440/18/1
f 441/24/1 442/25/1 443/21/1 444/20/1
f 445/26/1 446/27/1 447/23/1 448/22/1

