# Tiled2Unity generated file. Do not modify by hand.
# Wavefront file for 'Level02-ACollider_mesh_0008.obj'

# Vertices (Count = 164)
v -576 -216 0
v -600 -216 0
v -600 -192 0
v -576 -192 0
v -600 -216 0
v -624 -216 0
v -624 -192 0
v -600 -192 0
v -624 -216 0
v -648 -216 0
v -648 -192 0
v -624 -192 0
v -648 -216 0
v -672 -216 0
v -672 -192 0
v -648 -192 0
v -672 -216 0
v -696 -216 0
v -696 -192 0
v -672 -192 0
v -696 -216 0
v -720 -216 0
v -720 -192 0
v -696 -192 0
v -720 -216 0
v -744 -216 0
v -744 -192 0
v -720 -192 0
v -744 -216 0
v -768 -216 0
v -768 -192 0
v -744 -192 0
v -768 -216 0
v -792 -216 0
v -792 -192 0
v -768 -192 0
v -792 -216 0
v -816 -216 0
v -816 -192 0
v -792 -192 0
v -816 -216 0
v -840 -216 0
v -840 -192 0
v -816 -192 0
v -840 -216 0
v -864 -216 0
v -864 -192 0
v -840 -192 0
v -864 -216 0
v -888 -216 0
v -888 -192 0
v -864 -192 0
v -888 -216 0
v -912 -216 0
v -912 -192 0
v -888 -192 0
v -912 -216 0
v -936 -216 0
v -936 -192 0
v -912 -192 0
v -936 -216 0
v -960 -216 0
v -960 -192 0
v -936 -192 0
v -960 -216 0
v -984 -216 0
v -984 -192 0
v -960 -192 0
v -984 -216 0
v -1008 -216 0
v -1008 -192 0
v -984 -192 0
v -1008 -216 0
v -1032 -216 0
v -1032 -192 0
v -1008 -192 0
v -1032 -216 0
v -1056 -216 0
v -1056 -192 0
v -1032 -192 0
v -1056 -216 0
v -1080 -216 0
v -1080 -192 0
v -1056 -192 0
v -1080 -216 0
v -1104 -216 0
v -1104 -192 0
v -1080 -192 0
v -1080 -240 0
v -1104 -240 0
v -1104 -216 0
v -1080 -216 0
v -1272 -312 0
v -1296 -312 0
v -1296 -288 0
v -1272 -288 0
v -1296 -312 0
v -1320 -312 0
v -1320 -288 0
v -1296 -288 0
v -1320 -312 0
v -1344 -312 0
v -1344 -288 0
v -1320 -288 0
v -1344 -312 0
v -1368 -312 0
v -1368 -288 0
v -1344 -288 0
v -1368 -312 0
v -1392 -312 0
v -1392 -288 0
v -1368 -288 0
v -1392 -312 0
v -1416 -312 0
v -1416 -288 0
v -1392 -288 0
v -1416 -312 0
v -1440 -312 0
v -1440 -288 0
v -1416 -288 0
v -1440 -312 0
v -1464 -312 0
v -1464 -288 0
v -1440 -288 0
v -1464 -312 0
v -1488 -312 0
v -1488 -288 0
v -1464 -288 0
v -648 -456 0
v -672 -456 0
v -672 -432 0
v -648 -432 0
v -1296 -504 0
v -1320 -504 0
v -1320 -480 0
v -1296 -480 0
v -312 -600 0
v -336 -600 0
v -336 -576 0
v -312 -576 0
v -312 -624 0
v -336 -624 0
v -336 -600 0
v -312 -600 0
v -624 -720 0
v -648 -720 0
v -648 -696 0
v -624 -696 0
v -648 -720 0
v -672 -720 0
v -672 -696 0
v -648 -696 0
v -624 -744 0
v -648 -744 0
v -648 -720 0
v -624 -720 0
v -648 -744 0
v -672 -744 0
v -672 -720 0
v -648 -720 0
v -984 -1104 0
v -1008 -1104 0
v -1008 -1080 0
v -984 -1080 0

# Texture cooridinates (Count = 34)
vt 0.78125 0.8333333
vt 0.8125 0.8333333
vt 0.8125 0.875
vt 0.78125 0.875
vt 0.84375 0.8333333
vt 0.84375 0.875
vt 0.8125 0.7916667
vt 0.84375 0.7916667
vt 0.78125 0.7916667
vt 0.875 0.875
vt 0.875 0.9166667
vt 0.84375 0.9166667
vt 0.75 0.875
vt 0.78125 0.9166667
vt 0.75 0.9166667
vt 0.5625 0.8333333
vt 0.59375 0.8333333
vt 0.59375 0.875
vt 0.5625 0.875
vt 0.5625 0.7916667
vt 0.59375 0.7916667
vt 0.625 0.9583333
vt 0.65625 0.9583333
vt 0.65625 1
vt 0.625 1
vt 0.6875 0.9583333
vt 0.6875 1
vt 0.625 0.9166667
vt 0.65625 0.9166667
vt 0.6875 0.9166667
vt 0.625 0.75
vt 0.65625 0.75
vt 0.65625 0.7916667
vt 0.625 0.7916667

# Normal
vn 0 0 -1

# Mesh description
g Level02-ACollider_mesh_0008

# Faces
f 1/1/1 2/2/1 3/3/1 4/4/1
f 5/2/1 6/5/1 7/6/1 8/3/1
f 9/1/1 10/2/1 11/3/1 12/4/1
f 13/2/1 14/5/1 15/6/1 16/3/1
f 17/1/1 18/2/1 19/3/1 20/4/1
f 21/2/1 22/5/1 23/6/1 24/3/1
f 25/1/1 26/2/1 27/3/1 28/4/1
f 29/2/1 30/5/1 31/6/1 32/3/1
f 33/1/1 34/2/1 35/3/1 36/4/1
f 37/2/1 38/5/1 39/6/1 40/3/1
f 41/1/1 42/2/1 43/3/1 44/4/1
f 45/2/1 46/5/1 47/6/1 48/3/1
f 49/1/1 50/2/1 51/3/1 52/4/1
f 53/2/1 54/5/1 55/6/1 56/3/1
f 57/1/1 58/2/1 59/3/1 60/4/1
f 61/2/1 62/5/1 63/6/1 64/3/1
f 65/1/1 66/2/1 67/3/1 68/4/1
f 69/2/1 70/5/1 71/6/1 72/3/1
f 73/1/1 74/2/1 75/3/1 76/4/1
f 77/2/1 78/5/1 79/6/1 80/3/1
f 81/1/1 82/2/1 83/3/1 84/4/1
f 85/2/1 86/5/1 87/6/1 88/3/1
f 89/7/1 90/8/1 91/5/1 92/2/1
f 93/7/1 94/8/1 95/5/1 96/2/1
f 97/9/1 98/7/1 99/2/1 100/1/1
f 101/7/1 102/8/1 103/5/1 104/2/1
f 105/9/1 106/7/1 107/2/1 108/1/1
f 109/7/1 110/8/1 111/5/1 112/2/1
f 113/9/1 114/7/1 115/2/1 116/1/1
f 117/7/1 118/8/1 119/5/1 120/2/1
f 121/9/1 122/7/1 123/2/1 124/1/1
f 125/7/1 126/8/1 127/5/1 128/2/1
f 129/6/1 130/10/1 131/11/1 132/12/1
f 133/13/1 134/4/1 135/14/1 136/15/1
f 137/16/1 138/17/1 139/18/1 140/19/1
f 141/20/1 142/21/1 143/17/1 144/16/1
f 145/22/1 146/23/1 147/24/1 148/25/1
f 149/23/1 150/26/1 151/27/1 152/24/1
f 153/28/1 154/29/1 155/23/1 156/22/1
f 157/29/1 158/30/1 159/26/1 160/23/1
f 161/31/1 162/32/1 163/33/1 164/34/1

