# Tiled2Unity generated file. Do not modify by hand.
# Wavefront file for 'Level02-ACollider_mesh_0026.obj'

# Vertices (Count = 116)
v -72 -24 0
v -96 -24 0
v -96 0 0
v -72 0 0
v -96 -24 0
v -120 -24 0
v -120 0 0
v -96 0 0
v -72 -48 0
v -96 -48 0
v -96 -24 0
v -72 -24 0
v -96 -48 0
v -120 -48 0
v -120 -24 0
v -96 -24 0
v -1488 -72 0
v -1512 -72 0
v -1512 -48 0
v -1488 -48 0
v -1512 -72 0
v -1536 -72 0
v -1536 -48 0
v -1512 -48 0
v -1488 -96 0
v -1512 -96 0
v -1512 -72 0
v -1488 -72 0
v -1512 -96 0
v -1536 -96 0
v -1536 -72 0
v -1512 -72 0
v -1488 -384 0
v -1512 -384 0
v -1512 -360 0
v -1488 -360 0
v -1512 -384 0
v -1536 -384 0
v -1536 -360 0
v -1512 -360 0
v -1488 -408 0
v -1512 -408 0
v -1512 -384 0
v -1488 -384 0
v -1512 -408 0
v -1536 -408 0
v -1536 -384 0
v -1512 -384 0
v 0 -696 0
v -24 -696 0
v -24 -672 0
v 0 -672 0
v -24 -696 0
v -48 -696 0
v -48 -672 0
v -24 -672 0
v 0 -720 0
v -24 -720 0
v -24 -696 0
v 0 -696 0
v -24 -720 0
v -48 -720 0
v -48 -696 0
v -24 -696 0
v -1488 -1176 0
v -1512 -1176 0
v -1512 -1152 0
v -1488 -1152 0
v -1512 -1176 0
v -1536 -1176 0
v -1536 -1152 0
v -1512 -1152 0
v -1488 -1200 0
v -1512 -1200 0
v -1512 -1176 0
v -1488 -1176 0
v -1512 -1200 0
v -1536 -1200 0
v -1536 -1176 0
v -1512 -1176 0
v 0 -1224 0
v -24 -1224 0
v -24 -1200 0
v 0 -1200 0
v -24 -1224 0
v -48 -1224 0
v -48 -1200 0
v -24 -1200 0
v -1512 -1224 0
v -1536 -1224 0
v -1536 -1200 0
v -1512 -1200 0
v 0 -1248 0
v -24 -1248 0
v -24 -1224 0
v 0 -1224 0
v -24 -1248 0
v -48 -1248 0
v -48 -1224 0
v -24 -1224 0
v -1200 -1512 0
v -1224 -1512 0
v -1224 -1488 0
v -1200 -1488 0
v -1224 -1512 0
v -1248 -1512 0
v -1248 -1488 0
v -1224 -1488 0
v -1200 -1536 0
v -1224 -1536 0
v -1224 -1512 0
v -1200 -1512 0
v -1224 -1536 0
v -1248 -1536 0
v -1248 -1512 0
v -1224 -1512 0

# Texture cooridinates (Count = 15)
vt 0.125 0.59375
vt 0.15625 0.59375
vt 0.15625 0.625
vt 0.125 0.625
vt 0.1875 0.59375
vt 0.1875 0.625
vt 0.125 0.5625
vt 0.15625 0.5625
vt 0.1875 0.5625
vt 0.125 0.53125
vt 0.15625 0.53125
vt 0.1875 0.53125
vt 0.125 0.5
vt 0.15625 0.5
vt 0.1875 0.5

# Normal
vn 0 0 -1

# Mesh description
g Level02-ACollider_mesh_0026

# Faces
f 1/1/1 2/2/1 3/3/1 4/4/1
f 5/2/1 6/5/1 7/6/1 8/3/1
f 9/7/1 10/8/1 11/2/1 12/1/1
f 13/8/1 14/9/1 15/5/1 16/2/1
f 17/1/1 18/2/1 19/3/1 20/4/1
f 21/2/1 22/5/1 23/6/1 24/3/1
f 25/7/1 26/8/1 27/2/1 28/1/1
f 29/8/1 30/9/1 31/5/1 32/2/1
f 33/10/1 34/11/1 35/8/1 36/7/1
f 37/11/1 38/12/1 39/9/1 40/8/1
f 41/13/1 42/14/1 43/11/1 44/10/1
f 45/14/1 46/15/1 47/12/1 48/11/1
f 49/10/1 50/11/1 51/8/1 52/7/1
f 53/11/1 54/12/1 55/9/1 56/8/1
f 57/13/1 58/14/1 59/11/1 60/10/1
f 61/14/1 62/15/1 63/12/1 64/11/1
f 65/1/1 66/2/1 67/3/1 68/4/1
f 69/2/1 70/5/1 71/6/1 72/3/1
f 73/7/1 74/8/1 75/2/1 76/1/1
f 77/8/1 78/9/1 79/5/1 80/2/1
f 81/1/1 82/2/1 83/3/1 84/4/1
f 85/2/1 86/5/1 87/6/1 88/3/1
f 89/7/1 90/8/1 91/2/1 92/1/1
f 93/7/1 94/8/1 95/2/1 96/1/1
f 97/8/1 98/9/1 99/5/1 100/2/1
f 101/10/1 102/11/1 103/8/1 104/7/1
f 105/11/1 106/12/1 107/9/1 108/8/1
f 109/13/1 110/14/1 111/11/1 112/10/1
f 113/14/1 114/15/1 115/12/1 116/11/1

