# Tiled2Unity generated file. Do not modify by hand.
# Wavefront file for 'Level02-ACollider_mesh_0031.obj'

# Vertices (Count = 32)
v -720 -24 0
v -744 -24 0
v -744 0 0
v -720 0 0
v -744 -24 0
v -768 -24 0
v -768 0 0
v -744 0 0
v -720 -48 0
v -744 -48 0
v -744 -24 0
v -720 -24 0
v -744 -48 0
v -768 -48 0
v -768 -24 0
v -744 -24 0
v 0 -1416 0
v -24 -1416 0
v -24 -1392 0
v 0 -1392 0
v -24 -1416 0
v -48 -1416 0
v -48 -1392 0
v -24 -1392 0
v 0 -1440 0
v -24 -1440 0
v -24 -1416 0
v 0 -1416 0
v -24 -1440 0
v -48 -1440 0
v -48 -1416 0
v -24 -1416 0

# Texture cooridinates (Count = 15)
vt 0.0625 0.78125
vt 0.09375 0.78125
vt 0.09375 0.8125
vt 0.0625 0.8125
vt 0.125 0.78125
vt 0.125 0.8125
vt 0.0625 0.75
vt 0.09375 0.75
vt 0.125 0.75
vt 0 0.78125
vt 0.03125 0.78125
vt 0.03125 0.8125
vt 0 0.8125
vt 0 0.75
vt 0.03125 0.75

# Normal
vn 0 0 -1

# Mesh description
g Level02-ACollider_mesh_0031

# Faces
f 1/1/1 2/2/1 3/3/1 4/4/1
f 5/2/1 6/5/1 7/6/1 8/3/1
f 9/7/1 10/8/1 11/2/1 12/1/1
f 13/8/1 14/9/1 15/5/1 16/2/1
f 17/10/1 18/11/1 19/12/1 20/13/1
f 21/11/1 22/1/1 23/4/1 24/12/1
f 25/14/1 26/15/1 27/11/1 28/10/1
f 29/15/1 30/7/1 31/1/1 32/11/1

