# Tiled2Unity generated file. Do not modify by hand.
# Wavefront file for 'Level02-ACollider_mesh_0002.obj'

# Vertices (Count = 24)
v -1488 -312 0
v -1512 -312 0
v -1512 -288 0
v -1488 -288 0
v -1512 -312 0
v -1536 -312 0
v -1536 -288 0
v -1512 -288 0
v -1488 -336 0
v -1512 -336 0
v -1512 -312 0
v -1488 -312 0
v -1512 -336 0
v -1536 -336 0
v -1536 -312 0
v -1512 -312 0
v -1488 -360 0
v -1512 -360 0
v -1512 -336 0
v -1488 -336 0
v -1512 -360 0
v -1536 -360 0
v -1536 -336 0
v -1512 -336 0

# Texture cooridinates (Count = 6)
vt 0.6875 0.84375
vt 0.71875 0.84375
vt 0.71875 0.875
vt 0.6875 0.875
vt 0.75 0.84375
vt 0.75 0.875

# Normal
vn 0 0 -1

# Mesh description
g Level02-ACollider_mesh_0002

# Faces
f 1/1/1 2/2/1 3/3/1 4/4/1
f 5/2/1 6/5/1 7/6/1 8/3/1
f 9/1/1 10/2/1 11/3/1 12/4/1
f 13/2/1 14/5/1 15/6/1 16/3/1
f 17/1/1 18/2/1 19/3/1 20/4/1
f 21/2/1 22/5/1 23/6/1 24/3/1

