# Tiled2Unity generated file. Do not modify by hand.
# Wavefront file for 'Level02-ACollider_mesh_0014.obj'

# Vertices (Count = 208)
v -192 -264 0
v -216 -264 0
v -216 -240 0
v -192 -240 0
v -216 -264 0
v -240 -264 0
v -240 -240 0
v -216 -240 0
v -192 -288 0
v -216 -288 0
v -216 -264 0
v -192 -264 0
v -216 -288 0
v -240 -288 0
v -240 -264 0
v -216 -264 0
v -48 -336 0
v -72 -336 0
v -72 -312 0
v -48 -312 0
v -72 -336 0
v -96 -336 0
v -96 -312 0
v -72 -312 0
v -48 -360 0
v -72 -360 0
v -72 -336 0
v -48 -336 0
v -72 -360 0
v -96 -360 0
v -96 -336 0
v -72 -336 0
v -144 -480 0
v -168 -480 0
v -168 -456 0
v -144 -456 0
v -168 -480 0
v -192 -480 0
v -192 -456 0
v -168 -456 0
v -864 -480 0
v -888 -480 0
v -888 -456 0
v -864 -456 0
v -888 -480 0
v -912 -480 0
v -912 -456 0
v -888 -456 0
v -144 -504 0
v -168 -504 0
v -168 -480 0
v -144 -480 0
v -168 -504 0
v -192 -504 0
v -192 -480 0
v -168 -480 0
v -864 -504 0
v -888 -504 0
v -888 -480 0
v -864 -480 0
v -888 -504 0
v -912 -504 0
v -912 -480 0
v -888 -480 0
v -1392 -864 0
v -1416 -864 0
v -1416 -840 0
v -1392 -840 0
v -1416 -864 0
v -1440 -864 0
v -1440 -840 0
v -1416 -840 0
v -1392 -888 0
v -1416 -888 0
v -1416 -864 0
v -1392 -864 0
v -1416 -888 0
v -1440 -888 0
v -1440 -864 0
v -1416 -864 0
v -1368 -912 0
v -1392 -912 0
v -1392 -888 0
v -1368 -888 0
v -1392 -912 0
v -1416 -912 0
v -1416 -888 0
v -1392 -888 0
v -936 -936 0
v -960 -936 0
v -960 -912 0
v -936 -912 0
v -960 -936 0
v -984 -936 0
v -984 -912 0
v -960 -912 0
v -1152 -936 0
v -1176 -936 0
v -1176 -912 0
v -1152 -912 0
v -1176 -936 0
v -1200 -936 0
v -1200 -912 0
v -1176 -912 0
v -1368 -936 0
v -1392 -936 0
v -1392 -912 0
v -1368 -912 0
v -1392 -936 0
v -1416 -936 0
v -1416 -912 0
v -1392 -912 0
v -744 -960 0
v -768 -960 0
v -768 -936 0
v -744 -936 0
v -768 -960 0
v -792 -960 0
v -792 -936 0
v -768 -936 0
v -936 -960 0
v -960 -960 0
v -960 -936 0
v -936 -936 0
v -960 -960 0
v -984 -960 0
v -984 -936 0
v -960 -936 0
v -1152 -960 0
v -1176 -960 0
v -1176 -936 0
v -1152 -936 0
v -1176 -960 0
v -1200 -960 0
v -1200 -936 0
v -1176 -936 0
v -744 -984 0
v -768 -984 0
v -768 -960 0
v -744 -960 0
v -768 -984 0
v -792 -984 0
v -792 -960 0
v -768 -960 0
v -984 -1200 0
v -1008 -1200 0
v -1008 -1176 0
v -984 -1176 0
v -1008 -1200 0
v -1032 -1200 0
v -1032 -1176 0
v -1008 -1176 0
v -984 -1224 0
v -1008 -1224 0
v -1008 -1200 0
v -984 -1200 0
v -1008 -1224 0
v -1032 -1224 0
v -1032 -1200 0
v -1008 -1200 0
v -192 -1248 0
v -216 -1248 0
v -216 -1224 0
v -192 -1224 0
v -216 -1248 0
v -240 -1248 0
v -240 -1224 0
v -216 -1224 0
v -192 -1272 0
v -216 -1272 0
v -216 -1248 0
v -192 -1248 0
v -216 -1272 0
v -240 -1272 0
v -240 -1248 0
v -216 -1248 0
v -1392 -1320 0
v -1416 -1320 0
v -1416 -1296 0
v -1392 -1296 0
v -1416 -1320 0
v -1440 -1320 0
v -1440 -1296 0
v -1416 -1296 0
v -1392 -1344 0
v -1416 -1344 0
v -1416 -1320 0
v -1392 -1320 0
v -1416 -1344 0
v -1440 -1344 0
v -1440 -1320 0
v -1416 -1320 0
v -936 -1464 0
v -960 -1464 0
v -960 -1440 0
v -936 -1440 0
v -960 -1464 0
v -984 -1464 0
v -984 -1440 0
v -960 -1440 0
v -936 -1488 0
v -960 -1488 0
v -960 -1464 0
v -936 -1464 0
v -960 -1488 0
v -984 -1488 0
v -984 -1464 0
v -960 -1464 0

# Texture cooridinates (Count = 9)
vt 0.125 0.53125
vt 0.15625 0.53125
vt 0.15625 0.5625
vt 0.125 0.5625
vt 0.1875 0.53125
vt 0.1875 0.5625
vt 0.125 0.5
vt 0.15625 0.5
vt 0.1875 0.5

# Normal
vn 0 0 -1

# Mesh description
g Level02-ACollider_mesh_0014

# Faces
f 1/1/1 2/2/1 3/3/1 4/4/1
f 5/2/1 6/5/1 7/6/1 8/3/1
f 9/7/1 10/8/1 11/2/1 12/1/1
f 13/8/1 14/9/1 15/5/1 16/2/1
f 17/1/1 18/2/1 19/3/1 20/4/1
f 21/2/1 22/5/1 23/6/1 24/3/1
f 25/7/1 26/8/1 27/2/1 28/1/1
f 29/8/1 30/9/1 31/5/1 32/2/1
f 33/1/1 34/2/1 35/3/1 36/4/1
f 37/2/1 38/5/1 39/6/1 40/3/1
f 41/1/1 42/2/1 43/3/1 44/4/1
f 45/2/1 46/5/1 47/6/1 48/3/1
f 49/7/1 50/8/1 51/2/1 52/1/1
f 53/8/1 54/9/1 55/5/1 56/2/1
f 57/7/1 58/8/1 59/2/1 60/1/1
f 61/8/1 62/9/1 63/5/1 64/2/1
f 65/1/1 66/2/1 67/3/1 68/4/1
f 69/2/1 70/5/1 71/6/1 72/3/1
f 73/7/1 74/8/1 75/2/1 76/1/1
f 77/8/1 78/9/1 79/5/1 80/2/1
f 81/1/1 82/2/1 83/3/1 84/4/1
f 85/2/1 86/5/1 87/6/1 88/3/1
f 89/1/1 90/2/1 91/3/1 92/4/1
f 93/2/1 94/5/1 95/6/1 96/3/1
f 97/1/1 98/2/1 99/3/1 100/4/1
f 101/2/1 102/5/1 103/6/1 104/3/1
f 105/7/1 106/8/1 107/2/1 108/1/1
f 109/8/1 110/9/1 111/5/1 112/2/1
f 113/1/1 114/2/1 115/3/1 116/4/1
f 117/2/1 118/5/1 119/6/1 120/3/1
f 121/7/1 122/8/1 123/2/1 124/1/1
f 125/8/1 126/9/1 127/5/1 128/2/1
f 129/7/1 130/8/1 131/2/1 132/1/1
f 133/8/1 134/9/1 135/5/1 136/2/1
f 137/7/1 138/8/1 139/2/1 140/1/1
f 141/8/1 142/9/1 143/5/1 144/2/1
f 145/1/1 146/2/1 147/3/1 148/4/1
f 149/2/1 150/5/1 151/6/1 152/3/1
f 153/7/1 154/8/1 155/2/1 156/1/1
f 157/8/1 158/9/1 159/5/1 160/2/1
f 161/1/1 162/2/1 163/3/1 164/4/1
f 165/2/1 166/5/1 167/6/1 168/3/1
f 169/7/1 170/8/1 171/2/1 172/1/1
f 173/8/1 174/9/1 175/5/1 176/2/1
f 177/1/1 178/2/1 179/3/1 180/4/1
f 181/2/1 182/5/1 183/6/1 184/3/1
f 185/7/1 186/8/1 187/2/1 188/1/1
f 189/8/1 190/9/1 191/5/1 192/2/1
f 193/1/1 194/2/1 195/3/1 196/4/1
f 197/2/1 198/5/1 199/6/1 200/3/1
f 201/7/1 202/8/1 203/2/1 204/1/1
f 205/8/1 206/9/1 207/5/1 208/2/1

