# Tiled2Unity generated file. Do not modify by hand.
# Wavefront file for 'Level02-ACollider_mesh_0012.obj'

# Vertices (Count = 16)
v -1416 -192 0
v -1440 -192 0
v -1440 -168 0
v -1416 -168 0
v -1440 -192 0
v -1464 -192 0
v -1464 -168 0
v -1440 -168 0
v -1416 -216 0
v -1440 -216 0
v -1440 -192 0
v -1416 -192 0
v -1440 -216 0
v -1464 -216 0
v -1464 -192 0
v -1440 -192 0

# Texture cooridinates (Count = 9)
vt 0.125 0.53125
vt 0.15625 0.53125
vt 0.15625 0.5625
vt 0.125 0.5625
vt 0.1875 0.53125
vt 0.1875 0.5625
vt 0.125 0.5
vt 0.15625 0.5
vt 0.1875 0.5

# Normal
vn 0 0 -1

# Mesh description
g Level02-ACollider_mesh_0012

# Faces
f 1/1/1 2/2/1 3/3/1 4/4/1
f 5/2/1 6/5/1 7/6/1 8/3/1
f 9/7/1 10/8/1 11/2/1 12/1/1
f 13/8/1 14/9/1 15/5/1 16/2/1

