# Tiled2Unity generated file. Do not modify by hand.
# Wavefront file for 'Level02-ACollider_mesh_0035.obj'

# Vertices (Count = 260)
v -72 -168 0
v -96 -168 0
v -96 -144 0
v -72 -144 0
v -96 -168 0
v -120 -168 0
v -120 -144 0
v -96 -144 0
v -72 -192 0
v -96 -192 0
v -96 -168 0
v -72 -168 0
v -96 -192 0
v -120 -192 0
v -120 -168 0
v -96 -168 0
v -576 -264 0
v -600 -264 0
v -600 -240 0
v -576 -240 0
v -600 -264 0
v -624 -264 0
v -624 -240 0
v -600 -240 0
v -576 -288 0
v -600 -288 0
v -600 -264 0
v -576 -264 0
v -600 -288 0
v -624 -288 0
v -624 -264 0
v -600 -264 0
v -648 -288 0
v -672 -288 0
v -672 -264 0
v -648 -264 0
v -672 -288 0
v -696 -288 0
v -696 -264 0
v -672 -264 0
v -648 -312 0
v -672 -312 0
v -672 -288 0
v -648 -288 0
v -672 -312 0
v -696 -312 0
v -696 -288 0
v -672 -288 0
v -1392 -312 0
v -1416 -312 0
v -1416 -288 0
v -1392 -288 0
v -1416 -312 0
v -1440 -312 0
v -1440 -288 0
v -1416 -288 0
v -1392 -336 0
v -1416 -336 0
v -1416 -312 0
v -1392 -312 0
v -1416 -336 0
v -1440 -336 0
v -1440 -312 0
v -1416 -312 0
v -120 -360 0
v -144 -360 0
v -144 -336 0
v -120 -336 0
v -144 -360 0
v -168 -360 0
v -168 -336 0
v -144 -336 0
v -144 -384 0
v -168 -384 0
v -168 -360 0
v -144 -360 0
v -744 -432 0
v -768 -432 0
v -768 -408 0
v -744 -408 0
v -768 -432 0
v -792 -432 0
v -792 -408 0
v -768 -408 0
v -744 -456 0
v -768 -456 0
v -768 -432 0
v -744 -432 0
v -768 -456 0
v -792 -456 0
v -792 -432 0
v -768 -432 0
v -1128 -552 0
v -1152 -552 0
v -1152 -528 0
v -1128 -528 0
v -1152 -552 0
v -1176 -552 0
v -1176 -528 0
v -1152 -528 0
v -1296 -672 0
v -1320 -672 0
v -1320 -648 0
v -1296 -648 0
v -1320 -672 0
v -1344 -672 0
v -1344 -648 0
v -1320 -648 0
v -1392 -672 0
v -1416 -672 0
v -1416 -648 0
v -1392 -648 0
v -1416 -672 0
v -1440 -672 0
v -1440 -648 0
v -1416 -648 0
v -1296 -696 0
v -1320 -696 0
v -1320 -672 0
v -1296 -672 0
v -1320 -696 0
v -1344 -696 0
v -1344 -672 0
v -1320 -672 0
v -1392 -696 0
v -1416 -696 0
v -1416 -672 0
v -1392 -672 0
v -1416 -696 0
v -1440 -696 0
v -1440 -672 0
v -1416 -672 0
v -528 -792 0
v -552 -792 0
v -552 -768 0
v -528 -768 0
v -552 -792 0
v -576 -792 0
v -576 -768 0
v -552 -768 0
v -72 -816 0
v -96 -816 0
v -96 -792 0
v -72 -792 0
v -96 -816 0
v -120 -816 0
v -120 -792 0
v -96 -792 0
v -528 -816 0
v -552 -816 0
v -552 -792 0
v -528 -792 0
v -552 -816 0
v -576 -816 0
v -576 -792 0
v -552 -792 0
v -72 -840 0
v -96 -840 0
v -96 -816 0
v -72 -816 0
v -96 -840 0
v -120 -840 0
v -120 -816 0
v -96 -816 0
v -528 -840 0
v -552 -840 0
v -552 -816 0
v -528 -816 0
v -552 -840 0
v -576 -840 0
v -576 -816 0
v -552 -816 0
v -528 -864 0
v -552 -864 0
v -552 -840 0
v -528 -840 0
v -552 -864 0
v -576 -864 0
v -576 -840 0
v -552 -840 0
v -888 -1008 0
v -912 -1008 0
v -912 -984 0
v -888 -984 0
v -912 -1008 0
v -936 -1008 0
v -936 -984 0
v -912 -984 0
v -840 -1032 0
v -864 -1032 0
v -864 -1008 0
v -840 -1008 0
v -864 -1032 0
v -888 -1032 0
v -888 -1008 0
v -864 -1008 0
v -888 -1032 0
v -912 -1032 0
v -912 -1008 0
v -888 -1008 0
v -912 -1032 0
v -936 -1032 0
v -936 -1008 0
v -912 -1008 0
v -840 -1056 0
v -864 -1056 0
v -864 -1032 0
v -840 -1032 0
v -864 -1056 0
v -888 -1056 0
v -888 -1032 0
v -864 -1032 0
v -360 -1080 0
v -384 -1080 0
v -384 -1056 0
v -360 -1056 0
v -384 -1080 0
v -408 -1080 0
v -408 -1056 0
v -384 -1056 0
v -360 -1104 0
v -384 -1104 0
v -384 -1080 0
v -360 -1080 0
v -384 -1104 0
v -408 -1104 0
v -408 -1080 0
v -384 -1080 0
v -48 -1248 0
v -72 -1248 0
v -72 -1224 0
v -48 -1224 0
v -72 -1248 0
v -96 -1248 0
v -96 -1224 0
v -72 -1224 0
v -48 -1272 0
v -72 -1272 0
v -72 -1248 0
v -48 -1248 0
v -72 -1272 0
v -96 -1272 0
v -96 -1248 0
v -72 -1248 0
v -336 -1392 0
v -360 -1392 0
v -360 -1368 0
v -336 -1368 0
v -360 -1392 0
v -384 -1392 0
v -384 -1368 0
v -360 -1368 0
v -336 -1416 0
v -360 -1416 0
v -360 -1392 0
v -336 -1392 0
v -360 -1416 0
v -384 -1416 0
v -384 -1392 0
v -360 -1392 0

# Texture cooridinates (Count = 58)
vt 0.9375 0.28125
vt 0.96875 0.28125
vt 0.96875 0.3125
vt 0.9375 0.3125
vt 1 0.28125
vt 1 0.3125
vt 0.9375 0.25
vt 0.96875 0.25
vt 1 0.25
vt 0.875 0.21875
vt 0.90625 0.21875
vt 0.90625 0.25
vt 0.875 0.25
vt 0.9375 0.21875
vt 0.875 0.1875
vt 0.90625 0.1875
vt 0.9375 0.1875
vt 0.0625 0.59375
vt 0.09375 0.59375
vt 0.09375 0.625
vt 0.0625 0.625
vt 0.125 0.59375
vt 0.125 0.625
vt 0.0625 0.5625
vt 0.09375 0.5625
vt 0.125 0.5625
vt 0.0625 0.53125
vt 0.09375 0.53125
vt 0.125 0.53125
vt 0.0625 0.5
vt 0.09375 0.5
vt 0.125 0.5
vt 0.875 0.15625
vt 0.90625 0.15625
vt 0.9375 0.15625
vt 0.875 0.125
vt 0.90625 0.125
vt 0.9375 0.125
vt 0.0625 0.46875
vt 0.09375 0.46875
vt 0.125 0.46875
vt 0.0625 0.4375
vt 0.09375 0.4375
vt 0.125 0.4375
vt 0.0625 0.40625
vt 0.09375 0.40625
vt 0.125 0.40625
vt 0.0625 0.375
vt 0.09375 0.375
vt 0.125 0.375
vt 0.96875 0.15625
vt 0.96875 0.1875
vt 1 0.15625
vt 1 0.1875
vt 0.96875 0.125
vt 1 0.125
vt 0.96875 0.21875
vt 1 0.21875

# Normal
vn 0 0 -1

# Mesh description
g Level02-ACollider_mesh_0035

# Faces
f 1/1/1 2/2/1 3/3/1 4/4/1
f 5/2/1 6/5/1 7/6/1 8/3/1
f 9/7/1 10/8/1 11/2/1 12/1/1
f 13/8/1 14/9/1 15/5/1 16/2/1
f 17/10/1 18/11/1 19/12/1 20/13/1
f 21/11/1 22/14/1 23/7/1 24/12/1
f 25/15/1 26/16/1 27/11/1 28/10/1
f 29/16/1 30/17/1 31/14/1 32/11/1
f 33/18/1 34/19/1 35/20/1 36/21/1
f 37/19/1 38/22/1 39/23/1 40/20/1
f 41/24/1 42/25/1 43/19/1 44/18/1
f 45/25/1 46/26/1 47/22/1 48/19/1
f 49/18/1 50/19/1 51/20/1 52/21/1
f 53/19/1 54/22/1 55/23/1 56/20/1
f 57/24/1 58/25/1 59/19/1 60/18/1
f 61/25/1 62/26/1 63/22/1 64/19/1
f 65/18/1 66/19/1 67/20/1 68/21/1
f 69/19/1 70/22/1 71/23/1 72/20/1
f 73/25/1 74/26/1 75/22/1 76/19/1
f 77/27/1 78/28/1 79/25/1 80/24/1
f 81/28/1 82/29/1 83/26/1 84/25/1
f 85/30/1 86/31/1 87/28/1 88/27/1
f 89/31/1 90/32/1 91/29/1 92/28/1
f 93/24/1 94/25/1 95/19/1 96/18/1
f 97/25/1 98/26/1 99/22/1 100/19/1
f 101/33/1 102/34/1 103/16/1 104/15/1
f 105/34/1 106/35/1 107/17/1 108/16/1
f 109/18/1 110/19/1 111/20/1 112/21/1
f 113/19/1 114/22/1 115/23/1 116/20/1
f 117/36/1 118/37/1 119/34/1 120/33/1
f 121/37/1 122/38/1 123/35/1 124/34/1
f 125/24/1 126/25/1 127/19/1 128/18/1
f 129/25/1 130/26/1 131/22/1 132/19/1
f 133/39/1 134/40/1 135/31/1 136/30/1
f 137/40/1 138/41/1 139/32/1 140/31/1
f 141/18/1 142/19/1 143/20/1 144/21/1
f 145/19/1 146/22/1 147/23/1 148/20/1
f 149/42/1 150/43/1 151/40/1 152/39/1
f 153/43/1 154/44/1 155/41/1 156/40/1
f 157/24/1 158/25/1 159/19/1 160/18/1
f 161/25/1 162/26/1 163/22/1 164/19/1
f 165/45/1 166/46/1 167/43/1 168/42/1
f 169/46/1 170/47/1 171/44/1 172/43/1
f 173/48/1 174/49/1 175/46/1 176/45/1
f 177/49/1 178/50/1 179/47/1 180/46/1
f 181/35/1 182/51/1 183/52/1 184/17/1
f 185/51/1 186/53/1 187/54/1 188/52/1
f 189/18/1 190/19/1 191/20/1 192/21/1
f 193/19/1 194/22/1 195/23/1 196/20/1
f 197/38/1 198/55/1 199/51/1 200/35/1
f 201/55/1 202/56/1 203/53/1 204/51/1
f 205/24/1 206/25/1 207/19/1 208/18/1
f 209/25/1 210/26/1 211/22/1 212/19/1
f 213/18/1 214/19/1 215/20/1 216/21/1
f 217/19/1 218/22/1 219/23/1 220/20/1
f 221/24/1 222/25/1 223/19/1 224/18/1
f 225/25/1 226/26/1 227/22/1 228/19/1
f 229/14/1 230/57/1 231/8/1 232/7/1
f 233/57/1 234/58/1 235/9/1 236/8/1
f 237/17/1 238/52/1 239/57/1 240/14/1
f 241/52/1 242/54/1 243/58/1 244/57/1
f 245/18/1 246/19/1 247/20/1 248/21/1
f 249/19/1 250/22/1 251/23/1 252/20/1
f 253/24/1 254/25/1 255/19/1 256/18/1
f 257/25/1 258/26/1 259/22/1 260/19/1

