# Tiled2Unity generated file. Do not modify by hand.
# Wavefront file for 'Level02-ACollider_mesh_0022.obj'

# Vertices (Count = 8)
v -1296 -264 0
v -1320 -264 0
v -1320 -240 0
v -1296 -240 0
v -1368 -264 0
v -1392 -264 0
v -1392 -240 0
v -1368 -240 0

# Texture cooridinates (Count = 8)
vt 0.875 0.875
vt 0.90625 0.875
vt 0.90625 0.90625
vt 0.875 0.90625
vt 0.96875 0.875
vt 1 0.875
vt 1 0.90625
vt 0.96875 0.90625

# Normal
vn 0 0 -1

# Mesh description
g Level02-ACollider_mesh_0022

# Faces
f 1/1/1 2/2/1 3/3/1 4/4/1
f 5/5/1 6/6/1 7/7/1 8/8/1

