# Tiled2Unity generated file. Do not modify by hand.
# Wavefront file for 'Level02-ACollider_mesh_0024.obj'

# Vertices (Count = 16)
v -120 -432 0
v -144 -432 0
v -144 -408 0
v -120 -408 0
v -144 -432 0
v -168 -432 0
v -168 -408 0
v -144 -408 0
v -168 -432 0
v -192 -432 0
v -192 -408 0
v -168 -408 0
v -192 -432 0
v -216 -432 0
v -216 -408 0
v -192 -408 0

# Texture cooridinates (Count = 10)
vt 0.3125 0.65625
vt 0.34375 0.65625
vt 0.34375 0.6875
vt 0.3125 0.6875
vt 0.375 0.65625
vt 0.375 0.6875
vt 0.40625 0.65625
vt 0.40625 0.6875
vt 0.4375 0.65625
vt 0.4375 0.6875

# Normal
vn 0 0 -1

# Mesh description
g Level02-ACollider_mesh_0024

# Faces
f 1/1/1 2/2/1 3/3/1 4/4/1
f 5/2/1 6/5/1 7/6/1 8/3/1
f 9/5/1 10/7/1 11/8/1 12/6/1
f 13/7/1 14/9/1 15/10/1 16/8/1

