# Tiled2Unity generated file. Do not modify by hand.
# Wavefront file for 'Level02-ACollider_mesh_0036.obj'

# Vertices (Count = 64)
v -216 -384 0
v -240 -384 0
v -240 -360 0
v -216 -360 0
v -240 -384 0
v -264 -384 0
v -264 -360 0
v -240 -360 0
v -216 -408 0
v -240 -408 0
v -240 -384 0
v -216 -384 0
v -240 -408 0
v -264 -408 0
v -264 -384 0
v -240 -384 0
v -1440 -840 0
v -1464 -840 0
v -1464 -816 0
v -1440 -816 0
v -1464 -840 0
v -1488 -840 0
v -1488 -816 0
v -1464 -816 0
v -1440 -864 0
v -1464 -864 0
v -1464 -840 0
v -1440 -840 0
v -1464 -864 0
v -1488 -864 0
v -1488 -840 0
v -1464 -840 0
v -48 -984 0
v -72 -984 0
v -72 -960 0
v -48 -960 0
v -72 -984 0
v -96 -984 0
v -96 -960 0
v -72 -960 0
v -48 -1008 0
v -72 -1008 0
v -72 -984 0
v -48 -984 0
v -72 -1008 0
v -96 -1008 0
v -96 -984 0
v -72 -984 0
v -120 -1368 0
v -144 -1368 0
v -144 -1344 0
v -120 -1344 0
v -144 -1368 0
v -168 -1368 0
v -168 -1344 0
v -144 -1344 0
v -120 -1392 0
v -144 -1392 0
v -144 -1368 0
v -120 -1368 0
v -144 -1392 0
v -168 -1392 0
v -168 -1368 0
v -144 -1368 0

# Texture cooridinates (Count = 15)
vt 0.875 0.9583333
vt 0.90625 0.9583333
vt 0.90625 1
vt 0.875 1
vt 0.9375 0.9583333
vt 0.9375 1
vt 0.875 0.9166667
vt 0.90625 0.9166667
vt 0.9375 0.9166667
vt 0.96875 0.9583333
vt 0.96875 1
vt 1 0.9583333
vt 1 1
vt 0.96875 0.9166667
vt 1 0.9166667

# Normal
vn 0 0 -1

# Mesh description
g Level02-ACollider_mesh_0036

# Faces
f 1/1/1 2/2/1 3/3/1 4/4/1
f 5/2/1 6/5/1 7/6/1 8/3/1
f 9/7/1 10/8/1 11/2/1 12/1/1
f 13/8/1 14/9/1 15/5/1 16/2/1
f 17/1/1 18/2/1 19/3/1 20/4/1
f 21/2/1 22/5/1 23/6/1 24/3/1
f 25/7/1 26/8/1 27/2/1 28/1/1
f 29/8/1 30/9/1 31/5/1 32/2/1
f 33/5/1 34/10/1 35/11/1 36/6/1
f 37/10/1 38/12/1 39/13/1 40/11/1
f 41/9/1 42/14/1 43/10/1 44/5/1
f 45/14/1 46/15/1 47/12/1 48/10/1
f 49/1/1 50/2/1 51/3/1 52/4/1
f 53/2/1 54/5/1 55/6/1 56/3/1
f 57/7/1 58/8/1 59/2/1 60/1/1
f 61/8/1 62/9/1 63/5/1 64/2/1

