# Tiled2Unity generated file. Do not modify by hand.
# Wavefront file for 'Level02-ACollider_mesh_0037.obj'

# Vertices (Count = 48)
v -1200 -480 0
v -1224 -480 0
v -1224 -456 0
v -1200 -456 0
v -1224 -480 0
v -1248 -480 0
v -1248 -456 0
v -1224 -456 0
v -1200 -504 0
v -1224 -504 0
v -1224 -480 0
v -1200 -480 0
v -1224 -504 0
v -1248 -504 0
v -1248 -480 0
v -1224 -480 0
v -600 -936 0
v -624 -936 0
v -624 -912 0
v -600 -912 0
v -624 -936 0
v -648 -936 0
v -648 -912 0
v -624 -912 0
v -600 -960 0
v -624 -960 0
v -624 -936 0
v -600 -936 0
v -624 -960 0
v -648 -960 0
v -648 -936 0
v -624 -936 0
v -264 -1104 0
v -288 -1104 0
v -288 -1080 0
v -264 -1080 0
v -288 -1104 0
v -312 -1104 0
v -312 -1080 0
v -288 -1080 0
v -264 -1128 0
v -288 -1128 0
v -288 -1104 0
v -264 -1104 0
v -288 -1128 0
v -312 -1128 0
v -312 -1104 0
v -288 -1104 0

# Texture cooridinates (Count = 9)
vt 0.1875 0.15625
vt 0.21875 0.15625
vt 0.21875 0.1875
vt 0.1875 0.1875
vt 0.25 0.15625
vt 0.25 0.1875
vt 0.1875 0.125
vt 0.21875 0.125
vt 0.25 0.125

# Normal
vn 0 0 -1

# Mesh description
g Level02-ACollider_mesh_0037

# Faces
f 1/1/1 2/2/1 3/3/1 4/4/1
f 5/2/1 6/5/1 7/6/1 8/3/1
f 9/7/1 10/8/1 11/2/1 12/1/1
f 13/8/1 14/9/1 15/5/1 16/2/1
f 17/1/1 18/2/1 19/3/1 20/4/1
f 21/2/1 22/5/1 23/6/1 24/3/1
f 25/7/1 26/8/1 27/2/1 28/1/1
f 29/8/1 30/9/1 31/5/1 32/2/1
f 33/1/1 34/2/1 35/3/1 36/4/1
f 37/2/1 38/5/1 39/6/1 40/3/1
f 41/7/1 42/8/1 43/2/1 44/1/1
f 45/8/1 46/9/1 47/5/1 48/2/1

