# Tiled2Unity generated file. Do not modify by hand.
# Wavefront file for 'Level01-B_mesh_0013.obj'

# Vertices (Count = 272)
v -41.25 -2.25 0
v -42 -2.25 0
v -42 -1.5 0
v -41.25 -1.5 0
v -40.5 -2.25 0
v -41.25 -2.25 0
v -41.25 -1.5 0
v -40.5 -1.5 0
v -41.25 -3 0
v -42 -3 0
v -42 -2.25 0
v -41.25 -2.25 0
v -40.5 -3 0
v -41.25 -3 0
v -41.25 -2.25 0
v -40.5 -2.25 0
v -41.25 -3.75 0
v -42 -3.75 0
v -42 -3 0
v -41.25 -3 0
v -40.5 -3.75 0
v -41.25 -3.75 0
v -41.25 -3 0
v -40.5 -3 0
v -38.25 -3.75 0
v -39 -3.75 0
v -39 -3 0
v -38.25 -3 0
v -37.5 -3.75 0
v -38.25 -3.75 0
v -38.25 -3 0
v -37.5 -3 0
v -27.75 -3.75 0
v -28.5 -3.75 0
v -28.5 -3 0
v -27.75 -3 0
v -27 -3.75 0
v -27.75 -3.75 0
v -27.75 -3 0
v -27 -3 0
v -41.25 -4.5 0
v -42 -4.5 0
v -42 -3.75 0
v -41.25 -3.75 0
v -40.5 -4.5 0
v -41.25 -4.5 0
v -41.25 -3.75 0
v -40.5 -3.75 0
v -38.25 -4.5 0
v -39 -4.5 0
v -39 -3.75 0
v -38.25 -3.75 0
v -37.5 -4.5 0
v -38.25 -4.5 0
v -38.25 -3.75 0
v -37.5 -3.75 0
v -27.75 -4.5 0
v -28.5 -4.5 0
v -28.5 -3.75 0
v -27.75 -3.75 0
v -27 -4.5 0
v -27.75 -4.5 0
v -27.75 -3.75 0
v -27 -3.75 0
v -44.25 -5.25 0
v -45 -5.25 0
v -45 -4.5 0
v -44.25 -4.5 0
v -43.5 -5.25 0
v -44.25 -5.25 0
v -44.25 -4.5 0
v -43.5 -4.5 0
v -38.25 -5.25 0
v -39 -5.25 0
v -39 -4.5 0
v -38.25 -4.5 0
v -37.5 -5.25 0
v -38.25 -5.25 0
v -38.25 -4.5 0
v -37.5 -4.5 0
v -29.25 -5.25 0
v -30 -5.25 0
v -30 -4.5 0
v -29.25 -4.5 0
v -28.5 -5.25 0
v -29.25 -5.25 0
v -29.25 -4.5 0
v -28.5 -4.5 0
v -27.75 -5.25 0
v -28.5 -5.25 0
v -28.5 -4.5 0
v -27.75 -4.5 0
v -27 -5.25 0
v -27.75 -5.25 0
v -27.75 -4.5 0
v -27 -4.5 0
v -12.75 -5.25 0
v -13.5 -5.25 0
v -13.5 -4.5 0
v -12.75 -4.5 0
v -12 -5.25 0
v -12.75 -5.25 0
v -12.75 -4.5 0
v -12 -4.5 0
v -44.25 -6 0
v -45 -6 0
v -45 -5.25 0
v -44.25 -5.25 0
v -43.5 -6 0
v -44.25 -6 0
v -44.25 -5.25 0
v -43.5 -5.25 0
v -38.25 -6 0
v -39 -6 0
v -39 -5.25 0
v -38.25 -5.25 0
v -37.5 -6 0
v -38.25 -6 0
v -38.25 -5.25 0
v -37.5 -5.25 0
v -29.25 -6 0
v -30 -6 0
v -30 -5.25 0
v -29.25 -5.25 0
v -28.5 -6 0
v -29.25 -6 0
v -29.25 -5.25 0
v -28.5 -5.25 0
v -27.75 -6 0
v -28.5 -6 0
v -28.5 -5.25 0
v -27.75 -5.25 0
v -27 -6 0
v -27.75 -6 0
v -27.75 -5.25 0
v -27 -5.25 0
v -12.75 -6 0
v -13.5 -6 0
v -13.5 -5.25 0
v -12.75 -5.25 0
v -12 -6 0
v -12.75 -6 0
v -12.75 -5.25 0
v -12 -5.25 0
v -12.75 -6.75 0
v -13.5 -6.75 0
v -13.5 -6 0
v -12.75 -6 0
v -12 -6.75 0
v -12.75 -6.75 0
v -12.75 -6 0
v -12 -6 0
v -12.75 -7.5 0
v -13.5 -7.5 0
v -13.5 -6.75 0
v -12.75 -6.75 0
v -12 -7.5 0
v -12.75 -7.5 0
v -12.75 -6.75 0
v -12 -6.75 0
v -35.25 -11.25 0
v -36 -11.25 0
v -36 -10.5 0
v -35.25 -10.5 0
v -34.5 -11.25 0
v -35.25 -11.25 0
v -35.25 -10.5 0
v -34.5 -10.5 0
v -35.25 -12 0
v -36 -12 0
v -36 -11.25 0
v -35.25 -11.25 0
v -34.5 -12 0
v -35.25 -12 0
v -35.25 -11.25 0
v -34.5 -11.25 0
v -35.25 -12.75 0
v -36 -12.75 0
v -36 -12 0
v -35.25 -12 0
v -34.5 -12.75 0
v -35.25 -12.75 0
v -35.25 -12 0
v -34.5 -12 0
v -35.25 -13.5 0
v -36 -13.5 0
v -36 -12.75 0
v -35.25 -12.75 0
v -34.5 -13.5 0
v -35.25 -13.5 0
v -35.25 -12.75 0
v -34.5 -12.75 0
v -27.75 -15.75 0
v -28.5 -15.75 0
v -28.5 -15 0
v -27.75 -15 0
v -27 -15.75 0
v -27.75 -15.75 0
v -27.75 -15 0
v -27 -15 0
v -27.75 -16.5 0
v -28.5 -16.5 0
v -28.5 -15.75 0
v -27.75 -15.75 0
v -27 -16.5 0
v -27.75 -16.5 0
v -27.75 -15.75 0
v -27 -15.75 0
v -27.75 -17.25 0
v -28.5 -17.25 0
v -28.5 -16.5 0
v -27.75 -16.5 0
v -27 -17.25 0
v -27.75 -17.25 0
v -27.75 -16.5 0
v -27 -16.5 0
v -27.75 -18 0
v -28.5 -18 0
v -28.5 -17.25 0
v -27.75 -17.25 0
v -27 -18 0
v -27.75 -18 0
v -27.75 -17.25 0
v -27 -17.25 0
v -30.75 -26.25 0
v -31.5 -26.25 0
v -31.5 -25.5 0
v -30.75 -25.5 0
v -30 -26.25 0
v -30.75 -26.25 0
v -30.75 -25.5 0
v -30 -25.5 0
v -30.75 -27 0
v -31.5 -27 0
v -31.5 -26.25 0
v -30.75 -26.25 0
v -30 -27 0
v -30.75 -27 0
v -30.75 -26.25 0
v -30 -26.25 0
v -30.75 -27.75 0
v -31.5 -27.75 0
v -31.5 -27 0
v -30.75 -27 0
v -30 -27.75 0
v -30.75 -27.75 0
v -30.75 -27 0
v -30 -27 0
v -30.75 -28.5 0
v -31.5 -28.5 0
v -31.5 -27.75 0
v -30.75 -27.75 0
v -30 -28.5 0
v -30.75 -28.5 0
v -30.75 -27.75 0
v -30 -27.75 0
v -45.75 -30.75 0
v -46.5 -30.75 0
v -46.5 -30 0
v -45.75 -30 0
v -45 -30.75 0
v -45.75 -30.75 0
v -45.75 -30 0
v -45 -30 0
v -45.75 -31.5 0
v -46.5 -31.5 0
v -46.5 -30.75 0
v -45.75 -30.75 0
v -45 -31.5 0
v -45.75 -31.5 0
v -45.75 -30.75 0
v -45 -30.75 0

# Texture cooridinates (Count = 34)
vt 0.84375 0.78125
vt 0.875 0.78125
vt 0.875 0.8125
vt 0.84375 0.8125
vt 0.8125 0.78125
vt 0.8125 0.8125
vt 0.84375 0.75
vt 0.875 0.75
vt 0.8125 0.75
vt 0.84375 0.71875
vt 0.875 0.71875
vt 0.8125 0.71875
vt 0.78125 0.78125
vt 0.78125 0.8125
vt 0.75 0.78125
vt 0.75 0.8125
vt 0.84375 0.6875
vt 0.875 0.6875
vt 0.8125 0.6875
vt 0.78125 0.75
vt 0.75 0.75
vt 0.96875 0.71875
vt 1 0.71875
vt 1 0.75
vt 0.96875 0.75
vt 0.9375 0.71875
vt 0.9375 0.75
vt 0.78125 0.71875
vt 0.75 0.71875
vt 0.96875 0.6875
vt 1 0.6875
vt 0.9375 0.6875
vt 0.78125 0.6875
vt 0.75 0.6875

# Normal
vn 0 0 -1

# Mesh description
g Level01-B_mesh_0013

# Faces
f 1/1/1 2/2/1 3/3/1 4/4/1
f 5/5/1 6/1/1 7/4/1 8/6/1
f 9/7/1 10/8/1 11/2/1 12/1/1
f 13/9/1 14/7/1 15/1/1 16/5/1
f 17/10/1 18/11/1 19/8/1 20/7/1
f 21/12/1 22/10/1 23/7/1 24/9/1
f 25/13/1 26/5/1 27/6/1 28/14/1
f 29/15/1 30/13/1 31/14/1 32/16/1
f 33/13/1 34/5/1 35/6/1 36/14/1
f 37/15/1 38/13/1 39/14/1 40/16/1
f 41/17/1 42/18/1 43/11/1 44/10/1
f 45/19/1 46/17/1 47/10/1 48/12/1
f 49/20/1 50/9/1 51/5/1 52/13/1
f 53/21/1 54/20/1 55/13/1 56/15/1
f 57/20/1 58/9/1 59/5/1 60/13/1
f 61/21/1 62/20/1 63/13/1 64/15/1
f 65/22/1 66/23/1 67/24/1 68/25/1
f 69/26/1 70/22/1 71/25/1 72/27/1
f 73/28/1 74/12/1 75/9/1 76/20/1
f 77/29/1 78/28/1 79/20/1 80/21/1
f 81/22/1 82/23/1 83/24/1 84/25/1
f 85/26/1 86/22/1 87/25/1 88/27/1
f 89/28/1 90/12/1 91/9/1 92/20/1
f 93/29/1 94/28/1 95/20/1 96/21/1
f 97/13/1 98/5/1 99/6/1 100/14/1
f 101/15/1 102/13/1 103/14/1 104/16/1
f 105/30/1 106/31/1 107/23/1 108/22/1
f 109/32/1 110/30/1 111/22/1 112/26/1
f 113/33/1 114/19/1 115/12/1 116/28/1
f 117/34/1 118/33/1 119/28/1 120/29/1
f 121/30/1 122/31/1 123/23/1 124/22/1
f 125/32/1 126/30/1 127/22/1 128/26/1
f 129/33/1 130/19/1 131/12/1 132/28/1
f 133/34/1 134/33/1 135/28/1 136/29/1
f 137/20/1 138/9/1 139/5/1 140/13/1
f 141/21/1 142/20/1 143/13/1 144/15/1
f 145/28/1 146/12/1 147/9/1 148/20/1
f 149/29/1 150/28/1 151/20/1 152/21/1
f 153/33/1 154/19/1 155/12/1 156/28/1
f 157/34/1 158/33/1 159/28/1 160/29/1
f 161/13/1 162/5/1 163/6/1 164/14/1
f 165/15/1 166/13/1 167/14/1 168/16/1
f 169/20/1 170/9/1 171/5/1 172/13/1
f 173/21/1 174/20/1 175/13/1 176/15/1
f 177/28/1 178/12/1 179/9/1 180/20/1
f 181/29/1 182/28/1 183/20/1 184/21/1
f 185/33/1 186/19/1 187/12/1 188/28/1
f 189/34/1 190/33/1 191/28/1 192/29/1
f 193/13/1 194/5/1 195/6/1 196/14/1
f 197/15/1 198/13/1 199/14/1 200/16/1
f 201/20/1 202/9/1 203/5/1 204/13/1
f 205/21/1 206/20/1 207/13/1 208/15/1
f 209/28/1 210/12/1 211/9/1 212/20/1
f 213/29/1 214/28/1 215/20/1 216/21/1
f 217/33/1 218/19/1 219/12/1 220/28/1
f 221/34/1 222/33/1 223/28/1 224/29/1
f 225/1/1 226/2/1 227/3/1 228/4/1
f 229/5/1 230/1/1 231/4/1 232/6/1
f 233/7/1 234/8/1 235/2/1 236/1/1
f 237/9/1 238/7/1 239/1/1 240/5/1
f 241/10/1 242/11/1 243/8/1 244/7/1
f 245/12/1 246/10/1 247/7/1 248/9/1
f 249/17/1 250/18/1 251/11/1 252/10/1
f 253/19/1 254/17/1 255/10/1 256/12/1
f 257/22/1 258/23/1 259/24/1 260/25/1
f 261/26/1 262/22/1 263/25/1 264/27/1
f 265/30/1 266/31/1 267/23/1 268/22/1
f 269/32/1 270/30/1 271/22/1 272/26/1

