# Tiled2Unity generated file. Do not modify by hand.
# Wavefront file for 'Forest-in_mesh_0021.obj'

# Vertices (Count = 32)
v -6 -2.25 0
v -6.75 -2.25 0
v -6.75 -1.5 0
v -6 -1.5 0
v -6.75 -2.25 0
v -7.5 -2.25 0
v -7.5 -1.5 0
v -6.75 -1.5 0
v -6 -3 0
v -6.75 -3 0
v -6.75 -2.25 0
v -6 -2.25 0
v -6.75 -3 0
v -7.5 -3 0
v -7.5 -2.25 0
v -6.75 -2.25 0
v -6 -3.75 0
v -6.75 -3.75 0
v -6.75 -3 0
v -6 -3 0
v -6.75 -3.75 0
v -7.5 -3.75 0
v -7.5 -3 0
v -6.75 -3 0
v -6 -4.5 0
v -6.75 -4.5 0
v -6.75 -3.75 0
v -6 -3.75 0
v -6.75 -4.5 0
v -7.5 -4.5 0
v -7.5 -3.75 0
v -6.75 -3.75 0

# Texture cooridinates (Count = 15)
vt 0.375 0.09375
vt 0.40625 0.09375
vt 0.40625 0.125
vt 0.375 0.125
vt 0.4375 0.09375
vt 0.4375 0.125
vt 0.375 0.0625
vt 0.40625 0.0625
vt 0.4375 0.0625
vt 0.375 0.03125
vt 0.40625 0.03125
vt 0.4375 0.03125
vt 0.375 0
vt 0.40625 0
vt 0.4375 0

# Normal
vn 0 0 -1

# Mesh description
g Forest-in_mesh_0021

# Faces
f 1/1/1 2/2/1 3/3/1 4/4/1
f 5/2/1 6/5/1 7/6/1 8/3/1
f 9/7/1 10/8/1 11/2/1 12/1/1
f 13/8/1 14/9/1 15/5/1 16/2/1
f 17/10/1 18/11/1 19/8/1 20/7/1
f 21/11/1 22/12/1 23/9/1 24/8/1
f 25/13/1 26/14/1 27/11/1 28/10/1
f 29/14/1 30/15/1 31/12/1 32/11/1

