# Tiled2Unity generated file. Do not modify by hand.
# Wavefront file for 'Forest-in_mesh_0004.obj'

# Vertices (Count = 176)
v -9 -36.75 0
v -9.75 -36.75 0
v -9.75 -36 0
v -9 -36 0
v -9.75 -36.75 0
v -10.5 -36.75 0
v -10.5 -36 0
v -9.75 -36 0
v -10.5 -36.75 0
v -11.25 -36.75 0
v -11.25 -36 0
v -10.5 -36 0
v -11.25 -36.75 0
v -12 -36.75 0
v -12 -36 0
v -11.25 -36 0
v -12 -36.75 0
v -12.75 -36.75 0
v -12.75 -36 0
v -12 -36 0
v -12.75 -36.75 0
v -13.5 -36.75 0
v -13.5 -36 0
v -12.75 -36 0
v -13.5 -36.75 0
v -14.25 -36.75 0
v -14.25 -36 0
v -13.5 -36 0
v -14.25 -36.75 0
v -15 -36.75 0
v -15 -36 0
v -14.25 -36 0
v -15 -36.75 0
v -15.75 -36.75 0
v -15.75 -36 0
v -15 -36 0
v -15.75 -36.75 0
v -16.5 -36.75 0
v -16.5 -36 0
v -15.75 -36 0
v -16.5 -36.75 0
v -17.25 -36.75 0
v -17.25 -36 0
v -16.5 -36 0
v -17.25 -36.75 0
v -18 -36.75 0
v -18 -36 0
v -17.25 -36 0
v -18 -36.75 0
v -18.75 -36.75 0
v -18.75 -36 0
v -18 -36 0
v -18.75 -36.75 0
v -19.5 -36.75 0
v -19.5 -36 0
v -18.75 -36 0
v -9 -37.5 0
v -9.75 -37.5 0
v -9.75 -36.75 0
v -9 -36.75 0
v -9.75 -37.5 0
v -10.5 -37.5 0
v -10.5 -36.75 0
v -9.75 -36.75 0
v -10.5 -37.5 0
v -11.25 -37.5 0
v -11.25 -36.75 0
v -10.5 -36.75 0
v -11.25 -37.5 0
v -12 -37.5 0
v -12 -36.75 0
v -11.25 -36.75 0
v -12 -37.5 0
v -12.75 -37.5 0
v -12.75 -36.75 0
v -12 -36.75 0
v -12.75 -37.5 0
v -13.5 -37.5 0
v -13.5 -36.75 0
v -12.75 -36.75 0
v -13.5 -37.5 0
v -14.25 -37.5 0
v -14.25 -36.75 0
v -13.5 -36.75 0
v -14.25 -37.5 0
v -15 -37.5 0
v -15 -36.75 0
v -14.25 -36.75 0
v -15 -37.5 0
v -15.75 -37.5 0
v -15.75 -36.75 0
v -15 -36.75 0
v -15.75 -37.5 0
v -16.5 -37.5 0
v -16.5 -36.75 0
v -15.75 -36.75 0
v -16.5 -37.5 0
v -17.25 -37.5 0
v -17.25 -36.75 0
v -16.5 -36.75 0
v -17.25 -37.5 0
v -18 -37.5 0
v -18 -36.75 0
v -17.25 -36.75 0
v -18 -37.5 0
v -18.75 -37.5 0
v -18.75 -36.75 0
v -18 -36.75 0
v -18.75 -37.5 0
v -19.5 -37.5 0
v -19.5 -36.75 0
v -18.75 -36.75 0
v -12 -38.25 0
v -12.75 -38.25 0
v -12.75 -37.5 0
v -12 -37.5 0
v -12.75 -38.25 0
v -13.5 -38.25 0
v -13.5 -37.5 0
v -12.75 -37.5 0
v -13.5 -38.25 0
v -14.25 -38.25 0
v -14.25 -37.5 0
v -13.5 -37.5 0
v -14.25 -38.25 0
v -15 -38.25 0
v -15 -37.5 0
v -14.25 -37.5 0
v -15 -38.25 0
v -15.75 -38.25 0
v -15.75 -37.5 0
v -15 -37.5 0
v -15.75 -38.25 0
v -16.5 -38.25 0
v -16.5 -37.5 0
v -15.75 -37.5 0
v -16.5 -38.25 0
v -17.25 -38.25 0
v -17.25 -37.5 0
v -16.5 -37.5 0
v -17.25 -38.25 0
v -18 -38.25 0
v -18 -37.5 0
v -17.25 -37.5 0
v -12 -39 0
v -12.75 -39 0
v -12.75 -38.25 0
v -12 -38.25 0
v -12.75 -39 0
v -13.5 -39 0
v -13.5 -38.25 0
v -12.75 -38.25 0
v -13.5 -39 0
v -14.25 -39 0
v -14.25 -38.25 0
v -13.5 -38.25 0
v -14.25 -39 0
v -15 -39 0
v -15 -38.25 0
v -14.25 -38.25 0
v -15 -39 0
v -15.75 -39 0
v -15.75 -38.25 0
v -15 -38.25 0
v -15.75 -39 0
v -16.5 -39 0
v -16.5 -38.25 0
v -15.75 -38.25 0
v -16.5 -39 0
v -17.25 -39 0
v -17.25 -38.25 0
v -16.5 -38.25 0
v -17.25 -39 0
v -18 -39 0
v -18 -38.25 0
v -17.25 -38.25 0

# Texture cooridinates (Count = 28)
vt 0 0.875
vt 0.03125 0.875
vt 0.03125 0.9166667
vt 0 0.9166667
vt 0.0625 0.875
vt 0.0625 0.9166667
vt 0.09375 0.875
vt 0.09375 0.9166667
vt 0.125 0.875
vt 0.125 0.9166667
vt 0 0.75
vt 0.03125 0.75
vt 0.03125 0.7916667
vt 0 0.7916667
vt 0.0625 0.75
vt 0.0625 0.7916667
vt 0.09375 0.75
vt 0.09375 0.7916667
vt 0.09375 0.9583333
vt 0.0625 0.9583333
vt 0.03125 0.8333333
vt 0.0625 0.8333333
vt 0.09375 0.8333333
vt 0.125 0.9583333
vt 0.125 0.75
vt 0.125 0.7916667
vt 0 0.8333333
vt 0.125 0.8333333

# Normal
vn 0 0 -1

# Mesh description
g Forest-in_mesh_0004

# Faces
f 1/1/1 2/2/1 3/3/1 4/4/1
f 5/2/1 6/5/1 7/6/1 8/3/1
f 9/5/1 10/7/1 11/8/1 12/6/1
f 13/2/1 14/5/1 15/6/1 16/3/1
f 17/5/1 18/7/1 19/8/1 20/6/1
f 21/2/1 22/5/1 23/6/1 24/3/1
f 25/5/1 26/7/1 27/8/1 28/6/1
f 29/2/1 30/5/1 31/6/1 32/3/1
f 33/5/1 34/7/1 35/8/1 36/6/1
f 37/2/1 38/5/1 39/6/1 40/3/1
f 41/5/1 42/7/1 43/8/1 44/6/1
f 45/2/1 46/5/1 47/6/1 48/3/1
f 49/5/1 50/7/1 51/8/1 52/6/1
f 53/7/1 54/9/1 55/10/1 56/8/1
f 57/11/1 58/12/1 59/13/1 60/14/1
f 61/12/1 62/15/1 63/16/1 64/13/1
f 65/15/1 66/17/1 67/18/1 68/16/1
f 69/15/1 70/17/1 71/18/1 72/16/1
f 73/6/1 74/8/1 75/19/1 76/20/1
f 77/21/1 78/22/1 79/5/1 80/2/1
f 81/22/1 82/23/1 83/7/1 84/5/1
f 85/21/1 86/22/1 87/5/1 88/2/1
f 89/22/1 90/23/1 91/7/1 92/5/1
f 93/21/1 94/22/1 95/5/1 96/2/1
f 97/22/1 98/23/1 99/7/1 100/5/1
f 101/8/1 102/10/1 103/24/1 104/19/1
f 105/15/1 106/17/1 107/18/1 108/16/1
f 109/17/1 110/25/1 111/26/1 112/18/1
f 113/14/1 114/13/1 115/21/1 116/27/1
f 117/13/1 118/16/1 119/22/1 120/21/1
f 121/16/1 122/18/1 123/23/1 124/22/1
f 125/13/1 126/16/1 127/22/1 128/21/1
f 129/16/1 130/18/1 131/23/1 132/22/1
f 133/13/1 134/16/1 135/22/1 136/21/1
f 137/16/1 138/18/1 139/23/1 140/22/1
f 141/18/1 142/26/1 143/28/1 144/23/1
f 145/11/1 146/12/1 147/13/1 148/14/1
f 149/12/1 150/15/1 151/16/1 152/13/1
f 153/15/1 154/17/1 155/18/1 156/16/1
f 157/12/1 158/15/1 159/16/1 160/13/1
f 161/15/1 162/17/1 163/18/1 164/16/1
f 165/12/1 166/15/1 167/16/1 168/13/1
f 169/15/1 170/17/1 171/18/1 172/16/1
f 173/17/1 174/25/1 175/26/1 176/18/1

