# Tiled2Unity generated file. Do not modify by hand.
# Wavefront file for 'Forest-in_mesh_0020.obj'

# Vertices (Count = 464)
v -4.5 -2.25 0
v -5.25 -2.25 0
v -5.25 -1.5 0
v -4.5 -1.5 0
v -5.25 -2.25 0
v -6 -2.25 0
v -6 -1.5 0
v -5.25 -1.5 0
v -7.5 -2.25 0
v -8.25 -2.25 0
v -8.25 -1.5 0
v -7.5 -1.5 0
v -8.25 -2.25 0
v -9 -2.25 0
v -9 -1.5 0
v -8.25 -1.5 0
v -18.75 -2.25 0
v -19.5 -2.25 0
v -19.5 -1.5 0
v -18.75 -1.5 0
v -19.5 -2.25 0
v -20.25 -2.25 0
v -20.25 -1.5 0
v -19.5 -1.5 0
v -28.5 -2.25 0
v -29.25 -2.25 0
v -29.25 -1.5 0
v -28.5 -1.5 0
v -29.25 -2.25 0
v -30 -2.25 0
v -30 -1.5 0
v -29.25 -1.5 0
v -33 -2.25 0
v -33.75 -2.25 0
v -33.75 -1.5 0
v -33 -1.5 0
v -33.75 -2.25 0
v -34.5 -2.25 0
v -34.5 -1.5 0
v -33.75 -1.5 0
v -40.5 -2.25 0
v -41.25 -2.25 0
v -41.25 -1.5 0
v -40.5 -1.5 0
v -4.5 -3 0
v -5.25 -3 0
v -5.25 -2.25 0
v -4.5 -2.25 0
v -5.25 -3 0
v -6 -3 0
v -6 -2.25 0
v -5.25 -2.25 0
v -7.5 -3 0
v -8.25 -3 0
v -8.25 -2.25 0
v -7.5 -2.25 0
v -8.25 -3 0
v -9 -3 0
v -9 -2.25 0
v -8.25 -2.25 0
v -12.75 -3 0
v -13.5 -3 0
v -13.5 -2.25 0
v -12.75 -2.25 0
v -18.75 -3 0
v -19.5 -3 0
v -19.5 -2.25 0
v -18.75 -2.25 0
v -19.5 -3 0
v -20.25 -3 0
v -20.25 -2.25 0
v -19.5 -2.25 0
v -23.25 -3 0
v -24 -3 0
v -24 -2.25 0
v -23.25 -2.25 0
v -28.5 -3 0
v -29.25 -3 0
v -29.25 -2.25 0
v -28.5 -2.25 0
v -29.25 -3 0
v -30 -3 0
v -30 -2.25 0
v -29.25 -2.25 0
v -31.5 -3 0
v -32.25 -3 0
v -32.25 -2.25 0
v -31.5 -2.25 0
v -33 -3 0
v -33.75 -3 0
v -33.75 -2.25 0
v -33 -2.25 0
v -33.75 -3 0
v -34.5 -3 0
v -34.5 -2.25 0
v -33.75 -2.25 0
v -36 -3 0
v -36.75 -3 0
v -36.75 -2.25 0
v -36 -2.25 0
v -36.75 -3 0
v -37.5 -3 0
v -37.5 -2.25 0
v -36.75 -2.25 0
v -38.25 -3 0
v -39 -3 0
v -39 -2.25 0
v -38.25 -2.25 0
v -39 -3 0
v -39.75 -3 0
v -39.75 -2.25 0
v -39 -2.25 0
v -40.5 -3 0
v -41.25 -3 0
v -41.25 -2.25 0
v -40.5 -2.25 0
v -1.5 -3.75 0
v -2.25 -3.75 0
v -2.25 -3 0
v -1.5 -3 0
v -2.25 -3.75 0
v -3 -3.75 0
v -3 -3 0
v -2.25 -3 0
v -4.5 -3.75 0
v -5.25 -3.75 0
v -5.25 -3 0
v -4.5 -3 0
v -5.25 -3.75 0
v -6 -3.75 0
v -6 -3 0
v -5.25 -3 0
v -7.5 -3.75 0
v -8.25 -3.75 0
v -8.25 -3 0
v -7.5 -3 0
v -8.25 -3.75 0
v -9 -3.75 0
v -9 -3 0
v -8.25 -3 0
v -11.25 -3.75 0
v -12 -3.75 0
v -12 -3 0
v -11.25 -3 0
v -12 -3.75 0
v -12.75 -3.75 0
v -12.75 -3 0
v -12 -3 0
v -12.75 -3.75 0
v -13.5 -3.75 0
v -13.5 -3 0
v -12.75 -3 0
v -18.75 -3.75 0
v -19.5 -3.75 0
v -19.5 -3 0
v -18.75 -3 0
v -19.5 -3.75 0
v -20.25 -3.75 0
v -20.25 -3 0
v -19.5 -3 0
v -23.25 -3.75 0
v -24 -3.75 0
v -24 -3 0
v -23.25 -3 0
v -28.5 -3.75 0
v -29.25 -3.75 0
v -29.25 -3 0
v -28.5 -3 0
v -29.25 -3.75 0
v -30 -3.75 0
v -30 -3 0
v -29.25 -3 0
v -31.5 -3.75 0
v -32.25 -3.75 0
v -32.25 -3 0
v -31.5 -3 0
v -33 -3.75 0
v -33.75 -3.75 0
v -33.75 -3 0
v -33 -3 0
v -33.75 -3.75 0
v -34.5 -3.75 0
v -34.5 -3 0
v -33.75 -3 0
v -36 -3.75 0
v -36.75 -3.75 0
v -36.75 -3 0
v -36 -3 0
v -36.75 -3.75 0
v -37.5 -3.75 0
v -37.5 -3 0
v -36.75 -3 0
v -37.5 -3.75 0
v -38.25 -3.75 0
v -38.25 -3 0
v -37.5 -3 0
v -38.25 -3.75 0
v -39 -3.75 0
v -39 -3 0
v -38.25 -3 0
v -39 -3.75 0
v -39.75 -3.75 0
v -39.75 -3 0
v -39 -3 0
v -39.75 -3.75 0
v -40.5 -3.75 0
v -40.5 -3 0
v -39.75 -3 0
v -40.5 -3.75 0
v -41.25 -3.75 0
v -41.25 -3 0
v -40.5 -3 0
v -1.5 -4.5 0
v -2.25 -4.5 0
v -2.25 -3.75 0
v -1.5 -3.75 0
v -2.25 -4.5 0
v -3 -4.5 0
v -3 -3.75 0
v -2.25 -3.75 0
v -4.5 -4.5 0
v -5.25 -4.5 0
v -5.25 -3.75 0
v -4.5 -3.75 0
v -5.25 -4.5 0
v -6 -4.5 0
v -6 -3.75 0
v -5.25 -3.75 0
v -7.5 -4.5 0
v -8.25 -4.5 0
v -8.25 -3.75 0
v -7.5 -3.75 0
v -8.25 -4.5 0
v -9 -4.5 0
v -9 -3.75 0
v -8.25 -3.75 0
v -11.25 -4.5 0
v -12 -4.5 0
v -12 -3.75 0
v -11.25 -3.75 0
v -12 -4.5 0
v -12.75 -4.5 0
v -12.75 -3.75 0
v -12 -3.75 0
v -12.75 -4.5 0
v -13.5 -4.5 0
v -13.5 -3.75 0
v -12.75 -3.75 0
v -15 -4.5 0
v -15.75 -4.5 0
v -15.75 -3.75 0
v -15 -3.75 0
v -15.75 -4.5 0
v -16.5 -4.5 0
v -16.5 -3.75 0
v -15.75 -3.75 0
v -18.75 -4.5 0
v -19.5 -4.5 0
v -19.5 -3.75 0
v -18.75 -3.75 0
v -19.5 -4.5 0
v -20.25 -4.5 0
v -20.25 -3.75 0
v -19.5 -3.75 0
v -23.25 -4.5 0
v -24 -4.5 0
v -24 -3.75 0
v -23.25 -3.75 0
v -28.5 -4.5 0
v -29.25 -4.5 0
v -29.25 -3.75 0
v -28.5 -3.75 0
v -29.25 -4.5 0
v -30 -4.5 0
v -30 -3.75 0
v -29.25 -3.75 0
v -31.5 -4.5 0
v -32.25 -4.5 0
v -32.25 -3.75 0
v -31.5 -3.75 0
v -33 -4.5 0
v -33.75 -4.5 0
v -33.75 -3.75 0
v -33 -3.75 0
v -33.75 -4.5 0
v -34.5 -4.5 0
v -34.5 -3.75 0
v -33.75 -3.75 0
v -36 -4.5 0
v -36.75 -4.5 0
v -36.75 -3.75 0
v -36 -3.75 0
v -36.75 -4.5 0
v -37.5 -4.5 0
v -37.5 -3.75 0
v -36.75 -3.75 0
v -37.5 -4.5 0
v -38.25 -4.5 0
v -38.25 -3.75 0
v -37.5 -3.75 0
v -38.25 -4.5 0
v -39 -4.5 0
v -39 -3.75 0
v -38.25 -3.75 0
v -39 -4.5 0
v -39.75 -4.5 0
v -39.75 -3.75 0
v -39 -3.75 0
v -39.75 -4.5 0
v -40.5 -4.5 0
v -40.5 -3.75 0
v -39.75 -3.75 0
v -40.5 -4.5 0
v -41.25 -4.5 0
v -41.25 -3.75 0
v -40.5 -3.75 0
v -7.5 -12 0
v -8.25 -12 0
v -8.25 -11.25 0
v -7.5 -11.25 0
v -7.5 -12.75 0
v -8.25 -12.75 0
v -8.25 -12 0
v -7.5 -12 0
v -33.75 -32.25 0
v -34.5 -32.25 0
v -34.5 -31.5 0
v -33.75 -31.5 0
v -6 -33.75 0
v -6.75 -33.75 0
v -6.75 -33 0
v -6 -33 0
v -6.75 -33.75 0
v -7.5 -33.75 0
v -7.5 -33 0
v -6.75 -33 0
v -10.5 -33.75 0
v -11.25 -33.75 0
v -11.25 -33 0
v -10.5 -33 0
v -11.25 -33.75 0
v -12 -33.75 0
v -12 -33 0
v -11.25 -33 0
v -13.5 -33.75 0
v -14.25 -33.75 0
v -14.25 -33 0
v -13.5 -33 0
v -14.25 -33.75 0
v -15 -33.75 0
v -15 -33 0
v -14.25 -33 0
v -33.75 -33.75 0
v -34.5 -33.75 0
v -34.5 -33 0
v -33.75 -33 0
v -6 -34.5 0
v -6.75 -34.5 0
v -6.75 -33.75 0
v -6 -33.75 0
v -6.75 -34.5 0
v -7.5 -34.5 0
v -7.5 -33.75 0
v -6.75 -33.75 0
v -10.5 -34.5 0
v -11.25 -34.5 0
v -11.25 -33.75 0
v -10.5 -33.75 0
v -11.25 -34.5 0
v -12 -34.5 0
v -12 -33.75 0
v -11.25 -33.75 0
v -13.5 -34.5 0
v -14.25 -34.5 0
v -14.25 -33.75 0
v -13.5 -33.75 0
v -14.25 -34.5 0
v -15 -34.5 0
v -15 -33.75 0
v -14.25 -33.75 0
v -33 -34.5 0
v -33.75 -34.5 0
v -33.75 -33.75 0
v -33 -33.75 0
v -33.75 -34.5 0
v -34.5 -34.5 0
v -34.5 -33.75 0
v -33.75 -33.75 0
v -6 -35.25 0
v -6.75 -35.25 0
v -6.75 -34.5 0
v -6 -34.5 0
v -6.75 -35.25 0
v -7.5 -35.25 0
v -7.5 -34.5 0
v -6.75 -34.5 0
v -10.5 -35.25 0
v -11.25 -35.25 0
v -11.25 -34.5 0
v -10.5 -34.5 0
v -11.25 -35.25 0
v -12 -35.25 0
v -12 -34.5 0
v -11.25 -34.5 0
v -13.5 -35.25 0
v -14.25 -35.25 0
v -14.25 -34.5 0
v -13.5 -34.5 0
v -14.25 -35.25 0
v -15 -35.25 0
v -15 -34.5 0
v -14.25 -34.5 0
v -15 -35.25 0
v -15.75 -35.25 0
v -15.75 -34.5 0
v -15 -34.5 0
v -15.75 -35.25 0
v -16.5 -35.25 0
v -16.5 -34.5 0
v -15.75 -34.5 0
v -6 -36 0
v -6.75 -36 0
v -6.75 -35.25 0
v -6 -35.25 0
v -6.75 -36 0
v -7.5 -36 0
v -7.5 -35.25 0
v -6.75 -35.25 0
v -10.5 -36 0
v -11.25 -36 0
v -11.25 -35.25 0
v -10.5 -35.25 0
v -11.25 -36 0
v -12 -36 0
v -12 -35.25 0
v -11.25 -35.25 0
v -13.5 -36 0
v -14.25 -36 0
v -14.25 -35.25 0
v -13.5 -35.25 0
v -14.25 -36 0
v -15 -36 0
v -15 -35.25 0
v -14.25 -35.25 0
v -15 -36 0
v -15.75 -36 0
v -15.75 -35.25 0
v -15 -35.25 0
v -15.75 -36 0
v -16.5 -36 0
v -16.5 -35.25 0
v -15.75 -35.25 0
v -36 -36 0
v -36.75 -36 0
v -36.75 -35.25 0
v -36 -35.25 0
v -1.5 -36.75 0
v -2.25 -36.75 0
v -2.25 -36 0
v -1.5 -36 0
v -1.5 -37.5 0
v -2.25 -37.5 0
v -2.25 -36.75 0
v -1.5 -36.75 0

# Texture cooridinates (Count = 65)
vt 0.5625 0.46875
vt 0.53125 0.46875
vt 0.53125 0.5
vt 0.5625 0.5
vt 0.5 0.46875
vt 0.5 0.5
vt 0.625 0.46875
vt 0.65625 0.46875
vt 0.65625 0.5
vt 0.625 0.5
vt 0.6875 0.46875
vt 0.6875 0.5
vt 0.59375 0.46875
vt 0.59375 0.5
vt 0.75 0.46875
vt 0.78125 0.46875
vt 0.78125 0.5
vt 0.75 0.5
vt 0.8125 0.46875
vt 0.8125 0.5
vt 0.5625 0.4375
vt 0.53125 0.4375
vt 0.5 0.4375
vt 0.625 0.4375
vt 0.65625 0.4375
vt 0.6875 0.4375
vt 0.59375 0.4375
vt 0.75 0.4375
vt 0.78125 0.4375
vt 0.8125 0.4375
vt 0.9375 0.46875
vt 0.90625 0.46875
vt 0.90625 0.5
vt 0.9375 0.5
vt 0.875 0.46875
vt 0.875 0.5
vt 0.6875 0.40625
vt 0.71875 0.40625
vt 0.71875 0.4375
vt 0.75 0.40625
vt 0.5625 0.40625
vt 0.53125 0.40625
vt 0.5 0.40625
vt 0.625 0.40625
vt 0.65625 0.40625
vt 0.59375 0.40625
vt 0.78125 0.40625
vt 0.8125 0.40625
vt 0.9375 0.4375
vt 0.90625 0.4375
vt 0.875 0.4375
vt 0.6875 0.375
vt 0.71875 0.375
vt 0.75 0.375
vt 0.5625 0.375
vt 0.53125 0.375
vt 0.5 0.375
vt 0.625 0.375
vt 0.65625 0.375
vt 0.59375 0.375
vt 0.78125 0.375
vt 0.8125 0.375
vt 0.9375 0.40625
vt 0.90625 0.40625
vt 0.875 0.40625

# Normal
vn 0 0 -1

# Mesh description
g Forest-in_mesh_0020

# Faces
f 1/1/1 2/2/1 3/3/1 4/4/1
f 5/2/1 6/5/1 7/6/1 8/3/1
f 9/7/1 10/8/1 11/9/1 12/10/1
f 13/8/1 14/11/1 15/12/1 16/9/1
f 17/5/1 18/2/1 19/3/1 20/6/1
f 21/2/1 22/1/1 23/4/1 24/3/1
f 25/1/1 26/13/1 27/14/1 28/4/1
f 29/13/1 30/7/1 31/10/1 32/14/1
f 33/15/1 34/16/1 35/17/1 36/18/1
f 37/16/1 38/19/1 39/20/1 40/17/1
f 41/5/1 42/2/1 43/3/1 44/6/1
f 45/21/1 46/22/1 47/2/1 48/1/1
f 49/22/1 50/23/1 51/5/1 52/2/1
f 53/24/1 54/25/1 55/8/1 56/7/1
f 57/25/1 58/26/1 59/11/1 60/8/1
f 61/13/1 62/7/1 63/10/1 64/14/1
f 65/23/1 66/22/1 67/2/1 68/5/1
f 69/22/1 70/21/1 71/1/1 72/2/1
f 73/13/1 74/7/1 75/10/1 76/14/1
f 77/21/1 78/27/1 79/13/1 80/1/1
f 81/27/1 82/24/1 83/7/1 84/13/1
f 85/13/1 86/7/1 87/10/1 88/14/1
f 89/28/1 90/29/1 91/16/1 92/15/1
f 93/29/1 94/30/1 95/19/1 96/16/1
f 97/7/1 98/13/1 99/14/1 100/10/1
f 101/13/1 102/1/1 103/4/1 104/14/1
f 105/31/1 106/32/1 107/33/1 108/34/1
f 109/32/1 110/35/1 111/36/1 112/33/1
f 113/23/1 114/22/1 115/2/1 116/5/1
f 117/37/1 118/38/1 119/39/1 120/26/1
f 121/38/1 122/40/1 123/28/1 124/39/1
f 125/41/1 126/42/1 127/22/1 128/21/1
f 129/42/1 130/43/1 131/23/1 132/22/1
f 133/44/1 134/45/1 135/25/1 136/24/1
f 137/45/1 138/37/1 139/26/1 140/25/1
f 141/37/1 142/38/1 143/39/1 144/26/1
f 145/38/1 146/40/1 147/28/1 148/39/1
f 149/27/1 150/24/1 151/7/1 152/13/1
f 153/43/1 154/42/1 155/22/1 156/23/1
f 157/42/1 158/41/1 159/21/1 160/22/1
f 161/27/1 162/24/1 163/7/1 164/13/1
f 165/41/1 166/46/1 167/27/1 168/21/1
f 169/46/1 170/44/1 171/24/1 172/27/1
f 173/27/1 174/24/1 175/7/1 176/13/1
f 177/40/1 178/47/1 179/29/1 180/28/1
f 181/47/1 182/48/1 183/30/1 184/29/1
f 185/24/1 186/27/1 187/13/1 188/7/1
f 189/27/1 190/21/1 191/1/1 192/13/1
f 193/1/1 194/13/1 195/14/1 196/4/1
f 197/49/1 198/50/1 199/32/1 200/31/1
f 201/50/1 202/51/1 203/35/1 204/32/1
f 205/1/1 206/13/1 207/14/1 208/4/1
f 209/13/1 210/7/1 211/10/1 212/14/1
f 213/52/1 214/53/1 215/38/1 216/37/1
f 217/53/1 218/54/1 219/40/1 220/38/1
f 221/55/1 222/56/1 223/42/1 224/41/1
f 225/56/1 226/57/1 227/43/1 228/42/1
f 229/58/1 230/59/1 231/45/1 232/44/1
f 233/59/1 234/52/1 235/37/1 236/45/1
f 237/52/1 238/53/1 239/38/1 240/37/1
f 241/53/1 242/54/1 243/40/1 244/38/1
f 245/46/1 246/44/1 247/24/1 248/27/1
f 249/5/1 250/2/1 251/3/1 252/6/1
f 253/2/1 254/1/1 255/4/1 256/3/1
f 257/57/1 258/56/1 259/42/1 260/43/1
f 261/56/1 262/55/1 263/41/1 264/42/1
f 265/46/1 266/44/1 267/24/1 268/27/1
f 269/55/1 270/60/1 271/46/1 272/41/1
f 273/60/1 274/58/1 275/44/1 276/46/1
f 277/46/1 278/44/1 279/24/1 280/27/1
f 281/54/1 282/61/1 283/47/1 284/40/1
f 285/61/1 286/62/1 287/48/1 288/47/1
f 289/44/1 290/46/1 291/27/1 292/24/1
f 293/46/1 294/41/1 295/21/1 296/27/1
f 297/21/1 298/27/1 299/13/1 300/1/1
f 301/63/1 302/64/1 303/50/1 304/49/1
f 305/64/1 306/65/1 307/51/1 308/50/1
f 309/21/1 310/27/1 311/13/1 312/1/1
f 313/27/1 314/24/1 315/7/1 316/13/1
f 317/38/1 318/37/1 319/26/1 320/39/1
f 321/53/1 322/52/1 323/37/1 324/38/1
f 325/28/1 326/39/1 327/38/1 328/40/1
f 329/5/1 330/2/1 331/3/1 332/6/1
f 333/2/1 334/1/1 335/4/1 336/3/1
f 337/15/1 338/16/1 339/17/1 340/18/1
f 341/16/1 342/19/1 343/20/1 344/17/1
f 345/7/1 346/8/1 347/9/1 348/10/1
f 349/8/1 350/11/1 351/12/1 352/9/1
f 353/37/1 354/38/1 355/39/1 356/26/1
f 357/23/1 358/22/1 359/2/1 360/5/1
f 361/22/1 362/21/1 363/1/1 364/2/1
f 365/28/1 366/29/1 367/16/1 368/15/1
f 369/29/1 370/30/1 371/19/1 372/16/1
f 373/24/1 374/25/1 375/8/1 376/7/1
f 377/25/1 378/26/1 379/11/1 380/8/1
f 381/26/1 382/39/1 383/38/1 384/37/1
f 385/52/1 386/53/1 387/38/1 388/37/1
f 389/43/1 390/42/1 391/22/1 392/23/1
f 393/42/1 394/41/1 395/21/1 396/22/1
f 397/40/1 398/47/1 399/29/1 400/28/1
f 401/47/1 402/48/1 403/30/1 404/29/1
f 405/44/1 406/45/1 407/25/1 408/24/1
f 409/45/1 410/37/1 411/26/1 412/25/1
f 413/37/1 414/38/1 415/39/1 416/26/1
f 417/38/1 418/40/1 419/28/1 420/39/1
f 421/57/1 422/56/1 423/42/1 424/43/1
f 425/56/1 426/55/1 427/41/1 428/42/1
f 429/54/1 430/61/1 431/47/1 432/40/1
f 433/61/1 434/62/1 435/48/1 436/47/1
f 437/58/1 438/59/1 439/45/1 440/44/1
f 441/59/1 442/52/1 443/37/1 444/45/1
f 445/52/1 446/53/1 447/38/1 448/37/1
f 449/53/1 450/54/1 451/40/1 452/38/1
f 453/40/1 454/38/1 455/39/1 456/28/1
f 457/38/1 458/37/1 459/26/1 460/39/1
f 461/53/1 462/52/1 463/37/1 464/38/1

