# Tiled2Unity generated file. Do not modify by hand.
# Wavefront file for 'Forest-in_mesh_0025.obj'

# Vertices (Count = 232)
v -33 -5.25 0
v -33.75 -5.25 0
v -33.75 -4.5 0
v -33 -4.5 0
v -33.75 -5.25 0
v -34.5 -5.25 0
v -34.5 -4.5 0
v -33.75 -4.5 0
v -39.75 -5.25 0
v -40.5 -5.25 0
v -40.5 -4.5 0
v -39.75 -4.5 0
v -40.5 -5.25 0
v -41.25 -5.25 0
v -41.25 -4.5 0
v -40.5 -4.5 0
v -42.75 -5.25 0
v -43.5 -5.25 0
v -43.5 -4.5 0
v -42.75 -4.5 0
v -43.5 -5.25 0
v -44.25 -5.25 0
v -44.25 -4.5 0
v -43.5 -4.5 0
v -33 -6 0
v -33.75 -6 0
v -33.75 -5.25 0
v -33 -5.25 0
v -33.75 -6 0
v -34.5 -6 0
v -34.5 -5.25 0
v -33.75 -5.25 0
v -34.5 -6 0
v -35.25 -6 0
v -35.25 -5.25 0
v -34.5 -5.25 0
v -35.25 -6 0
v -36 -6 0
v -36 -5.25 0
v -35.25 -5.25 0
v -38.25 -6 0
v -39 -6 0
v -39 -5.25 0
v -38.25 -5.25 0
v -39.75 -6 0
v -40.5 -6 0
v -40.5 -5.25 0
v -39.75 -5.25 0
v -40.5 -6 0
v -41.25 -6 0
v -41.25 -5.25 0
v -40.5 -5.25 0
v -42.75 -6 0
v -43.5 -6 0
v -43.5 -5.25 0
v -42.75 -5.25 0
v -43.5 -6 0
v -44.25 -6 0
v -44.25 -5.25 0
v -43.5 -5.25 0
v -45 -6 0
v -45.75 -6 0
v -45.75 -5.25 0
v -45 -5.25 0
v -45.75 -6 0
v -46.5 -6 0
v -46.5 -5.25 0
v -45.75 -5.25 0
v -34.5 -6.75 0
v -35.25 -6.75 0
v -35.25 -6 0
v -34.5 -6 0
v -35.25 -6.75 0
v -36 -6.75 0
v -36 -6 0
v -35.25 -6 0
v -38.25 -6.75 0
v -39 -6.75 0
v -39 -6 0
v -38.25 -6 0
v -45 -6.75 0
v -45.75 -6.75 0
v -45.75 -6 0
v -45 -6 0
v -45.75 -6.75 0
v -46.5 -6.75 0
v -46.5 -6 0
v -45.75 -6 0
v -45 -7.5 0
v -45.75 -7.5 0
v -45.75 -6.75 0
v -45 -6.75 0
v -45.75 -7.5 0
v -46.5 -7.5 0
v -46.5 -6.75 0
v -45.75 -6.75 0
v -40.5 -8.25 0
v -41.25 -8.25 0
v -41.25 -7.5 0
v -40.5 -7.5 0
v -41.25 -8.25 0
v -42 -8.25 0
v -42 -7.5 0
v -41.25 -7.5 0
v -45 -8.25 0
v -45.75 -8.25 0
v -45.75 -7.5 0
v -45 -7.5 0
v -45.75 -8.25 0
v -46.5 -8.25 0
v -46.5 -7.5 0
v -45.75 -7.5 0
v -40.5 -9 0
v -41.25 -9 0
v -41.25 -8.25 0
v -40.5 -8.25 0
v -41.25 -9 0
v -42 -9 0
v -42 -8.25 0
v -41.25 -8.25 0
v -14.25 -18 0
v -15 -18 0
v -15 -17.25 0
v -14.25 -17.25 0
v -15 -18 0
v -15.75 -18 0
v -15.75 -17.25 0
v -15 -17.25 0
v -14.25 -18.75 0
v -15 -18.75 0
v -15 -18 0
v -14.25 -18 0
v -15 -18.75 0
v -15.75 -18.75 0
v -15.75 -18 0
v -15 -18 0
v -33 -33.75 0
v -33.75 -33.75 0
v -33.75 -33 0
v -33 -33 0
v -33.75 -33.75 0
v -34.5 -33.75 0
v -34.5 -33 0
v -33.75 -33 0
v -33 -34.5 0
v -33.75 -34.5 0
v -33.75 -33.75 0
v -33 -33.75 0
v -33.75 -34.5 0
v -34.5 -34.5 0
v -34.5 -33.75 0
v -33.75 -33.75 0
v -3 -36.75 0
v -3.75 -36.75 0
v -3.75 -36 0
v -3 -36 0
v -3.75 -36.75 0
v -4.5 -36.75 0
v -4.5 -36 0
v -3.75 -36 0
v -3 -37.5 0
v -3.75 -37.5 0
v -3.75 -36.75 0
v -3 -36.75 0
v -3.75 -37.5 0
v -4.5 -37.5 0
v -4.5 -36.75 0
v -3.75 -36.75 0
v -10.5 -38.25 0
v -11.25 -38.25 0
v -11.25 -37.5 0
v -10.5 -37.5 0
v -11.25 -38.25 0
v -12 -38.25 0
v -12 -37.5 0
v -11.25 -37.5 0
v -16.5 -38.25 0
v -17.25 -38.25 0
v -17.25 -37.5 0
v -16.5 -37.5 0
v -17.25 -38.25 0
v -18 -38.25 0
v -18 -37.5 0
v -17.25 -37.5 0
v -10.5 -39 0
v -11.25 -39 0
v -11.25 -38.25 0
v -10.5 -38.25 0
v -11.25 -39 0
v -12 -39 0
v -12 -38.25 0
v -11.25 -38.25 0
v -16.5 -39 0
v -17.25 -39 0
v -17.25 -38.25 0
v -16.5 -38.25 0
v -17.25 -39 0
v -18 -39 0
v -18 -38.25 0
v -17.25 -38.25 0
v -10.5 -43.5 0
v -11.25 -43.5 0
v -11.25 -42.75 0
v -10.5 -42.75 0
v -11.25 -43.5 0
v -12 -43.5 0
v -12 -42.75 0
v -11.25 -42.75 0
v -10.5 -44.25 0
v -11.25 -44.25 0
v -11.25 -43.5 0
v -10.5 -43.5 0
v -11.25 -44.25 0
v -12 -44.25 0
v -12 -43.5 0
v -11.25 -43.5 0
v -15.75 -44.25 0
v -16.5 -44.25 0
v -16.5 -43.5 0
v -15.75 -43.5 0
v -16.5 -44.25 0
v -17.25 -44.25 0
v -17.25 -43.5 0
v -16.5 -43.5 0
v -15.75 -45 0
v -16.5 -45 0
v -16.5 -44.25 0
v -15.75 -44.25 0
v -16.5 -45 0
v -17.25 -45 0
v -17.25 -44.25 0
v -16.5 -44.25 0

# Texture cooridinates (Count = 45)
vt 0.625 0.03125
vt 0.65625 0.03125
vt 0.65625 0.0625
vt 0.625 0.0625
vt 0.6875 0.03125
vt 0.6875 0.0625
vt 0.75 0.65625
vt 0.71875 0.65625
vt 0.71875 0.6875
vt 0.75 0.6875
vt 0.6875 0.65625
vt 0.6875 0.6875
vt 0.625 0
vt 0.65625 0
vt 0.6875 0
vt 0.5 0.03125
vt 0.53125 0.03125
vt 0.53125 0.0625
vt 0.5 0.0625
vt 0.5625 0.03125
vt 0.5625 0.0625
vt 0.71875 0.625
vt 0.75 0.625
vt 0.6875 0.625
vt 0.5 0
vt 0.53125 0
vt 0.5625 0
vt 0.71875 0.03125
vt 0.71875 0.0625
vt 0.75 0.03125
vt 0.75 0.0625
vt 0.71875 0
vt 0.75 0
vt 0.75 0.59375
vt 0.71875 0.59375
vt 0.6875 0.59375
vt 0.75 0.5625
vt 0.71875 0.5625
vt 0.6875 0.5625
vt 0.65625 0.65625
vt 0.65625 0.6875
vt 0.625 0.65625
vt 0.625 0.6875
vt 0.65625 0.625
vt 0.625 0.625

# Normal
vn 0 0 -1

# Mesh description
g Forest-in_mesh_0025

# Faces
f 1/1/1 2/2/1 3/3/1 4/4/1
f 5/2/1 6/5/1 7/6/1 8/3/1
f 9/7/1 10/8/1 11/9/1 12/10/1
f 13/8/1 14/11/1 15/12/1 16/9/1
f 17/11/1 18/8/1 19/9/1 20/12/1
f 21/8/1 22/7/1 23/10/1 24/9/1
f 25/13/1 26/14/1 27/2/1 28/1/1
f 29/14/1 30/15/1 31/5/1 32/2/1
f 33/16/1 34/17/1 35/18/1 36/19/1
f 37/17/1 38/20/1 39/21/1 40/18/1
f 41/22/1 42/23/1 43/7/1 44/8/1
f 45/23/1 46/22/1 47/8/1 48/7/1
f 49/22/1 50/24/1 51/11/1 52/8/1
f 53/24/1 54/22/1 55/8/1 56/11/1
f 57/22/1 58/23/1 59/7/1 60/8/1
f 61/7/1 62/8/1 63/9/1 64/10/1
f 65/8/1 66/11/1 67/12/1 68/9/1
f 69/25/1 70/26/1 71/17/1 72/16/1
f 73/26/1 74/27/1 75/20/1 76/17/1
f 77/22/1 78/23/1 79/7/1 80/8/1
f 81/23/1 82/22/1 83/8/1 84/7/1
f 85/22/1 86/24/1 87/11/1 88/8/1
f 89/11/1 90/8/1 91/9/1 92/12/1
f 93/8/1 94/7/1 95/10/1 96/9/1
f 97/5/1 98/28/1 99/29/1 100/6/1
f 101/28/1 102/30/1 103/31/1 104/29/1
f 105/24/1 106/22/1 107/8/1 108/11/1
f 109/22/1 110/23/1 111/7/1 112/8/1
f 113/15/1 114/32/1 115/28/1 116/5/1
f 117/32/1 118/33/1 119/30/1 120/28/1
f 121/34/1 122/35/1 123/22/1 124/23/1
f 125/35/1 126/36/1 127/24/1 128/22/1
f 129/37/1 130/38/1 131/35/1 132/34/1
f 133/38/1 134/39/1 135/36/1 136/35/1
f 137/11/1 138/40/1 139/41/1 140/12/1
f 141/40/1 142/42/1 143/43/1 144/41/1
f 145/24/1 146/44/1 147/40/1 148/11/1
f 149/44/1 150/45/1 151/42/1 152/40/1
f 153/11/1 154/8/1 155/9/1 156/12/1
f 157/8/1 158/7/1 159/10/1 160/9/1
f 161/24/1 162/22/1 163/8/1 164/11/1
f 165/22/1 166/23/1 167/7/1 168/8/1
f 169/7/1 170/8/1 171/9/1 172/10/1
f 173/8/1 174/11/1 175/12/1 176/9/1
f 177/1/1 178/2/1 179/3/1 180/4/1
f 181/2/1 182/5/1 183/6/1 184/3/1
f 185/23/1 186/22/1 187/8/1 188/7/1
f 189/22/1 190/24/1 191/11/1 192/8/1
f 193/13/1 194/14/1 195/2/1 196/1/1
f 197/14/1 198/15/1 199/5/1 200/2/1
f 201/11/1 202/8/1 203/9/1 204/12/1
f 205/8/1 206/7/1 207/10/1 208/9/1
f 209/24/1 210/22/1 211/8/1 212/11/1
f 213/22/1 214/23/1 215/7/1 216/8/1
f 217/11/1 218/8/1 219/9/1 220/12/1
f 221/8/1 222/7/1 223/10/1 224/9/1
f 225/24/1 226/22/1 227/8/1 228/11/1
f 229/22/1 230/23/1 231/7/1 232/8/1

