# Tiled2Unity generated file. Do not modify by hand.
# Wavefront file for 'Forest-in_mesh_0032.obj'

# Vertices (Count = 16)
v -21 -33.75 0
v -21.75 -33.75 0
v -21.75 -33 0
v -21 -33 0
v -21.75 -33.75 0
v -22.5 -33.75 0
v -22.5 -33 0
v -21.75 -33 0
v -21 -34.5 0
v -21.75 -34.5 0
v -21.75 -33.75 0
v -21 -33.75 0
v -21.75 -34.5 0
v -22.5 -34.5 0
v -22.5 -33.75 0
v -21.75 -33.75 0

# Texture cooridinates (Count = 9)
vt 0.1875 0.15625
vt 0.21875 0.15625
vt 0.21875 0.1875
vt 0.1875 0.1875
vt 0.25 0.15625
vt 0.25 0.1875
vt 0.1875 0.125
vt 0.21875 0.125
vt 0.25 0.125

# Normal
vn 0 0 -1

# Mesh description
g Forest-in_mesh_0032

# Faces
f 1/1/1 2/2/1 3/3/1 4/4/1
f 5/2/1 6/5/1 7/6/1 8/3/1
f 9/7/1 10/8/1 11/2/1 12/1/1
f 13/8/1 14/9/1 15/5/1 16/2/1

