# Tiled2Unity generated file. Do not modify by hand.
# Wavefront file for 'Forest-in_mesh_0007.obj'

# Vertices (Count = 872)
v -42.75 -9.75 0
v -43.5 -9.75 0
v -43.5 -9 0
v -42.75 -9 0
v -43.5 -9.75 0
v -44.25 -9.75 0
v -44.25 -9 0
v -43.5 -9 0
v -44.25 -9.75 0
v -45 -9.75 0
v -45 -9 0
v -44.25 -9 0
v -45 -9.75 0
v -45.75 -9.75 0
v -45.75 -9 0
v -45 -9 0
v -45.75 -9.75 0
v -46.5 -9.75 0
v -46.5 -9 0
v -45.75 -9 0
v -42.75 -10.5 0
v -43.5 -10.5 0
v -43.5 -9.75 0
v -42.75 -9.75 0
v -45 -10.5 0
v -45.75 -10.5 0
v -45.75 -9.75 0
v -45 -9.75 0
v -45.75 -10.5 0
v -46.5 -10.5 0
v -46.5 -9.75 0
v -45.75 -9.75 0
v -38.25 -11.25 0
v -39 -11.25 0
v -39 -10.5 0
v -38.25 -10.5 0
v -39 -11.25 0
v -39.75 -11.25 0
v -39.75 -10.5 0
v -39 -10.5 0
v -39.75 -11.25 0
v -40.5 -11.25 0
v -40.5 -10.5 0
v -39.75 -10.5 0
v -40.5 -11.25 0
v -41.25 -11.25 0
v -41.25 -10.5 0
v -40.5 -10.5 0
v -41.25 -11.25 0
v -42 -11.25 0
v -42 -10.5 0
v -41.25 -10.5 0
v -42 -11.25 0
v -42.75 -11.25 0
v -42.75 -10.5 0
v -42 -10.5 0
v -42.75 -11.25 0
v -43.5 -11.25 0
v -43.5 -10.5 0
v -42.75 -10.5 0
v -29.25 -12 0
v -30 -12 0
v -30 -11.25 0
v -29.25 -11.25 0
v -36.75 -12 0
v -37.5 -12 0
v -37.5 -11.25 0
v -36.75 -11.25 0
v -37.5 -12 0
v -38.25 -12 0
v -38.25 -11.25 0
v -37.5 -11.25 0
v -38.25 -12 0
v -39 -12 0
v -39 -11.25 0
v -38.25 -11.25 0
v -40.5 -12 0
v -41.25 -12 0
v -41.25 -11.25 0
v -40.5 -11.25 0
v -41.25 -12 0
v -42 -12 0
v -42 -11.25 0
v -41.25 -11.25 0
v -42 -12 0
v -42.75 -12 0
v -42.75 -11.25 0
v -42 -11.25 0
v -42.75 -12 0
v -43.5 -12 0
v -43.5 -11.25 0
v -42.75 -11.25 0
v -28.5 -12.75 0
v -29.25 -12.75 0
v -29.25 -12 0
v -28.5 -12 0
v -36.75 -12.75 0
v -37.5 -12.75 0
v -37.5 -12 0
v -36.75 -12 0
v -40.5 -12.75 0
v -41.25 -12.75 0
v -41.25 -12 0
v -40.5 -12 0
v -27 -13.5 0
v -27.75 -13.5 0
v -27.75 -12.75 0
v -27 -12.75 0
v -27.75 -13.5 0
v -28.5 -13.5 0
v -28.5 -12.75 0
v -27.75 -12.75 0
v -28.5 -13.5 0
v -29.25 -13.5 0
v -29.25 -12.75 0
v -28.5 -12.75 0
v -36.75 -13.5 0
v -37.5 -13.5 0
v -37.5 -12.75 0
v -36.75 -12.75 0
v -27 -14.25 0
v -27.75 -14.25 0
v -27.75 -13.5 0
v -27 -13.5 0
v -27.75 -14.25 0
v -28.5 -14.25 0
v -28.5 -13.5 0
v -27.75 -13.5 0
v -30 -14.25 0
v -30.75 -14.25 0
v -30.75 -13.5 0
v -30 -13.5 0
v -31.5 -14.25 0
v -32.25 -14.25 0
v -32.25 -13.5 0
v -31.5 -13.5 0
v -32.25 -14.25 0
v -33 -14.25 0
v -33 -13.5 0
v -32.25 -13.5 0
v -33 -14.25 0
v -33.75 -14.25 0
v -33.75 -13.5 0
v -33 -13.5 0
v -36.75 -14.25 0
v -37.5 -14.25 0
v -37.5 -13.5 0
v -36.75 -13.5 0
v -7.5 -15 0
v -8.25 -15 0
v -8.25 -14.25 0
v -7.5 -14.25 0
v -30 -15 0
v -30.75 -15 0
v -30.75 -14.25 0
v -30 -14.25 0
v -30.75 -15 0
v -31.5 -15 0
v -31.5 -14.25 0
v -30.75 -14.25 0
v -31.5 -15 0
v -32.25 -15 0
v -32.25 -14.25 0
v -31.5 -14.25 0
v -32.25 -15 0
v -33 -15 0
v -33 -14.25 0
v -32.25 -14.25 0
v -33 -15 0
v -33.75 -15 0
v -33.75 -14.25 0
v -33 -14.25 0
v -35.25 -15 0
v -36 -15 0
v -36 -14.25 0
v -35.25 -14.25 0
v -36 -15 0
v -36.75 -15 0
v -36.75 -14.25 0
v -36 -14.25 0
v -36.75 -15 0
v -37.5 -15 0
v -37.5 -14.25 0
v -36.75 -14.25 0
v -37.5 -15 0
v -38.25 -15 0
v -38.25 -14.25 0
v -37.5 -14.25 0
v -7.5 -15.75 0
v -8.25 -15.75 0
v -8.25 -15 0
v -7.5 -15 0
v -9 -15.75 0
v -9.75 -15.75 0
v -9.75 -15 0
v -9 -15 0
v -19.5 -15.75 0
v -20.25 -15.75 0
v -20.25 -15 0
v -19.5 -15 0
v -29.25 -15.75 0
v -30 -15.75 0
v -30 -15 0
v -29.25 -15 0
v -30 -15.75 0
v -30.75 -15.75 0
v -30.75 -15 0
v -30 -15 0
v -30.75 -15.75 0
v -31.5 -15.75 0
v -31.5 -15 0
v -30.75 -15 0
v -31.5 -15.75 0
v -32.25 -15.75 0
v -32.25 -15 0
v -31.5 -15 0
v -32.25 -15.75 0
v -33 -15.75 0
v -33 -15 0
v -32.25 -15 0
v -33 -15.75 0
v -33.75 -15.75 0
v -33.75 -15 0
v -33 -15 0
v -33.75 -15.75 0
v -34.5 -15.75 0
v -34.5 -15 0
v -33.75 -15 0
v -35.25 -15.75 0
v -36 -15.75 0
v -36 -15 0
v -35.25 -15 0
v -36 -15.75 0
v -36.75 -15.75 0
v -36.75 -15 0
v -36 -15 0
v -36.75 -15.75 0
v -37.5 -15.75 0
v -37.5 -15 0
v -36.75 -15 0
v -37.5 -15.75 0
v -38.25 -15.75 0
v -38.25 -15 0
v -37.5 -15 0
v -9 -16.5 0
v -9.75 -16.5 0
v -9.75 -15.75 0
v -9 -15.75 0
v -11.25 -16.5 0
v -12 -16.5 0
v -12 -15.75 0
v -11.25 -15.75 0
v -12 -16.5 0
v -12.75 -16.5 0
v -12.75 -15.75 0
v -12 -15.75 0
v -15 -16.5 0
v -15.75 -16.5 0
v -15.75 -15.75 0
v -15 -15.75 0
v -31.5 -16.5 0
v -32.25 -16.5 0
v -32.25 -15.75 0
v -31.5 -15.75 0
v -33.75 -16.5 0
v -34.5 -16.5 0
v -34.5 -15.75 0
v -33.75 -15.75 0
v -34.5 -16.5 0
v -35.25 -16.5 0
v -35.25 -15.75 0
v -34.5 -15.75 0
v -35.25 -16.5 0
v -36 -16.5 0
v -36 -15.75 0
v -35.25 -15.75 0
v -36 -16.5 0
v -36.75 -16.5 0
v -36.75 -15.75 0
v -36 -15.75 0
v -14.25 -17.25 0
v -15 -17.25 0
v -15 -16.5 0
v -14.25 -16.5 0
v -15.75 -17.25 0
v -16.5 -17.25 0
v -16.5 -16.5 0
v -15.75 -16.5 0
v -16.5 -17.25 0
v -17.25 -17.25 0
v -17.25 -16.5 0
v -16.5 -16.5 0
v -30.75 -17.25 0
v -31.5 -17.25 0
v -31.5 -16.5 0
v -30.75 -16.5 0
v -31.5 -17.25 0
v -32.25 -17.25 0
v -32.25 -16.5 0
v -31.5 -16.5 0
v -10.5 -18 0
v -11.25 -18 0
v -11.25 -17.25 0
v -10.5 -17.25 0
v -11.25 -18 0
v -12 -18 0
v -12 -17.25 0
v -11.25 -17.25 0
v -14.25 -18 0
v -15 -18 0
v -15 -17.25 0
v -14.25 -17.25 0
v -15 -18 0
v -15.75 -18 0
v -15.75 -17.25 0
v -15 -17.25 0
v -15.75 -18 0
v -16.5 -18 0
v -16.5 -17.25 0
v -15.75 -17.25 0
v -16.5 -18 0
v -17.25 -18 0
v -17.25 -17.25 0
v -16.5 -17.25 0
v -30.75 -18 0
v -31.5 -18 0
v -31.5 -17.25 0
v -30.75 -17.25 0
v -31.5 -18 0
v -32.25 -18 0
v -32.25 -17.25 0
v -31.5 -17.25 0
v -10.5 -18.75 0
v -11.25 -18.75 0
v -11.25 -18 0
v -10.5 -18 0
v -11.25 -18.75 0
v -12 -18.75 0
v -12 -18 0
v -11.25 -18 0
v -13.5 -18.75 0
v -14.25 -18.75 0
v -14.25 -18 0
v -13.5 -18 0
v -21.75 -18.75 0
v -22.5 -18.75 0
v -22.5 -18 0
v -21.75 -18 0
v -30.75 -18.75 0
v -31.5 -18.75 0
v -31.5 -18 0
v -30.75 -18 0
v -31.5 -18.75 0
v -32.25 -18.75 0
v -32.25 -18 0
v -31.5 -18 0
v -21.75 -19.5 0
v -22.5 -19.5 0
v -22.5 -18.75 0
v -21.75 -18.75 0
v -30.75 -19.5 0
v -31.5 -19.5 0
v -31.5 -18.75 0
v -30.75 -18.75 0
v -31.5 -19.5 0
v -32.25 -19.5 0
v -32.25 -18.75 0
v -31.5 -18.75 0
v -30.75 -20.25 0
v -31.5 -20.25 0
v -31.5 -19.5 0
v -30.75 -19.5 0
v -31.5 -20.25 0
v -32.25 -20.25 0
v -32.25 -19.5 0
v -31.5 -19.5 0
v -32.25 -20.25 0
v -33 -20.25 0
v -33 -19.5 0
v -32.25 -19.5 0
v -10.5 -21 0
v -11.25 -21 0
v -11.25 -20.25 0
v -10.5 -20.25 0
v -32.25 -21 0
v -33 -21 0
v -33 -20.25 0
v -32.25 -20.25 0
v -33 -21 0
v -33.75 -21 0
v -33.75 -20.25 0
v -33 -20.25 0
v -10.5 -21.75 0
v -11.25 -21.75 0
v -11.25 -21 0
v -10.5 -21 0
v -32.25 -21.75 0
v -33 -21.75 0
v -33 -21 0
v -32.25 -21 0
v -33 -21.75 0
v -33.75 -21.75 0
v -33.75 -21 0
v -33 -21 0
v -45.75 -21.75 0
v -46.5 -21.75 0
v -46.5 -21 0
v -45.75 -21 0
v -32.25 -22.5 0
v -33 -22.5 0
v -33 -21.75 0
v -32.25 -21.75 0
v -33 -22.5 0
v -33.75 -22.5 0
v -33.75 -21.75 0
v -33 -21.75 0
v -33.75 -22.5 0
v -34.5 -22.5 0
v -34.5 -21.75 0
v -33.75 -21.75 0
v -3.75 -23.25 0
v -4.5 -23.25 0
v -4.5 -22.5 0
v -3.75 -22.5 0
v -7.5 -23.25 0
v -8.25 -23.25 0
v -8.25 -22.5 0
v -7.5 -22.5 0
v -8.25 -23.25 0
v -9 -23.25 0
v -9 -22.5 0
v -8.25 -22.5 0
v -31.5 -23.25 0
v -32.25 -23.25 0
v -32.25 -22.5 0
v -31.5 -22.5 0
v -32.25 -23.25 0
v -33 -23.25 0
v -33 -22.5 0
v -32.25 -22.5 0
v -1.5 -24 0
v -2.25 -24 0
v -2.25 -23.25 0
v -1.5 -23.25 0
v -2.25 -24 0
v -3 -24 0
v -3 -23.25 0
v -2.25 -23.25 0
v -3 -24 0
v -3.75 -24 0
v -3.75 -23.25 0
v -3 -23.25 0
v -9 -24 0
v -9.75 -24 0
v -9.75 -23.25 0
v -9 -23.25 0
v -9.75 -24 0
v -10.5 -24 0
v -10.5 -23.25 0
v -9.75 -23.25 0
v -10.5 -24 0
v -11.25 -24 0
v -11.25 -23.25 0
v -10.5 -23.25 0
v -31.5 -24 0
v -32.25 -24 0
v -32.25 -23.25 0
v -31.5 -23.25 0
v -32.25 -24 0
v -33 -24 0
v -33 -23.25 0
v -32.25 -23.25 0
v -3 -24.75 0
v -3.75 -24.75 0
v -3.75 -24 0
v -3 -24 0
v -4.5 -24.75 0
v -5.25 -24.75 0
v -5.25 -24 0
v -4.5 -24 0
v -5.25 -24.75 0
v -6 -24.75 0
v -6 -24 0
v -5.25 -24 0
v -6 -24.75 0
v -6.75 -24.75 0
v -6.75 -24 0
v -6 -24 0
v -8.25 -24.75 0
v -9 -24.75 0
v -9 -24 0
v -8.25 -24 0
v -32.25 -24.75 0
v -33 -24.75 0
v -33 -24 0
v -32.25 -24 0
v -33 -24.75 0
v -33.75 -24.75 0
v -33.75 -24 0
v -33 -24 0
v -33.75 -24.75 0
v -34.5 -24.75 0
v -34.5 -24 0
v -33.75 -24 0
v -1.5 -25.5 0
v -2.25 -25.5 0
v -2.25 -24.75 0
v -1.5 -24.75 0
v -4.5 -25.5 0
v -5.25 -25.5 0
v -5.25 -24.75 0
v -4.5 -24.75 0
v -5.25 -25.5 0
v -6 -25.5 0
v -6 -24.75 0
v -5.25 -24.75 0
v -6 -25.5 0
v -6.75 -25.5 0
v -6.75 -24.75 0
v -6 -24.75 0
v -8.25 -25.5 0
v -9 -25.5 0
v -9 -24.75 0
v -8.25 -24.75 0
v -33.75 -25.5 0
v -34.5 -25.5 0
v -34.5 -24.75 0
v -33.75 -24.75 0
v -34.5 -25.5 0
v -35.25 -25.5 0
v -35.25 -24.75 0
v -34.5 -24.75 0
v -1.5 -26.25 0
v -2.25 -26.25 0
v -2.25 -25.5 0
v -1.5 -25.5 0
v -2.25 -26.25 0
v -3 -26.25 0
v -3 -25.5 0
v -2.25 -25.5 0
v -3.75 -26.25 0
v -4.5 -26.25 0
v -4.5 -25.5 0
v -3.75 -25.5 0
v -5.25 -26.25 0
v -6 -26.25 0
v -6 -25.5 0
v -5.25 -25.5 0
v -6 -26.25 0
v -6.75 -26.25 0
v -6.75 -25.5 0
v -6 -25.5 0
v -33.75 -26.25 0
v -34.5 -26.25 0
v -34.5 -25.5 0
v -33.75 -25.5 0
v -35.25 -26.25 0
v -36 -26.25 0
v -36 -25.5 0
v -35.25 -25.5 0
v -36 -26.25 0
v -36.75 -26.25 0
v -36.75 -25.5 0
v -36 -25.5 0
v -1.5 -27 0
v -2.25 -27 0
v -2.25 -26.25 0
v -1.5 -26.25 0
v -2.25 -27 0
v -3 -27 0
v -3 -26.25 0
v -2.25 -26.25 0
v -3 -27 0
v -3.75 -27 0
v -3.75 -26.25 0
v -3 -26.25 0
v -3.75 -27 0
v -4.5 -27 0
v -4.5 -26.25 0
v -3.75 -26.25 0
v -4.5 -27 0
v -5.25 -27 0
v -5.25 -26.25 0
v -4.5 -26.25 0
v -6 -27 0
v -6.75 -27 0
v -6.75 -26.25 0
v -6 -26.25 0
v -33.75 -27 0
v -34.5 -27 0
v -34.5 -26.25 0
v -33.75 -26.25 0
v -34.5 -27 0
v -35.25 -27 0
v -35.25 -26.25 0
v -34.5 -26.25 0
v -2.25 -27.75 0
v -3 -27.75 0
v -3 -27 0
v -2.25 -27 0
v -3 -27.75 0
v -3.75 -27.75 0
v -3.75 -27 0
v -3 -27 0
v -3.75 -27.75 0
v -4.5 -27.75 0
v -4.5 -27 0
v -3.75 -27 0
v -4.5 -27.75 0
v -5.25 -27.75 0
v -5.25 -27 0
v -4.5 -27 0
v -8.25 -27.75 0
v -9 -27.75 0
v -9 -27 0
v -8.25 -27 0
v -33.75 -27.75 0
v -34.5 -27.75 0
v -34.5 -27 0
v -33.75 -27 0
v -32.25 -28.5 0
v -33 -28.5 0
v -33 -27.75 0
v -32.25 -27.75 0
v -33 -28.5 0
v -33.75 -28.5 0
v -33.75 -27.75 0
v -33 -27.75 0
v -37.5 -28.5 0
v -38.25 -28.5 0
v -38.25 -27.75 0
v -37.5 -27.75 0
v -15 -29.25 0
v -15.75 -29.25 0
v -15.75 -28.5 0
v -15 -28.5 0
v -32.25 -29.25 0
v -33 -29.25 0
v -33 -28.5 0
v -32.25 -28.5 0
v -15 -30 0
v -15.75 -30 0
v -15.75 -29.25 0
v -15 -29.25 0
v -30.75 -30 0
v -31.5 -30 0
v -31.5 -29.25 0
v -30.75 -29.25 0
v -31.5 -30 0
v -32.25 -30 0
v -32.25 -29.25 0
v -31.5 -29.25 0
v -32.25 -30 0
v -33 -30 0
v -33 -29.25 0
v -32.25 -29.25 0
v -39.75 -30 0
v -40.5 -30 0
v -40.5 -29.25 0
v -39.75 -29.25 0
v -40.5 -30 0
v -41.25 -30 0
v -41.25 -29.25 0
v -40.5 -29.25 0
v -45.75 -30 0
v -46.5 -30 0
v -46.5 -29.25 0
v -45.75 -29.25 0
v -1.5 -30.75 0
v -2.25 -30.75 0
v -2.25 -30 0
v -1.5 -30 0
v -15.75 -30.75 0
v -16.5 -30.75 0
v -16.5 -30 0
v -15.75 -30 0
v -16.5 -30.75 0
v -17.25 -30.75 0
v -17.25 -30 0
v -16.5 -30 0
v -17.25 -30.75 0
v -18 -30.75 0
v -18 -30 0
v -17.25 -30 0
v -18 -30.75 0
v -18.75 -30.75 0
v -18.75 -30 0
v -18 -30 0
v -30.75 -30.75 0
v -31.5 -30.75 0
v -31.5 -30 0
v -30.75 -30 0
v -31.5 -30.75 0
v -32.25 -30.75 0
v -32.25 -30 0
v -31.5 -30 0
v -32.25 -30.75 0
v -33 -30.75 0
v -33 -30 0
v -32.25 -30 0
v -40.5 -30.75 0
v -41.25 -30.75 0
v -41.25 -30 0
v -40.5 -30 0
v -41.25 -30.75 0
v -42 -30.75 0
v -42 -30 0
v -41.25 -30 0
v -45.75 -30.75 0
v -46.5 -30.75 0
v -46.5 -30 0
v -45.75 -30 0
v -10.5 -31.5 0
v -11.25 -31.5 0
v -11.25 -30.75 0
v -10.5 -30.75 0
v -15.75 -31.5 0
v -16.5 -31.5 0
v -16.5 -30.75 0
v -15.75 -30.75 0
v -16.5 -31.5 0
v -17.25 -31.5 0
v -17.25 -30.75 0
v -16.5 -30.75 0
v -18 -31.5 0
v -18.75 -31.5 0
v -18.75 -30.75 0
v -18 -30.75 0
v -37.5 -31.5 0
v -38.25 -31.5 0
v -38.25 -30.75 0
v -37.5 -30.75 0
v -40.5 -31.5 0
v -41.25 -31.5 0
v -41.25 -30.75 0
v -40.5 -30.75 0
v -41.25 -31.5 0
v -42 -31.5 0
v -42 -30.75 0
v -41.25 -30.75 0
v -42 -31.5 0
v -42.75 -31.5 0
v -42.75 -30.75 0
v -42 -30.75 0
v -42.75 -31.5 0
v -43.5 -31.5 0
v -43.5 -30.75 0
v -42.75 -30.75 0
v -45.75 -31.5 0
v -46.5 -31.5 0
v -46.5 -30.75 0
v -45.75 -30.75 0
v -37.5 -32.25 0
v -38.25 -32.25 0
v -38.25 -31.5 0
v -37.5 -31.5 0
v -38.25 -32.25 0
v -39 -32.25 0
v -39 -31.5 0
v -38.25 -31.5 0
v -39 -32.25 0
v -39.75 -32.25 0
v -39.75 -31.5 0
v -39 -31.5 0
v -39.75 -32.25 0
v -40.5 -32.25 0
v -40.5 -31.5 0
v -39.75 -31.5 0
v -40.5 -32.25 0
v -41.25 -32.25 0
v -41.25 -31.5 0
v -40.5 -31.5 0
v -42.75 -32.25 0
v -43.5 -32.25 0
v -43.5 -31.5 0
v -42.75 -31.5 0
v -37.5 -33 0
v -38.25 -33 0
v -38.25 -32.25 0
v -37.5 -32.25 0
v -38.25 -33 0
v -39 -33 0
v -39 -32.25 0
v -38.25 -32.25 0
v -39 -33 0
v -39.75 -33 0
v -39.75 -32.25 0
v -39 -32.25 0
v -39.75 -33 0
v -40.5 -33 0
v -40.5 -32.25 0
v -39.75 -32.25 0
v -40.5 -33 0
v -41.25 -33 0
v -41.25 -32.25 0
v -40.5 -32.25 0
v -42.75 -33 0
v -43.5 -33 0
v -43.5 -32.25 0
v -42.75 -32.25 0
v -42.75 -33.75 0
v -43.5 -33.75 0
v -43.5 -33 0
v -42.75 -33 0
v -42.75 -34.5 0
v -43.5 -34.5 0
v -43.5 -33.75 0
v -42.75 -33.75 0
v -42.75 -35.25 0
v -43.5 -35.25 0
v -43.5 -34.5 0
v -42.75 -34.5 0
v -42.75 -36 0
v -43.5 -36 0
v -43.5 -35.25 0
v -42.75 -35.25 0
v -43.5 -36 0
v -44.25 -36 0
v -44.25 -35.25 0
v -43.5 -35.25 0
v -44.25 -36 0
v -45 -36 0
v -45 -35.25 0
v -44.25 -35.25 0
v -45 -36 0
v -45.75 -36 0
v -45.75 -35.25 0
v -45 -35.25 0
v -45.75 -36 0
v -46.5 -36 0
v -46.5 -35.25 0
v -45.75 -35.25 0
v -6.75 -42.75 0
v -7.5 -42.75 0
v -7.5 -42 0
v -6.75 -42 0
v -6.75 -43.5 0
v -7.5 -43.5 0
v -7.5 -42.75 0
v -6.75 -42.75 0
v -5.25 -44.25 0
v -6 -44.25 0
v -6 -43.5 0
v -5.25 -43.5 0
v -6.75 -44.25 0
v -7.5 -44.25 0
v -7.5 -43.5 0
v -6.75 -43.5 0
v -5.25 -45 0
v -6 -45 0
v -6 -44.25 0
v -5.25 -44.25 0
v -3.75 -45.75 0
v -4.5 -45.75 0
v -4.5 -45 0
v -3.75 -45 0
v -4.5 -45.75 0
v -5.25 -45.75 0
v -5.25 -45 0
v -4.5 -45 0
v -5.25 -45.75 0
v -6 -45.75 0
v -6 -45 0
v -5.25 -45 0
v -13.5 -45.75 0
v -14.25 -45.75 0
v -14.25 -45 0
v -13.5 -45 0
v -3.75 -46.5 0
v -4.5 -46.5 0
v -4.5 -45.75 0
v -3.75 -45.75 0

# Texture cooridinates (Count = 31)
vt 0 0.875
vt 0.03125 0.875
vt 0.03125 0.9166667
vt 0 0.9166667
vt 0.0625 0.875
vt 0.09375 0.875
vt 0.09375 0.9166667
vt 0.0625 0.9166667
vt 0.125 0.875
vt 0.125 0.9166667
vt 0 0.8333333
vt 0.03125 0.8333333
vt 0.09375 0.9583333
vt 0.125 0.9583333
vt 0.125 1
vt 0.09375 1
vt 0.0625 0.9583333
vt 0.0625 1
vt 0.0625 0.8333333
vt 0.09375 0.8333333
vt 0.03125 0.7916667
vt 0.0625 0.7916667
vt 0 0.7916667
vt 0.03125 0.75
vt 0.0625 0.75
vt 0.09375 0.7916667
vt 0.125 0.8333333
vt 0 0.75
vt 0.09375 0.75
vt 0.125 0.7916667
vt 0.125 0.75

# Normal
vn 0 0 -1

# Mesh description
g Forest-in_mesh_0007

# Faces
f 1/1/1 2/2/1 3/3/1 4/4/1
f 5/5/1 6/6/1 7/7/1 8/8/1
f 9/5/1 10/6/1 11/7/1 12/8/1
f 13/6/1 14/9/1 15/10/1 16/7/1
f 17/1/1 18/2/1 19/3/1 20/4/1
f 21/11/1 22/12/1 23/2/1 24/1/1
f 25/13/1 26/14/1 27/15/1 28/16/1
f 29/17/1 30/13/1 31/16/1 32/18/1
f 33/1/1 34/2/1 35/3/1 36/4/1
f 37/2/1 38/5/1 39/8/1 40/3/1
f 41/5/1 42/6/1 43/7/1 44/8/1
f 45/6/1 46/9/1 47/10/1 48/7/1
f 49/1/1 50/2/1 51/3/1 52/4/1
f 53/2/1 54/5/1 55/8/1 56/3/1
f 57/17/1 58/13/1 59/16/1 60/18/1
f 61/6/1 62/9/1 63/10/1 64/7/1
f 65/1/1 66/2/1 67/3/1 68/4/1
f 69/2/1 70/5/1 71/8/1 72/3/1
f 73/17/1 74/13/1 75/16/1 76/18/1
f 77/13/1 78/14/1 79/15/1 80/16/1
f 81/17/1 82/13/1 83/16/1 84/18/1
f 85/12/1 86/19/1 87/5/1 88/2/1
f 89/19/1 90/20/1 91/6/1 92/5/1
f 93/12/1 94/19/1 95/5/1 96/2/1
f 97/11/1 98/12/1 99/2/1 100/1/1
f 101/21/1 102/22/1 103/19/1 104/12/1
f 105/2/1 106/5/1 107/8/1 108/3/1
f 109/17/1 110/13/1 111/16/1 112/18/1
f 113/21/1 114/22/1 115/19/1 116/12/1
f 117/23/1 118/21/1 119/12/1 120/11/1
f 121/24/1 122/25/1 123/22/1 124/21/1
f 125/8/1 126/7/1 127/13/1 128/17/1
f 129/12/1 130/19/1 131/5/1 132/2/1
f 133/5/1 134/6/1 135/7/1 136/8/1
f 137/2/1 138/5/1 139/8/1 140/3/1
f 141/6/1 142/9/1 143/10/1 144/7/1
f 145/11/1 146/12/1 147/2/1 148/1/1
f 149/1/1 150/2/1 151/3/1 152/4/1
f 153/21/1 154/22/1 155/19/1 156/12/1
f 157/22/1 158/26/1 159/20/1 160/19/1
f 161/21/1 162/22/1 163/19/1 164/12/1
f 165/22/1 166/26/1 167/20/1 168/19/1
f 169/20/1 170/27/1 171/9/1 172/6/1
f 173/1/1 174/2/1 175/3/1 176/4/1
f 177/2/1 178/5/1 179/8/1 180/3/1
f 181/17/1 182/13/1 183/16/1 184/18/1
f 185/12/1 186/19/1 187/5/1 188/2/1
f 189/28/1 190/24/1 191/21/1 192/23/1
f 193/19/1 194/20/1 195/6/1 196/5/1
f 197/6/1 198/9/1 199/10/1 200/7/1
f 201/25/1 202/29/1 203/26/1 204/22/1
f 205/24/1 206/25/1 207/22/1 208/21/1
f 209/24/1 210/25/1 211/22/1 212/21/1
f 213/8/1 214/7/1 215/13/1 216/17/1
f 217/19/1 218/20/1 219/6/1 220/5/1
f 221/13/1 222/14/1 223/15/1 224/16/1
f 225/6/1 226/9/1 227/10/1 228/7/1
f 229/11/1 230/12/1 231/2/1 232/1/1
f 233/12/1 234/19/1 235/5/1 236/2/1
f 237/19/1 238/20/1 239/6/1 240/5/1
f 241/21/1 242/22/1 243/19/1 244/12/1
f 245/22/1 246/26/1 247/20/1 248/19/1
f 249/2/1 250/5/1 251/8/1 252/3/1
f 253/5/1 254/6/1 255/7/1 256/8/1
f 257/6/1 258/9/1 259/10/1 260/7/1
f 261/23/1 262/21/1 263/12/1 264/11/1
f 265/13/1 266/14/1 267/15/1 268/16/1
f 269/2/1 270/5/1 271/8/1 272/3/1
f 273/17/1 274/13/1 275/16/1 276/18/1
f 277/21/1 278/22/1 279/19/1 280/12/1
f 281/12/1 282/19/1 283/5/1 284/2/1
f 285/5/1 286/6/1 287/7/1 288/8/1
f 289/2/1 290/5/1 291/8/1 292/3/1
f 293/1/1 294/2/1 295/3/1 296/4/1
f 297/17/1 298/13/1 299/16/1 300/18/1
f 301/7/1 302/10/1 303/14/1 304/13/1
f 305/8/1 306/7/1 307/13/1 308/17/1
f 309/25/1 310/29/1 311/26/1 312/22/1
f 313/24/1 314/25/1 315/22/1 316/21/1
f 317/25/1 318/29/1 319/26/1 320/22/1
f 321/24/1 322/25/1 323/22/1 324/21/1
f 325/23/1 326/21/1 327/12/1 328/11/1
f 329/21/1 330/22/1 331/19/1 332/12/1
f 333/13/1 334/14/1 335/15/1 336/16/1
f 337/17/1 338/13/1 339/16/1 340/18/1
f 341/26/1 342/30/1 343/27/1 344/20/1
f 345/23/1 346/21/1 347/12/1 348/11/1
f 349/11/1 350/12/1 351/2/1 352/1/1
f 353/12/1 354/19/1 355/5/1 356/2/1
f 357/28/1 358/24/1 359/21/1 360/23/1
f 361/23/1 362/21/1 363/12/1 364/11/1
f 365/21/1 366/22/1 367/19/1 368/12/1
f 369/28/1 370/24/1 371/21/1 372/23/1
f 373/24/1 374/25/1 375/22/1 376/21/1
f 377/8/1 378/7/1 379/13/1 380/17/1
f 381/22/1 382/26/1 383/20/1 384/19/1
f 385/23/1 386/21/1 387/12/1 388/11/1
f 389/21/1 390/22/1 391/19/1 392/12/1
f 393/19/1 394/20/1 395/6/1 396/5/1
f 397/28/1 398/24/1 399/21/1 400/23/1
f 401/8/1 402/7/1 403/13/1 404/17/1
f 405/22/1 406/26/1 407/20/1 408/19/1
f 409/1/1 410/2/1 411/3/1 412/4/1
f 413/17/1 414/13/1 415/16/1 416/18/1
f 417/22/1 418/26/1 419/20/1 420/19/1
f 421/6/1 422/9/1 423/10/1 424/7/1
f 425/1/1 426/2/1 427/3/1 428/4/1
f 429/2/1 430/5/1 431/8/1 432/3/1
f 433/1/1 434/2/1 435/3/1 436/4/1
f 437/17/1 438/13/1 439/16/1 440/18/1
f 441/11/1 442/12/1 443/2/1 444/1/1
f 445/19/1 446/20/1 447/6/1 448/5/1
f 449/12/1 450/19/1 451/5/1 452/2/1
f 453/25/1 454/29/1 455/26/1 456/22/1
f 457/24/1 458/25/1 459/22/1 460/21/1
f 461/25/1 462/29/1 463/26/1 464/22/1
f 465/28/1 466/24/1 467/21/1 468/23/1
f 469/8/1 470/7/1 471/13/1 472/17/1
f 473/21/1 474/22/1 475/19/1 476/12/1
f 477/1/1 478/2/1 479/3/1 480/4/1
f 481/2/1 482/5/1 483/8/1 484/3/1
f 485/5/1 486/6/1 487/7/1 488/8/1
f 489/26/1 490/30/1 491/27/1 492/20/1
f 493/28/1 494/24/1 495/21/1 496/23/1
f 497/24/1 498/25/1 499/22/1 500/21/1
f 501/8/1 502/7/1 503/13/1 504/17/1
f 505/1/1 506/2/1 507/3/1 508/4/1
f 509/11/1 510/12/1 511/2/1 512/1/1
f 513/7/1 514/10/1 515/14/1 516/13/1
f 517/25/1 518/29/1 519/26/1 520/22/1
f 521/29/1 522/31/1 523/30/1 524/26/1
f 525/23/1 526/21/1 527/12/1 528/11/1
f 529/21/1 530/22/1 531/19/1 532/12/1
f 533/23/1 534/21/1 535/12/1 536/11/1
f 537/22/1 538/26/1 539/20/1 540/19/1
f 541/6/1 542/9/1 543/10/1 544/7/1
f 545/13/1 546/14/1 547/15/1 548/16/1
f 549/6/1 550/9/1 551/10/1 552/7/1
f 553/28/1 554/24/1 555/21/1 556/23/1
f 557/19/1 558/20/1 559/6/1 560/5/1
f 561/12/1 562/19/1 563/5/1 564/2/1
f 565/11/1 566/12/1 567/2/1 568/1/1
f 569/19/1 570/20/1 571/6/1 572/5/1
f 573/12/1 574/19/1 575/5/1 576/2/1
f 577/20/1 578/27/1 579/9/1 580/6/1
f 581/28/1 582/24/1 583/21/1 584/23/1
f 585/20/1 586/27/1 587/9/1 588/6/1
f 589/1/1 590/2/1 591/3/1 592/4/1
f 593/17/1 594/13/1 595/16/1 596/18/1
f 597/22/1 598/26/1 599/20/1 600/19/1
f 601/21/1 602/22/1 603/19/1 604/12/1
f 605/26/1 606/30/1 607/27/1 608/20/1
f 609/1/1 610/2/1 611/3/1 612/4/1
f 613/5/1 614/6/1 615/7/1 616/8/1
f 617/11/1 618/12/1 619/2/1 620/1/1
f 621/1/1 622/2/1 623/3/1 624/4/1
f 625/2/1 626/5/1 627/8/1 628/3/1
f 629/12/1 630/19/1 631/5/1 632/2/1
f 633/6/1 634/9/1 635/10/1 636/7/1
f 637/11/1 638/12/1 639/2/1 640/1/1
f 641/20/1 642/27/1 643/9/1 644/6/1
f 645/1/1 646/2/1 647/3/1 648/4/1
f 649/5/1 650/6/1 651/7/1 652/8/1
f 653/17/1 654/13/1 655/16/1 656/18/1
f 657/19/1 658/20/1 659/6/1 660/5/1
f 661/7/1 662/10/1 663/14/1 664/13/1
f 665/19/1 666/20/1 667/6/1 668/5/1
f 669/28/1 670/24/1 671/21/1 672/23/1
f 673/5/1 674/6/1 675/7/1 676/8/1
f 677/2/1 678/5/1 679/8/1 680/3/1
f 681/5/1 682/6/1 683/7/1 684/8/1
f 685/6/1 686/9/1 687/10/1 688/7/1
f 689/28/1 690/24/1 691/21/1 692/23/1
f 693/24/1 694/25/1 695/22/1 696/21/1
f 697/25/1 698/29/1 699/26/1 700/22/1
f 701/26/1 702/30/1 703/27/1 704/20/1
f 705/23/1 706/21/1 707/12/1 708/11/1
f 709/22/1 710/26/1 711/20/1 712/19/1
f 713/12/1 714/19/1 715/5/1 716/2/1
f 717/19/1 718/20/1 719/6/1 720/5/1
f 721/12/1 722/19/1 723/5/1 724/2/1
f 725/20/1 726/27/1 727/9/1 728/6/1
f 729/8/1 730/7/1 731/13/1 732/17/1
f 733/20/1 734/27/1 735/9/1 736/6/1
f 737/28/1 738/24/1 739/21/1 740/23/1
f 741/24/1 742/25/1 743/22/1 744/21/1
f 745/8/1 746/7/1 747/13/1 748/17/1
f 749/19/1 750/20/1 751/6/1 752/5/1
f 753/23/1 754/21/1 755/12/1 756/11/1
f 757/22/1 758/26/1 759/20/1 760/19/1
f 761/21/1 762/22/1 763/19/1 764/12/1
f 765/22/1 766/26/1 767/20/1 768/19/1
f 769/26/1 770/30/1 771/27/1 772/20/1
f 773/23/1 774/21/1 775/12/1 776/11/1
f 777/28/1 778/24/1 779/21/1 780/23/1
f 781/25/1 782/29/1 783/26/1 784/22/1
f 785/24/1 786/25/1 787/22/1 788/21/1
f 789/25/1 790/29/1 791/26/1 792/22/1
f 793/29/1 794/31/1 795/30/1 796/26/1
f 797/11/1 798/12/1 799/2/1 800/1/1
f 801/23/1 802/21/1 803/12/1 804/11/1
f 805/11/1 806/12/1 807/2/1 808/1/1
f 809/23/1 810/21/1 811/12/1 812/11/1
f 813/28/1 814/24/1 815/21/1 816/23/1
f 817/24/1 818/25/1 819/22/1 820/21/1
f 821/25/1 822/29/1 823/26/1 824/22/1
f 825/24/1 826/25/1 827/22/1 828/21/1
f 829/25/1 830/29/1 831/26/1 832/22/1
f 833/1/1 834/2/1 835/3/1 836/4/1
f 837/11/1 838/12/1 839/2/1 840/1/1
f 841/1/1 842/2/1 843/3/1 844/4/1
f 845/17/1 846/13/1 847/16/1 848/18/1
f 849/11/1 850/12/1 851/2/1 852/1/1
f 853/1/1 854/2/1 855/3/1 856/4/1
f 857/2/1 858/5/1 859/8/1 860/3/1
f 861/17/1 862/13/1 863/16/1 864/18/1
f 865/6/1 866/9/1 867/10/1 868/7/1
f 869/28/1 870/24/1 871/21/1 872/23/1

