# Tiled2Unity generated file. Do not modify by hand.
# Wavefront file for 'Level01-BOSS_mesh_0020.obj'

# Vertices (Count = 296)
v -5.25 -1.5 0
v -6 -1.5 0
v -6 -0.75 0
v -5.25 -0.75 0
v -6 -1.5 0
v -6.75 -1.5 0
v -6.75 -0.75 0
v -6 -0.75 0
v -6.75 -1.5 0
v -7.5 -1.5 0
v -7.5 -0.75 0
v -6.75 -0.75 0
v -7.5 -1.5 0
v -8.25 -1.5 0
v -8.25 -0.75 0
v -7.5 -0.75 0
v -8.25 -1.5 0
v -9 -1.5 0
v -9 -0.75 0
v -8.25 -0.75 0
v -9 -1.5 0
v -9.75 -1.5 0
v -9.75 -0.75 0
v -9 -0.75 0
v -9.75 -1.5 0
v -10.5 -1.5 0
v -10.5 -0.75 0
v -9.75 -0.75 0
v -10.5 -1.5 0
v -11.25 -1.5 0
v -11.25 -0.75 0
v -10.5 -0.75 0
v -11.25 -1.5 0
v -12 -1.5 0
v -12 -0.75 0
v -11.25 -0.75 0
v -12 -1.5 0
v -12.75 -1.5 0
v -12.75 -0.75 0
v -12 -0.75 0
v -12.75 -1.5 0
v -13.5 -1.5 0
v -13.5 -0.75 0
v -12.75 -0.75 0
v -13.5 -1.5 0
v -14.25 -1.5 0
v -14.25 -0.75 0
v -13.5 -0.75 0
v -14.25 -1.5 0
v -15 -1.5 0
v -15 -0.75 0
v -14.25 -0.75 0
v -15 -1.5 0
v -15.75 -1.5 0
v -15.75 -0.75 0
v -15 -0.75 0
v -15.75 -1.5 0
v -16.5 -1.5 0
v -16.5 -0.75 0
v -15.75 -0.75 0
v -16.5 -1.5 0
v -17.25 -1.5 0
v -17.25 -0.75 0
v -16.5 -0.75 0
v -17.25 -1.5 0
v -18 -1.5 0
v -18 -0.75 0
v -17.25 -0.75 0
v -18 -1.5 0
v -18.75 -1.5 0
v -18.75 -0.75 0
v -18 -0.75 0
v -0.75 -20.25 0
v -1.5 -20.25 0
v -1.5 -19.5 0
v -0.75 -19.5 0
v -1.5 -20.25 0
v -2.25 -20.25 0
v -2.25 -19.5 0
v -1.5 -19.5 0
v -2.25 -20.25 0
v -3 -20.25 0
v -3 -19.5 0
v -2.25 -19.5 0
v -21 -20.25 0
v -21.75 -20.25 0
v -21.75 -19.5 0
v -21 -19.5 0
v -21.75 -20.25 0
v -22.5 -20.25 0
v -22.5 -19.5 0
v -21.75 -19.5 0
v -22.5 -20.25 0
v -23.25 -20.25 0
v -23.25 -19.5 0
v -22.5 -19.5 0
v -1.5 -21 0
v -2.25 -21 0
v -2.25 -20.25 0
v -1.5 -20.25 0
v -2.25 -21 0
v -3 -21 0
v -3 -20.25 0
v -2.25 -20.25 0
v -21 -21 0
v -21.75 -21 0
v -21.75 -20.25 0
v -21 -20.25 0
v -21.75 -21 0
v -22.5 -21 0
v -22.5 -20.25 0
v -21.75 -20.25 0
v -2.25 -21.75 0
v -3 -21.75 0
v -3 -21 0
v -2.25 -21 0
v -3 -21.75 0
v -3.75 -21.75 0
v -3.75 -21 0
v -3 -21 0
v -3.75 -21.75 0
v -4.5 -21.75 0
v -4.5 -21 0
v -3.75 -21 0
v -19.5 -21.75 0
v -20.25 -21.75 0
v -20.25 -21 0
v -19.5 -21 0
v -20.25 -21.75 0
v -21 -21.75 0
v -21 -21 0
v -20.25 -21 0
v -21 -21.75 0
v -21.75 -21.75 0
v -21.75 -21 0
v -21 -21 0
v -3 -22.5 0
v -3.75 -22.5 0
v -3.75 -21.75 0
v -3 -21.75 0
v -3.75 -22.5 0
v -4.5 -22.5 0
v -4.5 -21.75 0
v -3.75 -21.75 0
v -19.5 -22.5 0
v -20.25 -22.5 0
v -20.25 -21.75 0
v -19.5 -21.75 0
v -20.25 -22.5 0
v -21 -22.5 0
v -21 -21.75 0
v -20.25 -21.75 0
v -3.75 -23.25 0
v -4.5 -23.25 0
v -4.5 -22.5 0
v -3.75 -22.5 0
v -4.5 -23.25 0
v -5.25 -23.25 0
v -5.25 -22.5 0
v -4.5 -22.5 0
v -5.25 -23.25 0
v -6 -23.25 0
v -6 -22.5 0
v -5.25 -22.5 0
v -6 -23.25 0
v -6.75 -23.25 0
v -6.75 -22.5 0
v -6 -22.5 0
v -6.75 -23.25 0
v -7.5 -23.25 0
v -7.5 -22.5 0
v -6.75 -22.5 0
v -7.5 -23.25 0
v -8.25 -23.25 0
v -8.25 -22.5 0
v -7.5 -22.5 0
v -8.25 -23.25 0
v -9 -23.25 0
v -9 -22.5 0
v -8.25 -22.5 0
v -9 -23.25 0
v -9.75 -23.25 0
v -9.75 -22.5 0
v -9 -22.5 0
v -9.75 -23.25 0
v -10.5 -23.25 0
v -10.5 -22.5 0
v -9.75 -22.5 0
v -10.5 -23.25 0
v -11.25 -23.25 0
v -11.25 -22.5 0
v -10.5 -22.5 0
v -12.75 -23.25 0
v -13.5 -23.25 0
v -13.5 -22.5 0
v -12.75 -22.5 0
v -13.5 -23.25 0
v -14.25 -23.25 0
v -14.25 -22.5 0
v -13.5 -22.5 0
v -14.25 -23.25 0
v -15 -23.25 0
v -15 -22.5 0
v -14.25 -22.5 0
v -15 -23.25 0
v -15.75 -23.25 0
v -15.75 -22.5 0
v -15 -22.5 0
v -15.75 -23.25 0
v -16.5 -23.25 0
v -16.5 -22.5 0
v -15.75 -22.5 0
v -16.5 -23.25 0
v -17.25 -23.25 0
v -17.25 -22.5 0
v -16.5 -22.5 0
v -17.25 -23.25 0
v -18 -23.25 0
v -18 -22.5 0
v -17.25 -22.5 0
v -18 -23.25 0
v -18.75 -23.25 0
v -18.75 -22.5 0
v -18 -22.5 0
v -18.75 -23.25 0
v -19.5 -23.25 0
v -19.5 -22.5 0
v -18.75 -22.5 0
v -19.5 -23.25 0
v -20.25 -23.25 0
v -20.25 -22.5 0
v -19.5 -22.5 0
v -4.5 -24 0
v -5.25 -24 0
v -5.25 -23.25 0
v -4.5 -23.25 0
v -5.25 -24 0
v -6 -24 0
v -6 -23.25 0
v -5.25 -23.25 0
v -6 -24 0
v -6.75 -24 0
v -6.75 -23.25 0
v -6 -23.25 0
v -6.75 -24 0
v -7.5 -24 0
v -7.5 -23.25 0
v -6.75 -23.25 0
v -7.5 -24 0
v -8.25 -24 0
v -8.25 -23.25 0
v -7.5 -23.25 0
v -8.25 -24 0
v -9 -24 0
v -9 -23.25 0
v -8.25 -23.25 0
v -9 -24 0
v -9.75 -24 0
v -9.75 -23.25 0
v -9 -23.25 0
v -9.75 -24 0
v -10.5 -24 0
v -10.5 -23.25 0
v -9.75 -23.25 0
v -10.5 -24 0
v -11.25 -24 0
v -11.25 -23.25 0
v -10.5 -23.25 0
v -12.75 -24 0
v -13.5 -24 0
v -13.5 -23.25 0
v -12.75 -23.25 0
v -13.5 -24 0
v -14.25 -24 0
v -14.25 -23.25 0
v -13.5 -23.25 0
v -14.25 -24 0
v -15 -24 0
v -15 -23.25 0
v -14.25 -23.25 0
v -15 -24 0
v -15.75 -24 0
v -15.75 -23.25 0
v -15 -23.25 0
v -15.75 -24 0
v -16.5 -24 0
v -16.5 -23.25 0
v -15.75 -23.25 0
v -16.5 -24 0
v -17.25 -24 0
v -17.25 -23.25 0
v -16.5 -23.25 0
v -17.25 -24 0
v -18 -24 0
v -18 -23.25 0
v -17.25 -23.25 0

# Texture cooridinates (Count = 33)
vt 0.59375 0.4166667
vt 0.625 0.4166667
vt 0.625 0.4583333
vt 0.59375 0.4583333
vt 0.53125 0.25
vt 0.5625 0.25
vt 0.5625 0.2916667
vt 0.53125 0.2916667
vt 0.59375 0.25
vt 0.59375 0.2916667
vt 0.5625 0.4166667
vt 0.5625 0.4583333
vt 0.59375 0.9583333
vt 0.625 0.9583333
vt 0.625 1
vt 0.59375 1
vt 0.5625 0.875
vt 0.59375 0.875
vt 0.59375 0.9166667
vt 0.5625 0.9166667
vt 0.625 0.875
vt 0.625 0.9166667
vt 0.5 0.875
vt 0.53125 0.875
vt 0.53125 0.9166667
vt 0.5 0.9166667
vt 0.5625 0.9583333
vt 0.5625 1
vt 0.5625 0.8333333
vt 0.59375 0.8333333
vt 0.625 0.8333333
vt 0.5 0.8333333
vt 0.53125 0.8333333

# Normal
vn 0 0 -1

# Mesh description
g Level01-BOSS_mesh_0020

# Faces
f 1/1/1 2/2/1 3/3/1 4/4/1
f 5/5/1 6/6/1 7/7/1 8/8/1
f 9/6/1 10/9/1 11/10/1 12/7/1
f 13/5/1 14/6/1 15/7/1 16/8/1
f 17/6/1 18/9/1 19/10/1 20/7/1
f 21/5/1 22/6/1 23/7/1 24/8/1
f 25/6/1 26/9/1 27/10/1 28/7/1
f 29/5/1 30/6/1 31/7/1 32/8/1
f 33/6/1 34/9/1 35/10/1 36/7/1
f 37/5/1 38/6/1 39/7/1 40/8/1
f 41/6/1 42/9/1 43/10/1 44/7/1
f 45/5/1 46/6/1 47/7/1 48/8/1
f 49/6/1 50/9/1 51/10/1 52/7/1
f 53/5/1 54/6/1 55/7/1 56/8/1
f 57/6/1 58/9/1 59/10/1 60/7/1
f 61/5/1 62/6/1 63/7/1 64/8/1
f 65/6/1 66/9/1 67/10/1 68/7/1
f 69/11/1 70/1/1 71/4/1 72/12/1
f 73/13/1 74/14/1 75/15/1 76/16/1
f 77/17/1 78/18/1 79/19/1 80/20/1
f 81/18/1 82/21/1 83/22/1 84/19/1
f 85/23/1 86/24/1 87/25/1 88/26/1
f 89/24/1 90/17/1 91/20/1 92/25/1
f 93/27/1 94/13/1 95/16/1 96/28/1
f 97/29/1 98/30/1 99/18/1 100/17/1
f 101/30/1 102/31/1 103/21/1 104/18/1
f 105/32/1 106/33/1 107/24/1 108/23/1
f 109/33/1 110/29/1 111/17/1 112/24/1
f 113/13/1 114/14/1 115/15/1 116/16/1
f 117/17/1 118/18/1 119/19/1 120/20/1
f 121/18/1 122/21/1 123/22/1 124/19/1
f 125/23/1 126/24/1 127/25/1 128/26/1
f 129/24/1 130/17/1 131/20/1 132/25/1
f 133/27/1 134/13/1 135/16/1 136/28/1
f 137/29/1 138/30/1 139/18/1 140/17/1
f 141/30/1 142/31/1 143/21/1 144/18/1
f 145/32/1 146/33/1 147/24/1 148/23/1
f 149/33/1 150/29/1 151/17/1 152/24/1
f 153/13/1 154/14/1 155/15/1 156/16/1
f 157/24/1 158/17/1 159/20/1 160/25/1
f 161/17/1 162/18/1 163/19/1 164/20/1
f 165/24/1 166/17/1 167/20/1 168/25/1
f 169/17/1 170/18/1 171/19/1 172/20/1
f 173/24/1 174/17/1 175/20/1 176/25/1
f 177/17/1 178/18/1 179/19/1 180/20/1
f 181/24/1 182/17/1 183/20/1 184/25/1
f 185/17/1 186/18/1 187/19/1 188/20/1
f 189/18/1 190/21/1 191/22/1 192/19/1
f 193/23/1 194/24/1 195/25/1 196/26/1
f 197/24/1 198/17/1 199/20/1 200/25/1
f 201/17/1 202/18/1 203/19/1 204/20/1
f 205/24/1 206/17/1 207/20/1 208/25/1
f 209/17/1 210/18/1 211/19/1 212/20/1
f 213/24/1 214/17/1 215/20/1 216/25/1
f 217/17/1 218/18/1 219/19/1 220/20/1
f 221/24/1 222/17/1 223/20/1 224/25/1
f 225/17/1 226/18/1 227/19/1 228/20/1
f 229/27/1 230/13/1 231/16/1 232/28/1
f 233/33/1 234/29/1 235/17/1 236/24/1
f 237/29/1 238/30/1 239/18/1 240/17/1
f 241/33/1 242/29/1 243/17/1 244/24/1
f 245/29/1 246/30/1 247/18/1 248/17/1
f 249/33/1 250/29/1 251/17/1 252/24/1
f 253/29/1 254/30/1 255/18/1 256/17/1
f 257/33/1 258/29/1 259/17/1 260/24/1
f 261/29/1 262/30/1 263/18/1 264/17/1
f 265/30/1 266/31/1 267/21/1 268/18/1
f 269/32/1 270/33/1 271/24/1 272/23/1
f 273/33/1 274/29/1 275/17/1 276/24/1
f 277/29/1 278/30/1 279/18/1 280/17/1
f 281/33/1 282/29/1 283/17/1 284/24/1
f 285/29/1 286/30/1 287/18/1 288/17/1
f 289/33/1 290/29/1 291/17/1 292/24/1
f 293/29/1 294/30/1 295/18/1 296/17/1

