# Tiled2Unity generated file. Do not modify by hand.
# Wavefront file for 'Level01-BOSS_mesh_0022.obj'

# Vertices (Count = 160)
v -6.75 -3 0
v -7.5 -3 0
v -7.5 -2.25 0
v -6.75 -2.25 0
v -7.5 -3 0
v -8.25 -3 0
v -8.25 -2.25 0
v -7.5 -2.25 0
v -9.75 -3 0
v -10.5 -3 0
v -10.5 -2.25 0
v -9.75 -2.25 0
v -10.5 -3 0
v -11.25 -3 0
v -11.25 -2.25 0
v -10.5 -2.25 0
v -11.25 -3 0
v -12 -3 0
v -12 -2.25 0
v -11.25 -2.25 0
v -12 -3 0
v -12.75 -3 0
v -12.75 -2.25 0
v -12 -2.25 0
v -12.75 -3 0
v -13.5 -3 0
v -13.5 -2.25 0
v -12.75 -2.25 0
v -13.5 -3 0
v -14.25 -3 0
v -14.25 -2.25 0
v -13.5 -2.25 0
v -15.75 -3 0
v -16.5 -3 0
v -16.5 -2.25 0
v -15.75 -2.25 0
v -16.5 -3 0
v -17.25 -3 0
v -17.25 -2.25 0
v -16.5 -2.25 0
v -6.75 -3.75 0
v -7.5 -3.75 0
v -7.5 -3 0
v -6.75 -3 0
v -7.5 -3.75 0
v -8.25 -3.75 0
v -8.25 -3 0
v -7.5 -3 0
v -9.75 -3.75 0
v -10.5 -3.75 0
v -10.5 -3 0
v -9.75 -3 0
v -10.5 -3.75 0
v -11.25 -3.75 0
v -11.25 -3 0
v -10.5 -3 0
v -11.25 -3.75 0
v -12 -3.75 0
v -12 -3 0
v -11.25 -3 0
v -12 -3.75 0
v -12.75 -3.75 0
v -12.75 -3 0
v -12 -3 0
v -12.75 -3.75 0
v -13.5 -3.75 0
v -13.5 -3 0
v -12.75 -3 0
v -13.5 -3.75 0
v -14.25 -3.75 0
v -14.25 -3 0
v -13.5 -3 0
v -15.75 -3.75 0
v -16.5 -3.75 0
v -16.5 -3 0
v -15.75 -3 0
v -16.5 -3.75 0
v -17.25 -3.75 0
v -17.25 -3 0
v -16.5 -3 0
v -6.75 -4.5 0
v -7.5 -4.5 0
v -7.5 -3.75 0
v -6.75 -3.75 0
v -7.5 -4.5 0
v -8.25 -4.5 0
v -8.25 -3.75 0
v -7.5 -3.75 0
v -9.75 -4.5 0
v -10.5 -4.5 0
v -10.5 -3.75 0
v -9.75 -3.75 0
v -10.5 -4.5 0
v -11.25 -4.5 0
v -11.25 -3.75 0
v -10.5 -3.75 0
v -11.25 -4.5 0
v -12 -4.5 0
v -12 -3.75 0
v -11.25 -3.75 0
v -12 -4.5 0
v -12.75 -4.5 0
v -12.75 -3.75 0
v -12 -3.75 0
v -12.75 -4.5 0
v -13.5 -4.5 0
v -13.5 -3.75 0
v -12.75 -3.75 0
v -13.5 -4.5 0
v -14.25 -4.5 0
v -14.25 -3.75 0
v -13.5 -3.75 0
v -15.75 -4.5 0
v -16.5 -4.5 0
v -16.5 -3.75 0
v -15.75 -3.75 0
v -16.5 -4.5 0
v -17.25 -4.5 0
v -17.25 -3.75 0
v -16.5 -3.75 0
v -6.75 -5.25 0
v -7.5 -5.25 0
v -7.5 -4.5 0
v -6.75 -4.5 0
v -7.5 -5.25 0
v -8.25 -5.25 0
v -8.25 -4.5 0
v -7.5 -4.5 0
v -9.75 -5.25 0
v -10.5 -5.25 0
v -10.5 -4.5 0
v -9.75 -4.5 0
v -10.5 -5.25 0
v -11.25 -5.25 0
v -11.25 -4.5 0
v -10.5 -4.5 0
v -11.25 -5.25 0
v -12 -5.25 0
v -12 -4.5 0
v -11.25 -4.5 0
v -12 -5.25 0
v -12.75 -5.25 0
v -12.75 -4.5 0
v -12 -4.5 0
v -12.75 -5.25 0
v -13.5 -5.25 0
v -13.5 -4.5 0
v -12.75 -4.5 0
v -13.5 -5.25 0
v -14.25 -5.25 0
v -14.25 -4.5 0
v -13.5 -4.5 0
v -15.75 -5.25 0
v -16.5 -5.25 0
v -16.5 -4.5 0
v -15.75 -4.5 0
v -16.5 -5.25 0
v -17.25 -5.25 0
v -17.25 -4.5 0
v -16.5 -4.5 0

# Texture cooridinates (Count = 50)
vt 0.1875 0.96875
vt 0.21875 0.96875
vt 0.21875 1
vt 0.1875 1
vt 0.25 0.96875
vt 0.25 1
vt 0.3125 0.46875
vt 0.34375 0.46875
vt 0.34375 0.5
vt 0.3125 0.5
vt 0.375 0.46875
vt 0.375 0.5
vt 0.40625 0.46875
vt 0.40625 0.5
vt 0.4375 0.46875
vt 0.4375 0.5
vt 0.46875 0.46875
vt 0.46875 0.5
vt 0.5 0.46875
vt 0.5 0.5
vt 0.1875 0.9375
vt 0.21875 0.9375
vt 0.25 0.9375
vt 0.3125 0.4375
vt 0.34375 0.4375
vt 0.375 0.4375
vt 0.40625 0.4375
vt 0.4375 0.4375
vt 0.46875 0.4375
vt 0.5 0.4375
vt 0.1875 0.90625
vt 0.21875 0.90625
vt 0.25 0.90625
vt 0.3125 0.40625
vt 0.34375 0.40625
vt 0.375 0.40625
vt 0.40625 0.40625
vt 0.4375 0.40625
vt 0.46875 0.40625
vt 0.5 0.40625
vt 0.1875 0.875
vt 0.21875 0.875
vt 0.25 0.875
vt 0.3125 0.375
vt 0.34375 0.375
vt 0.375 0.375
vt 0.40625 0.375
vt 0.4375 0.375
vt 0.46875 0.375
vt 0.5 0.375

# Normal
vn 0 0 -1

# Mesh description
g Level01-BOSS_mesh_0022

# Faces
f 1/1/1 2/2/1 3/3/1 4/4/1
f 5/2/1 6/5/1 7/6/1 8/3/1
f 9/7/1 10/8/1 11/9/1 12/10/1
f 13/8/1 14/11/1 15/12/1 16/9/1
f 17/11/1 18/13/1 19/14/1 20/12/1
f 21/13/1 22/15/1 23/16/1 24/14/1
f 25/15/1 26/17/1 27/18/1 28/16/1
f 29/17/1 30/19/1 31/20/1 32/18/1
f 33/1/1 34/2/1 35/3/1 36/4/1
f 37/2/1 38/5/1 39/6/1 40/3/1
f 41/21/1 42/22/1 43/2/1 44/1/1
f 45/22/1 46/23/1 47/5/1 48/2/1
f 49/24/1 50/25/1 51/8/1 52/7/1
f 53/25/1 54/26/1 55/11/1 56/8/1
f 57/26/1 58/27/1 59/13/1 60/11/1
f 61/27/1 62/28/1 63/15/1 64/13/1
f 65/28/1 66/29/1 67/17/1 68/15/1
f 69/29/1 70/30/1 71/19/1 72/17/1
f 73/21/1 74/22/1 75/2/1 76/1/1
f 77/22/1 78/23/1 79/5/1 80/2/1
f 81/31/1 82/32/1 83/22/1 84/21/1
f 85/32/1 86/33/1 87/23/1 88/22/1
f 89/34/1 90/35/1 91/25/1 92/24/1
f 93/35/1 94/36/1 95/26/1 96/25/1
f 97/36/1 98/37/1 99/27/1 100/26/1
f 101/37/1 102/38/1 103/28/1 104/27/1
f 105/38/1 106/39/1 107/29/1 108/28/1
f 109/39/1 110/40/1 111/30/1 112/29/1
f 113/31/1 114/32/1 115/22/1 116/21/1
f 117/32/1 118/33/1 119/23/1 120/22/1
f 121/41/1 122/42/1 123/32/1 124/31/1
f 125/42/1 126/43/1 127/33/1 128/32/1
f 129/44/1 130/45/1 131/35/1 132/34/1
f 133/45/1 134/46/1 135/36/1 136/35/1
f 137/46/1 138/47/1 139/37/1 140/36/1
f 141/47/1 142/48/1 143/38/1 144/37/1
f 145/48/1 146/49/1 147/39/1 148/38/1
f 149/49/1 150/50/1 151/40/1 152/39/1
f 153/41/1 154/42/1 155/32/1 156/31/1
f 157/42/1 158/43/1 159/33/1 160/32/1

