# Tiled2Unity generated file. Do not modify by hand.
# Wavefront file for 'Level01-BOSS_mesh_0015.obj'

# Vertices (Count = 96)
v -18 -9 0
v -18.75 -9 0
v -18.75 -8.25 0
v -18 -8.25 0
v -18.75 -9 0
v -19.5 -9 0
v -19.5 -8.25 0
v -18.75 -8.25 0
v -18 -9.75 0
v -18.75 -9.75 0
v -18.75 -9 0
v -18 -9 0
v -18.75 -9.75 0
v -19.5 -9.75 0
v -19.5 -9 0
v -18.75 -9 0
v -20.25 -9.75 0
v -21 -9.75 0
v -21 -9 0
v -20.25 -9 0
v -21 -9.75 0
v -21.75 -9.75 0
v -21.75 -9 0
v -21 -9 0
v -20.25 -10.5 0
v -21 -10.5 0
v -21 -9.75 0
v -20.25 -9.75 0
v -21 -10.5 0
v -21.75 -10.5 0
v -21.75 -9.75 0
v -21 -9.75 0
v -21 -12 0
v -21.75 -12 0
v -21.75 -11.25 0
v -21 -11.25 0
v -21.75 -12 0
v -22.5 -12 0
v -22.5 -11.25 0
v -21.75 -11.25 0
v -21 -12.75 0
v -21.75 -12.75 0
v -21.75 -12 0
v -21 -12 0
v -21.75 -12.75 0
v -22.5 -12.75 0
v -22.5 -12 0
v -21.75 -12 0
v -1.5 -15 0
v -2.25 -15 0
v -2.25 -14.25 0
v -1.5 -14.25 0
v -2.25 -15 0
v -3 -15 0
v -3 -14.25 0
v -2.25 -14.25 0
v -1.5 -15.75 0
v -2.25 -15.75 0
v -2.25 -15 0
v -1.5 -15 0
v -2.25 -15.75 0
v -3 -15.75 0
v -3 -15 0
v -2.25 -15 0
v -1.5 -18.75 0
v -2.25 -18.75 0
v -2.25 -18 0
v -1.5 -18 0
v -2.25 -18.75 0
v -3 -18.75 0
v -3 -18 0
v -2.25 -18 0
v -1.5 -19.5 0
v -2.25 -19.5 0
v -2.25 -18.75 0
v -1.5 -18.75 0
v -2.25 -19.5 0
v -3 -19.5 0
v -3 -18.75 0
v -2.25 -18.75 0
v -7.5 -21.75 0
v -8.25 -21.75 0
v -8.25 -21 0
v -7.5 -21 0
v -8.25 -21.75 0
v -9 -21.75 0
v -9 -21 0
v -8.25 -21 0
v -7.5 -22.5 0
v -8.25 -22.5 0
v -8.25 -21.75 0
v -7.5 -21.75 0
v -8.25 -22.5 0
v -9 -22.5 0
v -9 -21.75 0
v -8.25 -21.75 0

# Texture cooridinates (Count = 30)
vt 0.75 0.59375
vt 0.71875 0.59375
vt 0.71875 0.625
vt 0.75 0.625
vt 0.6875 0.59375
vt 0.6875 0.625
vt 0.75 0.5625
vt 0.71875 0.5625
vt 0.6875 0.5625
vt 0.65625 0.59375
vt 0.65625 0.625
vt 0.625 0.59375
vt 0.625 0.625
vt 0.65625 0.5625
vt 0.625 0.5625
vt 0.5625 0.03125
vt 0.59375 0.03125
vt 0.59375 0.0625
vt 0.5625 0.0625
vt 0.625 0.03125
vt 0.625 0.0625
vt 0.5625 0
vt 0.59375 0
vt 0.625 0
vt 0.53125 0.03125
vt 0.53125 0.0625
vt 0.5 0.03125
vt 0.5 0.0625
vt 0.53125 0
vt 0.5 0

# Normal
vn 0 0 -1

# Mesh description
g Level01-BOSS_mesh_0015

# Faces
f 1/1/1 2/2/1 3/3/1 4/4/1
f 5/2/1 6/5/1 7/6/1 8/3/1
f 9/7/1 10/8/1 11/2/1 12/1/1
f 13/8/1 14/9/1 15/5/1 16/2/1
f 17/5/1 18/10/1 19/11/1 20/6/1
f 21/10/1 22/12/1 23/13/1 24/11/1
f 25/9/1 26/14/1 27/10/1 28/5/1
f 29/14/1 30/15/1 31/12/1 32/10/1
f 33/16/1 34/17/1 35/18/1 36/19/1
f 37/17/1 38/20/1 39/21/1 40/18/1
f 41/22/1 42/23/1 43/17/1 44/16/1
f 45/23/1 46/24/1 47/20/1 48/17/1
f 49/16/1 50/17/1 51/18/1 52/19/1
f 53/17/1 54/20/1 55/21/1 56/18/1
f 57/22/1 58/23/1 59/17/1 60/16/1
f 61/23/1 62/24/1 63/20/1 64/17/1
f 65/16/1 66/25/1 67/26/1 68/19/1
f 69/25/1 70/27/1 71/28/1 72/26/1
f 73/22/1 74/29/1 75/25/1 76/16/1
f 77/29/1 78/30/1 79/27/1 80/25/1
f 81/1/1 82/2/1 83/3/1 84/4/1
f 85/2/1 86/5/1 87/6/1 88/3/1
f 89/7/1 90/8/1 91/2/1 92/1/1
f 93/8/1 94/9/1 95/5/1 96/2/1

