# Tiled2Unity generated file. Do not modify by hand.
# Wavefront file for 'Level01-BOSS_mesh_0006.obj'

# Vertices (Count = 128)
v -6 -8.25 0
v -6.75 -8.25 0
v -6.75 -7.5 0
v -6 -7.5 0
v -17.25 -8.25 0
v -18 -8.25 0
v -18 -7.5 0
v -17.25 -7.5 0
v -6 -9 0
v -6.75 -9 0
v -6.75 -8.25 0
v -6 -8.25 0
v -6.75 -9 0
v -7.5 -9 0
v -7.5 -8.25 0
v -6.75 -8.25 0
v -16.5 -9 0
v -17.25 -9 0
v -17.25 -8.25 0
v -16.5 -8.25 0
v -17.25 -9 0
v -18 -9 0
v -18 -8.25 0
v -17.25 -8.25 0
v -6.75 -9.75 0
v -7.5 -9.75 0
v -7.5 -9 0
v -6.75 -9 0
v -7.5 -9.75 0
v -8.25 -9.75 0
v -8.25 -9 0
v -7.5 -9 0
v -8.25 -9.75 0
v -9 -9.75 0
v -9 -9 0
v -8.25 -9 0
v -15 -9.75 0
v -15.75 -9.75 0
v -15.75 -9 0
v -15 -9 0
v -15.75 -9.75 0
v -16.5 -9.75 0
v -16.5 -9 0
v -15.75 -9 0
v -16.5 -9.75 0
v -17.25 -9.75 0
v -17.25 -9 0
v -16.5 -9 0
v -7.5 -10.5 0
v -8.25 -10.5 0
v -8.25 -9.75 0
v -7.5 -9.75 0
v -8.25 -10.5 0
v -9 -10.5 0
v -9 -9.75 0
v -8.25 -9.75 0
v -9 -10.5 0
v -9.75 -10.5 0
v -9.75 -9.75 0
v -9 -9.75 0
v -9.75 -10.5 0
v -10.5 -10.5 0
v -10.5 -9.75 0
v -9.75 -9.75 0
v -13.5 -10.5 0
v -14.25 -10.5 0
v -14.25 -9.75 0
v -13.5 -9.75 0
v -14.25 -10.5 0
v -15 -10.5 0
v -15 -9.75 0
v -14.25 -9.75 0
v -15 -10.5 0
v -15.75 -10.5 0
v -15.75 -9.75 0
v -15 -9.75 0
v -15.75 -10.5 0
v -16.5 -10.5 0
v -16.5 -9.75 0
v -15.75 -9.75 0
v -9 -11.25 0
v -9.75 -11.25 0
v -9.75 -10.5 0
v -9 -10.5 0
v -9.75 -11.25 0
v -10.5 -11.25 0
v -10.5 -10.5 0
v -9.75 -10.5 0
v -10.5 -11.25 0
v -11.25 -11.25 0
v -11.25 -10.5 0
v -10.5 -10.5 0
v -11.25 -11.25 0
v -12 -11.25 0
v -12 -10.5 0
v -11.25 -10.5 0
v -12 -11.25 0
v -12.75 -11.25 0
v -12.75 -10.5 0
v -12 -10.5 0
v -12.75 -11.25 0
v -13.5 -11.25 0
v -13.5 -10.5 0
v -12.75 -10.5 0
v -13.5 -11.25 0
v -14.25 -11.25 0
v -14.25 -10.5 0
v -13.5 -10.5 0
v -14.25 -11.25 0
v -15 -11.25 0
v -15 -10.5 0
v -14.25 -10.5 0
v -10.5 -12 0
v -11.25 -12 0
v -11.25 -11.25 0
v -10.5 -11.25 0
v -11.25 -12 0
v -12 -12 0
v -12 -11.25 0
v -11.25 -11.25 0
v -12 -12 0
v -12.75 -12 0
v -12.75 -11.25 0
v -12 -11.25 0
v -12.75 -12 0
v -13.5 -12 0
v -13.5 -11.25 0
v -12.75 -11.25 0

# Texture cooridinates (Count = 20)
vt 0 0.7666667
vt 0.03125 0.7666667
vt 0.03125 0.8
vt 0 0.8
vt 0.09375 0.7666667
vt 0.125 0.7666667
vt 0.125 0.8
vt 0.09375 0.8
vt 0 0.6666667
vt 0.03125 0.6666667
vt 0.03125 0.7
vt 0 0.7
vt 0.09375 0.6666667
vt 0.125 0.6666667
vt 0.125 0.7
vt 0.09375 0.7
vt 0.0625 0.7666667
vt 0.0625 0.8
vt 0.0625 0.6666667
vt 0.0625 0.7

# Normal
vn 0 0 -1

# Mesh description
g Level01-BOSS_mesh_0006

# Faces
f 1/1/1 2/2/1 3/3/1 4/4/1
f 5/5/1 6/6/1 7/7/1 8/8/1
f 9/9/1 10/10/1 11/11/1 12/12/1
f 13/1/1 14/2/1 15/3/1 16/4/1
f 17/5/1 18/6/1 19/7/1 20/8/1
f 21/13/1 22/14/1 23/15/1 24/16/1
f 25/9/1 26/10/1 27/11/1 28/12/1
f 29/1/1 30/2/1 31/3/1 32/4/1
f 33/2/1 34/17/1 35/18/1 36/3/1
f 37/17/1 38/5/1 39/8/1 40/18/1
f 41/5/1 42/6/1 43/7/1 44/8/1
f 45/13/1 46/14/1 47/15/1 48/16/1
f 49/9/1 50/10/1 51/11/1 52/12/1
f 53/10/1 54/19/1 55/20/1 56/11/1
f 57/1/1 58/2/1 59/3/1 60/4/1
f 61/2/1 62/17/1 63/18/1 64/3/1
f 65/17/1 66/5/1 67/8/1 68/18/1
f 69/5/1 70/6/1 71/7/1 72/8/1
f 73/19/1 74/13/1 75/16/1 76/20/1
f 77/13/1 78/14/1 79/15/1 80/16/1
f 81/9/1 82/10/1 83/11/1 84/12/1
f 85/10/1 86/19/1 87/20/1 88/11/1
f 89/1/1 90/2/1 91/3/1 92/4/1
f 93/2/1 94/17/1 95/18/1 96/3/1
f 97/17/1 98/5/1 99/8/1 100/18/1
f 101/5/1 102/6/1 103/7/1 104/8/1
f 105/19/1 106/13/1 107/16/1 108/20/1
f 109/13/1 110/14/1 111/15/1 112/16/1
f 113/9/1 114/10/1 115/11/1 116/12/1
f 117/10/1 118/19/1 119/20/1 120/11/1
f 121/19/1 122/13/1 123/16/1 124/20/1
f 125/13/1 126/14/1 127/15/1 128/16/1

