# Tiled2Unity generated file. Do not modify by hand.
# Wavefront file for 'Level01-BOSS_mesh_0007.obj'

# Vertices (Count = 24)
v -18 -3 0
v -18.75 -3 0
v -18.75 -2.25 0
v -18 -2.25 0
v -18.75 -3 0
v -19.5 -3 0
v -19.5 -2.25 0
v -18.75 -2.25 0
v -19.5 -3 0
v -20.25 -3 0
v -20.25 -2.25 0
v -19.5 -2.25 0
v -20.25 -3 0
v -21 -3 0
v -21 -2.25 0
v -20.25 -2.25 0
v -2.25 -3.75 0
v -3 -3.75 0
v -3 -3 0
v -2.25 -3 0
v -21 -3.75 0
v -21.75 -3.75 0
v -21.75 -3 0
v -21 -3 0

# Texture cooridinates (Count = 10)
vt 0.875 0.7333333
vt 0.90625 0.7333333
vt 0.90625 0.7666667
vt 0.875 0.7666667
vt 0.9375 0.7333333
vt 0.9375 0.7666667
vt 0.96875 0.7333333
vt 0.96875 0.7666667
vt 1 0.7333333
vt 1 0.7666667

# Normal
vn 0 0 -1

# Mesh description
g Level01-BOSS_mesh_0007

# Faces
f 1/1/1 2/2/1 3/3/1 4/4/1
f 5/2/1 6/5/1 7/6/1 8/3/1
f 9/5/1 10/7/1 11/8/1 12/6/1
f 13/2/1 14/5/1 15/6/1 16/3/1
f 17/7/1 18/9/1 19/10/1 20/8/1
f 21/1/1 22/2/1 23/3/1 24/4/1

