# Tiled2Unity generated file. Do not modify by hand.
# Wavefront file for 'Level01-BOSS_mesh_0008.obj'

# Vertices (Count = 288)
v -3 -3.75 0
v -3.75 -3.75 0
v -3.75 -3 0
v -3 -3 0
v -3.75 -3.75 0
v -4.5 -3.75 0
v -4.5 -3 0
v -3.75 -3 0
v -4.5 -3.75 0
v -5.25 -3.75 0
v -5.25 -3 0
v -4.5 -3 0
v -5.25 -3.75 0
v -6 -3.75 0
v -6 -3 0
v -5.25 -3 0
v -18 -3.75 0
v -18.75 -3.75 0
v -18.75 -3 0
v -18 -3 0
v -18.75 -3.75 0
v -19.5 -3.75 0
v -19.5 -3 0
v -18.75 -3 0
v -19.5 -3.75 0
v -20.25 -3.75 0
v -20.25 -3 0
v -19.5 -3 0
v -20.25 -3.75 0
v -21 -3.75 0
v -21 -3 0
v -20.25 -3 0
v -1.5 -4.5 0
v -2.25 -4.5 0
v -2.25 -3.75 0
v -1.5 -3.75 0
v -2.25 -4.5 0
v -3 -4.5 0
v -3 -3.75 0
v -2.25 -3.75 0
v -3 -4.5 0
v -3.75 -4.5 0
v -3.75 -3.75 0
v -3 -3.75 0
v -3.75 -4.5 0
v -4.5 -4.5 0
v -4.5 -3.75 0
v -3.75 -3.75 0
v -4.5 -4.5 0
v -5.25 -4.5 0
v -5.25 -3.75 0
v -4.5 -3.75 0
v -5.25 -4.5 0
v -6 -4.5 0
v -6 -3.75 0
v -5.25 -3.75 0
v -18 -4.5 0
v -18.75 -4.5 0
v -18.75 -3.75 0
v -18 -3.75 0
v -18.75 -4.5 0
v -19.5 -4.5 0
v -19.5 -3.75 0
v -18.75 -3.75 0
v -19.5 -4.5 0
v -20.25 -4.5 0
v -20.25 -3.75 0
v -19.5 -3.75 0
v -20.25 -4.5 0
v -21 -4.5 0
v -21 -3.75 0
v -20.25 -3.75 0
v -21 -4.5 0
v -21.75 -4.5 0
v -21.75 -3.75 0
v -21 -3.75 0
v -21.75 -4.5 0
v -22.5 -4.5 0
v -22.5 -3.75 0
v -21.75 -3.75 0
v -1.5 -5.25 0
v -2.25 -5.25 0
v -2.25 -4.5 0
v -1.5 -4.5 0
v -2.25 -5.25 0
v -3 -5.25 0
v -3 -4.5 0
v -2.25 -4.5 0
v -3 -5.25 0
v -3.75 -5.25 0
v -3.75 -4.5 0
v -3 -4.5 0
v -3.75 -5.25 0
v -4.5 -5.25 0
v -4.5 -4.5 0
v -3.75 -4.5 0
v -4.5 -5.25 0
v -5.25 -5.25 0
v -5.25 -4.5 0
v -4.5 -4.5 0
v -5.25 -5.25 0
v -6 -5.25 0
v -6 -4.5 0
v -5.25 -4.5 0
v -18 -5.25 0
v -18.75 -5.25 0
v -18.75 -4.5 0
v -18 -4.5 0
v -18.75 -5.25 0
v -19.5 -5.25 0
v -19.5 -4.5 0
v -18.75 -4.5 0
v -19.5 -5.25 0
v -20.25 -5.25 0
v -20.25 -4.5 0
v -19.5 -4.5 0
v -20.25 -5.25 0
v -21 -5.25 0
v -21 -4.5 0
v -20.25 -4.5 0
v -21 -5.25 0
v -21.75 -5.25 0
v -21.75 -4.5 0
v -21 -4.5 0
v -21.75 -5.25 0
v -22.5 -5.25 0
v -22.5 -4.5 0
v -21.75 -4.5 0
v -1.5 -6 0
v -2.25 -6 0
v -2.25 -5.25 0
v -1.5 -5.25 0
v -2.25 -6 0
v -3 -6 0
v -3 -5.25 0
v -2.25 -5.25 0
v -3 -6 0
v -3.75 -6 0
v -3.75 -5.25 0
v -3 -5.25 0
v -3.75 -6 0
v -4.5 -6 0
v -4.5 -5.25 0
v -3.75 -5.25 0
v -4.5 -6 0
v -5.25 -6 0
v -5.25 -5.25 0
v -4.5 -5.25 0
v -5.25 -6 0
v -6 -6 0
v -6 -5.25 0
v -5.25 -5.25 0
v -18 -6 0
v -18.75 -6 0
v -18.75 -5.25 0
v -18 -5.25 0
v -18.75 -6 0
v -19.5 -6 0
v -19.5 -5.25 0
v -18.75 -5.25 0
v -19.5 -6 0
v -20.25 -6 0
v -20.25 -5.25 0
v -19.5 -5.25 0
v -20.25 -6 0
v -21 -6 0
v -21 -5.25 0
v -20.25 -5.25 0
v -21 -6 0
v -21.75 -6 0
v -21.75 -5.25 0
v -21 -5.25 0
v -21.75 -6 0
v -22.5 -6 0
v -22.5 -5.25 0
v -21.75 -5.25 0
v -1.5 -6.75 0
v -2.25 -6.75 0
v -2.25 -6 0
v -1.5 -6 0
v -2.25 -6.75 0
v -3 -6.75 0
v -3 -6 0
v -2.25 -6 0
v -3 -6.75 0
v -3.75 -6.75 0
v -3.75 -6 0
v -3 -6 0
v -3.75 -6.75 0
v -4.5 -6.75 0
v -4.5 -6 0
v -3.75 -6 0
v -4.5 -6.75 0
v -5.25 -6.75 0
v -5.25 -6 0
v -4.5 -6 0
v -5.25 -6.75 0
v -6 -6.75 0
v -6 -6 0
v -5.25 -6 0
v -18 -6.75 0
v -18.75 -6.75 0
v -18.75 -6 0
v -18 -6 0
v -18.75 -6.75 0
v -19.5 -6.75 0
v -19.5 -6 0
v -18.75 -6 0
v -19.5 -6.75 0
v -20.25 -6.75 0
v -20.25 -6 0
v -19.5 -6 0
v -20.25 -6.75 0
v -21 -6.75 0
v -21 -6 0
v -20.25 -6 0
v -21 -6.75 0
v -21.75 -6.75 0
v -21.75 -6 0
v -21 -6 0
v -21.75 -6.75 0
v -22.5 -6.75 0
v -22.5 -6 0
v -21.75 -6 0
v -1.5 -7.5 0
v -2.25 -7.5 0
v -2.25 -6.75 0
v -1.5 -6.75 0
v -2.25 -7.5 0
v -3 -7.5 0
v -3 -6.75 0
v -2.25 -6.75 0
v -3 -7.5 0
v -3.75 -7.5 0
v -3.75 -6.75 0
v -3 -6.75 0
v -3.75 -7.5 0
v -4.5 -7.5 0
v -4.5 -6.75 0
v -3.75 -6.75 0
v -4.5 -7.5 0
v -5.25 -7.5 0
v -5.25 -6.75 0
v -4.5 -6.75 0
v -5.25 -7.5 0
v -6 -7.5 0
v -6 -6.75 0
v -5.25 -6.75 0
v -18 -7.5 0
v -18.75 -7.5 0
v -18.75 -6.75 0
v -18 -6.75 0
v -18.75 -7.5 0
v -19.5 -7.5 0
v -19.5 -6.75 0
v -18.75 -6.75 0
v -19.5 -7.5 0
v -20.25 -7.5 0
v -20.25 -6.75 0
v -19.5 -6.75 0
v -20.25 -7.5 0
v -21 -7.5 0
v -21 -6.75 0
v -20.25 -6.75 0
v -21 -7.5 0
v -21.75 -7.5 0
v -21.75 -6.75 0
v -21 -6.75 0
v -21.75 -7.5 0
v -22.5 -7.5 0
v -22.5 -6.75 0
v -21.75 -6.75 0
v -1.5 -8.25 0
v -2.25 -8.25 0
v -2.25 -7.5 0
v -1.5 -7.5 0
v -2.25 -8.25 0
v -3 -8.25 0
v -3 -7.5 0
v -2.25 -7.5 0
v -21 -8.25 0
v -21.75 -8.25 0
v -21.75 -7.5 0
v -21 -7.5 0
v -21.75 -8.25 0
v -22.5 -8.25 0
v -22.5 -7.5 0
v -21.75 -7.5 0

# Texture cooridinates (Count = 19)
vt 0.78125 0.7666667
vt 0.8125 0.7666667
vt 0.8125 0.8
vt 0.78125 0.8
vt 0.84375 0.7666667
vt 0.84375 0.8
vt 0.75 0.7
vt 0.78125 0.7
vt 0.78125 0.7333333
vt 0.75 0.7333333
vt 0.8125 0.7
vt 0.8125 0.7333333
vt 0.84375 0.7
vt 0.84375 0.7333333
vt 0.75 0.7666667
vt 0.78125 0.6666667
vt 0.8125 0.6666667
vt 0.84375 0.6666667
vt 0.75 0.6666667

# Normal
vn 0 0 -1

# Mesh description
g Level01-BOSS_mesh_0008

# Faces
f 1/1/1 2/2/1 3/3/1 4/4/1
f 5/2/1 6/5/1 7/6/1 8/3/1
f 9/1/1 10/2/1 11/3/1 12/4/1
f 13/2/1 14/5/1 15/6/1 16/3/1
f 17/7/1 18/8/1 19/9/1 20/10/1
f 21/8/1 22/11/1 23/12/1 24/9/1
f 25/11/1 26/13/1 27/14/1 28/12/1
f 29/8/1 30/11/1 31/12/1 32/9/1
f 33/1/1 34/2/1 35/3/1 36/4/1
f 37/2/1 38/5/1 39/6/1 40/3/1
f 41/9/1 42/12/1 43/2/1 44/1/1
f 45/12/1 46/14/1 47/5/1 48/2/1
f 49/9/1 50/12/1 51/2/1 52/1/1
f 53/12/1 54/14/1 55/5/1 56/2/1
f 57/10/1 58/9/1 59/1/1 60/15/1
f 61/9/1 62/12/1 63/2/1 64/1/1
f 65/12/1 66/14/1 67/5/1 68/2/1
f 69/9/1 70/12/1 71/2/1 72/1/1
f 73/7/1 74/8/1 75/9/1 76/10/1
f 77/8/1 78/11/1 79/12/1 80/9/1
f 81/9/1 82/12/1 83/2/1 84/1/1
f 85/12/1 86/14/1 87/5/1 88/2/1
f 89/8/1 90/11/1 91/12/1 92/9/1
f 93/11/1 94/13/1 95/14/1 96/12/1
f 97/8/1 98/11/1 99/12/1 100/9/1
f 101/11/1 102/13/1 103/14/1 104/12/1
f 105/7/1 106/8/1 107/9/1 108/10/1
f 109/8/1 110/11/1 111/12/1 112/9/1
f 113/11/1 114/13/1 115/14/1 116/12/1
f 117/8/1 118/11/1 119/12/1 120/9/1
f 121/10/1 122/9/1 123/1/1 124/15/1
f 125/9/1 126/12/1 127/2/1 128/1/1
f 129/8/1 130/11/1 131/12/1 132/9/1
f 133/11/1 134/13/1 135/14/1 136/12/1
f 137/9/1 138/12/1 139/2/1 140/1/1
f 141/12/1 142/14/1 143/5/1 144/2/1
f 145/9/1 146/12/1 147/2/1 148/1/1
f 149/12/1 150/14/1 151/5/1 152/2/1
f 153/10/1 154/9/1 155/1/1 156/15/1
f 157/9/1 158/12/1 159/2/1 160/1/1
f 161/12/1 162/14/1 163/5/1 164/2/1
f 165/9/1 166/12/1 167/2/1 168/1/1
f 169/7/1 170/8/1 171/9/1 172/10/1
f 173/8/1 174/11/1 175/12/1 176/9/1
f 177/9/1 178/12/1 179/2/1 180/1/1
f 181/12/1 182/14/1 183/5/1 184/2/1
f 185/8/1 186/11/1 187/12/1 188/9/1
f 189/11/1 190/13/1 191/14/1 192/12/1
f 193/8/1 194/11/1 195/12/1 196/9/1
f 197/11/1 198/13/1 199/14/1 200/12/1
f 201/7/1 202/8/1 203/9/1 204/10/1
f 205/8/1 206/11/1 207/12/1 208/9/1
f 209/11/1 210/13/1 211/14/1 212/12/1
f 213/8/1 214/11/1 215/12/1 216/9/1
f 217/10/1 218/9/1 219/1/1 220/15/1
f 221/9/1 222/12/1 223/2/1 224/1/1
f 225/8/1 226/11/1 227/12/1 228/9/1
f 229/11/1 230/13/1 231/14/1 232/12/1
f 233/16/1 234/17/1 235/11/1 236/8/1
f 237/17/1 238/18/1 239/13/1 240/11/1
f 241/16/1 242/17/1 243/11/1 244/8/1
f 245/17/1 246/18/1 247/13/1 248/11/1
f 249/19/1 250/16/1 251/8/1 252/7/1
f 253/16/1 254/17/1 255/11/1 256/8/1
f 257/17/1 258/18/1 259/13/1 260/11/1
f 261/16/1 262/17/1 263/11/1 264/8/1
f 265/7/1 266/8/1 267/9/1 268/10/1
f 269/8/1 270/11/1 271/12/1 272/9/1
f 273/16/1 274/17/1 275/11/1 276/8/1
f 277/17/1 278/18/1 279/13/1 280/11/1
f 281/19/1 282/16/1 283/8/1 284/7/1
f 285/16/1 286/17/1 287/11/1 288/8/1

