# Tiled2Unity generated file. Do not modify by hand.
# Wavefront file for 'Level01-BOSS_mesh_0009.obj'

# Vertices (Count = 408)
v -6 -5.25 0
v -6.75 -5.25 0
v -6.75 -4.5 0
v -6 -4.5 0
v -6.75 -5.25 0
v -7.5 -5.25 0
v -7.5 -4.5 0
v -6.75 -4.5 0
v -7.5 -5.25 0
v -8.25 -5.25 0
v -8.25 -4.5 0
v -7.5 -4.5 0
v -8.25 -5.25 0
v -9 -5.25 0
v -9 -4.5 0
v -8.25 -4.5 0
v -9 -5.25 0
v -9.75 -5.25 0
v -9.75 -4.5 0
v -9 -4.5 0
v -9.75 -5.25 0
v -10.5 -5.25 0
v -10.5 -4.5 0
v -9.75 -4.5 0
v -10.5 -5.25 0
v -11.25 -5.25 0
v -11.25 -4.5 0
v -10.5 -4.5 0
v -11.25 -5.25 0
v -12 -5.25 0
v -12 -4.5 0
v -11.25 -4.5 0
v -12 -5.25 0
v -12.75 -5.25 0
v -12.75 -4.5 0
v -12 -4.5 0
v -12.75 -5.25 0
v -13.5 -5.25 0
v -13.5 -4.5 0
v -12.75 -4.5 0
v -13.5 -5.25 0
v -14.25 -5.25 0
v -14.25 -4.5 0
v -13.5 -4.5 0
v -14.25 -5.25 0
v -15 -5.25 0
v -15 -4.5 0
v -14.25 -4.5 0
v -15 -5.25 0
v -15.75 -5.25 0
v -15.75 -4.5 0
v -15 -4.5 0
v -15.75 -5.25 0
v -16.5 -5.25 0
v -16.5 -4.5 0
v -15.75 -4.5 0
v -16.5 -5.25 0
v -17.25 -5.25 0
v -17.25 -4.5 0
v -16.5 -4.5 0
v -17.25 -5.25 0
v -18 -5.25 0
v -18 -4.5 0
v -17.25 -4.5 0
v -6 -6 0
v -6.75 -6 0
v -6.75 -5.25 0
v -6 -5.25 0
v -6.75 -6 0
v -7.5 -6 0
v -7.5 -5.25 0
v -6.75 -5.25 0
v -7.5 -6 0
v -8.25 -6 0
v -8.25 -5.25 0
v -7.5 -5.25 0
v -8.25 -6 0
v -9 -6 0
v -9 -5.25 0
v -8.25 -5.25 0
v -9 -6 0
v -9.75 -6 0
v -9.75 -5.25 0
v -9 -5.25 0
v -9.75 -6 0
v -10.5 -6 0
v -10.5 -5.25 0
v -9.75 -5.25 0
v -10.5 -6 0
v -11.25 -6 0
v -11.25 -5.25 0
v -10.5 -5.25 0
v -11.25 -6 0
v -12 -6 0
v -12 -5.25 0
v -11.25 -5.25 0
v -12 -6 0
v -12.75 -6 0
v -12.75 -5.25 0
v -12 -5.25 0
v -12.75 -6 0
v -13.5 -6 0
v -13.5 -5.25 0
v -12.75 -5.25 0
v -13.5 -6 0
v -14.25 -6 0
v -14.25 -5.25 0
v -13.5 -5.25 0
v -14.25 -6 0
v -15 -6 0
v -15 -5.25 0
v -14.25 -5.25 0
v -15 -6 0
v -15.75 -6 0
v -15.75 -5.25 0
v -15 -5.25 0
v -15.75 -6 0
v -16.5 -6 0
v -16.5 -5.25 0
v -15.75 -5.25 0
v -16.5 -6 0
v -17.25 -6 0
v -17.25 -5.25 0
v -16.5 -5.25 0
v -17.25 -6 0
v -18 -6 0
v -18 -5.25 0
v -17.25 -5.25 0
v -6 -6.75 0
v -6.75 -6.75 0
v -6.75 -6 0
v -6 -6 0
v -6.75 -6.75 0
v -7.5 -6.75 0
v -7.5 -6 0
v -6.75 -6 0
v -7.5 -6.75 0
v -8.25 -6.75 0
v -8.25 -6 0
v -7.5 -6 0
v -8.25 -6.75 0
v -9 -6.75 0
v -9 -6 0
v -8.25 -6 0
v -9 -6.75 0
v -9.75 -6.75 0
v -9.75 -6 0
v -9 -6 0
v -9.75 -6.75 0
v -10.5 -6.75 0
v -10.5 -6 0
v -9.75 -6 0
v -10.5 -6.75 0
v -11.25 -6.75 0
v -11.25 -6 0
v -10.5 -6 0
v -11.25 -6.75 0
v -12 -6.75 0
v -12 -6 0
v -11.25 -6 0
v -12 -6.75 0
v -12.75 -6.75 0
v -12.75 -6 0
v -12 -6 0
v -12.75 -6.75 0
v -13.5 -6.75 0
v -13.5 -6 0
v -12.75 -6 0
v -13.5 -6.75 0
v -14.25 -6.75 0
v -14.25 -6 0
v -13.5 -6 0
v -14.25 -6.75 0
v -15 -6.75 0
v -15 -6 0
v -14.25 -6 0
v -15 -6.75 0
v -15.75 -6.75 0
v -15.75 -6 0
v -15 -6 0
v -15.75 -6.75 0
v -16.5 -6.75 0
v -16.5 -6 0
v -15.75 -6 0
v -16.5 -6.75 0
v -17.25 -6.75 0
v -17.25 -6 0
v -16.5 -6 0
v -17.25 -6.75 0
v -18 -6.75 0
v -18 -6 0
v -17.25 -6 0
v -6 -7.5 0
v -6.75 -7.5 0
v -6.75 -6.75 0
v -6 -6.75 0
v -6.75 -7.5 0
v -7.5 -7.5 0
v -7.5 -6.75 0
v -6.75 -6.75 0
v -7.5 -7.5 0
v -8.25 -7.5 0
v -8.25 -6.75 0
v -7.5 -6.75 0
v -8.25 -7.5 0
v -9 -7.5 0
v -9 -6.75 0
v -8.25 -6.75 0
v -9 -7.5 0
v -9.75 -7.5 0
v -9.75 -6.75 0
v -9 -6.75 0
v -9.75 -7.5 0
v -10.5 -7.5 0
v -10.5 -6.75 0
v -9.75 -6.75 0
v -10.5 -7.5 0
v -11.25 -7.5 0
v -11.25 -6.75 0
v -10.5 -6.75 0
v -11.25 -7.5 0
v -12 -7.5 0
v -12 -6.75 0
v -11.25 -6.75 0
v -12 -7.5 0
v -12.75 -7.5 0
v -12.75 -6.75 0
v -12 -6.75 0
v -12.75 -7.5 0
v -13.5 -7.5 0
v -13.5 -6.75 0
v -12.75 -6.75 0
v -13.5 -7.5 0
v -14.25 -7.5 0
v -14.25 -6.75 0
v -13.5 -6.75 0
v -14.25 -7.5 0
v -15 -7.5 0
v -15 -6.75 0
v -14.25 -6.75 0
v -15 -7.5 0
v -15.75 -7.5 0
v -15.75 -6.75 0
v -15 -6.75 0
v -15.75 -7.5 0
v -16.5 -7.5 0
v -16.5 -6.75 0
v -15.75 -6.75 0
v -16.5 -7.5 0
v -17.25 -7.5 0
v -17.25 -6.75 0
v -16.5 -6.75 0
v -17.25 -7.5 0
v -18 -7.5 0
v -18 -6.75 0
v -17.25 -6.75 0
v -6.75 -8.25 0
v -7.5 -8.25 0
v -7.5 -7.5 0
v -6.75 -7.5 0
v -7.5 -8.25 0
v -8.25 -8.25 0
v -8.25 -7.5 0
v -7.5 -7.5 0
v -8.25 -8.25 0
v -9 -8.25 0
v -9 -7.5 0
v -8.25 -7.5 0
v -9 -8.25 0
v -9.75 -8.25 0
v -9.75 -7.5 0
v -9 -7.5 0
v -9.75 -8.25 0
v -10.5 -8.25 0
v -10.5 -7.5 0
v -9.75 -7.5 0
v -10.5 -8.25 0
v -11.25 -8.25 0
v -11.25 -7.5 0
v -10.5 -7.5 0
v -11.25 -8.25 0
v -12 -8.25 0
v -12 -7.5 0
v -11.25 -7.5 0
v -12 -8.25 0
v -12.75 -8.25 0
v -12.75 -7.5 0
v -12 -7.5 0
v -12.75 -8.25 0
v -13.5 -8.25 0
v -13.5 -7.5 0
v -12.75 -7.5 0
v -13.5 -8.25 0
v -14.25 -8.25 0
v -14.25 -7.5 0
v -13.5 -7.5 0
v -14.25 -8.25 0
v -15 -8.25 0
v -15 -7.5 0
v -14.25 -7.5 0
v -15 -8.25 0
v -15.75 -8.25 0
v -15.75 -7.5 0
v -15 -7.5 0
v -15.75 -8.25 0
v -16.5 -8.25 0
v -16.5 -7.5 0
v -15.75 -7.5 0
v -16.5 -8.25 0
v -17.25 -8.25 0
v -17.25 -7.5 0
v -16.5 -7.5 0
v -7.5 -9 0
v -8.25 -9 0
v -8.25 -8.25 0
v -7.5 -8.25 0
v -8.25 -9 0
v -9 -9 0
v -9 -8.25 0
v -8.25 -8.25 0
v -9 -9 0
v -9.75 -9 0
v -9.75 -8.25 0
v -9 -8.25 0
v -9.75 -9 0
v -10.5 -9 0
v -10.5 -8.25 0
v -9.75 -8.25 0
v -10.5 -9 0
v -11.25 -9 0
v -11.25 -8.25 0
v -10.5 -8.25 0
v -11.25 -9 0
v -12 -9 0
v -12 -8.25 0
v -11.25 -8.25 0
v -12 -9 0
v -12.75 -9 0
v -12.75 -8.25 0
v -12 -8.25 0
v -12.75 -9 0
v -13.5 -9 0
v -13.5 -8.25 0
v -12.75 -8.25 0
v -13.5 -9 0
v -14.25 -9 0
v -14.25 -8.25 0
v -13.5 -8.25 0
v -14.25 -9 0
v -15 -9 0
v -15 -8.25 0
v -14.25 -8.25 0
v -15 -9 0
v -15.75 -9 0
v -15.75 -8.25 0
v -15 -8.25 0
v -15.75 -9 0
v -16.5 -9 0
v -16.5 -8.25 0
v -15.75 -8.25 0
v -9 -9.75 0
v -9.75 -9.75 0
v -9.75 -9 0
v -9 -9 0
v -9.75 -9.75 0
v -10.5 -9.75 0
v -10.5 -9 0
v -9.75 -9 0
v -10.5 -9.75 0
v -11.25 -9.75 0
v -11.25 -9 0
v -10.5 -9 0
v -11.25 -9.75 0
v -12 -9.75 0
v -12 -9 0
v -11.25 -9 0
v -12 -9.75 0
v -12.75 -9.75 0
v -12.75 -9 0
v -12 -9 0
v -12.75 -9.75 0
v -13.5 -9.75 0
v -13.5 -9 0
v -12.75 -9 0
v -13.5 -9.75 0
v -14.25 -9.75 0
v -14.25 -9 0
v -13.5 -9 0
v -14.25 -9.75 0
v -15 -9.75 0
v -15 -9 0
v -14.25 -9 0
v -10.5 -10.5 0
v -11.25 -10.5 0
v -11.25 -9.75 0
v -10.5 -9.75 0
v -11.25 -10.5 0
v -12 -10.5 0
v -12 -9.75 0
v -11.25 -9.75 0
v -12 -10.5 0
v -12.75 -10.5 0
v -12.75 -9.75 0
v -12 -9.75 0
v -12.75 -10.5 0
v -13.5 -10.5 0
v -13.5 -9.75 0
v -12.75 -9.75 0

# Texture cooridinates (Count = 26)
vt 0 0.8333333
vt 0.03125 0.8333333
vt 0.03125 0.8666667
vt 0 0.8666667
vt 0.0625 0.8333333
vt 0.0625 0.8666667
vt 0.09375 0.8333333
vt 0.09375 0.8666667
vt 0.125 0.8333333
vt 0.125 0.8666667
vt 0.03125 0.9
vt 0 0.9
vt 0.0625 0.9
vt 0.09375 0.9
vt 0.125 0.9
vt 0 0.8
vt 0.03125 0.8
vt 0.0625 0.9333333
vt 0.09375 0.9333333
vt 0.09375 0.9666666
vt 0.0625 0.9666666
vt 0.09375 0.8
vt 0.125 0.8
vt 0.125 0.9333333
vt 0.125 0.9666666
vt 0.0625 0.8

# Normal
vn 0 0 -1

# Mesh description
g Level01-BOSS_mesh_0009

# Faces
f 1/1/1 2/2/1 3/3/1 4/4/1
f 5/2/1 6/5/1 7/6/1 8/3/1
f 9/5/1 10/7/1 11/8/1 12/6/1
f 13/2/1 14/5/1 15/6/1 16/3/1
f 17/5/1 18/7/1 19/8/1 20/6/1
f 21/2/1 22/5/1 23/6/1 24/3/1
f 25/5/1 26/7/1 27/8/1 28/6/1
f 29/2/1 30/5/1 31/6/1 32/3/1
f 33/5/1 34/7/1 35/8/1 36/6/1
f 37/2/1 38/5/1 39/6/1 40/3/1
f 41/5/1 42/7/1 43/8/1 44/6/1
f 45/2/1 46/5/1 47/6/1 48/3/1
f 49/5/1 50/7/1 51/8/1 52/6/1
f 53/2/1 54/5/1 55/6/1 56/3/1
f 57/5/1 58/7/1 59/8/1 60/6/1
f 61/7/1 62/9/1 63/10/1 64/8/1
f 65/4/1 66/3/1 67/11/1 68/12/1
f 69/3/1 70/6/1 71/13/1 72/11/1
f 73/6/1 74/8/1 75/14/1 76/13/1
f 77/3/1 78/6/1 79/13/1 80/11/1
f 81/6/1 82/8/1 83/14/1 84/13/1
f 85/3/1 86/6/1 87/13/1 88/11/1
f 89/6/1 90/8/1 91/14/1 92/13/1
f 93/3/1 94/6/1 95/13/1 96/11/1
f 97/6/1 98/8/1 99/14/1 100/13/1
f 101/3/1 102/6/1 103/13/1 104/11/1
f 105/6/1 106/8/1 107/14/1 108/13/1
f 109/3/1 110/6/1 111/13/1 112/11/1
f 113/6/1 114/8/1 115/14/1 116/13/1
f 117/3/1 118/6/1 119/13/1 120/11/1
f 121/6/1 122/8/1 123/14/1 124/13/1
f 125/8/1 126/10/1 127/15/1 128/14/1
f 129/1/1 130/2/1 131/3/1 132/4/1
f 133/2/1 134/5/1 135/6/1 136/3/1
f 137/5/1 138/7/1 139/8/1 140/6/1
f 141/2/1 142/5/1 143/6/1 144/3/1
f 145/5/1 146/7/1 147/8/1 148/6/1
f 149/2/1 150/5/1 151/6/1 152/3/1
f 153/5/1 154/7/1 155/8/1 156/6/1
f 157/2/1 158/5/1 159/6/1 160/3/1
f 161/5/1 162/7/1 163/8/1 164/6/1
f 165/2/1 166/5/1 167/6/1 168/3/1
f 169/5/1 170/7/1 171/8/1 172/6/1
f 173/2/1 174/5/1 175/6/1 176/3/1
f 177/5/1 178/7/1 179/8/1 180/6/1
f 181/2/1 182/5/1 183/6/1 184/3/1
f 185/5/1 186/7/1 187/8/1 188/6/1
f 189/7/1 190/9/1 191/10/1 192/8/1
f 193/16/1 194/17/1 195/2/1 196/1/1
f 197/18/1 198/19/1 199/20/1 200/21/1
f 201/6/1 202/8/1 203/14/1 204/13/1
f 205/3/1 206/6/1 207/13/1 208/11/1
f 209/6/1 210/8/1 211/14/1 212/13/1
f 213/3/1 214/6/1 215/13/1 216/11/1
f 217/6/1 218/8/1 219/14/1 220/13/1
f 221/3/1 222/6/1 223/13/1 224/11/1
f 225/6/1 226/8/1 227/14/1 228/13/1
f 229/3/1 230/6/1 231/13/1 232/11/1
f 233/6/1 234/8/1 235/14/1 236/13/1
f 237/3/1 238/6/1 239/13/1 240/11/1
f 241/6/1 242/8/1 243/14/1 244/13/1
f 245/3/1 246/6/1 247/13/1 248/11/1
f 249/6/1 250/8/1 251/14/1 252/13/1
f 253/22/1 254/23/1 255/9/1 256/7/1
f 257/16/1 258/17/1 259/2/1 260/1/1
f 261/18/1 262/19/1 263/20/1 264/21/1
f 265/2/1 266/5/1 267/6/1 268/3/1
f 269/5/1 270/7/1 271/8/1 272/6/1
f 273/2/1 274/5/1 275/6/1 276/3/1
f 277/5/1 278/7/1 279/8/1 280/6/1
f 281/2/1 282/5/1 283/6/1 284/3/1
f 285/5/1 286/7/1 287/8/1 288/6/1
f 289/2/1 290/5/1 291/6/1 292/3/1
f 293/5/1 294/7/1 295/8/1 296/6/1
f 297/2/1 298/5/1 299/6/1 300/3/1
f 301/5/1 302/7/1 303/8/1 304/6/1
f 305/19/1 306/24/1 307/25/1 308/20/1
f 309/22/1 310/23/1 311/9/1 312/7/1
f 313/16/1 314/17/1 315/2/1 316/1/1
f 317/17/1 318/26/1 319/5/1 320/2/1
f 321/18/1 322/19/1 323/20/1 324/21/1
f 325/2/1 326/5/1 327/6/1 328/3/1
f 329/5/1 330/7/1 331/8/1 332/6/1
f 333/3/1 334/6/1 335/13/1 336/11/1
f 337/6/1 338/8/1 339/14/1 340/13/1
f 341/2/1 342/5/1 343/6/1 344/3/1
f 345/5/1 346/7/1 347/8/1 348/6/1
f 349/19/1 350/24/1 351/25/1 352/20/1
f 353/26/1 354/22/1 355/7/1 356/5/1
f 357/22/1 358/23/1 359/9/1 360/7/1
f 361/16/1 362/17/1 363/2/1 364/1/1
f 365/17/1 366/26/1 367/5/1 368/2/1
f 369/18/1 370/19/1 371/20/1 372/21/1
f 373/2/1 374/5/1 375/6/1 376/3/1
f 377/5/1 378/7/1 379/8/1 380/6/1
f 381/19/1 382/24/1 383/25/1 384/20/1
f 385/26/1 386/22/1 387/7/1 388/5/1
f 389/22/1 390/23/1 391/9/1 392/7/1
f 393/16/1 394/17/1 395/2/1 396/1/1
f 397/17/1 398/26/1 399/5/1 400/2/1
f 401/26/1 402/22/1 403/7/1 404/5/1
f 405/22/1 406/23/1 407/9/1 408/7/1

