# Tiled2Unity generated file. Do not modify by hand.
# Wavefront file for 'Level01-BOSS_mesh_0001.obj'

# Vertices (Count = 48)
v -9.75 -21.75 0
v -10.5 -21.75 0
v -10.5 -21 0
v -9.75 -21 0
v -10.5 -21.75 0
v -11.25 -21.75 0
v -11.25 -21 0
v -10.5 -21 0
v -11.25 -21.75 0
v -12 -21.75 0
v -12 -21 0
v -11.25 -21 0
v -12 -21.75 0
v -12.75 -21.75 0
v -12.75 -21 0
v -12 -21 0
v -12.75 -21.75 0
v -13.5 -21.75 0
v -13.5 -21 0
v -12.75 -21 0
v -13.5 -21.75 0
v -14.25 -21.75 0
v -14.25 -21 0
v -13.5 -21 0
v -9.75 -22.5 0
v -10.5 -22.5 0
v -10.5 -21.75 0
v -9.75 -21.75 0
v -10.5 -22.5 0
v -11.25 -22.5 0
v -11.25 -21.75 0
v -10.5 -21.75 0
v -11.25 -22.5 0
v -12 -22.5 0
v -12 -21.75 0
v -11.25 -21.75 0
v -12 -22.5 0
v -12.75 -22.5 0
v -12.75 -21.75 0
v -12 -21.75 0
v -12.75 -22.5 0
v -13.5 -22.5 0
v -13.5 -21.75 0
v -12.75 -21.75 0
v -13.5 -22.5 0
v -14.25 -22.5 0
v -14.25 -21.75 0
v -13.5 -21.75 0

# Texture cooridinates (Count = 9)
vt 0 0.9583333
vt 0.03125 0.9583333
vt 0.03125 1
vt 0 1
vt 0.0625 0.9583333
vt 0.0625 1
vt 0 0.9166667
vt 0.03125 0.9166667
vt 0.0625 0.9166667

# Normal
vn 0 0 -1

# Mesh description
g Level01-BOSS_mesh_0001

# Faces
f 1/1/1 2/2/1 3/3/1 4/4/1
f 5/2/1 6/5/1 7/6/1 8/3/1
f 9/1/1 10/2/1 11/3/1 12/4/1
f 13/2/1 14/5/1 15/6/1 16/3/1
f 17/1/1 18/2/1 19/3/1 20/4/1
f 21/2/1 22/5/1 23/6/1 24/3/1
f 25/7/1 26/8/1 27/2/1 28/1/1
f 29/8/1 30/9/1 31/5/1 32/2/1
f 33/7/1 34/8/1 35/2/1 36/1/1
f 37/8/1 38/9/1 39/5/1 40/2/1
f 41/7/1 42/8/1 43/2/1 44/1/1
f 45/8/1 46/9/1 47/5/1 48/2/1

