# Tiled2Unity generated file. Do not modify by hand.
# Wavefront file for 'Level01-BOSS_mesh_0024.obj'

# Vertices (Count = 28)
v -6.75 -3 0
v -7.5 -3 0
v -7.5 -2.25 0
v -6.75 -2.25 0
v -16.5 -3 0
v -17.25 -3 0
v -17.25 -2.25 0
v -16.5 -2.25 0
v -6.75 -5.25 0
v -7.5 -5.25 0
v -7.5 -4.5 0
v -6.75 -4.5 0
v -15 -6 0
v -15.75 -6 0
v -15.75 -5.25 0
v -15 -5.25 0
v -15.75 -6 0
v -16.5 -6 0
v -16.5 -5.25 0
v -15.75 -5.25 0
v -15 -6.75 0
v -15.75 -6.75 0
v -15.75 -6 0
v -15 -6 0
v -15.75 -6.75 0
v -16.5 -6.75 0
v -16.5 -6 0
v -15.75 -6 0

# Texture cooridinates (Count = 19)
vt 0.78125 0.8125
vt 0.8125 0.8125
vt 0.8125 0.78125
vt 0.78125 0.78125
vt 0.75 0.8125
vt 0.75 0.78125
vt 0.8125 0.6875
vt 0.8125 0.71875
vt 0.78125 0.71875
vt 0.78125 0.6875
vt 0.3125 0.21875
vt 0.34375 0.21875
vt 0.34375 0.25
vt 0.3125 0.25
vt 0.375 0.21875
vt 0.375 0.25
vt 0.3125 0.1875
vt 0.34375 0.1875
vt 0.375 0.1875

# Normal
vn 0 0 -1

# Mesh description
g Level01-BOSS_mesh_0024

# Faces
f 1/1/1 2/2/1 3/3/1 4/4/1
f 5/1/1 6/5/1 7/6/1 8/4/1
f 9/7/1 10/8/1 11/9/1 12/10/1
f 13/11/1 14/12/1 15/13/1 16/14/1
f 17/12/1 18/15/1 19/16/1 20/13/1
f 21/17/1 22/18/1 23/12/1 24/11/1
f 25/18/1 26/19/1 27/15/1 28/12/1

