# Tiled2Unity generated file. Do not modify by hand.
# Wavefront file for 'Level01-BOSS_mesh_0014.obj'

# Vertices (Count = 104)
v -4.5 -9 0
v -5.25 -9 0
v -5.25 -8.25 0
v -4.5 -8.25 0
v -5.25 -9 0
v -6 -9 0
v -6 -8.25 0
v -5.25 -8.25 0
v -2.25 -9.75 0
v -3 -9.75 0
v -3 -9 0
v -2.25 -9 0
v -3 -9.75 0
v -3.75 -9.75 0
v -3.75 -9 0
v -3 -9 0
v -4.5 -9.75 0
v -5.25 -9.75 0
v -5.25 -9 0
v -4.5 -9 0
v -5.25 -9.75 0
v -6 -9.75 0
v -6 -9 0
v -5.25 -9 0
v -2.25 -10.5 0
v -3 -10.5 0
v -3 -9.75 0
v -2.25 -9.75 0
v -3 -10.5 0
v -3.75 -10.5 0
v -3.75 -9.75 0
v -3 -9.75 0
v -2.25 -12 0
v -3 -12 0
v -3 -11.25 0
v -2.25 -11.25 0
v -3 -12 0
v -3.75 -12 0
v -3.75 -11.25 0
v -3 -11.25 0
v -2.25 -12.75 0
v -3 -12.75 0
v -3 -12 0
v -2.25 -12 0
v -3 -12.75 0
v -3.75 -12.75 0
v -3.75 -12 0
v -3 -12 0
v -20.25 -16.5 0
v -21 -16.5 0
v -21 -15.75 0
v -20.25 -15.75 0
v -21 -16.5 0
v -21.75 -16.5 0
v -21.75 -15.75 0
v -21 -15.75 0
v -20.25 -17.25 0
v -21 -17.25 0
v -21 -16.5 0
v -20.25 -16.5 0
v -21 -17.25 0
v -21.75 -17.25 0
v -21.75 -16.5 0
v -21 -16.5 0
v -5.25 -20.25 0
v -6 -20.25 0
v -6 -19.5 0
v -5.25 -19.5 0
v -6 -20.25 0
v -6.75 -20.25 0
v -6.75 -19.5 0
v -6 -19.5 0
v -5.25 -21 0
v -6 -21 0
v -6 -20.25 0
v -5.25 -20.25 0
v -6 -21 0
v -6.75 -21 0
v -6.75 -20.25 0
v -6 -20.25 0
v -15 -21.75 0
v -15.75 -21.75 0
v -15.75 -21 0
v -15 -21 0
v -15.75 -21.75 0
v -16.5 -21.75 0
v -16.5 -21 0
v -15.75 -21 0
v -15 -22.5 0
v -15.75 -22.5 0
v -15.75 -21.75 0
v -15 -21.75 0
v -15.75 -22.5 0
v -16.5 -22.5 0
v -16.5 -21.75 0
v -15.75 -21.75 0
v -18 -22.5 0
v -18.75 -22.5 0
v -18.75 -21.75 0
v -18 -21.75 0
v -18.75 -22.5 0
v -19.5 -22.5 0
v -19.5 -21.75 0
v -18.75 -21.75 0

# Texture cooridinates (Count = 27)
vt 0.1875 0.21875
vt 0.21875 0.21875
vt 0.21875 0.25
vt 0.1875 0.25
vt 0.25 0.21875
vt 0.25 0.25
vt 0.125 0.21875
vt 0.15625 0.21875
vt 0.15625 0.25
vt 0.125 0.25
vt 0.1875 0.1875
vt 0.21875 0.1875
vt 0.25 0.1875
vt 0.125 0.1875
vt 0.15625 0.1875
vt 0.0625 0.21875
vt 0.03125 0.21875
vt 0.03125 0.25
vt 0.0625 0.25
vt 0 0.21875
vt 0 0.25
vt 0.0625 0.1875
vt 0.03125 0.1875
vt 0 0.1875
vt 0.09375 0.21875
vt 0.09375 0.25
vt 0.09375 0.1875

# Normal
vn 0 0 -1

# Mesh description
g Level01-BOSS_mesh_0014

# Faces
f 1/1/1 2/2/1 3/3/1 4/4/1
f 5/2/1 6/5/1 7/6/1 8/3/1
f 9/7/1 10/8/1 11/9/1 12/10/1
f 13/8/1 14/1/1 15/4/1 16/9/1
f 17/11/1 18/12/1 19/2/1 20/1/1
f 21/12/1 22/13/1 23/5/1 24/2/1
f 25/14/1 26/15/1 27/8/1 28/7/1
f 29/15/1 30/11/1 31/1/1 32/8/1
f 33/16/1 34/17/1 35/18/1 36/19/1
f 37/17/1 38/20/1 39/21/1 40/18/1
f 41/22/1 42/23/1 43/17/1 44/16/1
f 45/23/1 46/24/1 47/20/1 48/17/1
f 49/20/1 50/17/1 51/18/1 52/21/1
f 53/17/1 54/16/1 55/19/1 56/18/1
f 57/24/1 58/23/1 59/17/1 60/20/1
f 61/23/1 62/22/1 63/16/1 64/17/1
f 65/16/1 66/25/1 67/26/1 68/19/1
f 69/25/1 70/7/1 71/10/1 72/26/1
f 73/22/1 74/27/1 75/25/1 76/16/1
f 77/27/1 78/14/1 79/7/1 80/25/1
f 81/1/1 82/2/1 83/3/1 84/4/1
f 85/2/1 86/5/1 87/6/1 88/3/1
f 89/11/1 90/12/1 91/2/1 92/1/1
f 93/12/1 94/13/1 95/5/1 96/2/1
f 97/7/1 98/25/1 99/26/1 100/10/1
f 101/25/1 102/16/1 103/19/1 104/26/1

