# Tiled2Unity generated file. Do not modify by hand.
# Wavefront file for 'Level01-B_mesh_0017.obj'

# Vertices (Count = 704)
v -61 -7 0
v -62 -7 0
v -62 -6 0
v -61 -6 0
v -60 -7 0
v -61 -7 0
v -61 -6 0
v -60 -6 0
v -61 -8 0
v -62 -8 0
v -62 -7 0
v -61 -7 0
v -60 -8 0
v -61 -8 0
v -61 -7 0
v -60 -7 0
v -25 -9 0
v -26 -9 0
v -26 -8 0
v -25 -8 0
v -24 -9 0
v -25 -9 0
v -25 -8 0
v -24 -8 0
v -25 -10 0
v -26 -10 0
v -26 -9 0
v -25 -9 0
v -24 -10 0
v -25 -10 0
v -25 -9 0
v -24 -9 0
v -35 -11 0
v -36 -11 0
v -36 -10 0
v -35 -10 0
v -34 -11 0
v -35 -11 0
v -35 -10 0
v -34 -10 0
v -25 -11 0
v -26 -11 0
v -26 -10 0
v -25 -10 0
v -24 -11 0
v -25 -11 0
v -25 -10 0
v -24 -10 0
v -35 -12 0
v -36 -12 0
v -36 -11 0
v -35 -11 0
v -34 -12 0
v -35 -12 0
v -35 -11 0
v -34 -11 0
v -25 -12 0
v -26 -12 0
v -26 -11 0
v -25 -11 0
v -24 -12 0
v -25 -12 0
v -25 -11 0
v -24 -11 0
v -35 -13 0
v -36 -13 0
v -36 -12 0
v -35 -12 0
v -34 -13 0
v -35 -13 0
v -35 -12 0
v -34 -12 0
v -25 -13 0
v -26 -13 0
v -26 -12 0
v -25 -12 0
v -24 -13 0
v -25 -13 0
v -25 -12 0
v -24 -12 0
v -35 -14 0
v -36 -14 0
v -36 -13 0
v -35 -13 0
v -34 -14 0
v -35 -14 0
v -35 -13 0
v -34 -13 0
v -25 -14 0
v -26 -14 0
v -26 -13 0
v -25 -13 0
v -24 -14 0
v -25 -14 0
v -25 -13 0
v -24 -13 0
v -30 -15 0
v -31 -15 0
v -31 -14 0
v -30 -14 0
v -29 -15 0
v -30 -15 0
v -30 -14 0
v -29 -14 0
v -7 -15 0
v -8 -15 0
v -8 -14 0
v -7 -14 0
v -6 -15 0
v -7 -15 0
v -7 -14 0
v -6 -14 0
v -30 -16 0
v -31 -16 0
v -31 -15 0
v -30 -15 0
v -29 -16 0
v -30 -16 0
v -30 -15 0
v -29 -15 0
v -7 -16 0
v -8 -16 0
v -8 -15 0
v -7 -15 0
v -6 -16 0
v -7 -16 0
v -7 -15 0
v -6 -15 0
v -47 -17 0
v -48 -17 0
v -48 -16 0
v -47 -16 0
v -46 -17 0
v -47 -17 0
v -47 -16 0
v -46 -16 0
v -30 -17 0
v -31 -17 0
v -31 -16 0
v -30 -16 0
v -29 -17 0
v -30 -17 0
v -30 -16 0
v -29 -16 0
v -7 -17 0
v -8 -17 0
v -8 -16 0
v -7 -16 0
v -6 -17 0
v -7 -17 0
v -7 -16 0
v -6 -16 0
v -47 -18 0
v -48 -18 0
v -48 -17 0
v -47 -17 0
v -46 -18 0
v -47 -18 0
v -47 -17 0
v -46 -17 0
v -30 -18 0
v -31 -18 0
v -31 -17 0
v -30 -17 0
v -29 -18 0
v -30 -18 0
v -30 -17 0
v -29 -17 0
v -7 -18 0
v -8 -18 0
v -8 -17 0
v -7 -17 0
v -6 -18 0
v -7 -18 0
v -7 -17 0
v -6 -17 0
v -5 -18 0
v -6 -18 0
v -6 -17 0
v -5 -17 0
v -4 -18 0
v -5 -18 0
v -5 -17 0
v -4 -17 0
v -47 -19 0
v -48 -19 0
v -48 -18 0
v -47 -18 0
v -46 -19 0
v -47 -19 0
v -47 -18 0
v -46 -18 0
v -5 -19 0
v -6 -19 0
v -6 -18 0
v -5 -18 0
v -4 -19 0
v -5 -19 0
v -5 -18 0
v -4 -18 0
v -47 -20 0
v -48 -20 0
v -48 -19 0
v -47 -19 0
v -46 -20 0
v -47 -20 0
v -47 -19 0
v -46 -19 0
v -23 -21 0
v -24 -21 0
v -24 -20 0
v -23 -20 0
v -22 -21 0
v -23 -21 0
v -23 -20 0
v -22 -20 0
v -23 -22 0
v -24 -22 0
v -24 -21 0
v -23 -21 0
v -22 -22 0
v -23 -22 0
v -23 -21 0
v -22 -21 0
v -15 -22 0
v -16 -22 0
v -16 -21 0
v -15 -21 0
v -14 -22 0
v -15 -22 0
v -15 -21 0
v -14 -21 0
v -15 -23 0
v -16 -23 0
v -16 -22 0
v -15 -22 0
v -14 -23 0
v -15 -23 0
v -15 -22 0
v -14 -22 0
v -15 -24 0
v -16 -24 0
v -16 -23 0
v -15 -23 0
v -14 -24 0
v -15 -24 0
v -15 -23 0
v -14 -23 0
v -57 -25 0
v -58 -25 0
v -58 -24 0
v -57 -24 0
v -56 -25 0
v -57 -25 0
v -57 -24 0
v -56 -24 0
v -15 -25 0
v -16 -25 0
v -16 -24 0
v -15 -24 0
v -14 -25 0
v -15 -25 0
v -15 -24 0
v -14 -24 0
v -57 -26 0
v -58 -26 0
v -58 -25 0
v -57 -25 0
v -56 -26 0
v -57 -26 0
v -57 -25 0
v -56 -25 0
v -51 -27 0
v -52 -27 0
v -52 -26 0
v -51 -26 0
v -50 -27 0
v -51 -27 0
v -51 -26 0
v -50 -26 0
v -39 -27 0
v -40 -27 0
v -40 -26 0
v -39 -26 0
v -38 -27 0
v -39 -27 0
v -39 -26 0
v -38 -26 0
v -51 -28 0
v -52 -28 0
v -52 -27 0
v -51 -27 0
v -50 -28 0
v -51 -28 0
v -51 -27 0
v -50 -27 0
v -39 -28 0
v -40 -28 0
v -40 -27 0
v -39 -27 0
v -38 -28 0
v -39 -28 0
v -39 -27 0
v -38 -27 0
v -11 -28 0
v -12 -28 0
v -12 -27 0
v -11 -27 0
v -10 -28 0
v -11 -28 0
v -11 -27 0
v -10 -27 0
v -39 -29 0
v -40 -29 0
v -40 -28 0
v -39 -28 0
v -38 -29 0
v -39 -29 0
v -39 -28 0
v -38 -28 0
v -11 -29 0
v -12 -29 0
v -12 -28 0
v -11 -28 0
v -10 -29 0
v -11 -29 0
v -11 -28 0
v -10 -28 0
v -39 -30 0
v -40 -30 0
v -40 -29 0
v -39 -29 0
v -38 -30 0
v -39 -30 0
v -39 -29 0
v -38 -29 0
v -11 -30 0
v -12 -30 0
v -12 -29 0
v -11 -29 0
v -10 -30 0
v -11 -30 0
v -11 -29 0
v -10 -29 0
v -11 -31 0
v -12 -31 0
v -12 -30 0
v -11 -30 0
v -10 -31 0
v -11 -31 0
v -11 -30 0
v -10 -30 0
v -29 -33 0
v -30 -33 0
v -30 -32 0
v -29 -32 0
v -28 -33 0
v -29 -33 0
v -29 -32 0
v -28 -32 0
v -29 -34 0
v -30 -34 0
v -30 -33 0
v -29 -33 0
v -28 -34 0
v -29 -34 0
v -29 -33 0
v -28 -33 0
v -29 -35 0
v -30 -35 0
v -30 -34 0
v -29 -34 0
v -28 -35 0
v -29 -35 0
v -29 -34 0
v -28 -34 0
v -29 -36 0
v -30 -36 0
v -30 -35 0
v -29 -35 0
v -28 -36 0
v -29 -36 0
v -29 -35 0
v -28 -35 0
v -7 -37 0
v -8 -37 0
v -8 -36 0
v -7 -36 0
v -6 -37 0
v -7 -37 0
v -7 -36 0
v -6 -36 0
v -7 -38 0
v -8 -38 0
v -8 -37 0
v -7 -37 0
v -6 -38 0
v -7 -38 0
v -7 -37 0
v -6 -37 0
v -27 -39 0
v -28 -39 0
v -28 -38 0
v -27 -38 0
v -26 -39 0
v -27 -39 0
v -27 -38 0
v -26 -38 0
v -7 -39 0
v -8 -39 0
v -8 -38 0
v -7 -38 0
v -6 -39 0
v -7 -39 0
v -7 -38 0
v -6 -38 0
v -27 -40 0
v -28 -40 0
v -28 -39 0
v -27 -39 0
v -26 -40 0
v -27 -40 0
v -27 -39 0
v -26 -39 0
v -7 -40 0
v -8 -40 0
v -8 -39 0
v -7 -39 0
v -6 -40 0
v -7 -40 0
v -7 -39 0
v -6 -39 0
v -49 -41 0
v -50 -41 0
v -50 -40 0
v -49 -40 0
v -48 -41 0
v -49 -41 0
v -49 -40 0
v -48 -40 0
v -27 -41 0
v -28 -41 0
v -28 -40 0
v -27 -40 0
v -26 -41 0
v -27 -41 0
v -27 -40 0
v -26 -40 0
v -23 -41 0
v -24 -41 0
v -24 -40 0
v -23 -40 0
v -22 -41 0
v -23 -41 0
v -23 -40 0
v -22 -40 0
v -49 -42 0
v -50 -42 0
v -50 -41 0
v -49 -41 0
v -48 -42 0
v -49 -42 0
v -49 -41 0
v -48 -41 0
v -27 -42 0
v -28 -42 0
v -28 -41 0
v -27 -41 0
v -26 -42 0
v -27 -42 0
v -27 -41 0
v -26 -41 0
v -23 -42 0
v -24 -42 0
v -24 -41 0
v -23 -41 0
v -22 -42 0
v -23 -42 0
v -23 -41 0
v -22 -41 0
v -49 -43 0
v -50 -43 0
v -50 -42 0
v -49 -42 0
v -48 -43 0
v -49 -43 0
v -49 -42 0
v -48 -42 0
v -38 -43 0
v -39 -43 0
v -39 -42 0
v -38 -42 0
v -37 -43 0
v -38 -43 0
v -38 -42 0
v -37 -42 0
v -23 -43 0
v -24 -43 0
v -24 -42 0
v -23 -42 0
v -22 -43 0
v -23 -43 0
v -23 -42 0
v -22 -42 0
v -15 -43 0
v -16 -43 0
v -16 -42 0
v -15 -42 0
v -14 -43 0
v -15 -43 0
v -15 -42 0
v -14 -42 0
v -49 -44 0
v -50 -44 0
v -50 -43 0
v -49 -43 0
v -48 -44 0
v -49 -44 0
v -49 -43 0
v -48 -43 0
v -38 -44 0
v -39 -44 0
v -39 -43 0
v -38 -43 0
v -37 -44 0
v -38 -44 0
v -38 -43 0
v -37 -43 0
v -23 -44 0
v -24 -44 0
v -24 -43 0
v -23 -43 0
v -22 -44 0
v -23 -44 0
v -23 -43 0
v -22 -43 0
v -15 -44 0
v -16 -44 0
v -16 -43 0
v -15 -43 0
v -14 -44 0
v -15 -44 0
v -15 -43 0
v -14 -43 0
v -55 -45 0
v -56 -45 0
v -56 -44 0
v -55 -44 0
v -54 -45 0
v -55 -45 0
v -55 -44 0
v -54 -44 0
v -49 -45 0
v -50 -45 0
v -50 -44 0
v -49 -44 0
v -48 -45 0
v -49 -45 0
v -49 -44 0
v -48 -44 0
v -21 -45 0
v -22 -45 0
v -22 -44 0
v -21 -44 0
v -20 -45 0
v -21 -45 0
v -21 -44 0
v -20 -44 0
v -55 -46 0
v -56 -46 0
v -56 -45 0
v -55 -45 0
v -54 -46 0
v -55 -46 0
v -55 -45 0
v -54 -45 0
v -49 -46 0
v -50 -46 0
v -50 -45 0
v -49 -45 0
v -48 -46 0
v -49 -46 0
v -49 -45 0
v -48 -45 0
v -21 -46 0
v -22 -46 0
v -22 -45 0
v -21 -45 0
v -20 -46 0
v -21 -46 0
v -21 -45 0
v -20 -45 0
v -55 -47 0
v -56 -47 0
v -56 -46 0
v -55 -46 0
v -54 -47 0
v -55 -47 0
v -55 -46 0
v -54 -46 0
v -21 -47 0
v -22 -47 0
v -22 -46 0
v -21 -46 0
v -20 -47 0
v -21 -47 0
v -21 -46 0
v -20 -46 0
v -55 -48 0
v -56 -48 0
v -56 -47 0
v -55 -47 0
v -54 -48 0
v -55 -48 0
v -55 -47 0
v -54 -47 0
v -21 -48 0
v -22 -48 0
v -22 -47 0
v -21 -47 0
v -20 -48 0
v -21 -48 0
v -21 -47 0
v -20 -47 0
v -45 -53 0
v -46 -53 0
v -46 -52 0
v -45 -52 0
v -44 -53 0
v -45 -53 0
v -45 -52 0
v -44 -52 0
v -45 -54 0
v -46 -54 0
v -46 -53 0
v -45 -53 0
v -44 -54 0
v -45 -54 0
v -45 -53 0
v -44 -53 0
v -9 -55 0
v -10 -55 0
v -10 -54 0
v -9 -54 0
v -8 -55 0
v -9 -55 0
v -9 -54 0
v -8 -54 0
v -9 -56 0
v -10 -56 0
v -10 -55 0
v -9 -55 0
v -8 -56 0
v -9 -56 0
v -9 -55 0
v -8 -55 0
v -53 -57 0
v -54 -57 0
v -54 -56 0
v -53 -56 0
v -52 -57 0
v -53 -57 0
v -53 -56 0
v -52 -56 0
v -53 -58 0
v -54 -58 0
v -54 -57 0
v -53 -57 0
v -52 -58 0
v -53 -58 0
v -53 -57 0
v -52 -57 0
v -53 -59 0
v -54 -59 0
v -54 -58 0
v -53 -58 0
v -52 -59 0
v -53 -59 0
v -53 -58 0
v -52 -58 0
v -53 -60 0
v -54 -60 0
v -54 -59 0
v -53 -59 0
v -52 -60 0
v -53 -60 0
v -53 -59 0
v -52 -59 0
v -35 -61 0
v -36 -61 0
v -36 -60 0
v -35 -60 0
v -34 -61 0
v -35 -61 0
v -35 -60 0
v -34 -60 0
v -35 -62 0
v -36 -62 0
v -36 -61 0
v -35 -61 0
v -34 -62 0
v -35 -62 0
v -35 -61 0
v -34 -61 0

# Texture cooridinates (Count = 30)
vt 0.53125 0.84375
vt 0.5625 0.84375
vt 0.5625 0.875
vt 0.53125 0.875
vt 0.5 0.84375
vt 0.5 0.875
vt 0.53125 0.8125
vt 0.5625 0.8125
vt 0.5 0.8125
vt 0.09375 0.46875
vt 0.125 0.46875
vt 0.125 0.5
vt 0.09375 0.5
vt 0.0625 0.46875
vt 0.0625 0.5
vt 0.09375 0.4375
vt 0.125 0.4375
vt 0.0625 0.4375
vt 0.09375 0.40625
vt 0.125 0.40625
vt 0.0625 0.40625
vt 0.09375 0.375
vt 0.125 0.375
vt 0.0625 0.375
vt 0.09375 0.53125
vt 0.125 0.53125
vt 0.125 0.5625
vt 0.09375 0.5625
vt 0.0625 0.53125
vt 0.0625 0.5625

# Normal
vn 0 0 -1

# Mesh description
g Level01-B_mesh_0017

# Faces
f 1/1/1 2/2/1 3/3/1 4/4/1
f 5/5/1 6/1/1 7/4/1 8/6/1
f 9/7/1 10/8/1 11/2/1 12/1/1
f 13/9/1 14/7/1 15/1/1 16/5/1
f 17/10/1 18/11/1 19/12/1 20/13/1
f 21/14/1 22/10/1 23/13/1 24/15/1
f 25/16/1 26/17/1 27/11/1 28/10/1
f 29/18/1 30/16/1 31/10/1 32/14/1
f 33/10/1 34/11/1 35/12/1 36/13/1
f 37/14/1 38/10/1 39/13/1 40/15/1
f 41/19/1 42/20/1 43/17/1 44/16/1
f 45/21/1 46/19/1 47/16/1 48/18/1
f 49/16/1 50/17/1 51/11/1 52/10/1
f 53/18/1 54/16/1 55/10/1 56/14/1
f 57/22/1 58/23/1 59/20/1 60/19/1
f 61/24/1 62/22/1 63/19/1 64/21/1
f 65/19/1 66/20/1 67/17/1 68/16/1
f 69/21/1 70/19/1 71/16/1 72/18/1
f 73/25/1 74/26/1 75/27/1 76/28/1
f 77/29/1 78/25/1 79/28/1 80/30/1
f 81/22/1 82/23/1 83/20/1 84/19/1
f 85/24/1 86/22/1 87/19/1 88/21/1
f 89/13/1 90/12/1 91/26/1 92/25/1
f 93/15/1 94/13/1 95/25/1 96/29/1
f 97/10/1 98/11/1 99/12/1 100/13/1
f 101/14/1 102/10/1 103/13/1 104/15/1
f 105/10/1 106/11/1 107/12/1 108/13/1
f 109/14/1 110/10/1 111/13/1 112/15/1
f 113/16/1 114/17/1 115/11/1 116/10/1
f 117/18/1 118/16/1 119/10/1 120/14/1
f 121/16/1 122/17/1 123/11/1 124/10/1
f 125/18/1 126/16/1 127/10/1 128/14/1
f 129/10/1 130/11/1 131/12/1 132/13/1
f 133/14/1 134/10/1 135/13/1 136/15/1
f 137/19/1 138/20/1 139/17/1 140/16/1
f 141/21/1 142/19/1 143/16/1 144/18/1
f 145/19/1 146/20/1 147/17/1 148/16/1
f 149/21/1 150/19/1 151/16/1 152/18/1
f 153/16/1 154/17/1 155/11/1 156/10/1
f 157/18/1 158/16/1 159/10/1 160/14/1
f 161/22/1 162/23/1 163/20/1 164/19/1
f 165/24/1 166/22/1 167/19/1 168/21/1
f 169/22/1 170/23/1 171/20/1 172/19/1
f 173/24/1 174/22/1 175/19/1 176/21/1
f 177/25/1 178/26/1 179/27/1 180/28/1
f 181/29/1 182/25/1 183/28/1 184/30/1
f 185/19/1 186/20/1 187/17/1 188/16/1
f 189/21/1 190/19/1 191/16/1 192/18/1
f 193/13/1 194/12/1 195/26/1 196/25/1
f 197/15/1 198/13/1 199/25/1 200/29/1
f 201/22/1 202/23/1 203/20/1 204/19/1
f 205/24/1 206/22/1 207/19/1 208/21/1
f 209/25/1 210/26/1 211/27/1 212/28/1
f 213/29/1 214/25/1 215/28/1 216/30/1
f 217/13/1 218/12/1 219/26/1 220/25/1
f 221/15/1 222/13/1 223/25/1 224/29/1
f 225/10/1 226/11/1 227/12/1 228/13/1
f 229/14/1 230/10/1 231/13/1 232/15/1
f 233/16/1 234/17/1 235/11/1 236/10/1
f 237/18/1 238/16/1 239/10/1 240/14/1
f 241/19/1 242/20/1 243/17/1 244/16/1
f 245/21/1 246/19/1 247/16/1 248/18/1
f 249/25/1 250/26/1 251/27/1 252/28/1
f 253/29/1 254/25/1 255/28/1 256/30/1
f 257/22/1 258/23/1 259/20/1 260/19/1
f 261/24/1 262/22/1 263/19/1 264/21/1
f 265/13/1 266/12/1 267/26/1 268/25/1
f 269/15/1 270/13/1 271/25/1 272/29/1
f 273/25/1 274/26/1 275/27/1 276/28/1
f 277/29/1 278/25/1 279/28/1 280/30/1
f 281/10/1 282/11/1 283/12/1 284/13/1
f 285/14/1 286/10/1 287/13/1 288/15/1
f 289/13/1 290/12/1 291/26/1 292/25/1
f 293/15/1 294/13/1 295/25/1 296/29/1
f 297/16/1 298/17/1 299/11/1 300/10/1
f 301/18/1 302/16/1 303/10/1 304/14/1
f 305/10/1 306/11/1 307/12/1 308/13/1
f 309/14/1 310/10/1 311/13/1 312/15/1
f 313/19/1 314/20/1 315/17/1 316/16/1
f 317/21/1 318/19/1 319/16/1 320/18/1
f 321/16/1 322/17/1 323/11/1 324/10/1
f 325/18/1 326/16/1 327/10/1 328/14/1
f 329/22/1 330/23/1 331/20/1 332/19/1
f 333/24/1 334/22/1 335/19/1 336/21/1
f 337/19/1 338/20/1 339/17/1 340/16/1
f 341/21/1 342/19/1 343/16/1 344/18/1
f 345/22/1 346/23/1 347/20/1 348/19/1
f 349/24/1 350/22/1 351/19/1 352/21/1
f 353/10/1 354/11/1 355/12/1 356/13/1
f 357/14/1 358/10/1 359/13/1 360/15/1
f 361/16/1 362/17/1 363/11/1 364/10/1
f 365/18/1 366/16/1 367/10/1 368/14/1
f 369/19/1 370/20/1 371/17/1 372/16/1
f 373/21/1 374/19/1 375/16/1 376/18/1
f 377/22/1 378/23/1 379/20/1 380/19/1
f 381/24/1 382/22/1 383/19/1 384/21/1
f 385/10/1 386/11/1 387/12/1 388/13/1
f 389/14/1 390/10/1 391/13/1 392/15/1
f 393/16/1 394/17/1 395/11/1 396/10/1
f 397/18/1 398/16/1 399/10/1 400/14/1
f 401/10/1 402/11/1 403/12/1 404/13/1
f 405/14/1 406/10/1 407/13/1 408/15/1
f 409/19/1 410/20/1 411/17/1 412/16/1
f 413/21/1 414/19/1 415/16/1 416/18/1
f 417/16/1 418/17/1 419/11/1 420/10/1
f 421/18/1 422/16/1 423/10/1 424/14/1
f 425/22/1 426/23/1 427/20/1 428/19/1
f 429/24/1 430/22/1 431/19/1 432/21/1
f 433/10/1 434/11/1 435/12/1 436/13/1
f 437/14/1 438/10/1 439/13/1 440/15/1
f 441/19/1 442/20/1 443/17/1 444/16/1
f 445/21/1 446/19/1 447/16/1 448/18/1
f 449/10/1 450/11/1 451/12/1 452/13/1
f 453/14/1 454/10/1 455/13/1 456/15/1
f 457/16/1 458/17/1 459/11/1 460/10/1
f 461/18/1 462/16/1 463/10/1 464/14/1
f 465/22/1 466/23/1 467/20/1 468/19/1
f 469/24/1 470/22/1 471/19/1 472/21/1
f 473/16/1 474/17/1 475/11/1 476/10/1
f 477/18/1 478/16/1 479/10/1 480/14/1
f 481/19/1 482/20/1 483/17/1 484/16/1
f 485/21/1 486/19/1 487/16/1 488/18/1
f 489/25/1 490/26/1 491/27/1 492/28/1
f 493/29/1 494/25/1 495/28/1 496/30/1
f 497/19/1 498/20/1 499/17/1 500/16/1
f 501/21/1 502/19/1 503/16/1 504/18/1
f 505/25/1 506/26/1 507/27/1 508/28/1
f 509/29/1 510/25/1 511/28/1 512/30/1
f 513/22/1 514/23/1 515/20/1 516/19/1
f 517/24/1 518/22/1 519/19/1 520/21/1
f 521/13/1 522/12/1 523/26/1 524/25/1
f 525/15/1 526/13/1 527/25/1 528/29/1
f 529/22/1 530/23/1 531/20/1 532/19/1
f 533/24/1 534/22/1 535/19/1 536/21/1
f 537/13/1 538/12/1 539/26/1 540/25/1
f 541/15/1 542/13/1 543/25/1 544/29/1
f 545/10/1 546/11/1 547/12/1 548/13/1
f 549/14/1 550/10/1 551/13/1 552/15/1
f 553/25/1 554/26/1 555/27/1 556/28/1
f 557/29/1 558/25/1 559/28/1 560/30/1
f 561/10/1 562/11/1 563/12/1 564/13/1
f 565/14/1 566/10/1 567/13/1 568/15/1
f 569/16/1 570/17/1 571/11/1 572/10/1
f 573/18/1 574/16/1 575/10/1 576/14/1
f 577/13/1 578/12/1 579/26/1 580/25/1
f 581/15/1 582/13/1 583/25/1 584/29/1
f 585/16/1 586/17/1 587/11/1 588/10/1
f 589/18/1 590/16/1 591/10/1 592/14/1
f 593/19/1 594/20/1 595/17/1 596/16/1
f 597/21/1 598/19/1 599/16/1 600/18/1
f 601/19/1 602/20/1 603/17/1 604/16/1
f 605/21/1 606/19/1 607/16/1 608/18/1
f 609/22/1 610/23/1 611/20/1 612/19/1
f 613/24/1 614/22/1 615/19/1 616/21/1
f 617/22/1 618/23/1 619/20/1 620/19/1
f 621/24/1 622/22/1 623/19/1 624/21/1
f 625/25/1 626/26/1 627/27/1 628/28/1
f 629/29/1 630/25/1 631/28/1 632/30/1
f 633/13/1 634/12/1 635/26/1 636/25/1
f 637/15/1 638/13/1 639/25/1 640/29/1
f 641/25/1 642/26/1 643/27/1 644/28/1
f 645/29/1 646/25/1 647/28/1 648/30/1
f 649/13/1 650/12/1 651/26/1 652/25/1
f 653/15/1 654/13/1 655/25/1 656/29/1
f 657/10/1 658/11/1 659/12/1 660/13/1
f 661/14/1 662/10/1 663/13/1 664/15/1
f 665/16/1 666/17/1 667/11/1 668/10/1
f 669/18/1 670/16/1 671/10/1 672/14/1
f 673/19/1 674/20/1 675/17/1 676/16/1
f 677/21/1 678/19/1 679/16/1 680/18/1
f 681/22/1 682/23/1 683/20/1 684/19/1
f 685/24/1 686/22/1 687/19/1 688/21/1
f 689/25/1 690/26/1 691/27/1 692/28/1
f 693/29/1 694/25/1 695/28/1 696/30/1
f 697/13/1 698/12/1 699/26/1 700/25/1
f 701/15/1 702/13/1 703/25/1 704/29/1

