# Tiled2Unity generated file. Do not modify by hand.
# Wavefront file for 'Level01-B_mesh_0015.obj'

# Vertices (Count = 184)
v -10 -3 0
v -11 -3 0
v -11 -2 0
v -10 -2 0
v -9 -3 0
v -10 -3 0
v -10 -2 0
v -9 -2 0
v -8 -3 0
v -9 -3 0
v -9 -2 0
v -8 -2 0
v -13 -4 0
v -14 -4 0
v -14 -3 0
v -13 -3 0
v -12 -4 0
v -13 -4 0
v -13 -3 0
v -12 -3 0
v -11 -4 0
v -12 -4 0
v -12 -3 0
v -11 -3 0
v -9 -4 0
v -10 -4 0
v -10 -3 0
v -9 -3 0
v -8 -4 0
v -9 -4 0
v -9 -3 0
v -8 -3 0
v -43 -52 0
v -44 -52 0
v -44 -51 0
v -43 -51 0
v -42 -52 0
v -43 -52 0
v -43 -51 0
v -42 -51 0
v -41 -53 0
v -42 -53 0
v -42 -52 0
v -41 -52 0
v -40 -53 0
v -41 -53 0
v -41 -52 0
v -40 -52 0
v -35 -53 0
v -36 -53 0
v -36 -52 0
v -35 -52 0
v -34 -53 0
v -35 -53 0
v -35 -52 0
v -34 -52 0
v -51 -54 0
v -52 -54 0
v -52 -53 0
v -51 -53 0
v -50 -54 0
v -51 -54 0
v -51 -53 0
v -50 -53 0
v -41 -54 0
v -42 -54 0
v -42 -53 0
v -41 -53 0
v -40 -54 0
v -41 -54 0
v -41 -53 0
v -40 -53 0
v -35 -54 0
v -36 -54 0
v -36 -53 0
v -35 -53 0
v -34 -54 0
v -35 -54 0
v -35 -53 0
v -34 -53 0
v -31 -54 0
v -32 -54 0
v -32 -53 0
v -31 -53 0
v -30 -54 0
v -31 -54 0
v -31 -53 0
v -30 -53 0
v -41 -55 0
v -42 -55 0
v -42 -54 0
v -41 -54 0
v -40 -55 0
v -41 -55 0
v -41 -54 0
v -40 -54 0
v -39 -55 0
v -40 -55 0
v -40 -54 0
v -39 -54 0
v -38 -55 0
v -39 -55 0
v -39 -54 0
v -38 -54 0
v -37 -55 0
v -38 -55 0
v -38 -54 0
v -37 -54 0
v -36 -55 0
v -37 -55 0
v -37 -54 0
v -36 -54 0
v -35 -55 0
v -36 -55 0
v -36 -54 0
v -35 -54 0
v -34 -55 0
v -35 -55 0
v -35 -54 0
v -34 -54 0
v -41 -56 0
v -42 -56 0
v -42 -55 0
v -41 -55 0
v -40 -56 0
v -41 -56 0
v -41 -55 0
v -40 -55 0
v -39 -56 0
v -40 -56 0
v -40 -55 0
v -39 -55 0
v -38 -56 0
v -39 -56 0
v -39 -55 0
v -38 -55 0
v -37 -56 0
v -38 -56 0
v -38 -55 0
v -37 -55 0
v -36 -56 0
v -37 -56 0
v -37 -55 0
v -36 -55 0
v -35 -56 0
v -36 -56 0
v -36 -55 0
v -35 -55 0
v -34 -56 0
v -35 -56 0
v -35 -55 0
v -34 -55 0
v -39 -57 0
v -40 -57 0
v -40 -56 0
v -39 -56 0
v -38 -57 0
v -39 -57 0
v -39 -56 0
v -38 -56 0
v -37 -57 0
v -38 -57 0
v -38 -56 0
v -37 -56 0
v -36 -57 0
v -37 -57 0
v -37 -56 0
v -36 -56 0
v -39 -58 0
v -40 -58 0
v -40 -57 0
v -39 -57 0
v -38 -58 0
v -39 -58 0
v -39 -57 0
v -38 -57 0
v -37 -58 0
v -38 -58 0
v -38 -57 0
v -37 -57 0
v -36 -58 0
v -37 -58 0
v -37 -57 0
v -36 -57 0

# Texture cooridinates (Count = 60)
vt 0.375 0.09375
vt 0.40625 0.09375
vt 0.40625 0.125
vt 0.375 0.125
vt 0.34375 0.09375
vt 0.34375 0.125
vt 0.3125 0.09375
vt 0.3125 0.125
vt 0.46875 0
vt 0.5 0
vt 0.5 0.03125
vt 0.46875 0.03125
vt 0.4375 0
vt 0.4375 0.03125
vt 0.21875 0.09375
vt 0.25 0.09375
vt 0.25 0.125
vt 0.21875 0.125
vt 0.1875 0.09375
vt 0.1875 0.125
vt 0.15625 0.09375
vt 0.15625 0.125
vt 0 0.09375
vt 0.03125 0.09375
vt 0.03125 0.125
vt 0 0.125
vt 0.34375 0
vt 0.375 0
vt 0.375 0.03125
vt 0.34375 0.03125
vt 0.3125 0
vt 0.3125 0.03125
vt 0.21875 0.0625
vt 0.25 0.0625
vt 0.1875 0.0625
vt 0.15625 0.0625
vt 0 0.0625
vt 0.03125 0.0625
vt 0.21875 0.03125
vt 0.25 0.03125
vt 0.1875 0.03125
vt 0.125 0.09375
vt 0.125 0.125
vt 0.0625 0.09375
vt 0.0625 0.125
vt 0.15625 0.03125
vt 0 0.03125
vt 0.03125 0.03125
vt 0.21875 0
vt 0.25 0
vt 0.1875 0
vt 0.125 0.0625
vt 0.0625 0.0625
vt 0.15625 0
vt 0 0
vt 0.03125 0
vt 0.125 0.03125
vt 0.0625 0.03125
vt 0.125 0
vt 0.0625 0

# Normal
vn 0 0 -1

# Mesh description
g Level01-B_mesh_0015

# Faces
f 1/1/1 2/2/1 3/3/1 4/4/1
f 5/5/1 6/1/1 7/4/1 8/6/1
f 9/7/1 10/5/1 11/6/1 12/8/1
f 13/1/1 14/2/1 15/3/1 16/4/1
f 17/5/1 18/1/1 19/4/1 20/6/1
f 21/7/1 22/5/1 23/6/1 24/8/1
f 25/1/1 26/2/1 27/3/1 28/4/1
f 29/5/1 30/1/1 31/4/1 32/6/1
f 33/9/1 34/10/1 35/11/1 36/12/1
f 37/13/1 38/9/1 39/12/1 40/14/1
f 41/15/1 42/16/1 43/17/1 44/18/1
f 45/19/1 46/15/1 47/18/1 48/20/1
f 49/21/1 50/19/1 51/20/1 52/22/1
f 53/23/1 54/24/1 55/25/1 56/26/1
f 57/27/1 58/28/1 59/29/1 60/30/1
f 61/31/1 62/27/1 63/30/1 64/32/1
f 65/33/1 66/34/1 67/16/1 68/15/1
f 69/35/1 70/33/1 71/15/1 72/19/1
f 73/36/1 74/35/1 75/19/1 76/21/1
f 77/37/1 78/38/1 79/24/1 80/23/1
f 81/27/1 82/28/1 83/29/1 84/30/1
f 85/31/1 86/27/1 87/30/1 88/32/1
f 89/39/1 90/40/1 91/34/1 92/33/1
f 93/41/1 94/39/1 95/33/1 96/35/1
f 97/21/1 98/19/1 99/20/1 100/22/1
f 101/42/1 102/21/1 103/22/1 104/43/1
f 105/24/1 106/44/1 107/45/1 108/25/1
f 109/23/1 110/24/1 111/25/1 112/26/1
f 113/46/1 114/41/1 115/35/1 116/36/1
f 117/47/1 118/48/1 119/38/1 120/37/1
f 121/49/1 122/50/1 123/40/1 124/39/1
f 125/51/1 126/49/1 127/39/1 128/41/1
f 129/36/1 130/35/1 131/19/1 132/21/1
f 133/52/1 134/36/1 135/21/1 136/42/1
f 137/38/1 138/53/1 139/44/1 140/24/1
f 141/37/1 142/38/1 143/24/1 144/23/1
f 145/54/1 146/51/1 147/41/1 148/46/1
f 149/55/1 150/56/1 151/48/1 152/47/1
f 153/46/1 154/41/1 155/35/1 156/36/1
f 157/57/1 158/46/1 159/36/1 160/52/1
f 161/48/1 162/58/1 163/53/1 164/38/1
f 165/47/1 166/48/1 167/38/1 168/37/1
f 169/54/1 170/51/1 171/41/1 172/46/1
f 173/59/1 174/54/1 175/46/1 176/57/1
f 177/56/1 178/60/1 179/58/1 180/48/1
f 181/55/1 182/56/1 183/48/1 184/47/1

