# Tiled2Unity generated file. Do not modify by hand.
# Wavefront file for 'Level01-B_mesh_0016.obj'

# Vertices (Count = 208)
v -57 -7 0
v -58 -7 0
v -58 -6 0
v -57 -6 0
v -56 -7 0
v -57 -7 0
v -57 -6 0
v -56 -6 0
v -13 -7 0
v -14 -7 0
v -14 -6 0
v -13 -6 0
v -12 -7 0
v -13 -7 0
v -13 -6 0
v -12 -6 0
v -9 -7 0
v -10 -7 0
v -10 -6 0
v -9 -6 0
v -8 -7 0
v -9 -7 0
v -9 -6 0
v -8 -6 0
v -57 -8 0
v -58 -8 0
v -58 -7 0
v -57 -7 0
v -56 -8 0
v -57 -8 0
v -57 -7 0
v -56 -7 0
v -13 -8 0
v -14 -8 0
v -14 -7 0
v -13 -7 0
v -12 -8 0
v -13 -8 0
v -13 -7 0
v -12 -7 0
v -9 -8 0
v -10 -8 0
v -10 -7 0
v -9 -7 0
v -8 -8 0
v -9 -8 0
v -9 -7 0
v -8 -7 0
v -53 -9 0
v -54 -9 0
v -54 -8 0
v -53 -8 0
v -52 -9 0
v -53 -9 0
v -53 -8 0
v -52 -8 0
v -39 -9 0
v -40 -9 0
v -40 -8 0
v -39 -8 0
v -38 -9 0
v -39 -9 0
v -39 -8 0
v -38 -8 0
v -13 -9 0
v -14 -9 0
v -14 -8 0
v -13 -8 0
v -12 -9 0
v -13 -9 0
v -13 -8 0
v -12 -8 0
v -53 -10 0
v -54 -10 0
v -54 -9 0
v -53 -9 0
v -52 -10 0
v -53 -10 0
v -53 -9 0
v -52 -9 0
v -39 -10 0
v -40 -10 0
v -40 -9 0
v -39 -9 0
v -38 -10 0
v -39 -10 0
v -39 -9 0
v -38 -9 0
v -13 -10 0
v -14 -10 0
v -14 -9 0
v -13 -9 0
v -12 -10 0
v -13 -10 0
v -13 -9 0
v -12 -9 0
v -61 -11 0
v -62 -11 0
v -62 -10 0
v -61 -10 0
v -60 -11 0
v -61 -11 0
v -61 -10 0
v -60 -10 0
v -61 -12 0
v -62 -12 0
v -62 -11 0
v -61 -11 0
v -60 -12 0
v -61 -12 0
v -61 -11 0
v -60 -11 0
v -33 -27 0
v -34 -27 0
v -34 -26 0
v -33 -26 0
v -32 -27 0
v -33 -27 0
v -33 -26 0
v -32 -26 0
v -11 -27 0
v -12 -27 0
v -12 -26 0
v -11 -26 0
v -10 -27 0
v -11 -27 0
v -11 -26 0
v -10 -26 0
v -33 -28 0
v -34 -28 0
v -34 -27 0
v -33 -27 0
v -32 -28 0
v -33 -28 0
v -33 -27 0
v -32 -27 0
v -11 -28 0
v -12 -28 0
v -12 -27 0
v -11 -27 0
v -10 -28 0
v -11 -28 0
v -11 -27 0
v -10 -27 0
v -24 -29 0
v -25 -29 0
v -25 -28 0
v -24 -28 0
v -23 -29 0
v -24 -29 0
v -24 -28 0
v -23 -28 0
v -24 -30 0
v -25 -30 0
v -25 -29 0
v -24 -29 0
v -23 -30 0
v -24 -30 0
v -24 -29 0
v -23 -29 0
v -29 -31 0
v -30 -31 0
v -30 -30 0
v -29 -30 0
v -28 -31 0
v -29 -31 0
v -29 -30 0
v -28 -30 0
v -29 -32 0
v -30 -32 0
v -30 -31 0
v -29 -31 0
v -28 -32 0
v -29 -32 0
v -29 -31 0
v -28 -31 0
v -3 -39 0
v -4 -39 0
v -4 -38 0
v -3 -38 0
v -2 -39 0
v -3 -39 0
v -3 -38 0
v -2 -38 0
v -3 -40 0
v -4 -40 0
v -4 -39 0
v -3 -39 0
v -2 -40 0
v -3 -40 0
v -3 -39 0
v -2 -39 0
v -9 -59 0
v -10 -59 0
v -10 -58 0
v -9 -58 0
v -8 -59 0
v -9 -59 0
v -9 -58 0
v -8 -58 0
v -9 -60 0
v -10 -60 0
v -10 -59 0
v -9 -59 0
v -8 -60 0
v -9 -60 0
v -9 -59 0
v -8 -59 0

# Texture cooridinates (Count = 51)
vt 0.28125 0.59375
vt 0.3125 0.59375
vt 0.3125 0.625
vt 0.28125 0.625
vt 0.25 0.59375
vt 0.25 0.625
vt 0.34375 0.15625
vt 0.375 0.15625
vt 0.375 0.1875
vt 0.34375 0.1875
vt 0.3125 0.15625
vt 0.3125 0.1875
vt 0.09375 0.59375
vt 0.125 0.59375
vt 0.125 0.625
vt 0.09375 0.625
vt 0.0625 0.59375
vt 0.0625 0.625
vt 0.28125 0.5625
vt 0.3125 0.5625
vt 0.25 0.5625
vt 0.34375 0.125
vt 0.375 0.125
vt 0.3125 0.125
vt 0.09375 0.5625
vt 0.125 0.5625
vt 0.0625 0.5625
vt 0.59375 0.28125
vt 0.625 0.28125
vt 0.625 0.3125
vt 0.59375 0.3125
vt 0.5625 0.28125
vt 0.5625 0.3125
vt 0.03125 0.59375
vt 0.03125 0.625
vt 0 0.59375
vt 0 0.625
vt 0.59375 0.25
vt 0.625 0.25
vt 0.5625 0.25
vt 0.03125 0.5625
vt 0 0.5625
vt 0.09375 0.15625
vt 0.125 0.15625
vt 0.125 0.1875
vt 0.09375 0.1875
vt 0.0625 0.15625
vt 0.0625 0.1875
vt 0.09375 0.125
vt 0.125 0.125
vt 0.0625 0.125

# Normal
vn 0 0 -1

# Mesh description
g Level01-B_mesh_0016

# Faces
f 1/1/1 2/2/1 3/3/1 4/4/1
f 5/5/1 6/1/1 7/4/1 8/6/1
f 9/7/1 10/8/1 11/9/1 12/10/1
f 13/11/1 14/7/1 15/10/1 16/12/1
f 17/13/1 18/14/1 19/15/1 20/16/1
f 21/17/1 22/13/1 23/16/1 24/18/1
f 25/19/1 26/20/1 27/2/1 28/1/1
f 29/21/1 30/19/1 31/1/1 32/5/1
f 33/22/1 34/23/1 35/8/1 36/7/1
f 37/24/1 38/22/1 39/7/1 40/11/1
f 41/25/1 42/26/1 43/14/1 44/13/1
f 45/27/1 46/25/1 47/13/1 48/17/1
f 49/28/1 50/29/1 51/30/1 52/31/1
f 53/32/1 54/28/1 55/31/1 56/33/1
f 57/34/1 58/17/1 59/18/1 60/35/1
f 61/36/1 62/34/1 63/35/1 64/37/1
f 65/1/1 66/2/1 67/3/1 68/4/1
f 69/5/1 70/1/1 71/4/1 72/6/1
f 73/38/1 74/39/1 75/29/1 76/28/1
f 77/40/1 78/38/1 79/28/1 80/32/1
f 81/41/1 82/27/1 83/17/1 84/34/1
f 85/42/1 86/41/1 87/34/1 88/36/1
f 89/19/1 90/20/1 91/2/1 92/1/1
f 93/21/1 94/19/1 95/1/1 96/5/1
f 97/43/1 98/44/1 99/45/1 100/46/1
f 101/47/1 102/43/1 103/46/1 104/48/1
f 105/49/1 106/50/1 107/44/1 108/43/1
f 109/51/1 110/49/1 111/43/1 112/47/1
f 113/7/1 114/8/1 115/9/1 116/10/1
f 117/11/1 118/7/1 119/10/1 120/12/1
f 121/13/1 122/14/1 123/15/1 124/16/1
f 125/17/1 126/13/1 127/16/1 128/18/1
f 129/22/1 130/23/1 131/8/1 132/7/1
f 133/24/1 134/22/1 135/7/1 136/11/1
f 137/25/1 138/26/1 139/14/1 140/13/1
f 141/27/1 142/25/1 143/13/1 144/17/1
f 145/43/1 146/44/1 147/45/1 148/46/1
f 149/47/1 150/43/1 151/46/1 152/48/1
f 153/49/1 154/50/1 155/44/1 156/43/1
f 157/51/1 158/49/1 159/43/1 160/47/1
f 161/1/1 162/2/1 163/3/1 164/4/1
f 165/5/1 166/1/1 167/4/1 168/6/1
f 169/19/1 170/20/1 171/2/1 172/1/1
f 173/21/1 174/19/1 175/1/1 176/5/1
f 177/1/1 178/2/1 179/3/1 180/4/1
f 181/5/1 182/1/1 183/4/1 184/6/1
f 185/19/1 186/20/1 187/2/1 188/1/1
f 189/21/1 190/19/1 191/1/1 192/5/1
f 193/13/1 194/14/1 195/15/1 196/16/1
f 197/17/1 198/13/1 199/16/1 200/18/1
f 201/25/1 202/26/1 203/14/1 204/13/1
f 205/27/1 206/25/1 207/13/1 208/17/1

