# Tiled2Unity generated file. Do not modify by hand.
# Wavefront file for 'Level01-B_mesh_0010.obj'

# Vertices (Count = 128)
v -31 -3 0
v -32 -3 0
v -32 -2 0
v -31 -2 0
v -30 -3 0
v -31 -3 0
v -31 -2 0
v -30 -2 0
v -27 -3 0
v -28 -3 0
v -28 -2 0
v -27 -2 0
v -26 -3 0
v -27 -3 0
v -27 -2 0
v -26 -2 0
v -25 -3 0
v -26 -3 0
v -26 -2 0
v -25 -2 0
v -24 -3 0
v -25 -3 0
v -25 -2 0
v -24 -2 0
v -31 -4 0
v -32 -4 0
v -32 -3 0
v -31 -3 0
v -30 -4 0
v -31 -4 0
v -31 -3 0
v -30 -3 0
v -27 -4 0
v -28 -4 0
v -28 -3 0
v -27 -3 0
v -26 -4 0
v -27 -4 0
v -27 -3 0
v -26 -3 0
v -25 -4 0
v -26 -4 0
v -26 -3 0
v -25 -3 0
v -24 -4 0
v -25 -4 0
v -25 -3 0
v -24 -3 0
v -43 -5 0
v -44 -5 0
v -44 -4 0
v -43 -4 0
v -42 -5 0
v -43 -5 0
v -43 -4 0
v -42 -4 0
v -31 -5 0
v -32 -5 0
v -32 -4 0
v -31 -4 0
v -30 -5 0
v -31 -5 0
v -31 -4 0
v -30 -4 0
v -27 -5 0
v -28 -5 0
v -28 -4 0
v -27 -4 0
v -26 -5 0
v -27 -5 0
v -27 -4 0
v -26 -4 0
v -25 -5 0
v -26 -5 0
v -26 -4 0
v -25 -4 0
v -24 -5 0
v -25 -5 0
v -25 -4 0
v -24 -4 0
v -43 -6 0
v -44 -6 0
v -44 -5 0
v -43 -5 0
v -42 -6 0
v -43 -6 0
v -43 -5 0
v -42 -5 0
v -31 -6 0
v -32 -6 0
v -32 -5 0
v -31 -5 0
v -30 -6 0
v -31 -6 0
v -31 -5 0
v -30 -5 0
v -27 -6 0
v -28 -6 0
v -28 -5 0
v -27 -5 0
v -26 -6 0
v -27 -6 0
v -27 -5 0
v -26 -5 0
v -25 -6 0
v -26 -6 0
v -26 -5 0
v -25 -5 0
v -24 -6 0
v -25 -6 0
v -25 -5 0
v -24 -5 0
v -43 -7 0
v -44 -7 0
v -44 -6 0
v -43 -6 0
v -42 -7 0
v -43 -7 0
v -43 -6 0
v -42 -6 0
v -43 -8 0
v -44 -8 0
v -44 -7 0
v -43 -7 0
v -42 -8 0
v -43 -8 0
v -43 -7 0
v -42 -7 0

# Texture cooridinates (Count = 15)
vt 0.46875 0.04166667
vt 0.5 0.04166667
vt 0.5 0.08333334
vt 0.46875 0.08333334
vt 0.375 0.04166667
vt 0.40625 0.04166667
vt 0.40625 0.08333334
vt 0.375 0.08333334
vt 0.4375 0.04166667
vt 0.4375 0.08333334
vt 0.46875 0
vt 0.5 0
vt 0.375 0
vt 0.40625 0
vt 0.4375 0

# Normal
vn 0 0 -1

# Mesh description
g Level01-B_mesh_0010

# Faces
f 1/1/1 2/2/1 3/3/1 4/4/1
f 5/5/1 6/6/1 7/7/1 8/8/1
f 9/1/1 10/2/1 11/3/1 12/4/1
f 13/9/1 14/1/1 15/4/1 16/10/1
f 17/6/1 18/9/1 19/10/1 20/7/1
f 21/5/1 22/6/1 23/7/1 24/8/1
f 25/11/1 26/12/1 27/2/1 28/1/1
f 29/13/1 30/14/1 31/6/1 32/5/1
f 33/11/1 34/12/1 35/2/1 36/1/1
f 37/15/1 38/11/1 39/1/1 40/9/1
f 41/14/1 42/15/1 43/9/1 44/6/1
f 45/13/1 46/14/1 47/6/1 48/5/1
f 49/1/1 50/2/1 51/3/1 52/4/1
f 53/5/1 54/6/1 55/7/1 56/8/1
f 57/1/1 58/2/1 59/3/1 60/4/1
f 61/5/1 62/6/1 63/7/1 64/8/1
f 65/1/1 66/2/1 67/3/1 68/4/1
f 69/9/1 70/1/1 71/4/1 72/10/1
f 73/6/1 74/9/1 75/10/1 76/7/1
f 77/5/1 78/6/1 79/7/1 80/8/1
f 81/11/1 82/12/1 83/2/1 84/1/1
f 85/13/1 86/14/1 87/6/1 88/5/1
f 89/11/1 90/12/1 91/2/1 92/1/1
f 93/13/1 94/14/1 95/6/1 96/5/1
f 97/11/1 98/12/1 99/2/1 100/1/1
f 101/15/1 102/11/1 103/1/1 104/9/1
f 105/14/1 106/15/1 107/9/1 108/6/1
f 109/13/1 110/14/1 111/6/1 112/5/1
f 113/1/1 114/2/1 115/3/1 116/4/1
f 117/5/1 118/6/1 119/7/1 120/8/1
f 121/11/1 122/12/1 123/2/1 124/1/1
f 125/13/1 126/14/1 127/6/1 128/5/1

