# Tiled2Unity generated file. Do not modify by hand.
# Wavefront file for 'Level01-C_mesh_0002.obj'

# Vertices (Count = 552)
v -8 -37 0
v -9 -37 0
v -9 -36 0
v -8 -36 0
v -9 -37 0
v -10 -37 0
v -10 -36 0
v -9 -36 0
v -8 -38 0
v -9 -38 0
v -9 -37 0
v -8 -37 0
v -9 -38 0
v -10 -38 0
v -10 -37 0
v -9 -37 0
v -8 -41 0
v -9 -41 0
v -9 -40 0
v -8 -40 0
v -9 -41 0
v -10 -41 0
v -10 -40 0
v -9 -40 0
v -8 -42 0
v -9 -42 0
v -9 -41 0
v -8 -41 0
v -9 -42 0
v -10 -42 0
v -10 -41 0
v -9 -41 0
v -8 -43 0
v -9 -43 0
v -9 -42 0
v -8 -42 0
v -9 -43 0
v -10 -43 0
v -10 -42 0
v -9 -42 0
v -8 -44 0
v -9 -44 0
v -9 -43 0
v -8 -43 0
v -9 -44 0
v -10 -44 0
v -10 -43 0
v -9 -43 0
v -8 -45 0
v -9 -45 0
v -9 -44 0
v -8 -44 0
v -9 -45 0
v -10 -45 0
v -10 -44 0
v -9 -44 0
v -8 -46 0
v -9 -46 0
v -9 -45 0
v -8 -45 0
v -9 -46 0
v -10 -46 0
v -10 -45 0
v -9 -45 0
v -29 -46 0
v -30 -46 0
v -30 -45 0
v -29 -45 0
v -30 -46 0
v -31 -46 0
v -31 -45 0
v -30 -45 0
v -8 -47 0
v -9 -47 0
v -9 -46 0
v -8 -46 0
v -9 -47 0
v -10 -47 0
v -10 -46 0
v -9 -46 0
v -29 -47 0
v -30 -47 0
v -30 -46 0
v -29 -46 0
v -30 -47 0
v -31 -47 0
v -31 -46 0
v -30 -46 0
v -8 -48 0
v -9 -48 0
v -9 -47 0
v -8 -47 0
v -9 -48 0
v -10 -48 0
v -10 -47 0
v -9 -47 0
v -30 -48 0
v -31 -48 0
v -31 -47 0
v -30 -47 0
v -31 -48 0
v -32 -48 0
v -32 -47 0
v -31 -47 0
v -32 -48 0
v -33 -48 0
v -33 -47 0
v -32 -47 0
v -33 -48 0
v -34 -48 0
v -34 -47 0
v -33 -47 0
v -8 -49 0
v -9 -49 0
v -9 -48 0
v -8 -48 0
v -9 -49 0
v -10 -49 0
v -10 -48 0
v -9 -48 0
v -29 -49 0
v -30 -49 0
v -30 -48 0
v -29 -48 0
v -30 -49 0
v -31 -49 0
v -31 -48 0
v -30 -48 0
v -31 -49 0
v -32 -49 0
v -32 -48 0
v -31 -48 0
v -32 -49 0
v -33 -49 0
v -33 -48 0
v -32 -48 0
v -33 -49 0
v -34 -49 0
v -34 -48 0
v -33 -48 0
v -34 -49 0
v -35 -49 0
v -35 -48 0
v -34 -48 0
v -35 -49 0
v -36 -49 0
v -36 -48 0
v -35 -48 0
v -40 -49 0
v -41 -49 0
v -41 -48 0
v -40 -48 0
v -41 -49 0
v -42 -49 0
v -42 -48 0
v -41 -48 0
v -8 -50 0
v -9 -50 0
v -9 -49 0
v -8 -49 0
v -9 -50 0
v -10 -50 0
v -10 -49 0
v -9 -49 0
v -29 -50 0
v -30 -50 0
v -30 -49 0
v -29 -49 0
v -30 -50 0
v -31 -50 0
v -31 -49 0
v -30 -49 0
v -31 -50 0
v -32 -50 0
v -32 -49 0
v -31 -49 0
v -32 -50 0
v -33 -50 0
v -33 -49 0
v -32 -49 0
v -33 -50 0
v -34 -50 0
v -34 -49 0
v -33 -49 0
v -34 -50 0
v -35 -50 0
v -35 -49 0
v -34 -49 0
v -35 -50 0
v -36 -50 0
v -36 -49 0
v -35 -49 0
v -40 -50 0
v -41 -50 0
v -41 -49 0
v -40 -49 0
v -41 -50 0
v -42 -50 0
v -42 -49 0
v -41 -49 0
v -8 -51 0
v -9 -51 0
v -9 -50 0
v -8 -50 0
v -9 -51 0
v -10 -51 0
v -10 -50 0
v -9 -50 0
v -29 -51 0
v -30 -51 0
v -30 -50 0
v -29 -50 0
v -30 -51 0
v -31 -51 0
v -31 -50 0
v -30 -50 0
v -31 -51 0
v -32 -51 0
v -32 -50 0
v -31 -50 0
v -32 -51 0
v -33 -51 0
v -33 -50 0
v -32 -50 0
v -33 -51 0
v -34 -51 0
v -34 -50 0
v -33 -50 0
v -34 -51 0
v -35 -51 0
v -35 -50 0
v -34 -50 0
v -35 -51 0
v -36 -51 0
v -36 -50 0
v -35 -50 0
v -36 -51 0
v -37 -51 0
v -37 -50 0
v -36 -50 0
v -37 -51 0
v -38 -51 0
v -38 -50 0
v -37 -50 0
v -38 -51 0
v -39 -51 0
v -39 -50 0
v -38 -50 0
v -39 -51 0
v -40 -51 0
v -40 -50 0
v -39 -50 0
v -40 -51 0
v -41 -51 0
v -41 -50 0
v -40 -50 0
v -41 -51 0
v -42 -51 0
v -42 -50 0
v -41 -50 0
v -42 -51 0
v -43 -51 0
v -43 -50 0
v -42 -50 0
v -43 -51 0
v -44 -51 0
v -44 -50 0
v -43 -50 0
v -44 -51 0
v -45 -51 0
v -45 -50 0
v -44 -50 0
v -8 -52 0
v -9 -52 0
v -9 -51 0
v -8 -51 0
v -9 -52 0
v -10 -52 0
v -10 -51 0
v -9 -51 0
v -29 -52 0
v -30 -52 0
v -30 -51 0
v -29 -51 0
v -30 -52 0
v -31 -52 0
v -31 -51 0
v -30 -51 0
v -31 -52 0
v -32 -52 0
v -32 -51 0
v -31 -51 0
v -32 -52 0
v -33 -52 0
v -33 -51 0
v -32 -51 0
v -33 -52 0
v -34 -52 0
v -34 -51 0
v -33 -51 0
v -34 -52 0
v -35 -52 0
v -35 -51 0
v -34 -51 0
v -35 -52 0
v -36 -52 0
v -36 -51 0
v -35 -51 0
v -36 -52 0
v -37 -52 0
v -37 -51 0
v -36 -51 0
v -37 -52 0
v -38 -52 0
v -38 -51 0
v -37 -51 0
v -38 -52 0
v -39 -52 0
v -39 -51 0
v -38 -51 0
v -39 -52 0
v -40 -52 0
v -40 -51 0
v -39 -51 0
v -40 -52 0
v -41 -52 0
v -41 -51 0
v -40 -51 0
v -41 -52 0
v -42 -52 0
v -42 -51 0
v -41 -51 0
v -42 -52 0
v -43 -52 0
v -43 -51 0
v -42 -51 0
v -43 -52 0
v -44 -52 0
v -44 -51 0
v -43 -51 0
v -44 -52 0
v -45 -52 0
v -45 -51 0
v -44 -51 0
v -8 -53 0
v -9 -53 0
v -9 -52 0
v -8 -52 0
v -9 -53 0
v -10 -53 0
v -10 -52 0
v -9 -52 0
v -29 -53 0
v -30 -53 0
v -30 -52 0
v -29 -52 0
v -30 -53 0
v -31 -53 0
v -31 -52 0
v -30 -52 0
v -31 -53 0
v -32 -53 0
v -32 -52 0
v -31 -52 0
v -32 -53 0
v -33 -53 0
v -33 -52 0
v -32 -52 0
v -33 -53 0
v -34 -53 0
v -34 -52 0
v -33 -52 0
v -34 -53 0
v -35 -53 0
v -35 -52 0
v -34 -52 0
v -35 -53 0
v -36 -53 0
v -36 -52 0
v -35 -52 0
v -36 -53 0
v -37 -53 0
v -37 -52 0
v -36 -52 0
v -37 -53 0
v -38 -53 0
v -38 -52 0
v -37 -52 0
v -38 -53 0
v -39 -53 0
v -39 -52 0
v -38 -52 0
v -39 -53 0
v -40 -53 0
v -40 -52 0
v -39 -52 0
v -40 -53 0
v -41 -53 0
v -41 -52 0
v -40 -52 0
v -41 -53 0
v -42 -53 0
v -42 -52 0
v -41 -52 0
v -42 -53 0
v -43 -53 0
v -43 -52 0
v -42 -52 0
v -43 -53 0
v -44 -53 0
v -44 -52 0
v -43 -52 0
v -44 -53 0
v -45 -53 0
v -45 -52 0
v -44 -52 0
v -8 -54 0
v -9 -54 0
v -9 -53 0
v -8 -53 0
v -9 -54 0
v -10 -54 0
v -10 -53 0
v -9 -53 0
v -33 -54 0
v -34 -54 0
v -34 -53 0
v -33 -53 0
v -34 -54 0
v -35 -54 0
v -35 -53 0
v -34 -53 0
v -35 -54 0
v -36 -54 0
v -36 -53 0
v -35 -53 0
v -36 -54 0
v -37 -54 0
v -37 -53 0
v -36 -53 0
v -37 -54 0
v -38 -54 0
v -38 -53 0
v -37 -53 0
v -38 -54 0
v -39 -54 0
v -39 -53 0
v -38 -53 0
v -39 -54 0
v -40 -54 0
v -40 -53 0
v -39 -53 0
v -40 -54 0
v -41 -54 0
v -41 -53 0
v -40 -53 0
v -41 -54 0
v -42 -54 0
v -42 -53 0
v -41 -53 0
v -42 -54 0
v -43 -54 0
v -43 -53 0
v -42 -53 0
v -43 -54 0
v -44 -54 0
v -44 -53 0
v -43 -53 0
v -44 -54 0
v -45 -54 0
v -45 -53 0
v -44 -53 0
v -8 -55 0
v -9 -55 0
v -9 -54 0
v -8 -54 0
v -9 -55 0
v -10 -55 0
v -10 -54 0
v -9 -54 0
v -8 -56 0
v -9 -56 0
v -9 -55 0
v -8 -55 0
v -9 -56 0
v -10 -56 0
v -10 -55 0
v -9 -55 0
v -8 -57 0
v -9 -57 0
v -9 -56 0
v -8 -56 0
v -9 -57 0
v -10 -57 0
v -10 -56 0
v -9 -56 0
v -8 -58 0
v -9 -58 0
v -9 -57 0
v -8 -57 0
v -9 -58 0
v -10 -58 0
v -10 -57 0
v -9 -57 0
v -8 -59 0
v -9 -59 0
v -9 -58 0
v -8 -58 0
v -9 -59 0
v -10 -59 0
v -10 -58 0
v -9 -58 0
v -8 -60 0
v -9 -60 0
v -9 -59 0
v -8 -59 0
v -9 -60 0
v -10 -60 0
v -10 -59 0
v -9 -59 0
v -8 -61 0
v -9 -61 0
v -9 -60 0
v -8 -60 0
v -9 -61 0
v -10 -61 0
v -10 -60 0
v -9 -60 0
v -8 -62 0
v -9 -62 0
v -9 -61 0
v -8 -61 0
v -9 -62 0
v -10 -62 0
v -10 -61 0
v -9 -61 0
v -8 -63 0
v -9 -63 0
v -9 -62 0
v -8 -62 0
v -9 -63 0
v -10 -63 0
v -10 -62 0
v -9 -62 0
v -8 -64 0
v -9 -64 0
v -9 -63 0
v -8 -63 0
v -9 -64 0
v -10 -64 0
v -10 -63 0
v -9 -63 0

# Texture cooridinates (Count = 35)
vt 0.125 0.9583333
vt 0.15625 0.9583333
vt 0.15625 1
vt 0.125 1
vt 0.1875 0.9583333
vt 0.1875 1
vt 0.125 0.9166667
vt 0.15625 0.9166667
vt 0.1875 0.9166667
vt 0.125 0.875
vt 0.15625 0.875
vt 0.21875 0.875
vt 0.25 0.875
vt 0.25 0.9166667
vt 0.21875 0.9166667
vt 0.125 0.7916667
vt 0.15625 0.7916667
vt 0.15625 0.8333333
vt 0.125 0.8333333
vt 0.21875 0.7916667
vt 0.25 0.7916667
vt 0.25 0.8333333
vt 0.21875 0.8333333
vt 0.1875 0.875
vt 0.21875 0.9583333
vt 0.21875 1
vt 0.1875 0.8333333
vt 0.25 0.9583333
vt 0.25 1
vt 0.1875 0.7916667
vt 0.125 0.75
vt 0.15625 0.75
vt 0.1875 0.75
vt 0.21875 0.75
vt 0.25 0.75

# Normal
vn 0 0 -1

# Mesh description
g Level01-C_mesh_0002

# Faces
f 1/1/1 2/2/1 3/3/1 4/4/1
f 5/2/1 6/5/1 7/6/1 8/3/1
f 9/7/1 10/8/1 11/2/1 12/1/1
f 13/8/1 14/9/1 15/5/1 16/2/1
f 17/10/1 18/11/1 19/8/1 20/7/1
f 21/12/1 22/13/1 23/14/1 24/15/1
f 25/16/1 26/17/1 27/18/1 28/19/1
f 29/20/1 30/21/1 31/22/1 32/23/1
f 33/19/1 34/18/1 35/11/1 36/10/1
f 37/23/1 38/22/1 39/13/1 40/12/1
f 41/16/1 42/17/1 43/18/1 44/19/1
f 45/20/1 46/21/1 47/22/1 48/23/1
f 49/19/1 50/18/1 51/11/1 52/10/1
f 53/23/1 54/22/1 55/13/1 56/12/1
f 57/16/1 58/17/1 59/18/1 60/19/1
f 61/20/1 62/21/1 63/22/1 64/23/1
f 65/1/1 66/2/1 67/3/1 68/4/1
f 69/2/1 70/5/1 71/6/1 72/3/1
f 73/19/1 74/18/1 75/11/1 76/10/1
f 77/23/1 78/22/1 79/13/1 80/12/1
f 81/7/1 82/8/1 83/2/1 84/1/1
f 85/8/1 86/9/1 87/5/1 88/2/1
f 89/16/1 90/17/1 91/18/1 92/19/1
f 93/20/1 94/21/1 95/22/1 96/23/1
f 97/10/1 98/11/1 99/8/1 100/7/1
f 101/11/1 102/24/1 103/9/1 104/8/1
f 105/24/1 106/12/1 107/15/1 108/9/1
f 109/12/1 110/13/1 111/14/1 112/15/1
f 113/19/1 114/18/1 115/11/1 116/10/1
f 117/23/1 118/22/1 119/13/1 120/12/1
f 121/10/1 122/11/1 123/8/1 124/7/1
f 125/5/1 126/25/1 127/26/1 128/6/1
f 129/27/1 130/23/1 131/12/1 132/24/1
f 133/27/1 134/23/1 135/12/1 136/24/1
f 137/25/1 138/28/1 139/29/1 140/26/1
f 141/24/1 142/12/1 143/15/1 144/9/1
f 145/12/1 146/13/1 147/14/1 148/15/1
f 149/1/1 150/2/1 151/3/1 152/4/1
f 153/2/1 154/5/1 155/6/1 156/3/1
f 157/16/1 158/17/1 159/18/1 160/19/1
f 161/20/1 162/21/1 163/22/1 164/23/1
f 165/19/1 166/18/1 167/11/1 168/10/1
f 169/17/1 170/30/1 171/27/1 172/18/1
f 173/30/1 174/20/1 175/23/1 176/27/1
f 177/17/1 178/30/1 179/27/1 180/18/1
f 181/30/1 182/20/1 183/23/1 184/27/1
f 185/27/1 186/23/1 187/12/1 188/24/1
f 189/23/1 190/22/1 191/13/1 192/12/1
f 193/7/1 194/8/1 195/2/1 196/1/1
f 197/8/1 198/9/1 199/5/1 200/2/1
f 201/19/1 202/18/1 203/11/1 204/10/1
f 205/23/1 206/22/1 207/13/1 208/12/1
f 209/16/1 210/17/1 211/18/1 212/19/1
f 213/18/1 214/27/1 215/24/1 216/11/1
f 217/27/1 218/23/1 219/12/1 220/24/1
f 221/18/1 222/27/1 223/24/1 224/11/1
f 225/27/1 226/23/1 227/12/1 228/24/1
f 229/18/1 230/27/1 231/24/1 232/11/1
f 233/25/1 234/28/1 235/29/1 236/26/1
f 237/24/1 238/12/1 239/15/1 240/9/1
f 241/11/1 242/24/1 243/9/1 244/8/1
f 245/24/1 246/12/1 247/15/1 248/9/1
f 249/11/1 250/24/1 251/9/1 252/8/1
f 253/12/1 254/13/1 255/14/1 256/15/1
f 257/10/1 258/11/1 259/8/1 260/7/1
f 261/11/1 262/24/1 263/9/1 264/8/1
f 265/24/1 266/12/1 267/15/1 268/9/1
f 269/12/1 270/13/1 271/14/1 272/15/1
f 273/16/1 274/17/1 275/18/1 276/19/1
f 277/20/1 278/21/1 279/22/1 280/23/1
f 281/19/1 282/18/1 283/11/1 284/10/1
f 285/17/1 286/30/1 287/27/1 288/18/1
f 289/30/1 290/20/1 291/23/1 292/27/1
f 293/17/1 294/30/1 295/27/1 296/18/1
f 297/30/1 298/20/1 299/23/1 300/27/1
f 301/17/1 302/30/1 303/27/1 304/18/1
f 305/30/1 306/20/1 307/23/1 308/27/1
f 309/17/1 310/30/1 311/27/1 312/18/1
f 313/30/1 314/20/1 315/23/1 316/27/1
f 317/17/1 318/30/1 319/27/1 320/18/1
f 321/30/1 322/20/1 323/23/1 324/27/1
f 325/25/1 326/28/1 327/29/1 328/26/1
f 329/5/1 330/25/1 331/26/1 332/6/1
f 333/18/1 334/27/1 335/24/1 336/11/1
f 337/27/1 338/23/1 339/12/1 340/24/1
f 341/23/1 342/22/1 343/13/1 344/12/1
f 345/19/1 346/18/1 347/11/1 348/10/1
f 349/23/1 350/22/1 351/13/1 352/12/1
f 353/31/1 354/32/1 355/17/1 356/16/1
f 357/32/1 358/33/1 359/30/1 360/17/1
f 361/33/1 362/34/1 363/20/1 364/30/1
f 365/32/1 366/33/1 367/30/1 368/17/1
f 369/9/1 370/15/1 371/25/1 372/5/1
f 373/18/1 374/27/1 375/24/1 376/11/1
f 377/27/1 378/23/1 379/12/1 380/24/1
f 381/18/1 382/27/1 383/24/1 384/11/1
f 385/27/1 386/23/1 387/12/1 388/24/1
f 389/18/1 390/27/1 391/24/1 392/11/1
f 393/27/1 394/23/1 395/12/1 396/24/1
f 397/18/1 398/27/1 399/24/1 400/11/1
f 401/27/1 402/23/1 403/12/1 404/24/1
f 405/17/1 406/30/1 407/27/1 408/18/1
f 409/30/1 410/20/1 411/23/1 412/27/1
f 413/20/1 414/21/1 415/22/1 416/23/1
f 417/16/1 418/17/1 419/18/1 420/19/1
f 421/20/1 422/21/1 423/22/1 424/23/1
f 425/31/1 426/32/1 427/17/1 428/16/1
f 429/33/1 430/34/1 431/20/1 432/30/1
f 433/32/1 434/33/1 435/30/1 436/17/1
f 437/33/1 438/34/1 439/20/1 440/30/1
f 441/32/1 442/33/1 443/30/1 444/17/1
f 445/33/1 446/34/1 447/20/1 448/30/1
f 449/32/1 450/33/1 451/30/1 452/17/1
f 453/33/1 454/34/1 455/20/1 456/30/1
f 457/32/1 458/33/1 459/30/1 460/17/1
f 461/32/1 462/33/1 463/30/1 464/17/1
f 465/33/1 466/34/1 467/20/1 468/30/1
f 469/34/1 470/35/1 471/21/1 472/20/1
f 473/19/1 474/18/1 475/11/1 476/10/1
f 477/23/1 478/22/1 479/13/1 480/12/1
f 481/16/1 482/17/1 483/18/1 484/19/1
f 485/20/1 486/21/1 487/22/1 488/23/1
f 489/19/1 490/18/1 491/11/1 492/10/1
f 493/23/1 494/22/1 495/13/1 496/12/1
f 497/16/1 498/17/1 499/18/1 500/19/1
f 501/20/1 502/21/1 503/22/1 504/23/1
f 505/19/1 506/18/1 507/11/1 508/10/1
f 509/23/1 510/22/1 511/13/1 512/12/1
f 513/16/1 514/17/1 515/18/1 516/19/1
f 517/20/1 518/21/1 519/22/1 520/23/1
f 521/19/1 522/18/1 523/11/1 524/10/1
f 525/23/1 526/22/1 527/13/1 528/12/1
f 529/16/1 530/17/1 531/18/1 532/19/1
f 533/20/1 534/21/1 535/22/1 536/23/1
f 537/19/1 538/18/1 539/11/1 540/10/1
f 541/23/1 542/22/1 543/13/1 544/12/1
f 545/16/1 546/17/1 547/18/1 548/19/1
f 549/20/1 550/21/1 551/22/1 552/23/1

