# Tiled2Unity generated file. Do not modify by hand.
# Wavefront file for 'Level01-C_mesh_0008.obj'

# Vertices (Count = 400)
v -10 -3 0
v -11 -3 0
v -11 -2 0
v -10 -2 0
v -11 -3 0
v -12 -3 0
v -12 -2 0
v -11 -2 0
v -52 -3 0
v -53 -3 0
v -53 -2 0
v -52 -2 0
v -53 -3 0
v -54 -3 0
v -54 -2 0
v -53 -2 0
v -10 -4 0
v -11 -4 0
v -11 -3 0
v -10 -3 0
v -11 -4 0
v -12 -4 0
v -12 -3 0
v -11 -3 0
v -52 -4 0
v -53 -4 0
v -53 -3 0
v -52 -3 0
v -53 -4 0
v -54 -4 0
v -54 -3 0
v -53 -3 0
v -12 -5 0
v -13 -5 0
v -13 -4 0
v -12 -4 0
v -13 -5 0
v -14 -5 0
v -14 -4 0
v -13 -4 0
v -12 -6 0
v -13 -6 0
v -13 -5 0
v -12 -5 0
v -13 -6 0
v -14 -6 0
v -14 -5 0
v -13 -5 0
v -6 -7 0
v -7 -7 0
v -7 -6 0
v -6 -6 0
v -7 -7 0
v -8 -7 0
v -8 -6 0
v -7 -6 0
v -54 -7 0
v -55 -7 0
v -55 -6 0
v -54 -6 0
v -55 -7 0
v -56 -7 0
v -56 -6 0
v -55 -6 0
v -6 -8 0
v -7 -8 0
v -7 -7 0
v -6 -7 0
v -7 -8 0
v -8 -8 0
v -8 -7 0
v -7 -7 0
v -54 -8 0
v -55 -8 0
v -55 -7 0
v -54 -7 0
v -55 -8 0
v -56 -8 0
v -56 -7 0
v -55 -7 0
v -6 -9 0
v -7 -9 0
v -7 -8 0
v -6 -8 0
v -7 -9 0
v -8 -9 0
v -8 -8 0
v -7 -8 0
v -19 -9 0
v -20 -9 0
v -20 -8 0
v -19 -8 0
v -20 -9 0
v -21 -9 0
v -21 -8 0
v -20 -8 0
v -6 -10 0
v -7 -10 0
v -7 -9 0
v -6 -9 0
v -7 -10 0
v -8 -10 0
v -8 -9 0
v -7 -9 0
v -19 -10 0
v -20 -10 0
v -20 -9 0
v -19 -9 0
v -20 -10 0
v -21 -10 0
v -21 -9 0
v -20 -9 0
v -10 -15 0
v -11 -15 0
v -11 -14 0
v -10 -14 0
v -11 -15 0
v -12 -15 0
v -12 -14 0
v -11 -14 0
v -10 -16 0
v -11 -16 0
v -11 -15 0
v -10 -15 0
v -11 -16 0
v -12 -16 0
v -12 -15 0
v -11 -15 0
v -24 -22 0
v -25 -22 0
v -25 -21 0
v -24 -21 0
v -25 -22 0
v -26 -22 0
v -26 -21 0
v -25 -21 0
v -24 -23 0
v -25 -23 0
v -25 -22 0
v -24 -22 0
v -25 -23 0
v -26 -23 0
v -26 -22 0
v -25 -22 0
v -58 -25 0
v -59 -25 0
v -59 -24 0
v -58 -24 0
v -59 -25 0
v -60 -25 0
v -60 -24 0
v -59 -24 0
v -52 -26 0
v -53 -26 0
v -53 -25 0
v -52 -25 0
v -53 -26 0
v -54 -26 0
v -54 -25 0
v -53 -25 0
v -58 -26 0
v -59 -26 0
v -59 -25 0
v -58 -25 0
v -59 -26 0
v -60 -26 0
v -60 -25 0
v -59 -25 0
v -52 -27 0
v -53 -27 0
v -53 -26 0
v -52 -26 0
v -53 -27 0
v -54 -27 0
v -54 -26 0
v -53 -26 0
v -16 -28 0
v -17 -28 0
v -17 -27 0
v -16 -27 0
v -17 -28 0
v -18 -28 0
v -18 -27 0
v -17 -27 0
v -16 -29 0
v -17 -29 0
v -17 -28 0
v -16 -28 0
v -17 -29 0
v -18 -29 0
v -18 -28 0
v -17 -28 0
v -17 -32 0
v -18 -32 0
v -18 -31 0
v -17 -31 0
v -18 -32 0
v -19 -32 0
v -19 -31 0
v -18 -31 0
v -17 -33 0
v -18 -33 0
v -18 -32 0
v -17 -32 0
v -18 -33 0
v -19 -33 0
v -19 -32 0
v -18 -32 0
v -58 -34 0
v -59 -34 0
v -59 -33 0
v -58 -33 0
v -59 -34 0
v -60 -34 0
v -60 -33 0
v -59 -33 0
v -58 -35 0
v -59 -35 0
v -59 -34 0
v -58 -34 0
v -59 -35 0
v -60 -35 0
v -60 -34 0
v -59 -34 0
v -58 -36 0
v -59 -36 0
v -59 -35 0
v -58 -35 0
v -59 -36 0
v -60 -36 0
v -60 -35 0
v -59 -35 0
v -6 -37 0
v -7 -37 0
v -7 -36 0
v -6 -36 0
v -7 -37 0
v -8 -37 0
v -8 -36 0
v -7 -36 0
v -41 -37 0
v -42 -37 0
v -42 -36 0
v -41 -36 0
v -42 -37 0
v -43 -37 0
v -43 -36 0
v -42 -36 0
v -58 -37 0
v -59 -37 0
v -59 -36 0
v -58 -36 0
v -59 -37 0
v -60 -37 0
v -60 -36 0
v -59 -36 0
v -6 -38 0
v -7 -38 0
v -7 -37 0
v -6 -37 0
v -7 -38 0
v -8 -38 0
v -8 -37 0
v -7 -37 0
v -41 -38 0
v -42 -38 0
v -42 -37 0
v -41 -37 0
v -42 -38 0
v -43 -38 0
v -43 -37 0
v -42 -37 0
v -12 -39 0
v -13 -39 0
v -13 -38 0
v -12 -38 0
v -13 -39 0
v -14 -39 0
v -14 -38 0
v -13 -38 0
v -34 -39 0
v -35 -39 0
v -35 -38 0
v -34 -38 0
v -35 -39 0
v -36 -39 0
v -36 -38 0
v -35 -38 0
v -12 -40 0
v -13 -40 0
v -13 -39 0
v -12 -39 0
v -13 -40 0
v -14 -40 0
v -14 -39 0
v -13 -39 0
v -34 -40 0
v -35 -40 0
v -35 -39 0
v -34 -39 0
v -35 -40 0
v -36 -40 0
v -36 -39 0
v -35 -39 0
v -22 -43 0
v -23 -43 0
v -23 -42 0
v -22 -42 0
v -23 -43 0
v -24 -43 0
v -24 -42 0
v -23 -42 0
v -22 -44 0
v -23 -44 0
v -23 -43 0
v -22 -43 0
v -23 -44 0
v -24 -44 0
v -24 -43 0
v -23 -43 0
v -2 -53 0
v -3 -53 0
v -3 -52 0
v -2 -52 0
v -3 -53 0
v -4 -53 0
v -4 -52 0
v -3 -52 0
v -12 -53 0
v -13 -53 0
v -13 -52 0
v -12 -52 0
v -13 -53 0
v -14 -53 0
v -14 -52 0
v -13 -52 0
v -2 -54 0
v -3 -54 0
v -3 -53 0
v -2 -53 0
v -3 -54 0
v -4 -54 0
v -4 -53 0
v -3 -53 0
v -12 -54 0
v -13 -54 0
v -13 -53 0
v -12 -53 0
v -13 -54 0
v -14 -54 0
v -14 -53 0
v -13 -53 0
v -4 -61 0
v -5 -61 0
v -5 -60 0
v -4 -60 0
v -5 -61 0
v -6 -61 0
v -6 -60 0
v -5 -60 0
v -12 -61 0
v -13 -61 0
v -13 -60 0
v -12 -60 0
v -13 -61 0
v -14 -61 0
v -14 -60 0
v -13 -60 0
v -14 -61 0
v -15 -61 0
v -15 -60 0
v -14 -60 0
v -15 -61 0
v -16 -61 0
v -16 -60 0
v -15 -60 0
v -4 -62 0
v -5 -62 0
v -5 -61 0
v -4 -61 0
v -5 -62 0
v -6 -62 0
v -6 -61 0
v -5 -61 0
v -12 -62 0
v -13 -62 0
v -13 -61 0
v -12 -61 0
v -13 -62 0
v -14 -62 0
v -14 -61 0
v -13 -61 0
v -14 -62 0
v -15 -62 0
v -15 -61 0
v -14 -61 0
v -15 -62 0
v -16 -62 0
v -16 -61 0
v -15 -61 0

# Texture cooridinates (Count = 69)
vt 0.5 0.03125
vt 0.53125 0.03125
vt 0.53125 0.0625
vt 0.5 0.0625
vt 0.5625 0.03125
vt 0.5625 0.0625
vt 0.5 0
vt 0.53125 0
vt 0.5625 0
vt 0.59375 0.03125
vt 0.59375 0.0625
vt 0.625 0.03125
vt 0.625 0.0625
vt 0.59375 0
vt 0.625 0
vt 0.6875 0.65625
vt 0.71875 0.65625
vt 0.71875 0.6875
vt 0.6875 0.6875
vt 0.75 0.65625
vt 0.75 0.6875
vt 0.6875 0.59375
vt 0.71875 0.59375
vt 0.71875 0.625
vt 0.6875 0.625
vt 0.75 0.59375
vt 0.75 0.625
vt 0.6875 0.5625
vt 0.71875 0.5625
vt 0.75 0.5625
vt 0.65625 0.03125
vt 0.65625 0.0625
vt 0.6875 0.03125
vt 0.6875 0.0625
vt 0.65625 0
vt 0.6875 0
vt 0.71875 0.03125
vt 0.71875 0.0625
vt 0.75 0.03125
vt 0.75 0.0625
vt 0.71875 0
vt 0.75 0
vt 0.9375 0.65625
vt 0.96875 0.65625
vt 0.96875 0.6875
vt 0.9375 0.6875
vt 1 0.65625
vt 1 0.6875
vt 0.9375 0.625
vt 0.96875 0.625
vt 1 0.625
vt 0.625 0.65625
vt 0.65625 0.65625
vt 0.65625 0.6875
vt 0.625 0.6875
vt 0.8125 0.59375
vt 0.78125 0.59375
vt 0.78125 0.625
vt 0.8125 0.625
vt 0.625 0.625
vt 0.65625 0.625
vt 0.8125 0.5625
vt 0.78125 0.5625
vt 0.9375 0.59375
vt 0.96875 0.59375
vt 1 0.59375
vt 0.9375 0.5625
vt 0.96875 0.5625
vt 1 0.5625

# Normal
vn 0 0 -1

# Mesh description
g Level01-C_mesh_0008

# Faces
f 1/1/1 2/2/1 3/3/1 4/4/1
f 5/2/1 6/5/1 7/6/1 8/3/1
f 9/1/1 10/2/1 11/3/1 12/4/1
f 13/2/1 14/5/1 15/6/1 16/3/1
f 17/7/1 18/8/1 19/2/1 20/1/1
f 21/8/1 22/9/1 23/5/1 24/2/1
f 25/7/1 26/8/1 27/2/1 28/1/1
f 29/8/1 30/9/1 31/5/1 32/2/1
f 33/5/1 34/10/1 35/11/1 36/6/1
f 37/10/1 38/12/1 39/13/1 40/11/1
f 41/9/1 42/14/1 43/10/1 44/5/1
f 45/14/1 46/15/1 47/12/1 48/10/1
f 49/16/1 50/17/1 51/18/1 52/19/1
f 53/17/1 54/20/1 55/21/1 56/18/1
f 57/22/1 58/23/1 59/24/1 60/25/1
f 61/23/1 62/26/1 63/27/1 64/24/1
f 65/25/1 66/24/1 67/17/1 68/16/1
f 69/24/1 70/27/1 71/20/1 72/17/1
f 73/28/1 74/29/1 75/23/1 76/22/1
f 77/29/1 78/30/1 79/26/1 80/23/1
f 81/12/1 82/31/1 83/32/1 84/13/1
f 85/31/1 86/33/1 87/34/1 88/32/1
f 89/5/1 90/10/1 91/11/1 92/6/1
f 93/10/1 94/12/1 95/13/1 96/11/1
f 97/15/1 98/35/1 99/31/1 100/12/1
f 101/35/1 102/36/1 103/33/1 104/31/1
f 105/9/1 106/14/1 107/10/1 108/5/1
f 109/14/1 110/15/1 111/12/1 112/10/1
f 113/33/1 114/37/1 115/38/1 116/34/1
f 117/37/1 118/39/1 119/40/1 120/38/1
f 121/36/1 122/41/1 123/37/1 124/33/1
f 125/41/1 126/42/1 127/39/1 128/37/1
f 129/20/1 130/17/1 131/18/1 132/21/1
f 133/17/1 134/16/1 135/19/1 136/18/1
f 137/27/1 138/24/1 139/17/1 140/20/1
f 141/24/1 142/25/1 143/16/1 144/17/1
f 145/1/1 146/2/1 147/3/1 148/4/1
f 149/2/1 150/5/1 151/6/1 152/3/1
f 153/16/1 154/17/1 155/18/1 156/19/1
f 157/17/1 158/20/1 159/21/1 160/18/1
f 161/7/1 162/8/1 163/2/1 164/1/1
f 165/8/1 166/9/1 167/5/1 168/2/1
f 169/25/1 170/24/1 171/17/1 172/16/1
f 173/24/1 174/27/1 175/20/1 176/17/1
f 177/43/1 178/44/1 179/45/1 180/46/1
f 181/44/1 182/47/1 183/48/1 184/45/1
f 185/49/1 186/50/1 187/44/1 188/43/1
f 189/50/1 190/51/1 191/47/1 192/44/1
f 193/12/1 194/31/1 195/32/1 196/13/1
f 197/31/1 198/33/1 199/34/1 200/32/1
f 201/15/1 202/35/1 203/31/1 204/12/1
f 205/35/1 206/36/1 207/33/1 208/31/1
f 209/5/1 210/10/1 211/11/1 212/6/1
f 213/10/1 214/12/1 215/13/1 216/11/1
f 217/9/1 218/14/1 219/10/1 220/5/1
f 221/14/1 222/15/1 223/12/1 224/10/1
f 225/33/1 226/37/1 227/38/1 228/34/1
f 229/37/1 230/39/1 231/40/1 232/38/1
f 233/16/1 234/17/1 235/18/1 236/19/1
f 237/17/1 238/20/1 239/21/1 240/18/1
f 241/22/1 242/23/1 243/24/1 244/25/1
f 245/23/1 246/26/1 247/27/1 248/24/1
f 249/36/1 250/41/1 251/37/1 252/33/1
f 253/41/1 254/42/1 255/39/1 256/37/1
f 257/25/1 258/24/1 259/17/1 260/16/1
f 261/24/1 262/27/1 263/20/1 264/17/1
f 265/28/1 266/29/1 267/23/1 268/22/1
f 269/29/1 270/30/1 271/26/1 272/23/1
f 273/52/1 274/53/1 275/54/1 276/55/1
f 277/53/1 278/16/1 279/19/1 280/54/1
f 281/56/1 282/57/1 283/58/1 284/59/1
f 285/57/1 286/26/1 287/27/1 288/58/1
f 289/60/1 290/61/1 291/53/1 292/52/1
f 293/61/1 294/25/1 295/16/1 296/53/1
f 297/62/1 298/63/1 299/57/1 300/56/1
f 301/63/1 302/30/1 303/26/1 304/57/1
f 305/64/1 306/65/1 307/50/1 308/49/1
f 309/65/1 310/66/1 311/51/1 312/50/1
f 313/67/1 314/68/1 315/65/1 316/64/1
f 317/68/1 318/69/1 319/66/1 320/65/1
f 321/22/1 322/23/1 323/24/1 324/25/1
f 325/23/1 326/26/1 327/27/1 328/24/1
f 329/5/1 330/10/1 331/11/1 332/6/1
f 333/10/1 334/12/1 335/13/1 336/11/1
f 337/28/1 338/29/1 339/23/1 340/22/1
f 341/29/1 342/30/1 343/26/1 344/23/1
f 345/9/1 346/14/1 347/10/1 348/5/1
f 349/14/1 350/15/1 351/12/1 352/10/1
f 353/5/1 354/10/1 355/11/1 356/6/1
f 357/10/1 358/12/1 359/13/1 360/11/1
f 361/1/1 362/2/1 363/3/1 364/4/1
f 365/2/1 366/5/1 367/6/1 368/3/1
f 369/22/1 370/23/1 371/24/1 372/25/1
f 373/23/1 374/26/1 375/27/1 376/24/1
f 377/9/1 378/14/1 379/10/1 380/5/1
f 381/14/1 382/15/1 383/12/1 384/10/1
f 385/7/1 386/8/1 387/2/1 388/1/1
f 389/8/1 390/9/1 391/5/1 392/2/1
f 393/28/1 394/29/1 395/23/1 396/22/1
f 397/29/1 398/30/1 399/26/1 400/23/1

