# Tiled2Unity generated file. Do not modify by hand.
# Wavefront file for 'Level01-C_mesh_0010.obj'

# Vertices (Count = 1024)
v -4 -3 0
v -5 -3 0
v -5 -2 0
v -4 -2 0
v -5 -3 0
v -6 -3 0
v -6 -2 0
v -5 -2 0
v -6 -3 0
v -7 -3 0
v -7 -2 0
v -6 -2 0
v -7 -3 0
v -8 -3 0
v -8 -2 0
v -7 -2 0
v -8 -3 0
v -9 -3 0
v -9 -2 0
v -8 -2 0
v -9 -3 0
v -10 -3 0
v -10 -2 0
v -9 -2 0
v -16 -3 0
v -17 -3 0
v -17 -2 0
v -16 -2 0
v -17 -3 0
v -18 -3 0
v -18 -2 0
v -17 -2 0
v -18 -3 0
v -19 -3 0
v -19 -2 0
v -18 -2 0
v -19 -3 0
v -20 -3 0
v -20 -2 0
v -19 -2 0
v -20 -3 0
v -21 -3 0
v -21 -2 0
v -20 -2 0
v -21 -3 0
v -22 -3 0
v -22 -2 0
v -21 -2 0
v -22 -3 0
v -23 -3 0
v -23 -2 0
v -22 -2 0
v -23 -3 0
v -24 -3 0
v -24 -2 0
v -23 -2 0
v -24 -3 0
v -25 -3 0
v -25 -2 0
v -24 -2 0
v -25 -3 0
v -26 -3 0
v -26 -2 0
v -25 -2 0
v -28 -3 0
v -29 -3 0
v -29 -2 0
v -28 -2 0
v -29 -3 0
v -30 -3 0
v -30 -2 0
v -29 -2 0
v -30 -3 0
v -31 -3 0
v -31 -2 0
v -30 -2 0
v -31 -3 0
v -32 -3 0
v -32 -2 0
v -31 -2 0
v -32 -3 0
v -33 -3 0
v -33 -2 0
v -32 -2 0
v -33 -3 0
v -34 -3 0
v -34 -2 0
v -33 -2 0
v -34 -3 0
v -35 -3 0
v -35 -2 0
v -34 -2 0
v -35 -3 0
v -36 -3 0
v -36 -2 0
v -35 -2 0
v -38 -3 0
v -39 -3 0
v -39 -2 0
v -38 -2 0
v -39 -3 0
v -40 -3 0
v -40 -2 0
v -39 -2 0
v -40 -3 0
v -41 -3 0
v -41 -2 0
v -40 -2 0
v -41 -3 0
v -42 -3 0
v -42 -2 0
v -41 -2 0
v -42 -3 0
v -43 -3 0
v -43 -2 0
v -42 -2 0
v -43 -3 0
v -44 -3 0
v -44 -2 0
v -43 -2 0
v -44 -3 0
v -45 -3 0
v -45 -2 0
v -44 -2 0
v -45 -3 0
v -46 -3 0
v -46 -2 0
v -45 -2 0
v -46 -3 0
v -47 -3 0
v -47 -2 0
v -46 -2 0
v -47 -3 0
v -48 -3 0
v -48 -2 0
v -47 -2 0
v -54 -3 0
v -55 -3 0
v -55 -2 0
v -54 -2 0
v -55 -3 0
v -56 -3 0
v -56 -2 0
v -55 -2 0
v -56 -3 0
v -57 -3 0
v -57 -2 0
v -56 -2 0
v -57 -3 0
v -58 -3 0
v -58 -2 0
v -57 -2 0
v -58 -3 0
v -59 -3 0
v -59 -2 0
v -58 -2 0
v -59 -3 0
v -60 -3 0
v -60 -2 0
v -59 -2 0
v -4 -4 0
v -5 -4 0
v -5 -3 0
v -4 -3 0
v -5 -4 0
v -6 -4 0
v -6 -3 0
v -5 -3 0
v -6 -4 0
v -7 -4 0
v -7 -3 0
v -6 -3 0
v -7 -4 0
v -8 -4 0
v -8 -3 0
v -7 -3 0
v -8 -4 0
v -9 -4 0
v -9 -3 0
v -8 -3 0
v -9 -4 0
v -10 -4 0
v -10 -3 0
v -9 -3 0
v -16 -4 0
v -17 -4 0
v -17 -3 0
v -16 -3 0
v -17 -4 0
v -18 -4 0
v -18 -3 0
v -17 -3 0
v -18 -4 0
v -19 -4 0
v -19 -3 0
v -18 -3 0
v -19 -4 0
v -20 -4 0
v -20 -3 0
v -19 -3 0
v -20 -4 0
v -21 -4 0
v -21 -3 0
v -20 -3 0
v -21 -4 0
v -22 -4 0
v -22 -3 0
v -21 -3 0
v -22 -4 0
v -23 -4 0
v -23 -3 0
v -22 -3 0
v -23 -4 0
v -24 -4 0
v -24 -3 0
v -23 -3 0
v -24 -4 0
v -25 -4 0
v -25 -3 0
v -24 -3 0
v -25 -4 0
v -26 -4 0
v -26 -3 0
v -25 -3 0
v -28 -4 0
v -29 -4 0
v -29 -3 0
v -28 -3 0
v -29 -4 0
v -30 -4 0
v -30 -3 0
v -29 -3 0
v -30 -4 0
v -31 -4 0
v -31 -3 0
v -30 -3 0
v -31 -4 0
v -32 -4 0
v -32 -3 0
v -31 -3 0
v -32 -4 0
v -33 -4 0
v -33 -3 0
v -32 -3 0
v -33 -4 0
v -34 -4 0
v -34 -3 0
v -33 -3 0
v -34 -4 0
v -35 -4 0
v -35 -3 0
v -34 -3 0
v -35 -4 0
v -36 -4 0
v -36 -3 0
v -35 -3 0
v -38 -4 0
v -39 -4 0
v -39 -3 0
v -38 -3 0
v -39 -4 0
v -40 -4 0
v -40 -3 0
v -39 -3 0
v -40 -4 0
v -41 -4 0
v -41 -3 0
v -40 -3 0
v -41 -4 0
v -42 -4 0
v -42 -3 0
v -41 -3 0
v -42 -4 0
v -43 -4 0
v -43 -3 0
v -42 -3 0
v -43 -4 0
v -44 -4 0
v -44 -3 0
v -43 -3 0
v -44 -4 0
v -45 -4 0
v -45 -3 0
v -44 -3 0
v -45 -4 0
v -46 -4 0
v -46 -3 0
v -45 -3 0
v -46 -4 0
v -47 -4 0
v -47 -3 0
v -46 -3 0
v -47 -4 0
v -48 -4 0
v -48 -3 0
v -47 -3 0
v -54 -4 0
v -55 -4 0
v -55 -3 0
v -54 -3 0
v -55 -4 0
v -56 -4 0
v -56 -3 0
v -55 -3 0
v -56 -4 0
v -57 -4 0
v -57 -3 0
v -56 -3 0
v -57 -4 0
v -58 -4 0
v -58 -3 0
v -57 -3 0
v -58 -4 0
v -59 -4 0
v -59 -3 0
v -58 -3 0
v -59 -4 0
v -60 -4 0
v -60 -3 0
v -59 -3 0
v -2 -5 0
v -3 -5 0
v -3 -4 0
v -2 -4 0
v -3 -5 0
v -4 -5 0
v -4 -4 0
v -3 -4 0
v -4 -5 0
v -5 -5 0
v -5 -4 0
v -4 -4 0
v -5 -5 0
v -6 -5 0
v -6 -4 0
v -5 -4 0
v -6 -5 0
v -7 -5 0
v -7 -4 0
v -6 -4 0
v -7 -5 0
v -8 -5 0
v -8 -4 0
v -7 -4 0
v -8 -5 0
v -9 -5 0
v -9 -4 0
v -8 -4 0
v -9 -5 0
v -10 -5 0
v -10 -4 0
v -9 -4 0
v -10 -5 0
v -11 -5 0
v -11 -4 0
v -10 -4 0
v -11 -5 0
v -12 -5 0
v -12 -4 0
v -11 -4 0
v -14 -5 0
v -15 -5 0
v -15 -4 0
v -14 -4 0
v -15 -5 0
v -16 -5 0
v -16 -4 0
v -15 -4 0
v -16 -5 0
v -17 -5 0
v -17 -4 0
v -16 -4 0
v -17 -5 0
v -18 -5 0
v -18 -4 0
v -17 -4 0
v -18 -5 0
v -19 -5 0
v -19 -4 0
v -18 -4 0
v -19 -5 0
v -20 -5 0
v -20 -4 0
v -19 -4 0
v -20 -5 0
v -21 -5 0
v -21 -4 0
v -20 -4 0
v -21 -5 0
v -22 -5 0
v -22 -4 0
v -21 -4 0
v -22 -5 0
v -23 -5 0
v -23 -4 0
v -22 -4 0
v -23 -5 0
v -24 -5 0
v -24 -4 0
v -23 -4 0
v -24 -5 0
v -25 -5 0
v -25 -4 0
v -24 -4 0
v -25 -5 0
v -26 -5 0
v -26 -4 0
v -25 -4 0
v -26 -5 0
v -27 -5 0
v -27 -4 0
v -26 -4 0
v -27 -5 0
v -28 -5 0
v -28 -4 0
v -27 -4 0
v -28 -5 0
v -29 -5 0
v -29 -4 0
v -28 -4 0
v -29 -5 0
v -30 -5 0
v -30 -4 0
v -29 -4 0
v -30 -5 0
v -31 -5 0
v -31 -4 0
v -30 -4 0
v -31 -5 0
v -32 -5 0
v -32 -4 0
v -31 -4 0
v -32 -5 0
v -33 -5 0
v -33 -4 0
v -32 -4 0
v -33 -5 0
v -34 -5 0
v -34 -4 0
v -33 -4 0
v -34 -5 0
v -35 -5 0
v -35 -4 0
v -34 -4 0
v -35 -5 0
v -36 -5 0
v -36 -4 0
v -35 -4 0
v -36 -5 0
v -37 -5 0
v -37 -4 0
v -36 -4 0
v -37 -5 0
v -38 -5 0
v -38 -4 0
v -37 -4 0
v -38 -5 0
v -39 -5 0
v -39 -4 0
v -38 -4 0
v -39 -5 0
v -40 -5 0
v -40 -4 0
v -39 -4 0
v -40 -5 0
v -41 -5 0
v -41 -4 0
v -40 -4 0
v -41 -5 0
v -42 -5 0
v -42 -4 0
v -41 -4 0
v -42 -5 0
v -43 -5 0
v -43 -4 0
v -42 -4 0
v -43 -5 0
v -44 -5 0
v -44 -4 0
v -43 -4 0
v -44 -5 0
v -45 -5 0
v -45 -4 0
v -44 -4 0
v -45 -5 0
v -46 -5 0
v -46 -4 0
v -45 -4 0
v -46 -5 0
v -47 -5 0
v -47 -4 0
v -46 -4 0
v -47 -5 0
v -48 -5 0
v -48 -4 0
v -47 -4 0
v -48 -5 0
v -49 -5 0
v -49 -4 0
v -48 -4 0
v -49 -5 0
v -50 -5 0
v -50 -4 0
v -49 -4 0
v -52 -5 0
v -53 -5 0
v -53 -4 0
v -52 -4 0
v -53 -5 0
v -54 -5 0
v -54 -4 0
v -53 -4 0
v -54 -5 0
v -55 -5 0
v -55 -4 0
v -54 -4 0
v -55 -5 0
v -56 -5 0
v -56 -4 0
v -55 -4 0
v -56 -5 0
v -57 -5 0
v -57 -4 0
v -56 -4 0
v -57 -5 0
v -58 -5 0
v -58 -4 0
v -57 -4 0
v -58 -5 0
v -59 -5 0
v -59 -4 0
v -58 -4 0
v -59 -5 0
v -60 -5 0
v -60 -4 0
v -59 -4 0
v -60 -5 0
v -61 -5 0
v -61 -4 0
v -60 -4 0
v -61 -5 0
v -62 -5 0
v -62 -4 0
v -61 -4 0
v -2 -6 0
v -3 -6 0
v -3 -5 0
v -2 -5 0
v -3 -6 0
v -4 -6 0
v -4 -5 0
v -3 -5 0
v -4 -6 0
v -5 -6 0
v -5 -5 0
v -4 -5 0
v -5 -6 0
v -6 -6 0
v -6 -5 0
v -5 -5 0
v -6 -6 0
v -7 -6 0
v -7 -5 0
v -6 -5 0
v -7 -6 0
v -8 -6 0
v -8 -5 0
v -7 -5 0
v -8 -6 0
v -9 -6 0
v -9 -5 0
v -8 -5 0
v -9 -6 0
v -10 -6 0
v -10 -5 0
v -9 -5 0
v -10 -6 0
v -11 -6 0
v -11 -5 0
v -10 -5 0
v -11 -6 0
v -12 -6 0
v -12 -5 0
v -11 -5 0
v -14 -6 0
v -15 -6 0
v -15 -5 0
v -14 -5 0
v -15 -6 0
v -16 -6 0
v -16 -5 0
v -15 -5 0
v -16 -6 0
v -17 -6 0
v -17 -5 0
v -16 -5 0
v -17 -6 0
v -18 -6 0
v -18 -5 0
v -17 -5 0
v -18 -6 0
v -19 -6 0
v -19 -5 0
v -18 -5 0
v -19 -6 0
v -20 -6 0
v -20 -5 0
v -19 -5 0
v -20 -6 0
v -21 -6 0
v -21 -5 0
v -20 -5 0
v -21 -6 0
v -22 -6 0
v -22 -5 0
v -21 -5 0
v -22 -6 0
v -23 -6 0
v -23 -5 0
v -22 -5 0
v -23 -6 0
v -24 -6 0
v -24 -5 0
v -23 -5 0
v -24 -6 0
v -25 -6 0
v -25 -5 0
v -24 -5 0
v -25 -6 0
v -26 -6 0
v -26 -5 0
v -25 -5 0
v -26 -6 0
v -27 -6 0
v -27 -5 0
v -26 -5 0
v -27 -6 0
v -28 -6 0
v -28 -5 0
v -27 -5 0
v -28 -6 0
v -29 -6 0
v -29 -5 0
v -28 -5 0
v -29 -6 0
v -30 -6 0
v -30 -5 0
v -29 -5 0
v -30 -6 0
v -31 -6 0
v -31 -5 0
v -30 -5 0
v -31 -6 0
v -32 -6 0
v -32 -5 0
v -31 -5 0
v -32 -6 0
v -33 -6 0
v -33 -5 0
v -32 -5 0
v -33 -6 0
v -34 -6 0
v -34 -5 0
v -33 -5 0
v -34 -6 0
v -35 -6 0
v -35 -5 0
v -34 -5 0
v -35 -6 0
v -36 -6 0
v -36 -5 0
v -35 -5 0
v -36 -6 0
v -37 -6 0
v -37 -5 0
v -36 -5 0
v -37 -6 0
v -38 -6 0
v -38 -5 0
v -37 -5 0
v -38 -6 0
v -39 -6 0
v -39 -5 0
v -38 -5 0
v -39 -6 0
v -40 -6 0
v -40 -5 0
v -39 -5 0
v -40 -6 0
v -41 -6 0
v -41 -5 0
v -40 -5 0
v -41 -6 0
v -42 -6 0
v -42 -5 0
v -41 -5 0
v -42 -6 0
v -43 -6 0
v -43 -5 0
v -42 -5 0
v -43 -6 0
v -44 -6 0
v -44 -5 0
v -43 -5 0
v -44 -6 0
v -45 -6 0
v -45 -5 0
v -44 -5 0
v -45 -6 0
v -46 -6 0
v -46 -5 0
v -45 -5 0
v -46 -6 0
v -47 -6 0
v -47 -5 0
v -46 -5 0
v -47 -6 0
v -48 -6 0
v -48 -5 0
v -47 -5 0
v -48 -6 0
v -49 -6 0
v -49 -5 0
v -48 -5 0
v -49 -6 0
v -50 -6 0
v -50 -5 0
v -49 -5 0
v -52 -6 0
v -53 -6 0
v -53 -5 0
v -52 -5 0
v -53 -6 0
v -54 -6 0
v -54 -5 0
v -53 -5 0
v -54 -6 0
v -55 -6 0
v -55 -5 0
v -54 -5 0
v -55 -6 0
v -56 -6 0
v -56 -5 0
v -55 -5 0
v -56 -6 0
v -57 -6 0
v -57 -5 0
v -56 -5 0
v -57 -6 0
v -58 -6 0
v -58 -5 0
v -57 -5 0
v -58 -6 0
v -59 -6 0
v -59 -5 0
v -58 -5 0
v -59 -6 0
v -60 -6 0
v -60 -5 0
v -59 -5 0
v -60 -6 0
v -61 -6 0
v -61 -5 0
v -60 -5 0
v -61 -6 0
v -62 -6 0
v -62 -5 0
v -61 -5 0
v -2 -7 0
v -3 -7 0
v -3 -6 0
v -2 -6 0
v -3 -7 0
v -4 -7 0
v -4 -6 0
v -3 -6 0
v -10 -7 0
v -11 -7 0
v -11 -6 0
v -10 -6 0
v -11 -7 0
v -12 -7 0
v -12 -6 0
v -11 -6 0
v -12 -7 0
v -13 -7 0
v -13 -6 0
v -12 -6 0
v -13 -7 0
v -14 -7 0
v -14 -6 0
v -13 -6 0
v -14 -7 0
v -15 -7 0
v -15 -6 0
v -14 -6 0
v -15 -7 0
v -16 -7 0
v -16 -6 0
v -15 -6 0
v -26 -7 0
v -27 -7 0
v -27 -6 0
v -26 -6 0
v -27 -7 0
v -28 -7 0
v -28 -6 0
v -27 -6 0
v -36 -7 0
v -37 -7 0
v -37 -6 0
v -36 -6 0
v -37 -7 0
v -38 -7 0
v -38 -6 0
v -37 -6 0
v -48 -7 0
v -49 -7 0
v -49 -6 0
v -48 -6 0
v -49 -7 0
v -50 -7 0
v -50 -6 0
v -49 -6 0
v -50 -7 0
v -51 -7 0
v -51 -6 0
v -50 -6 0
v -51 -7 0
v -52 -7 0
v -52 -6 0
v -51 -6 0
v -52 -7 0
v -53 -7 0
v -53 -6 0
v -52 -6 0
v -53 -7 0
v -54 -7 0
v -54 -6 0
v -53 -6 0
v -60 -7 0
v -61 -7 0
v -61 -6 0
v -60 -6 0
v -61 -7 0
v -62 -7 0
v -62 -6 0
v -61 -6 0
v -2 -8 0
v -3 -8 0
v -3 -7 0
v -2 -7 0
v -3 -8 0
v -4 -8 0
v -4 -7 0
v -3 -7 0
v -10 -8 0
v -11 -8 0
v -11 -7 0
v -10 -7 0
v -11 -8 0
v -12 -8 0
v -12 -7 0
v -11 -7 0
v -12 -8 0
v -13 -8 0
v -13 -7 0
v -12 -7 0
v -13 -8 0
v -14 -8 0
v -14 -7 0
v -13 -7 0
v -14 -8 0
v -15 -8 0
v -15 -7 0
v -14 -7 0
v -15 -8 0
v -16 -8 0
v -16 -7 0
v -15 -7 0
v -26 -8 0
v -27 -8 0
v -27 -7 0
v -26 -7 0
v -27 -8 0
v -28 -8 0
v -28 -7 0
v -27 -7 0
v -36 -8 0
v -37 -8 0
v -37 -7 0
v -36 -7 0
v -37 -8 0
v -38 -8 0
v -38 -7 0
v -37 -7 0
v -48 -8 0
v -49 -8 0
v -49 -7 0
v -48 -7 0
v -49 -8 0
v -50 -8 0
v -50 -7 0
v -49 -7 0
v -50 -8 0
v -51 -8 0
v -51 -7 0
v -50 -7 0
v -51 -8 0
v -52 -8 0
v -52 -7 0
v -51 -7 0
v -52 -8 0
v -53 -8 0
v -53 -7 0
v -52 -7 0
v -53 -8 0
v -54 -8 0
v -54 -7 0
v -53 -7 0
v -60 -8 0
v -61 -8 0
v -61 -7 0
v -60 -7 0
v -61 -8 0
v -62 -8 0
v -62 -7 0
v -61 -7 0
v -12 -9 0
v -13 -9 0
v -13 -8 0
v -12 -8 0
v -13 -9 0
v -14 -9 0
v -14 -8 0
v -13 -8 0
v -50 -9 0
v -51 -9 0
v -51 -8 0
v -50 -8 0
v -51 -9 0
v -52 -9 0
v -52 -8 0
v -51 -8 0
v -12 -10 0
v -13 -10 0
v -13 -9 0
v -12 -9 0
v -13 -10 0
v -14 -10 0
v -14 -9 0
v -13 -9 0
v -50 -10 0
v -51 -10 0
v -51 -9 0
v -50 -9 0
v -51 -10 0
v -52 -10 0
v -52 -9 0
v -51 -9 0
v -16 -39 0
v -17 -39 0
v -17 -38 0
v -16 -38 0
v -17 -39 0
v -18 -39 0
v -18 -38 0
v -17 -38 0
v -16 -40 0
v -17 -40 0
v -17 -39 0
v -16 -39 0
v -17 -40 0
v -18 -40 0
v -18 -39 0
v -17 -39 0
v -16 -41 0
v -17 -41 0
v -17 -40 0
v -16 -40 0
v -17 -41 0
v -18 -41 0
v -18 -40 0
v -17 -40 0
v -18 -41 0
v -19 -41 0
v -19 -40 0
v -18 -40 0
v -19 -41 0
v -20 -41 0
v -20 -40 0
v -19 -40 0
v -16 -42 0
v -17 -42 0
v -17 -41 0
v -16 -41 0
v -17 -42 0
v -18 -42 0
v -18 -41 0
v -17 -41 0
v -18 -42 0
v -19 -42 0
v -19 -41 0
v -18 -41 0
v -19 -42 0
v -20 -42 0
v -20 -41 0
v -19 -41 0
v -18 -43 0
v -19 -43 0
v -19 -42 0
v -18 -42 0
v -19 -43 0
v -20 -43 0
v -20 -42 0
v -19 -42 0
v -18 -44 0
v -19 -44 0
v -19 -43 0
v -18 -43 0
v -19 -44 0
v -20 -44 0
v -20 -43 0
v -19 -43 0

# Texture cooridinates (Count = 25)
vt 0.78125 0.7666667
vt 0.8125 0.7666667
vt 0.8125 0.8
vt 0.78125 0.8
vt 0.84375 0.7666667
vt 0.84375 0.8
vt 0.78125 0.7333333
vt 0.8125 0.7333333
vt 0.84375 0.7333333
vt 0.875 0.7666667
vt 0.875 0.8
vt 0.78125 0.7
vt 0.8125 0.7
vt 0.84375 0.7
vt 0.75 0.7666667
vt 0.75 0.8
vt 0.875 0.7333333
vt 0.78125 0.6666667
vt 0.8125 0.6666667
vt 0.84375 0.6666667
vt 0.75 0.7333333
vt 0.875 0.7
vt 0.75 0.7
vt 0.875 0.6666667
vt 0.75 0.6666667

# Normal
vn 0 0 -1

# Mesh description
g Level01-C_mesh_0010

# Faces
f 1/1/1 2/2/1 3/3/1 4/4/1
f 5/2/1 6/5/1 7/6/1 8/3/1
f 9/1/1 10/2/1 11/3/1 12/4/1
f 13/2/1 14/5/1 15/6/1 16/3/1
f 17/1/1 18/2/1 19/3/1 20/4/1
f 21/2/1 22/5/1 23/6/1 24/3/1
f 25/1/1 26/2/1 27/3/1 28/4/1
f 29/2/1 30/5/1 31/6/1 32/3/1
f 33/1/1 34/2/1 35/3/1 36/4/1
f 37/2/1 38/5/1 39/6/1 40/3/1
f 41/1/1 42/2/1 43/3/1 44/4/1
f 45/2/1 46/5/1 47/6/1 48/3/1
f 49/1/1 50/2/1 51/3/1 52/4/1
f 53/2/1 54/5/1 55/6/1 56/3/1
f 57/1/1 58/2/1 59/3/1 60/4/1
f 61/2/1 62/5/1 63/6/1 64/3/1
f 65/1/1 66/2/1 67/3/1 68/4/1
f 69/2/1 70/5/1 71/6/1 72/3/1
f 73/1/1 74/2/1 75/3/1 76/4/1
f 77/2/1 78/5/1 79/6/1 80/3/1
f 81/1/1 82/2/1 83/3/1 84/4/1
f 85/2/1 86/5/1 87/6/1 88/3/1
f 89/1/1 90/2/1 91/3/1 92/4/1
f 93/2/1 94/5/1 95/6/1 96/3/1
f 97/1/1 98/2/1 99/3/1 100/4/1
f 101/2/1 102/5/1 103/6/1 104/3/1
f 105/1/1 106/2/1 107/3/1 108/4/1
f 109/2/1 110/5/1 111/6/1 112/3/1
f 113/1/1 114/2/1 115/3/1 116/4/1
f 117/2/1 118/5/1 119/6/1 120/3/1
f 121/1/1 122/2/1 123/3/1 124/4/1
f 125/2/1 126/5/1 127/6/1 128/3/1
f 129/1/1 130/2/1 131/3/1 132/4/1
f 133/2/1 134/5/1 135/6/1 136/3/1
f 137/1/1 138/2/1 139/3/1 140/4/1
f 141/2/1 142/5/1 143/6/1 144/3/1
f 145/1/1 146/2/1 147/3/1 148/4/1
f 149/2/1 150/5/1 151/6/1 152/3/1
f 153/1/1 154/2/1 155/3/1 156/4/1
f 157/2/1 158/5/1 159/6/1 160/3/1
f 161/7/1 162/8/1 163/2/1 164/1/1
f 165/8/1 166/9/1 167/5/1 168/2/1
f 169/7/1 170/8/1 171/2/1 172/1/1
f 173/8/1 174/9/1 175/5/1 176/2/1
f 177/7/1 178/8/1 179/2/1 180/1/1
f 181/8/1 182/9/1 183/5/1 184/2/1
f 185/7/1 186/8/1 187/2/1 188/1/1
f 189/8/1 190/9/1 191/5/1 192/2/1
f 193/7/1 194/8/1 195/2/1 196/1/1
f 197/8/1 198/9/1 199/5/1 200/2/1
f 201/7/1 202/8/1 203/2/1 204/1/1
f 205/8/1 206/9/1 207/5/1 208/2/1
f 209/7/1 210/8/1 211/2/1 212/1/1
f 213/8/1 214/9/1 215/5/1 216/2/1
f 217/7/1 218/8/1 219/2/1 220/1/1
f 221/8/1 222/9/1 223/5/1 224/2/1
f 225/7/1 226/8/1 227/2/1 228/1/1
f 229/8/1 230/9/1 231/5/1 232/2/1
f 233/7/1 234/8/1 235/2/1 236/1/1
f 237/8/1 238/9/1 239/5/1 240/2/1
f 241/7/1 242/8/1 243/2/1 244/1/1
f 245/8/1 246/9/1 247/5/1 248/2/1
f 249/7/1 250/8/1 251/2/1 252/1/1
f 253/8/1 254/9/1 255/5/1 256/2/1
f 257/7/1 258/8/1 259/2/1 260/1/1
f 261/8/1 262/9/1 263/5/1 264/2/1
f 265/7/1 266/8/1 267/2/1 268/1/1
f 269/8/1 270/9/1 271/5/1 272/2/1
f 273/7/1 274/8/1 275/2/1 276/1/1
f 277/8/1 278/9/1 279/5/1 280/2/1
f 281/7/1 282/8/1 283/2/1 284/1/1
f 285/8/1 286/9/1 287/5/1 288/2/1
f 289/7/1 290/8/1 291/2/1 292/1/1
f 293/8/1 294/9/1 295/5/1 296/2/1
f 297/7/1 298/8/1 299/2/1 300/1/1
f 301/8/1 302/9/1 303/5/1 304/2/1
f 305/7/1 306/8/1 307/2/1 308/1/1
f 309/8/1 310/9/1 311/5/1 312/2/1
f 313/7/1 314/8/1 315/2/1 316/1/1
f 317/8/1 318/9/1 319/5/1 320/2/1
f 321/2/1 322/5/1 323/6/1 324/3/1
f 325/5/1 326/10/1 327/11/1 328/6/1
f 329/12/1 330/13/1 331/8/1 332/7/1
f 333/13/1 334/14/1 335/9/1 336/8/1
f 337/12/1 338/13/1 339/8/1 340/7/1
f 341/13/1 342/14/1 343/9/1 344/8/1
f 345/12/1 346/13/1 347/8/1 348/7/1
f 349/13/1 350/14/1 351/9/1 352/8/1
f 353/15/1 354/1/1 355/4/1 356/16/1
f 357/1/1 358/2/1 359/3/1 360/4/1
f 361/2/1 362/5/1 363/6/1 364/3/1
f 365/5/1 366/10/1 367/11/1 368/6/1
f 369/12/1 370/13/1 371/8/1 372/7/1
f 373/13/1 374/14/1 375/9/1 376/8/1
f 377/12/1 378/13/1 379/8/1 380/7/1
f 381/13/1 382/14/1 383/9/1 384/8/1
f 385/12/1 386/13/1 387/8/1 388/7/1
f 389/13/1 390/14/1 391/9/1 392/8/1
f 393/12/1 394/13/1 395/8/1 396/7/1
f 397/13/1 398/14/1 399/9/1 400/8/1
f 401/12/1 402/13/1 403/8/1 404/7/1
f 405/13/1 406/14/1 407/9/1 408/8/1
f 409/15/1 410/1/1 411/4/1 412/16/1
f 413/5/1 414/10/1 415/11/1 416/6/1
f 417/12/1 418/13/1 419/8/1 420/7/1
f 421/13/1 422/14/1 423/9/1 424/8/1
f 425/12/1 426/13/1 427/8/1 428/7/1
f 429/13/1 430/14/1 431/9/1 432/8/1
f 433/12/1 434/13/1 435/8/1 436/7/1
f 437/13/1 438/14/1 439/9/1 440/8/1
f 441/12/1 442/13/1 443/8/1 444/7/1
f 445/13/1 446/14/1 447/9/1 448/8/1
f 449/15/1 450/1/1 451/4/1 452/16/1
f 453/5/1 454/10/1 455/11/1 456/6/1
f 457/12/1 458/13/1 459/8/1 460/7/1
f 461/13/1 462/14/1 463/9/1 464/8/1
f 465/12/1 466/13/1 467/8/1 468/7/1
f 469/13/1 470/14/1 471/9/1 472/8/1
f 473/12/1 474/13/1 475/8/1 476/7/1
f 477/13/1 478/14/1 479/9/1 480/8/1
f 481/12/1 482/13/1 483/8/1 484/7/1
f 485/13/1 486/14/1 487/9/1 488/8/1
f 489/12/1 490/13/1 491/8/1 492/7/1
f 493/13/1 494/14/1 495/9/1 496/8/1
f 497/15/1 498/1/1 499/4/1 500/16/1
f 501/1/1 502/2/1 503/3/1 504/4/1
f 505/2/1 506/5/1 507/6/1 508/3/1
f 509/5/1 510/10/1 511/11/1 512/6/1
f 513/12/1 514/13/1 515/8/1 516/7/1
f 517/13/1 518/14/1 519/9/1 520/8/1
f 521/12/1 522/13/1 523/8/1 524/7/1
f 525/13/1 526/14/1 527/9/1 528/8/1
f 529/12/1 530/13/1 531/8/1 532/7/1
f 533/13/1 534/14/1 535/9/1 536/8/1
f 537/15/1 538/1/1 539/4/1 540/16/1
f 541/1/1 542/2/1 543/3/1 544/4/1
f 545/8/1 546/9/1 547/5/1 548/2/1
f 549/9/1 550/17/1 551/10/1 552/5/1
f 553/18/1 554/19/1 555/13/1 556/12/1
f 557/19/1 558/20/1 559/14/1 560/13/1
f 561/18/1 562/19/1 563/13/1 564/12/1
f 565/19/1 566/20/1 567/14/1 568/13/1
f 569/18/1 570/19/1 571/13/1 572/12/1
f 573/19/1 574/20/1 575/14/1 576/13/1
f 577/21/1 578/7/1 579/1/1 580/15/1
f 581/7/1 582/8/1 583/2/1 584/1/1
f 585/8/1 586/9/1 587/5/1 588/2/1
f 589/9/1 590/17/1 591/10/1 592/5/1
f 593/18/1 594/19/1 595/13/1 596/12/1
f 597/19/1 598/20/1 599/14/1 600/13/1
f 601/18/1 602/19/1 603/13/1 604/12/1
f 605/19/1 606/20/1 607/14/1 608/13/1
f 609/18/1 610/19/1 611/13/1 612/12/1
f 613/19/1 614/20/1 615/14/1 616/13/1
f 617/18/1 618/19/1 619/13/1 620/12/1
f 621/19/1 622/20/1 623/14/1 624/13/1
f 625/18/1 626/19/1 627/13/1 628/12/1
f 629/19/1 630/20/1 631/14/1 632/13/1
f 633/21/1 634/7/1 635/1/1 636/15/1
f 637/9/1 638/17/1 639/10/1 640/5/1
f 641/18/1 642/19/1 643/13/1 644/12/1
f 645/19/1 646/20/1 647/14/1 648/13/1
f 649/18/1 650/19/1 651/13/1 652/12/1
f 653/19/1 654/20/1 655/14/1 656/13/1
f 657/18/1 658/19/1 659/13/1 660/12/1
f 661/19/1 662/20/1 663/14/1 664/13/1
f 665/18/1 666/19/1 667/13/1 668/12/1
f 669/19/1 670/20/1 671/14/1 672/13/1
f 673/21/1 674/7/1 675/1/1 676/15/1
f 677/9/1 678/17/1 679/10/1 680/5/1
f 681/18/1 682/19/1 683/13/1 684/12/1
f 685/19/1 686/20/1 687/14/1 688/13/1
f 689/18/1 690/19/1 691/13/1 692/12/1
f 693/19/1 694/20/1 695/14/1 696/13/1
f 697/18/1 698/19/1 699/13/1 700/12/1
f 701/19/1 702/20/1 703/14/1 704/13/1
f 705/18/1 706/19/1 707/13/1 708/12/1
f 709/19/1 710/20/1 711/14/1 712/13/1
f 713/18/1 714/19/1 715/13/1 716/12/1
f 717/19/1 718/20/1 719/14/1 720/13/1
f 721/21/1 722/7/1 723/1/1 724/15/1
f 725/7/1 726/8/1 727/2/1 728/1/1
f 729/8/1 730/9/1 731/5/1 732/2/1
f 733/9/1 734/17/1 735/10/1 736/5/1
f 737/18/1 738/19/1 739/13/1 740/12/1
f 741/19/1 742/20/1 743/14/1 744/13/1
f 745/18/1 746/19/1 747/13/1 748/12/1
f 749/19/1 750/20/1 751/14/1 752/13/1
f 753/18/1 754/19/1 755/13/1 756/12/1
f 757/19/1 758/20/1 759/14/1 760/13/1
f 761/21/1 762/7/1 763/1/1 764/15/1
f 765/7/1 766/8/1 767/2/1 768/1/1
f 769/13/1 770/14/1 771/9/1 772/8/1
f 773/14/1 774/22/1 775/17/1 776/9/1
f 777/23/1 778/12/1 779/7/1 780/21/1
f 781/12/1 782/13/1 783/8/1 784/7/1
f 785/15/1 786/1/1 787/4/1 788/16/1
f 789/5/1 790/10/1 791/11/1 792/6/1
f 793/13/1 794/14/1 795/9/1 796/8/1
f 797/14/1 798/22/1 799/17/1 800/9/1
f 801/23/1 802/12/1 803/7/1 804/21/1
f 805/14/1 806/22/1 807/17/1 808/9/1
f 809/23/1 810/12/1 811/7/1 812/21/1
f 813/14/1 814/22/1 815/17/1 816/9/1
f 817/23/1 818/12/1 819/7/1 820/21/1
f 821/12/1 822/13/1 823/8/1 824/7/1
f 825/15/1 826/1/1 827/4/1 828/16/1
f 829/5/1 830/10/1 831/11/1 832/6/1
f 833/13/1 834/14/1 835/9/1 836/8/1
f 837/14/1 838/22/1 839/17/1 840/9/1
f 841/23/1 842/12/1 843/7/1 844/21/1
f 845/12/1 846/13/1 847/8/1 848/7/1
f 849/19/1 850/20/1 851/14/1 852/13/1
f 853/20/1 854/24/1 855/22/1 856/14/1
f 857/25/1 858/18/1 859/12/1 860/23/1
f 861/18/1 862/19/1 863/13/1 864/12/1
f 865/21/1 866/7/1 867/1/1 868/15/1
f 869/9/1 870/17/1 871/10/1 872/5/1
f 873/19/1 874/20/1 875/14/1 876/13/1
f 877/20/1 878/24/1 879/22/1 880/14/1
f 881/25/1 882/18/1 883/12/1 884/23/1
f 885/20/1 886/24/1 887/22/1 888/14/1
f 889/25/1 890/18/1 891/12/1 892/23/1
f 893/20/1 894/24/1 895/22/1 896/14/1
f 897/25/1 898/18/1 899/12/1 900/23/1
f 901/18/1 902/19/1 903/13/1 904/12/1
f 905/21/1 906/7/1 907/1/1 908/15/1
f 909/9/1 910/17/1 911/10/1 912/5/1
f 913/19/1 914/20/1 915/14/1 916/13/1
f 917/20/1 918/24/1 919/22/1 920/14/1
f 921/25/1 922/18/1 923/12/1 924/23/1
f 925/18/1 926/19/1 927/13/1 928/12/1
f 929/23/1 930/12/1 931/7/1 932/21/1
f 933/14/1 934/22/1 935/17/1 936/9/1
f 937/23/1 938/12/1 939/7/1 940/21/1
f 941/14/1 942/22/1 943/17/1 944/9/1
f 945/25/1 946/18/1 947/12/1 948/23/1
f 949/20/1 950/24/1 951/22/1 952/14/1
f 953/25/1 954/18/1 955/12/1 956/23/1
f 957/20/1 958/24/1 959/22/1 960/14/1
f 961/1/1 962/2/1 963/3/1 964/4/1
f 965/2/1 966/5/1 967/6/1 968/3/1
f 969/7/1 970/8/1 971/2/1 972/1/1
f 973/8/1 974/9/1 975/5/1 976/2/1
f 977/12/1 978/13/1 979/8/1 980/7/1
f 981/13/1 982/14/1 983/9/1 984/8/1
f 985/15/1 986/1/1 987/4/1 988/16/1
f 989/5/1 990/10/1 991/11/1 992/6/1
f 993/18/1 994/19/1 995/13/1 996/12/1
f 997/19/1 998/20/1 999/14/1 1000/13/1
f 1001/21/1 1002/7/1 1003/1/1 1004/15/1
f 1005/9/1 1006/17/1 1007/10/1 1008/5/1
f 1009/23/1 1010/12/1 1011/7/1 1012/21/1
f 1013/14/1 1014/22/1 1015/17/1 1016/9/1
f 1017/25/1 1018/18/1 1019/12/1 1020/23/1
f 1021/20/1 1022/24/1 1023/22/1 1024/14/1

