# Tiled2Unity generated file. Do not modify by hand.
# Wavefront file for 'Level01-C_mesh_0004.obj'

# Vertices (Count = 544)
v -28 -55 0
v -29 -55 0
v -29 -54 0
v -28 -54 0
v -29 -55 0
v -30 -55 0
v -30 -54 0
v -29 -54 0
v -30 -55 0
v -31 -55 0
v -31 -54 0
v -30 -54 0
v -31 -55 0
v -32 -55 0
v -32 -54 0
v -31 -54 0
v -32 -55 0
v -33 -55 0
v -33 -54 0
v -32 -54 0
v -33 -55 0
v -34 -55 0
v -34 -54 0
v -33 -54 0
v -34 -55 0
v -35 -55 0
v -35 -54 0
v -34 -54 0
v -35 -55 0
v -36 -55 0
v -36 -54 0
v -35 -54 0
v -36 -55 0
v -37 -55 0
v -37 -54 0
v -36 -54 0
v -37 -55 0
v -38 -55 0
v -38 -54 0
v -37 -54 0
v -38 -55 0
v -39 -55 0
v -39 -54 0
v -38 -54 0
v -39 -55 0
v -40 -55 0
v -40 -54 0
v -39 -54 0
v -40 -55 0
v -41 -55 0
v -41 -54 0
v -40 -54 0
v -41 -55 0
v -42 -55 0
v -42 -54 0
v -41 -54 0
v -42 -55 0
v -43 -55 0
v -43 -54 0
v -42 -54 0
v -43 -55 0
v -44 -55 0
v -44 -54 0
v -43 -54 0
v -44 -55 0
v -45 -55 0
v -45 -54 0
v -44 -54 0
v -45 -55 0
v -46 -55 0
v -46 -54 0
v -45 -54 0
v -46 -55 0
v -47 -55 0
v -47 -54 0
v -46 -54 0
v -47 -55 0
v -48 -55 0
v -48 -54 0
v -47 -54 0
v -28 -56 0
v -29 -56 0
v -29 -55 0
v -28 -55 0
v -29 -56 0
v -30 -56 0
v -30 -55 0
v -29 -55 0
v -30 -56 0
v -31 -56 0
v -31 -55 0
v -30 -55 0
v -31 -56 0
v -32 -56 0
v -32 -55 0
v -31 -55 0
v -32 -56 0
v -33 -56 0
v -33 -55 0
v -32 -55 0
v -33 -56 0
v -34 -56 0
v -34 -55 0
v -33 -55 0
v -34 -56 0
v -35 -56 0
v -35 -55 0
v -34 -55 0
v -35 -56 0
v -36 -56 0
v -36 -55 0
v -35 -55 0
v -36 -56 0
v -37 -56 0
v -37 -55 0
v -36 -55 0
v -37 -56 0
v -38 -56 0
v -38 -55 0
v -37 -55 0
v -38 -56 0
v -39 -56 0
v -39 -55 0
v -38 -55 0
v -39 -56 0
v -40 -56 0
v -40 -55 0
v -39 -55 0
v -40 -56 0
v -41 -56 0
v -41 -55 0
v -40 -55 0
v -41 -56 0
v -42 -56 0
v -42 -55 0
v -41 -55 0
v -42 -56 0
v -43 -56 0
v -43 -55 0
v -42 -55 0
v -43 -56 0
v -44 -56 0
v -44 -55 0
v -43 -55 0
v -44 -56 0
v -45 -56 0
v -45 -55 0
v -44 -55 0
v -45 -56 0
v -46 -56 0
v -46 -55 0
v -45 -55 0
v -46 -56 0
v -47 -56 0
v -47 -55 0
v -46 -55 0
v -47 -56 0
v -48 -56 0
v -48 -55 0
v -47 -55 0
v -28 -57 0
v -29 -57 0
v -29 -56 0
v -28 -56 0
v -29 -57 0
v -30 -57 0
v -30 -56 0
v -29 -56 0
v -30 -57 0
v -31 -57 0
v -31 -56 0
v -30 -56 0
v -31 -57 0
v -32 -57 0
v -32 -56 0
v -31 -56 0
v -32 -57 0
v -33 -57 0
v -33 -56 0
v -32 -56 0
v -33 -57 0
v -34 -57 0
v -34 -56 0
v -33 -56 0
v -34 -57 0
v -35 -57 0
v -35 -56 0
v -34 -56 0
v -35 -57 0
v -36 -57 0
v -36 -56 0
v -35 -56 0
v -36 -57 0
v -37 -57 0
v -37 -56 0
v -36 -56 0
v -37 -57 0
v -38 -57 0
v -38 -56 0
v -37 -56 0
v -38 -57 0
v -39 -57 0
v -39 -56 0
v -38 -56 0
v -39 -57 0
v -40 -57 0
v -40 -56 0
v -39 -56 0
v -40 -57 0
v -41 -57 0
v -41 -56 0
v -40 -56 0
v -41 -57 0
v -42 -57 0
v -42 -56 0
v -41 -56 0
v -42 -57 0
v -43 -57 0
v -43 -56 0
v -42 -56 0
v -43 -57 0
v -44 -57 0
v -44 -56 0
v -43 -56 0
v -44 -57 0
v -45 -57 0
v -45 -56 0
v -44 -56 0
v -45 -57 0
v -46 -57 0
v -46 -56 0
v -45 -56 0
v -46 -57 0
v -47 -57 0
v -47 -56 0
v -46 -56 0
v -47 -57 0
v -48 -57 0
v -48 -56 0
v -47 -56 0
v -48 -57 0
v -49 -57 0
v -49 -56 0
v -48 -56 0
v -49 -57 0
v -50 -57 0
v -50 -56 0
v -49 -56 0
v -50 -57 0
v -51 -57 0
v -51 -56 0
v -50 -56 0
v -51 -57 0
v -52 -57 0
v -52 -56 0
v -51 -56 0
v -52 -57 0
v -53 -57 0
v -53 -56 0
v -52 -56 0
v -53 -57 0
v -54 -57 0
v -54 -56 0
v -53 -56 0
v -54 -57 0
v -55 -57 0
v -55 -56 0
v -54 -56 0
v -55 -57 0
v -56 -57 0
v -56 -56 0
v -55 -56 0
v -28 -58 0
v -29 -58 0
v -29 -57 0
v -28 -57 0
v -29 -58 0
v -30 -58 0
v -30 -57 0
v -29 -57 0
v -30 -58 0
v -31 -58 0
v -31 -57 0
v -30 -57 0
v -31 -58 0
v -32 -58 0
v -32 -57 0
v -31 -57 0
v -32 -58 0
v -33 -58 0
v -33 -57 0
v -32 -57 0
v -33 -58 0
v -34 -58 0
v -34 -57 0
v -33 -57 0
v -34 -58 0
v -35 -58 0
v -35 -57 0
v -34 -57 0
v -35 -58 0
v -36 -58 0
v -36 -57 0
v -35 -57 0
v -36 -58 0
v -37 -58 0
v -37 -57 0
v -36 -57 0
v -37 -58 0
v -38 -58 0
v -38 -57 0
v -37 -57 0
v -38 -58 0
v -39 -58 0
v -39 -57 0
v -38 -57 0
v -39 -58 0
v -40 -58 0
v -40 -57 0
v -39 -57 0
v -40 -58 0
v -41 -58 0
v -41 -57 0
v -40 -57 0
v -41 -58 0
v -42 -58 0
v -42 -57 0
v -41 -57 0
v -42 -58 0
v -43 -58 0
v -43 -57 0
v -42 -57 0
v -43 -58 0
v -44 -58 0
v -44 -57 0
v -43 -57 0
v -44 -58 0
v -45 -58 0
v -45 -57 0
v -44 -57 0
v -45 -58 0
v -46 -58 0
v -46 -57 0
v -45 -57 0
v -46 -58 0
v -47 -58 0
v -47 -57 0
v -46 -57 0
v -47 -58 0
v -48 -58 0
v -48 -57 0
v -47 -57 0
v -48 -58 0
v -49 -58 0
v -49 -57 0
v -48 -57 0
v -49 -58 0
v -50 -58 0
v -50 -57 0
v -49 -57 0
v -50 -58 0
v -51 -58 0
v -51 -57 0
v -50 -57 0
v -51 -58 0
v -52 -58 0
v -52 -57 0
v -51 -57 0
v -52 -58 0
v -53 -58 0
v -53 -57 0
v -52 -57 0
v -53 -58 0
v -54 -58 0
v -54 -57 0
v -53 -57 0
v -54 -58 0
v -55 -58 0
v -55 -57 0
v -54 -57 0
v -55 -58 0
v -56 -58 0
v -56 -57 0
v -55 -57 0
v -36 -59 0
v -37 -59 0
v -37 -58 0
v -36 -58 0
v -37 -59 0
v -38 -59 0
v -38 -58 0
v -37 -58 0
v -38 -59 0
v -39 -59 0
v -39 -58 0
v -38 -58 0
v -39 -59 0
v -40 -59 0
v -40 -58 0
v -39 -58 0
v -40 -59 0
v -41 -59 0
v -41 -58 0
v -40 -58 0
v -41 -59 0
v -42 -59 0
v -42 -58 0
v -41 -58 0
v -42 -59 0
v -43 -59 0
v -43 -58 0
v -42 -58 0
v -43 -59 0
v -44 -59 0
v -44 -58 0
v -43 -58 0
v -44 -59 0
v -45 -59 0
v -45 -58 0
v -44 -58 0
v -45 -59 0
v -46 -59 0
v -46 -58 0
v -45 -58 0
v -46 -59 0
v -47 -59 0
v -47 -58 0
v -46 -58 0
v -47 -59 0
v -48 -59 0
v -48 -58 0
v -47 -58 0
v -48 -59 0
v -49 -59 0
v -49 -58 0
v -48 -58 0
v -49 -59 0
v -50 -59 0
v -50 -58 0
v -49 -58 0
v -50 -59 0
v -51 -59 0
v -51 -58 0
v -50 -58 0
v -51 -59 0
v -52 -59 0
v -52 -58 0
v -51 -58 0
v -52 -59 0
v -53 -59 0
v -53 -58 0
v -52 -58 0
v -53 -59 0
v -54 -59 0
v -54 -58 0
v -53 -58 0
v -54 -59 0
v -55 -59 0
v -55 -58 0
v -54 -58 0
v -55 -59 0
v -56 -59 0
v -56 -58 0
v -55 -58 0
v -36 -60 0
v -37 -60 0
v -37 -59 0
v -36 -59 0
v -37 -60 0
v -38 -60 0
v -38 -59 0
v -37 -59 0
v -38 -60 0
v -39 -60 0
v -39 -59 0
v -38 -59 0
v -39 -60 0
v -40 -60 0
v -40 -59 0
v -39 -59 0
v -40 -60 0
v -41 -60 0
v -41 -59 0
v -40 -59 0
v -41 -60 0
v -42 -60 0
v -42 -59 0
v -41 -59 0
v -42 -60 0
v -43 -60 0
v -43 -59 0
v -42 -59 0
v -43 -60 0
v -44 -60 0
v -44 -59 0
v -43 -59 0
v -44 -60 0
v -45 -60 0
v -45 -59 0
v -44 -59 0
v -45 -60 0
v -46 -60 0
v -46 -59 0
v -45 -59 0
v -46 -60 0
v -47 -60 0
v -47 -59 0
v -46 -59 0
v -47 -60 0
v -48 -60 0
v -48 -59 0
v -47 -59 0
v -48 -60 0
v -49 -60 0
v -49 -59 0
v -48 -59 0
v -49 -60 0
v -50 -60 0
v -50 -59 0
v -49 -59 0
v -50 -60 0
v -51 -60 0
v -51 -59 0
v -50 -59 0
v -51 -60 0
v -52 -60 0
v -52 -59 0
v -51 -59 0
v -52 -60 0
v -53 -60 0
v -53 -59 0
v -52 -59 0
v -53 -60 0
v -54 -60 0
v -54 -59 0
v -53 -59 0
v -54 -60 0
v -55 -60 0
v -55 -59 0
v -54 -59 0
v -55 -60 0
v -56 -60 0
v -56 -59 0
v -55 -59 0

# Texture cooridinates (Count = 30)
vt 0.125 0.875
vt 0.15625 0.875
vt 0.15625 0.9166667
vt 0.125 0.9166667
vt 0.1875 0.875
vt 0.1875 0.9166667
vt 0.21875 0.875
vt 0.21875 0.9166667
vt 0.25 0.875
vt 0.25 0.9166667
vt 0.125 0.8333333
vt 0.15625 0.8333333
vt 0.1875 0.8333333
vt 0.21875 0.8333333
vt 0.25 0.8333333
vt 0.125 0.7916667
vt 0.15625 0.7916667
vt 0.1875 0.7916667
vt 0.21875 0.7916667
vt 0.21875 0.9583333
vt 0.25 0.9583333
vt 0.25 1
vt 0.21875 1
vt 0.125 0.75
vt 0.15625 0.75
vt 0.1875 0.75
vt 0.21875 0.75
vt 0.1875 0.9583333
vt 0.25 0.7916667
vt 0.25 0.75

# Normal
vn 0 0 -1

# Mesh description
g Level01-C_mesh_0004

# Faces
f 1/1/1 2/2/1 3/3/1 4/4/1
f 5/2/1 6/5/1 7/6/1 8/3/1
f 9/5/1 10/7/1 11/8/1 12/6/1
f 13/2/1 14/5/1 15/6/1 16/3/1
f 17/5/1 18/7/1 19/8/1 20/6/1
f 21/2/1 22/5/1 23/6/1 24/3/1
f 25/5/1 26/7/1 27/8/1 28/6/1
f 29/2/1 30/5/1 31/6/1 32/3/1
f 33/5/1 34/7/1 35/8/1 36/6/1
f 37/2/1 38/5/1 39/6/1 40/3/1
f 41/5/1 42/7/1 43/8/1 44/6/1
f 45/2/1 46/5/1 47/6/1 48/3/1
f 49/5/1 50/7/1 51/8/1 52/6/1
f 53/2/1 54/5/1 55/6/1 56/3/1
f 57/5/1 58/7/1 59/8/1 60/6/1
f 61/2/1 62/5/1 63/6/1 64/3/1
f 65/5/1 66/7/1 67/8/1 68/6/1
f 69/2/1 70/5/1 71/6/1 72/3/1
f 73/5/1 74/7/1 75/8/1 76/6/1
f 77/7/1 78/9/1 79/10/1 80/8/1
f 81/11/1 82/12/1 83/2/1 84/1/1
f 85/12/1 86/13/1 87/5/1 88/2/1
f 89/13/1 90/14/1 91/7/1 92/5/1
f 93/12/1 94/13/1 95/5/1 96/2/1
f 97/13/1 98/14/1 99/7/1 100/5/1
f 101/12/1 102/13/1 103/5/1 104/2/1
f 105/13/1 106/14/1 107/7/1 108/5/1
f 109/12/1 110/13/1 111/5/1 112/2/1
f 113/13/1 114/14/1 115/7/1 116/5/1
f 117/12/1 118/13/1 119/5/1 120/2/1
f 121/13/1 122/14/1 123/7/1 124/5/1
f 125/12/1 126/13/1 127/5/1 128/2/1
f 129/13/1 130/14/1 131/7/1 132/5/1
f 133/12/1 134/13/1 135/5/1 136/2/1
f 137/13/1 138/14/1 139/7/1 140/5/1
f 141/12/1 142/13/1 143/5/1 144/2/1
f 145/13/1 146/14/1 147/7/1 148/5/1
f 149/12/1 150/13/1 151/5/1 152/2/1
f 153/13/1 154/14/1 155/7/1 156/5/1
f 157/14/1 158/15/1 159/9/1 160/7/1
f 161/16/1 162/17/1 163/12/1 164/11/1
f 165/17/1 166/18/1 167/13/1 168/12/1
f 169/18/1 170/19/1 171/14/1 172/13/1
f 173/17/1 174/18/1 175/13/1 176/12/1
f 177/18/1 178/19/1 179/14/1 180/13/1
f 181/17/1 182/18/1 183/13/1 184/12/1
f 185/18/1 186/19/1 187/14/1 188/13/1
f 189/17/1 190/18/1 191/13/1 192/12/1
f 193/18/1 194/19/1 195/14/1 196/13/1
f 197/17/1 198/18/1 199/13/1 200/12/1
f 201/18/1 202/19/1 203/14/1 204/13/1
f 205/17/1 206/18/1 207/13/1 208/12/1
f 209/18/1 210/19/1 211/14/1 212/13/1
f 213/17/1 214/18/1 215/13/1 216/12/1
f 217/18/1 218/19/1 219/14/1 220/13/1
f 221/17/1 222/18/1 223/13/1 224/12/1
f 225/18/1 226/19/1 227/14/1 228/13/1
f 229/17/1 230/18/1 231/13/1 232/12/1
f 233/18/1 234/19/1 235/14/1 236/13/1
f 237/20/1 238/21/1 239/22/1 240/23/1
f 241/5/1 242/7/1 243/8/1 244/6/1
f 245/2/1 246/5/1 247/6/1 248/3/1
f 249/5/1 250/7/1 251/8/1 252/6/1
f 253/2/1 254/5/1 255/6/1 256/3/1
f 257/5/1 258/7/1 259/8/1 260/6/1
f 261/2/1 262/5/1 263/6/1 264/3/1
f 265/5/1 266/7/1 267/8/1 268/6/1
f 269/7/1 270/9/1 271/10/1 272/8/1
f 273/24/1 274/25/1 275/17/1 276/16/1
f 277/25/1 278/26/1 279/18/1 280/17/1
f 281/26/1 282/27/1 283/19/1 284/18/1
f 285/25/1 286/26/1 287/18/1 288/17/1
f 289/26/1 290/27/1 291/19/1 292/18/1
f 293/25/1 294/26/1 295/18/1 296/17/1
f 297/26/1 298/27/1 299/19/1 300/18/1
f 301/25/1 302/26/1 303/18/1 304/17/1
f 305/6/1 306/8/1 307/20/1 308/28/1
f 309/12/1 310/13/1 311/5/1 312/2/1
f 313/13/1 314/14/1 315/7/1 316/5/1
f 317/12/1 318/13/1 319/5/1 320/2/1
f 321/13/1 322/14/1 323/7/1 324/5/1
f 325/12/1 326/13/1 327/5/1 328/2/1
f 329/13/1 330/14/1 331/7/1 332/5/1
f 333/12/1 334/13/1 335/5/1 336/2/1
f 337/13/1 338/14/1 339/7/1 340/5/1
f 341/12/1 342/13/1 343/5/1 344/2/1
f 345/13/1 346/14/1 347/7/1 348/5/1
f 349/12/1 350/13/1 351/5/1 352/2/1
f 353/13/1 354/14/1 355/7/1 356/5/1
f 357/12/1 358/13/1 359/5/1 360/2/1
f 361/13/1 362/14/1 363/7/1 364/5/1
f 365/12/1 366/13/1 367/5/1 368/2/1
f 369/13/1 370/14/1 371/7/1 372/5/1
f 373/12/1 374/13/1 375/5/1 376/2/1
f 377/13/1 378/14/1 379/7/1 380/5/1
f 381/14/1 382/15/1 383/9/1 384/7/1
f 385/16/1 386/17/1 387/12/1 388/11/1
f 389/17/1 390/18/1 391/13/1 392/12/1
f 393/18/1 394/19/1 395/14/1 396/13/1
f 397/17/1 398/18/1 399/13/1 400/12/1
f 401/18/1 402/19/1 403/14/1 404/13/1
f 405/17/1 406/18/1 407/13/1 408/12/1
f 409/18/1 410/19/1 411/14/1 412/13/1
f 413/17/1 414/18/1 415/13/1 416/12/1
f 417/18/1 418/19/1 419/14/1 420/13/1
f 421/17/1 422/18/1 423/13/1 424/12/1
f 425/18/1 426/19/1 427/14/1 428/13/1
f 429/17/1 430/18/1 431/13/1 432/12/1
f 433/18/1 434/19/1 435/14/1 436/13/1
f 437/17/1 438/18/1 439/13/1 440/12/1
f 441/18/1 442/19/1 443/14/1 444/13/1
f 445/17/1 446/18/1 447/13/1 448/12/1
f 449/18/1 450/19/1 451/14/1 452/13/1
f 453/17/1 454/18/1 455/13/1 456/12/1
f 457/18/1 458/19/1 459/14/1 460/13/1
f 461/19/1 462/29/1 463/15/1 464/14/1
f 465/24/1 466/25/1 467/17/1 468/16/1
f 469/25/1 470/26/1 471/18/1 472/17/1
f 473/26/1 474/27/1 475/19/1 476/18/1
f 477/25/1 478/26/1 479/18/1 480/17/1
f 481/26/1 482/27/1 483/19/1 484/18/1
f 485/25/1 486/26/1 487/18/1 488/17/1
f 489/26/1 490/27/1 491/19/1 492/18/1
f 493/25/1 494/26/1 495/18/1 496/17/1
f 497/26/1 498/27/1 499/19/1 500/18/1
f 501/25/1 502/26/1 503/18/1 504/17/1
f 505/26/1 506/27/1 507/19/1 508/18/1
f 509/25/1 510/26/1 511/18/1 512/17/1
f 513/26/1 514/27/1 515/19/1 516/18/1
f 517/25/1 518/26/1 519/18/1 520/17/1
f 521/26/1 522/27/1 523/19/1 524/18/1
f 525/25/1 526/26/1 527/18/1 528/17/1
f 529/26/1 530/27/1 531/19/1 532/18/1
f 533/25/1 534/26/1 535/18/1 536/17/1
f 537/26/1 538/27/1 539/19/1 540/18/1
f 541/27/1 542/30/1 543/29/1 544/19/1

