# Tiled2Unity generated file. Do not modify by hand.
# Wavefront file for 'Level01-C_mesh_0020.obj'

# Vertices (Count = 32)
v -18 -34 0
v -19 -34 0
v -19 -33 0
v -18 -33 0
v -19 -34 0
v -20 -34 0
v -20 -33 0
v -19 -33 0
v -18 -35 0
v -19 -35 0
v -19 -34 0
v -18 -34 0
v -19 -35 0
v -20 -35 0
v -20 -34 0
v -19 -34 0
v -38 -42 0
v -39 -42 0
v -39 -41 0
v -38 -41 0
v -39 -42 0
v -40 -42 0
v -40 -41 0
v -39 -41 0
v -38 -43 0
v -39 -43 0
v -39 -42 0
v -38 -42 0
v -39 -43 0
v -40 -43 0
v -40 -42 0
v -39 -42 0

# Texture cooridinates (Count = 18)
vt 0.3125 0.21875
vt 0.34375 0.21875
vt 0.34375 0.25
vt 0.3125 0.25
vt 0.375 0.21875
vt 0.375 0.25
vt 0.3125 0.1875
vt 0.34375 0.1875
vt 0.375 0.1875
vt 0.6875 0.21875
vt 0.71875 0.21875
vt 0.71875 0.25
vt 0.6875 0.25
vt 0.75 0.21875
vt 0.75 0.25
vt 0.6875 0.1875
vt 0.71875 0.1875
vt 0.75 0.1875

# Normal
vn 0 0 -1

# Mesh description
g Level01-C_mesh_0020

# Faces
f 1/1/1 2/2/1 3/3/1 4/4/1
f 5/2/1 6/5/1 7/6/1 8/3/1
f 9/7/1 10/8/1 11/2/1 12/1/1
f 13/8/1 14/9/1 15/5/1 16/2/1
f 17/10/1 18/11/1 19/12/1 20/13/1
f 21/11/1 22/14/1 23/15/1 24/12/1
f 25/16/1 26/17/1 27/11/1 28/10/1
f 29/17/1 30/18/1 31/14/1 32/11/1

