# Tiled2Unity generated file. Do not modify by hand.
# Wavefront file for 'Level04-BOSS_mesh_0006.obj'

# Vertices (Count = 312)
v -18 -3 0
v -18.75 -3 0
v -18.75 -2.25 0
v -18 -2.25 0
v -18.75 -3 0
v -19.5 -3 0
v -19.5 -2.25 0
v -18.75 -2.25 0
v -19.5 -3 0
v -20.25 -3 0
v -20.25 -2.25 0
v -19.5 -2.25 0
v -20.25 -3 0
v -21 -3 0
v -21 -2.25 0
v -20.25 -2.25 0
v -2.25 -3.75 0
v -3 -3.75 0
v -3 -3 0
v -2.25 -3 0
v -3 -3.75 0
v -3.75 -3.75 0
v -3.75 -3 0
v -3 -3 0
v -3.75 -3.75 0
v -4.5 -3.75 0
v -4.5 -3 0
v -3.75 -3 0
v -4.5 -3.75 0
v -5.25 -3.75 0
v -5.25 -3 0
v -4.5 -3 0
v -5.25 -3.75 0
v -6 -3.75 0
v -6 -3 0
v -5.25 -3 0
v -18 -3.75 0
v -18.75 -3.75 0
v -18.75 -3 0
v -18 -3 0
v -18.75 -3.75 0
v -19.5 -3.75 0
v -19.5 -3 0
v -18.75 -3 0
v -19.5 -3.75 0
v -20.25 -3.75 0
v -20.25 -3 0
v -19.5 -3 0
v -20.25 -3.75 0
v -21 -3.75 0
v -21 -3 0
v -20.25 -3 0
v -21 -3.75 0
v -21.75 -3.75 0
v -21.75 -3 0
v -21 -3 0
v -1.5 -4.5 0
v -2.25 -4.5 0
v -2.25 -3.75 0
v -1.5 -3.75 0
v -2.25 -4.5 0
v -3 -4.5 0
v -3 -3.75 0
v -2.25 -3.75 0
v -3 -4.5 0
v -3.75 -4.5 0
v -3.75 -3.75 0
v -3 -3.75 0
v -3.75 -4.5 0
v -4.5 -4.5 0
v -4.5 -3.75 0
v -3.75 -3.75 0
v -4.5 -4.5 0
v -5.25 -4.5 0
v -5.25 -3.75 0
v -4.5 -3.75 0
v -5.25 -4.5 0
v -6 -4.5 0
v -6 -3.75 0
v -5.25 -3.75 0
v -18 -4.5 0
v -18.75 -4.5 0
v -18.75 -3.75 0
v -18 -3.75 0
v -18.75 -4.5 0
v -19.5 -4.5 0
v -19.5 -3.75 0
v -18.75 -3.75 0
v -19.5 -4.5 0
v -20.25 -4.5 0
v -20.25 -3.75 0
v -19.5 -3.75 0
v -20.25 -4.5 0
v -21 -4.5 0
v -21 -3.75 0
v -20.25 -3.75 0
v -21 -4.5 0
v -21.75 -4.5 0
v -21.75 -3.75 0
v -21 -3.75 0
v -21.75 -4.5 0
v -22.5 -4.5 0
v -22.5 -3.75 0
v -21.75 -3.75 0
v -1.5 -5.25 0
v -2.25 -5.25 0
v -2.25 -4.5 0
v -1.5 -4.5 0
v -2.25 -5.25 0
v -3 -5.25 0
v -3 -4.5 0
v -2.25 -4.5 0
v -3 -5.25 0
v -3.75 -5.25 0
v -3.75 -4.5 0
v -3 -4.5 0
v -3.75 -5.25 0
v -4.5 -5.25 0
v -4.5 -4.5 0
v -3.75 -4.5 0
v -4.5 -5.25 0
v -5.25 -5.25 0
v -5.25 -4.5 0
v -4.5 -4.5 0
v -5.25 -5.25 0
v -6 -5.25 0
v -6 -4.5 0
v -5.25 -4.5 0
v -18 -5.25 0
v -18.75 -5.25 0
v -18.75 -4.5 0
v -18 -4.5 0
v -18.75 -5.25 0
v -19.5 -5.25 0
v -19.5 -4.5 0
v -18.75 -4.5 0
v -19.5 -5.25 0
v -20.25 -5.25 0
v -20.25 -4.5 0
v -19.5 -4.5 0
v -20.25 -5.25 0
v -21 -5.25 0
v -21 -4.5 0
v -20.25 -4.5 0
v -21 -5.25 0
v -21.75 -5.25 0
v -21.75 -4.5 0
v -21 -4.5 0
v -21.75 -5.25 0
v -22.5 -5.25 0
v -22.5 -4.5 0
v -21.75 -4.5 0
v -1.5 -6 0
v -2.25 -6 0
v -2.25 -5.25 0
v -1.5 -5.25 0
v -2.25 -6 0
v -3 -6 0
v -3 -5.25 0
v -2.25 -5.25 0
v -3 -6 0
v -3.75 -6 0
v -3.75 -5.25 0
v -3 -5.25 0
v -3.75 -6 0
v -4.5 -6 0
v -4.5 -5.25 0
v -3.75 -5.25 0
v -4.5 -6 0
v -5.25 -6 0
v -5.25 -5.25 0
v -4.5 -5.25 0
v -5.25 -6 0
v -6 -6 0
v -6 -5.25 0
v -5.25 -5.25 0
v -18 -6 0
v -18.75 -6 0
v -18.75 -5.25 0
v -18 -5.25 0
v -18.75 -6 0
v -19.5 -6 0
v -19.5 -5.25 0
v -18.75 -5.25 0
v -19.5 -6 0
v -20.25 -6 0
v -20.25 -5.25 0
v -19.5 -5.25 0
v -20.25 -6 0
v -21 -6 0
v -21 -5.25 0
v -20.25 -5.25 0
v -21 -6 0
v -21.75 -6 0
v -21.75 -5.25 0
v -21 -5.25 0
v -21.75 -6 0
v -22.5 -6 0
v -22.5 -5.25 0
v -21.75 -5.25 0
v -1.5 -6.75 0
v -2.25 -6.75 0
v -2.25 -6 0
v -1.5 -6 0
v -2.25 -6.75 0
v -3 -6.75 0
v -3 -6 0
v -2.25 -6 0
v -3 -6.75 0
v -3.75 -6.75 0
v -3.75 -6 0
v -3 -6 0
v -3.75 -6.75 0
v -4.5 -6.75 0
v -4.5 -6 0
v -3.75 -6 0
v -4.5 -6.75 0
v -5.25 -6.75 0
v -5.25 -6 0
v -4.5 -6 0
v -5.25 -6.75 0
v -6 -6.75 0
v -6 -6 0
v -5.25 -6 0
v -18 -6.75 0
v -18.75 -6.75 0
v -18.75 -6 0
v -18 -6 0
v -18.75 -6.75 0
v -19.5 -6.75 0
v -19.5 -6 0
v -18.75 -6 0
v -19.5 -6.75 0
v -20.25 -6.75 0
v -20.25 -6 0
v -19.5 -6 0
v -20.25 -6.75 0
v -21 -6.75 0
v -21 -6 0
v -20.25 -6 0
v -21 -6.75 0
v -21.75 -6.75 0
v -21.75 -6 0
v -21 -6 0
v -21.75 -6.75 0
v -22.5 -6.75 0
v -22.5 -6 0
v -21.75 -6 0
v -1.5 -7.5 0
v -2.25 -7.5 0
v -2.25 -6.75 0
v -1.5 -6.75 0
v -2.25 -7.5 0
v -3 -7.5 0
v -3 -6.75 0
v -2.25 -6.75 0
v -3 -7.5 0
v -3.75 -7.5 0
v -3.75 -6.75 0
v -3 -6.75 0
v -3.75 -7.5 0
v -4.5 -7.5 0
v -4.5 -6.75 0
v -3.75 -6.75 0
v -4.5 -7.5 0
v -5.25 -7.5 0
v -5.25 -6.75 0
v -4.5 -6.75 0
v -5.25 -7.5 0
v -6 -7.5 0
v -6 -6.75 0
v -5.25 -6.75 0
v -18 -7.5 0
v -18.75 -7.5 0
v -18.75 -6.75 0
v -18 -6.75 0
v -18.75 -7.5 0
v -19.5 -7.5 0
v -19.5 -6.75 0
v -18.75 -6.75 0
v -19.5 -7.5 0
v -20.25 -7.5 0
v -20.25 -6.75 0
v -19.5 -6.75 0
v -20.25 -7.5 0
v -21 -7.5 0
v -21 -6.75 0
v -20.25 -6.75 0
v -21 -7.5 0
v -21.75 -7.5 0
v -21.75 -6.75 0
v -21 -6.75 0
v -21.75 -7.5 0
v -22.5 -7.5 0
v -22.5 -6.75 0
v -21.75 -6.75 0
v -1.5 -8.25 0
v -2.25 -8.25 0
v -2.25 -7.5 0
v -1.5 -7.5 0
v -2.25 -8.25 0
v -3 -8.25 0
v -3 -7.5 0
v -2.25 -7.5 0
v -21 -8.25 0
v -21.75 -8.25 0
v -21.75 -7.5 0
v -21 -7.5 0
v -21.75 -8.25 0
v -22.5 -8.25 0
v -22.5 -7.5 0
v -21.75 -7.5 0

# Texture cooridinates (Count = 35)
vt 0.875 0.7333333
vt 0.90625 0.7333333
vt 0.90625 0.7666667
vt 0.875 0.7666667
vt 0.9375 0.7333333
vt 0.9375 0.7666667
vt 0.96875 0.7333333
vt 0.96875 0.7666667
vt 1 0.7333333
vt 1 0.7666667
vt 0.875 0.1
vt 0.90625 0.1
vt 0.90625 0.1333333
vt 0.875 0.1333333
vt 0.9375 0.1
vt 0.9375 0.1333333
vt 0.96875 0.1
vt 0.96875 0.1333333
vt 1 0.1
vt 1 0.1333333
vt 0.90625 0.06666667
vt 0.9375 0.06666667
vt 0.96875 0.06666667
vt 0.875 0.06666667
vt 1 0.06666667
vt 0.90625 0.03333334
vt 0.9375 0.03333334
vt 0.96875 0.03333334
vt 0.875 0.03333334
vt 1 0.03333334
vt 0.90625 0
vt 0.9375 0
vt 0.96875 0
vt 0.875 0
vt 1 0

# Normal
vn 0 0 -1

# Mesh description
g Level04-BOSS_mesh_0006

# Faces
f 1/1/1 2/2/1 3/3/1 4/4/1
f 5/2/1 6/5/1 7/6/1 8/3/1
f 9/5/1 10/7/1 11/8/1 12/6/1
f 13/2/1 14/5/1 15/6/1 16/3/1
f 17/7/1 18/9/1 19/10/1 20/8/1
f 21/11/1 22/12/1 23/13/1 24/14/1
f 25/12/1 26/15/1 27/16/1 28/13/1
f 29/15/1 30/17/1 31/18/1 32/16/1
f 33/17/1 34/19/1 35/20/1 36/18/1
f 37/11/1 38/12/1 39/13/1 40/14/1
f 41/12/1 42/15/1 43/16/1 44/13/1
f 45/15/1 46/17/1 47/18/1 48/16/1
f 49/12/1 50/15/1 51/16/1 52/13/1
f 53/1/1 54/2/1 55/3/1 56/4/1
f 57/15/1 58/17/1 59/18/1 60/16/1
f 61/17/1 62/19/1 63/20/1 64/18/1
f 65/21/1 66/22/1 67/15/1 68/12/1
f 69/22/1 70/23/1 71/17/1 72/15/1
f 73/21/1 74/22/1 75/15/1 76/12/1
f 77/22/1 78/23/1 79/17/1 80/15/1
f 81/24/1 82/21/1 83/12/1 84/11/1
f 85/21/1 86/22/1 87/15/1 88/12/1
f 89/22/1 90/23/1 91/17/1 92/15/1
f 93/21/1 94/22/1 95/15/1 96/12/1
f 97/11/1 98/12/1 99/13/1 100/14/1
f 101/12/1 102/15/1 103/16/1 104/13/1
f 105/22/1 106/23/1 107/17/1 108/15/1
f 109/23/1 110/25/1 111/19/1 112/17/1
f 113/26/1 114/27/1 115/22/1 116/21/1
f 117/27/1 118/28/1 119/23/1 120/22/1
f 121/26/1 122/27/1 123/22/1 124/21/1
f 125/27/1 126/28/1 127/23/1 128/22/1
f 129/29/1 130/26/1 131/21/1 132/24/1
f 133/26/1 134/27/1 135/22/1 136/21/1
f 137/27/1 138/28/1 139/23/1 140/22/1
f 141/26/1 142/27/1 143/22/1 144/21/1
f 145/24/1 146/21/1 147/12/1 148/11/1
f 149/21/1 150/22/1 151/15/1 152/12/1
f 153/27/1 154/28/1 155/23/1 156/22/1
f 157/28/1 158/30/1 159/25/1 160/23/1
f 161/21/1 162/22/1 163/15/1 164/12/1
f 165/22/1 166/23/1 167/17/1 168/15/1
f 169/21/1 170/22/1 171/15/1 172/12/1
f 173/22/1 174/23/1 175/17/1 176/15/1
f 177/24/1 178/21/1 179/12/1 180/11/1
f 181/21/1 182/22/1 183/15/1 184/12/1
f 185/22/1 186/23/1 187/17/1 188/15/1
f 189/21/1 190/22/1 191/15/1 192/12/1
f 193/29/1 194/26/1 195/21/1 196/24/1
f 197/26/1 198/27/1 199/22/1 200/21/1
f 201/22/1 202/23/1 203/17/1 204/15/1
f 205/23/1 206/25/1 207/19/1 208/17/1
f 209/26/1 210/27/1 211/22/1 212/21/1
f 213/27/1 214/28/1 215/23/1 216/22/1
f 217/26/1 218/27/1 219/22/1 220/21/1
f 221/27/1 222/28/1 223/23/1 224/22/1
f 225/29/1 226/26/1 227/21/1 228/24/1
f 229/26/1 230/27/1 231/22/1 232/21/1
f 233/27/1 234/28/1 235/23/1 236/22/1
f 237/26/1 238/27/1 239/22/1 240/21/1
f 241/24/1 242/21/1 243/12/1 244/11/1
f 245/21/1 246/22/1 247/15/1 248/12/1
f 249/27/1 250/28/1 251/23/1 252/22/1
f 253/28/1 254/30/1 255/25/1 256/23/1
f 257/31/1 258/32/1 259/27/1 260/26/1
f 261/32/1 262/33/1 263/28/1 264/27/1
f 265/31/1 266/32/1 267/27/1 268/26/1
f 269/32/1 270/33/1 271/28/1 272/27/1
f 273/34/1 274/31/1 275/26/1 276/29/1
f 277/31/1 278/32/1 279/27/1 280/26/1
f 281/32/1 282/33/1 283/28/1 284/27/1
f 285/31/1 286/32/1 287/27/1 288/26/1
f 289/29/1 290/26/1 291/21/1 292/24/1
f 293/26/1 294/27/1 295/22/1 296/21/1
f 297/32/1 298/33/1 299/28/1 300/27/1
f 301/33/1 302/35/1 303/30/1 304/28/1
f 305/34/1 306/31/1 307/26/1 308/29/1
f 309/31/1 310/32/1 311/27/1 312/26/1

