# Tiled2Unity generated file. Do not modify by hand.
# Wavefront file for 'Level04-BOSS_mesh_0005.obj'

# Vertices (Count = 384)
v -6 -2.25 0
v -6.75 -2.25 0
v -6.75 -1.5 0
v -6 -1.5 0
v -6.75 -2.25 0
v -7.5 -2.25 0
v -7.5 -1.5 0
v -6.75 -1.5 0
v -7.5 -2.25 0
v -8.25 -2.25 0
v -8.25 -1.5 0
v -7.5 -1.5 0
v -8.25 -2.25 0
v -9 -2.25 0
v -9 -1.5 0
v -8.25 -1.5 0
v -9 -2.25 0
v -9.75 -2.25 0
v -9.75 -1.5 0
v -9 -1.5 0
v -9.75 -2.25 0
v -10.5 -2.25 0
v -10.5 -1.5 0
v -9.75 -1.5 0
v -10.5 -2.25 0
v -11.25 -2.25 0
v -11.25 -1.5 0
v -10.5 -1.5 0
v -11.25 -2.25 0
v -12 -2.25 0
v -12 -1.5 0
v -11.25 -1.5 0
v -12 -2.25 0
v -12.75 -2.25 0
v -12.75 -1.5 0
v -12 -1.5 0
v -12.75 -2.25 0
v -13.5 -2.25 0
v -13.5 -1.5 0
v -12.75 -1.5 0
v -13.5 -2.25 0
v -14.25 -2.25 0
v -14.25 -1.5 0
v -13.5 -1.5 0
v -14.25 -2.25 0
v -15 -2.25 0
v -15 -1.5 0
v -14.25 -1.5 0
v -15 -2.25 0
v -15.75 -2.25 0
v -15.75 -1.5 0
v -15 -1.5 0
v -15.75 -2.25 0
v -16.5 -2.25 0
v -16.5 -1.5 0
v -15.75 -1.5 0
v -16.5 -2.25 0
v -17.25 -2.25 0
v -17.25 -1.5 0
v -16.5 -1.5 0
v -17.25 -2.25 0
v -18 -2.25 0
v -18 -1.5 0
v -17.25 -1.5 0
v -6 -3 0
v -6.75 -3 0
v -6.75 -2.25 0
v -6 -2.25 0
v -6.75 -3 0
v -7.5 -3 0
v -7.5 -2.25 0
v -6.75 -2.25 0
v -7.5 -3 0
v -8.25 -3 0
v -8.25 -2.25 0
v -7.5 -2.25 0
v -8.25 -3 0
v -9 -3 0
v -9 -2.25 0
v -8.25 -2.25 0
v -9 -3 0
v -9.75 -3 0
v -9.75 -2.25 0
v -9 -2.25 0
v -9.75 -3 0
v -10.5 -3 0
v -10.5 -2.25 0
v -9.75 -2.25 0
v -10.5 -3 0
v -11.25 -3 0
v -11.25 -2.25 0
v -10.5 -2.25 0
v -11.25 -3 0
v -12 -3 0
v -12 -2.25 0
v -11.25 -2.25 0
v -12 -3 0
v -12.75 -3 0
v -12.75 -2.25 0
v -12 -2.25 0
v -12.75 -3 0
v -13.5 -3 0
v -13.5 -2.25 0
v -12.75 -2.25 0
v -13.5 -3 0
v -14.25 -3 0
v -14.25 -2.25 0
v -13.5 -2.25 0
v -14.25 -3 0
v -15 -3 0
v -15 -2.25 0
v -14.25 -2.25 0
v -15 -3 0
v -15.75 -3 0
v -15.75 -2.25 0
v -15 -2.25 0
v -15.75 -3 0
v -16.5 -3 0
v -16.5 -2.25 0
v -15.75 -2.25 0
v -16.5 -3 0
v -17.25 -3 0
v -17.25 -2.25 0
v -16.5 -2.25 0
v -17.25 -3 0
v -18 -3 0
v -18 -2.25 0
v -17.25 -2.25 0
v -6 -3.75 0
v -6.75 -3.75 0
v -6.75 -3 0
v -6 -3 0
v -6.75 -3.75 0
v -7.5 -3.75 0
v -7.5 -3 0
v -6.75 -3 0
v -7.5 -3.75 0
v -8.25 -3.75 0
v -8.25 -3 0
v -7.5 -3 0
v -8.25 -3.75 0
v -9 -3.75 0
v -9 -3 0
v -8.25 -3 0
v -9 -3.75 0
v -9.75 -3.75 0
v -9.75 -3 0
v -9 -3 0
v -9.75 -3.75 0
v -10.5 -3.75 0
v -10.5 -3 0
v -9.75 -3 0
v -10.5 -3.75 0
v -11.25 -3.75 0
v -11.25 -3 0
v -10.5 -3 0
v -11.25 -3.75 0
v -12 -3.75 0
v -12 -3 0
v -11.25 -3 0
v -12 -3.75 0
v -12.75 -3.75 0
v -12.75 -3 0
v -12 -3 0
v -12.75 -3.75 0
v -13.5 -3.75 0
v -13.5 -3 0
v -12.75 -3 0
v -13.5 -3.75 0
v -14.25 -3.75 0
v -14.25 -3 0
v -13.5 -3 0
v -14.25 -3.75 0
v -15 -3.75 0
v -15 -3 0
v -14.25 -3 0
v -15 -3.75 0
v -15.75 -3.75 0
v -15.75 -3 0
v -15 -3 0
v -15.75 -3.75 0
v -16.5 -3.75 0
v -16.5 -3 0
v -15.75 -3 0
v -16.5 -3.75 0
v -17.25 -3.75 0
v -17.25 -3 0
v -16.5 -3 0
v -17.25 -3.75 0
v -18 -3.75 0
v -18 -3 0
v -17.25 -3 0
v -6 -4.5 0
v -6.75 -4.5 0
v -6.75 -3.75 0
v -6 -3.75 0
v -6.75 -4.5 0
v -7.5 -4.5 0
v -7.5 -3.75 0
v -6.75 -3.75 0
v -7.5 -4.5 0
v -8.25 -4.5 0
v -8.25 -3.75 0
v -7.5 -3.75 0
v -8.25 -4.5 0
v -9 -4.5 0
v -9 -3.75 0
v -8.25 -3.75 0
v -9 -4.5 0
v -9.75 -4.5 0
v -9.75 -3.75 0
v -9 -3.75 0
v -9.75 -4.5 0
v -10.5 -4.5 0
v -10.5 -3.75 0
v -9.75 -3.75 0
v -10.5 -4.5 0
v -11.25 -4.5 0
v -11.25 -3.75 0
v -10.5 -3.75 0
v -11.25 -4.5 0
v -12 -4.5 0
v -12 -3.75 0
v -11.25 -3.75 0
v -12 -4.5 0
v -12.75 -4.5 0
v -12.75 -3.75 0
v -12 -3.75 0
v -12.75 -4.5 0
v -13.5 -4.5 0
v -13.5 -3.75 0
v -12.75 -3.75 0
v -13.5 -4.5 0
v -14.25 -4.5 0
v -14.25 -3.75 0
v -13.5 -3.75 0
v -14.25 -4.5 0
v -15 -4.5 0
v -15 -3.75 0
v -14.25 -3.75 0
v -15 -4.5 0
v -15.75 -4.5 0
v -15.75 -3.75 0
v -15 -3.75 0
v -15.75 -4.5 0
v -16.5 -4.5 0
v -16.5 -3.75 0
v -15.75 -3.75 0
v -16.5 -4.5 0
v -17.25 -4.5 0
v -17.25 -3.75 0
v -16.5 -3.75 0
v -17.25 -4.5 0
v -18 -4.5 0
v -18 -3.75 0
v -17.25 -3.75 0
v -6 -8.25 0
v -6.75 -8.25 0
v -6.75 -7.5 0
v -6 -7.5 0
v -17.25 -8.25 0
v -18 -8.25 0
v -18 -7.5 0
v -17.25 -7.5 0
v -6 -9 0
v -6.75 -9 0
v -6.75 -8.25 0
v -6 -8.25 0
v -6.75 -9 0
v -7.5 -9 0
v -7.5 -8.25 0
v -6.75 -8.25 0
v -16.5 -9 0
v -17.25 -9 0
v -17.25 -8.25 0
v -16.5 -8.25 0
v -17.25 -9 0
v -18 -9 0
v -18 -8.25 0
v -17.25 -8.25 0
v -6.75 -9.75 0
v -7.5 -9.75 0
v -7.5 -9 0
v -6.75 -9 0
v -7.5 -9.75 0
v -8.25 -9.75 0
v -8.25 -9 0
v -7.5 -9 0
v -8.25 -9.75 0
v -9 -9.75 0
v -9 -9 0
v -8.25 -9 0
v -15 -9.75 0
v -15.75 -9.75 0
v -15.75 -9 0
v -15 -9 0
v -15.75 -9.75 0
v -16.5 -9.75 0
v -16.5 -9 0
v -15.75 -9 0
v -16.5 -9.75 0
v -17.25 -9.75 0
v -17.25 -9 0
v -16.5 -9 0
v -7.5 -10.5 0
v -8.25 -10.5 0
v -8.25 -9.75 0
v -7.5 -9.75 0
v -8.25 -10.5 0
v -9 -10.5 0
v -9 -9.75 0
v -8.25 -9.75 0
v -9 -10.5 0
v -9.75 -10.5 0
v -9.75 -9.75 0
v -9 -9.75 0
v -9.75 -10.5 0
v -10.5 -10.5 0
v -10.5 -9.75 0
v -9.75 -9.75 0
v -13.5 -10.5 0
v -14.25 -10.5 0
v -14.25 -9.75 0
v -13.5 -9.75 0
v -14.25 -10.5 0
v -15 -10.5 0
v -15 -9.75 0
v -14.25 -9.75 0
v -15 -10.5 0
v -15.75 -10.5 0
v -15.75 -9.75 0
v -15 -9.75 0
v -15.75 -10.5 0
v -16.5 -10.5 0
v -16.5 -9.75 0
v -15.75 -9.75 0
v -9 -11.25 0
v -9.75 -11.25 0
v -9.75 -10.5 0
v -9 -10.5 0
v -9.75 -11.25 0
v -10.5 -11.25 0
v -10.5 -10.5 0
v -9.75 -10.5 0
v -10.5 -11.25 0
v -11.25 -11.25 0
v -11.25 -10.5 0
v -10.5 -10.5 0
v -11.25 -11.25 0
v -12 -11.25 0
v -12 -10.5 0
v -11.25 -10.5 0
v -12 -11.25 0
v -12.75 -11.25 0
v -12.75 -10.5 0
v -12 -10.5 0
v -12.75 -11.25 0
v -13.5 -11.25 0
v -13.5 -10.5 0
v -12.75 -10.5 0
v -13.5 -11.25 0
v -14.25 -11.25 0
v -14.25 -10.5 0
v -13.5 -10.5 0
v -14.25 -11.25 0
v -15 -11.25 0
v -15 -10.5 0
v -14.25 -10.5 0
v -10.5 -12 0
v -11.25 -12 0
v -11.25 -11.25 0
v -10.5 -11.25 0
v -11.25 -12 0
v -12 -12 0
v -12 -11.25 0
v -11.25 -11.25 0
v -12 -12 0
v -12.75 -12 0
v -12.75 -11.25 0
v -12 -11.25 0
v -12.75 -12 0
v -13.5 -12 0
v -13.5 -11.25 0
v -12.75 -11.25 0

# Texture cooridinates (Count = 25)
vt 0.25 0.1
vt 0.28125 0.1
vt 0.28125 0.1333333
vt 0.25 0.1333333
vt 0.3125 0.1
vt 0.3125 0.1333333
vt 0.34375 0.1
vt 0.34375 0.1333333
vt 0.375 0.1
vt 0.375 0.1333333
vt 0.25 0.06666667
vt 0.28125 0.06666667
vt 0.3125 0.06666667
vt 0.34375 0.06666667
vt 0.375 0.06666667
vt 0.25 0.03333334
vt 0.28125 0.03333334
vt 0.3125 0.03333334
vt 0.34375 0.03333334
vt 0.375 0.03333334
vt 0.25 0
vt 0.28125 0
vt 0.3125 0
vt 0.34375 0
vt 0.375 0

# Normal
vn 0 0 -1

# Mesh description
g Level04-BOSS_mesh_0005

# Faces
f 1/1/1 2/2/1 3/3/1 4/4/1
f 5/2/1 6/5/1 7/6/1 8/3/1
f 9/5/1 10/7/1 11/8/1 12/6/1
f 13/2/1 14/5/1 15/6/1 16/3/1
f 17/5/1 18/7/1 19/8/1 20/6/1
f 21/2/1 22/5/1 23/6/1 24/3/1
f 25/5/1 26/7/1 27/8/1 28/6/1
f 29/2/1 30/5/1 31/6/1 32/3/1
f 33/5/1 34/7/1 35/8/1 36/6/1
f 37/2/1 38/5/1 39/6/1 40/3/1
f 41/5/1 42/7/1 43/8/1 44/6/1
f 45/2/1 46/5/1 47/6/1 48/3/1
f 49/5/1 50/7/1 51/8/1 52/6/1
f 53/2/1 54/5/1 55/6/1 56/3/1
f 57/5/1 58/7/1 59/8/1 60/6/1
f 61/7/1 62/9/1 63/10/1 64/8/1
f 65/11/1 66/12/1 67/2/1 68/1/1
f 69/12/1 70/13/1 71/5/1 72/2/1
f 73/13/1 74/14/1 75/7/1 76/5/1
f 77/12/1 78/13/1 79/5/1 80/2/1
f 81/13/1 82/14/1 83/7/1 84/5/1
f 85/12/1 86/13/1 87/5/1 88/2/1
f 89/13/1 90/14/1 91/7/1 92/5/1
f 93/12/1 94/13/1 95/5/1 96/2/1
f 97/13/1 98/14/1 99/7/1 100/5/1
f 101/12/1 102/13/1 103/5/1 104/2/1
f 105/13/1 106/14/1 107/7/1 108/5/1
f 109/12/1 110/13/1 111/5/1 112/2/1
f 113/13/1 114/14/1 115/7/1 116/5/1
f 117/12/1 118/13/1 119/5/1 120/2/1
f 121/13/1 122/14/1 123/7/1 124/5/1
f 125/14/1 126/15/1 127/9/1 128/7/1
f 129/16/1 130/17/1 131/12/1 132/11/1
f 133/17/1 134/18/1 135/13/1 136/12/1
f 137/18/1 138/19/1 139/14/1 140/13/1
f 141/17/1 142/18/1 143/13/1 144/12/1
f 145/18/1 146/19/1 147/14/1 148/13/1
f 149/17/1 150/18/1 151/13/1 152/12/1
f 153/18/1 154/19/1 155/14/1 156/13/1
f 157/17/1 158/18/1 159/13/1 160/12/1
f 161/18/1 162/19/1 163/14/1 164/13/1
f 165/17/1 166/18/1 167/13/1 168/12/1
f 169/18/1 170/19/1 171/14/1 172/13/1
f 173/17/1 174/18/1 175/13/1 176/12/1
f 177/18/1 178/19/1 179/14/1 180/13/1
f 181/17/1 182/18/1 183/13/1 184/12/1
f 185/18/1 186/19/1 187/14/1 188/13/1
f 189/19/1 190/20/1 191/15/1 192/14/1
f 193/21/1 194/22/1 195/17/1 196/16/1
f 197/22/1 198/23/1 199/18/1 200/17/1
f 201/23/1 202/24/1 203/19/1 204/18/1
f 205/22/1 206/23/1 207/18/1 208/17/1
f 209/23/1 210/24/1 211/19/1 212/18/1
f 213/22/1 214/23/1 215/18/1 216/17/1
f 217/23/1 218/24/1 219/19/1 220/18/1
f 221/22/1 222/23/1 223/18/1 224/17/1
f 225/23/1 226/24/1 227/19/1 228/18/1
f 229/22/1 230/23/1 231/18/1 232/17/1
f 233/23/1 234/24/1 235/19/1 236/18/1
f 237/22/1 238/23/1 239/18/1 240/17/1
f 241/23/1 242/24/1 243/19/1 244/18/1
f 245/22/1 246/23/1 247/18/1 248/17/1
f 249/23/1 250/24/1 251/19/1 252/18/1
f 253/24/1 254/25/1 255/20/1 256/19/1
f 257/1/1 258/2/1 259/3/1 260/4/1
f 261/7/1 262/9/1 263/10/1 264/8/1
f 265/21/1 266/22/1 267/17/1 268/16/1
f 269/1/1 270/2/1 271/3/1 272/4/1
f 273/7/1 274/9/1 275/10/1 276/8/1
f 277/24/1 278/25/1 279/20/1 280/19/1
f 281/21/1 282/22/1 283/17/1 284/16/1
f 285/1/1 286/2/1 287/3/1 288/4/1
f 289/2/1 290/5/1 291/6/1 292/3/1
f 293/5/1 294/7/1 295/8/1 296/6/1
f 297/7/1 298/9/1 299/10/1 300/8/1
f 301/24/1 302/25/1 303/20/1 304/19/1
f 305/21/1 306/22/1 307/17/1 308/16/1
f 309/22/1 310/23/1 311/18/1 312/17/1
f 313/1/1 314/2/1 315/3/1 316/4/1
f 317/2/1 318/5/1 319/6/1 320/3/1
f 321/5/1 322/7/1 323/8/1 324/6/1
f 325/7/1 326/9/1 327/10/1 328/8/1
f 329/23/1 330/24/1 331/19/1 332/18/1
f 333/24/1 334/25/1 335/20/1 336/19/1
f 337/21/1 338/22/1 339/17/1 340/16/1
f 341/22/1 342/23/1 343/18/1 344/17/1
f 345/1/1 346/2/1 347/3/1 348/4/1
f 349/2/1 350/5/1 351/6/1 352/3/1
f 353/5/1 354/7/1 355/8/1 356/6/1
f 357/7/1 358/9/1 359/10/1 360/8/1
f 361/23/1 362/24/1 363/19/1 364/18/1
f 365/24/1 366/25/1 367/20/1 368/19/1
f 369/21/1 370/22/1 371/17/1 372/16/1
f 373/22/1 374/23/1 375/18/1 376/17/1
f 377/23/1 378/24/1 379/19/1 380/18/1
f 381/24/1 382/25/1 383/20/1 384/19/1

