# Tiled2Unity generated file. Do not modify by hand.
# Wavefront file for 'Level04-BOSS_mesh_0008.obj'

# Vertices (Count = 144)
v -3 -4.5 0
v -3.75 -4.5 0
v -3.75 -3.75 0
v -3 -3.75 0
v -3.75 -4.5 0
v -4.5 -4.5 0
v -4.5 -3.75 0
v -3.75 -3.75 0
v -4.5 -4.5 0
v -5.25 -4.5 0
v -5.25 -3.75 0
v -4.5 -3.75 0
v -5.25 -4.5 0
v -6 -4.5 0
v -6 -3.75 0
v -5.25 -3.75 0
v -21 -4.5 0
v -21.75 -4.5 0
v -21.75 -3.75 0
v -21 -3.75 0
v -21.75 -4.5 0
v -22.5 -4.5 0
v -22.5 -3.75 0
v -21.75 -3.75 0
v -1.5 -5.25 0
v -2.25 -5.25 0
v -2.25 -4.5 0
v -1.5 -4.5 0
v -3 -5.25 0
v -3.75 -5.25 0
v -3.75 -4.5 0
v -3 -4.5 0
v -3.75 -5.25 0
v -4.5 -5.25 0
v -4.5 -4.5 0
v -3.75 -4.5 0
v -4.5 -5.25 0
v -5.25 -5.25 0
v -5.25 -4.5 0
v -4.5 -4.5 0
v -5.25 -5.25 0
v -6 -5.25 0
v -6 -4.5 0
v -5.25 -4.5 0
v -18 -5.25 0
v -18.75 -5.25 0
v -18.75 -4.5 0
v -18 -4.5 0
v -18.75 -5.25 0
v -19.5 -5.25 0
v -19.5 -4.5 0
v -18.75 -4.5 0
v -21 -5.25 0
v -21.75 -5.25 0
v -21.75 -4.5 0
v -21 -4.5 0
v -21.75 -5.25 0
v -22.5 -5.25 0
v -22.5 -4.5 0
v -21.75 -4.5 0
v -1.5 -6 0
v -2.25 -6 0
v -2.25 -5.25 0
v -1.5 -5.25 0
v -3 -6 0
v -3.75 -6 0
v -3.75 -5.25 0
v -3 -5.25 0
v -3.75 -6 0
v -4.5 -6 0
v -4.5 -5.25 0
v -3.75 -5.25 0
v -4.5 -6 0
v -5.25 -6 0
v -5.25 -5.25 0
v -4.5 -5.25 0
v -5.25 -6 0
v -6 -6 0
v -6 -5.25 0
v -5.25 -5.25 0
v -18 -6 0
v -18.75 -6 0
v -18.75 -5.25 0
v -18 -5.25 0
v -18.75 -6 0
v -19.5 -6 0
v -19.5 -5.25 0
v -18.75 -5.25 0
v -21 -6 0
v -21.75 -6 0
v -21.75 -5.25 0
v -21 -5.25 0
v -21.75 -6 0
v -22.5 -6 0
v -22.5 -5.25 0
v -21.75 -5.25 0
v -1.5 -6.75 0
v -2.25 -6.75 0
v -2.25 -6 0
v -1.5 -6 0
v -3 -6.75 0
v -3.75 -6.75 0
v -3.75 -6 0
v -3 -6 0
v -3.75 -6.75 0
v -4.5 -6.75 0
v -4.5 -6 0
v -3.75 -6 0
v -4.5 -6.75 0
v -5.25 -6.75 0
v -5.25 -6 0
v -4.5 -6 0
v -5.25 -6.75 0
v -6 -6.75 0
v -6 -6 0
v -5.25 -6 0
v -19.5 -6.75 0
v -20.25 -6.75 0
v -20.25 -6 0
v -19.5 -6 0
v -20.25 -6.75 0
v -21 -6.75 0
v -21 -6 0
v -20.25 -6 0
v -21 -6.75 0
v -21.75 -6.75 0
v -21.75 -6 0
v -21 -6 0
v -21.75 -6.75 0
v -22.5 -6.75 0
v -22.5 -6 0
v -21.75 -6 0
v -1.5 -7.5 0
v -2.25 -7.5 0
v -2.25 -6.75 0
v -1.5 -6.75 0
v -19.5 -7.5 0
v -20.25 -7.5 0
v -20.25 -6.75 0
v -19.5 -6.75 0
v -20.25 -7.5 0
v -21 -7.5 0
v -21 -6.75 0
v -20.25 -6.75 0

# Texture cooridinates (Count = 35)
vt 0.625 0.03125
vt 0.59375 0.03125
vt 0.59375 0
vt 0.625 0
vt 0.5625 0.03125
vt 0.5625 0
vt 0.53125 0.03125
vt 0.53125 0
vt 0.5 0.03125
vt 0.5 0
vt 0.53125 0.0625
vt 0.5 0.0625
vt 0.59375 0.09375
vt 0.625 0.09375
vt 0.625 0.125
vt 0.59375 0.125
vt 0.625 0.0625
vt 0.59375 0.0625
vt 0.5625 0.0625
vt 0.65625 0.09375
vt 0.65625 0.125
vt 0.6875 0.09375
vt 0.6875 0.125
vt 0.5625 0.09375
vt 0.53125 0.09375
vt 0.5 0.09375
vt 0.65625 0.0625
vt 0.6875 0.0625
vt 0.5625 0.125
vt 0.53125 0.125
vt 0.5 0.125
vt 0.65625 0.03125
vt 0.6875 0.03125
vt 0.65625 0
vt 0.6875 0

# Normal
vn 0 0 -1

# Mesh description
g Level04-BOSS_mesh_0008

# Faces
f 1/1/1 2/2/1 3/3/1 4/4/1
f 5/2/1 6/5/1 7/6/1 8/3/1
f 9/5/1 10/7/1 11/8/1 12/6/1
f 13/7/1 14/9/1 15/10/1 16/8/1
f 17/8/1 18/7/1 19/9/1 20/10/1
f 21/7/1 22/11/1 23/12/1 24/9/1
f 25/13/1 26/14/1 27/15/1 28/16/1
f 29/17/1 30/18/1 31/2/1 32/1/1
f 33/18/1 34/19/1 35/5/1 36/2/1
f 37/19/1 38/11/1 39/7/1 40/5/1
f 41/11/1 42/12/1 43/9/1 44/7/1
f 45/14/1 46/20/1 47/21/1 48/15/1
f 49/20/1 50/22/1 51/23/1 52/21/1
f 53/6/1 54/5/1 55/7/1 56/8/1
f 57/5/1 58/19/1 59/11/1 60/7/1
f 61/18/1 62/17/1 63/14/1 64/13/1
f 65/14/1 66/13/1 67/18/1 68/17/1
f 69/13/1 70/24/1 71/19/1 72/18/1
f 73/24/1 74/25/1 75/11/1 76/19/1
f 77/25/1 78/26/1 79/12/1 80/11/1
f 81/17/1 82/27/1 83/20/1 84/14/1
f 85/27/1 86/28/1 87/22/1 88/20/1
f 89/3/1 90/2/1 91/5/1 92/6/1
f 93/2/1 94/18/1 95/19/1 96/5/1
f 97/2/1 98/1/1 99/17/1 100/18/1
f 101/15/1 102/16/1 103/13/1 104/14/1
f 105/16/1 106/29/1 107/24/1 108/13/1
f 109/29/1 110/30/1 111/25/1 112/24/1
f 113/30/1 114/31/1 115/26/1 116/25/1
f 117/1/1 118/32/1 119/27/1 120/17/1
f 121/32/1 122/33/1 123/28/1 124/27/1
f 125/4/1 126/1/1 127/2/1 128/3/1
f 129/1/1 130/17/1 131/18/1 132/2/1
f 133/3/1 134/4/1 135/1/1 136/2/1
f 137/4/1 138/34/1 139/32/1 140/1/1
f 141/34/1 142/35/1 143/33/1 144/32/1

